<?xml version="1.0" encoding="UTF-8" standalone="no"?>
<!DOCTYPE svg PUBLIC "-//W3C//DTD SVG 1.1//EN" "http://www.w3.org/Graphics/SVG/1.1/DTD/svg11.dtd">
<!-- Created with Vectornator (http://vectornator.io/) -->
<svg height="100%" stroke-miterlimit="10" style="fill-rule:nonzero;clip-rule:evenodd;stroke-linecap:round;stroke-linejoin:round;" version="1.1" viewBox="0 0 144 144" width="100%" xml:space="preserve" xmlns="http://www.w3.org/2000/svg" xmlns:xlink="http://www.w3.org/1999/xlink">
<defs>
<clipPath id="TextBounds">
<rect height="27.4373" width="144" x="0" y="116.563"/>
</clipPath>
<g id="Fill">
<path clip-path="url(#TextBounds)" d="M15.156 127.875C15.028 127.379 14.852 126.923 14.628 126.507C14.404 126.091 14.116 125.731 13.764 125.427C13.412 125.123 13 124.887 12.528 124.719C12.056 124.551 11.508 124.467 10.884 124.467C9.972 124.467 9.184 124.651 8.52 125.019C7.856 125.387 7.316 125.879 6.9 126.495C6.484 127.111 6.176 127.811 5.976 128.595C5.776 129.379 5.676 130.179 5.676 130.995C5.676 131.811 5.776 132.611 5.976 133.395C6.176 134.179 6.484 134.879 6.9 135.495C7.316 136.111 7.856 136.603 8.52 136.971C9.184 137.339 9.972 137.523 10.884 137.523C11.556 137.523 12.148 137.407 12.66 137.175C13.172 136.943 13.612 136.623 13.98 136.215C14.348 135.807 14.636 135.331 14.844 134.787C15.052 134.243 15.188 133.659 15.252 133.035L18.18 133.035C18.116 134.059 17.896 134.995 17.52 135.843C17.144 136.691 16.636 137.423 15.996 138.039C15.356 138.655 14.604 139.131 13.74 139.467C12.876 139.803 11.924 139.971 10.884 139.971C9.604 139.971 8.456 139.735 7.44 139.263C6.424 138.791 5.564 138.147 4.86 137.331C4.156 136.515 3.616 135.563 3.24 134.475C2.864 133.387 2.676 132.227 2.676 130.995C2.676 129.779 2.864 128.627 3.24 127.539C3.616 126.451 4.156 125.499 4.86 124.683C5.564 123.867 6.424 123.219 7.44 122.739C8.456 122.259 9.604 122.019 10.884 122.019C11.844 122.019 12.748 122.151 13.596 122.415C14.444 122.679 15.192 123.063 15.84 123.567C16.488 124.071 17.012 124.683 17.412 125.403C17.812 126.123 18.06 126.947 18.156 127.875L15.156 127.875Z"/>
<path clip-path="url(#TextBounds)" d="M28.212 124.467C27.3 124.467 26.512 124.651 25.848 125.019C25.184 125.387 24.644 125.879 24.228 126.495C23.812 127.111 23.504 127.811 23.304 128.595C23.104 129.379 23.004 130.179 23.004 130.995C23.004 131.811 23.104 132.611 23.304 133.395C23.504 134.179 23.812 134.879 24.228 135.495C24.644 136.111 25.184 136.603 25.848 136.971C26.512 137.339 27.3 137.523 28.212 137.523C29.124 137.523 29.912 137.339 30.576 136.971C31.24 136.603 31.78 136.111 32.196 135.495C32.612 134.879 32.92 134.179 33.12 133.395C33.32 132.611 33.42 131.811 33.42 130.995C33.42 130.179 33.32 129.379 33.12 128.595C32.92 127.811 32.612 127.111 32.196 126.495C31.78 125.879 31.24 125.387 30.576 125.019C29.912 124.651 29.124 124.467 28.212 124.467ZM28.212 122.019C29.492 122.019 30.64 122.259 31.656 122.739C32.672 123.219 33.532 123.867 34.236 124.683C34.94 125.499 35.48 126.451 35.856 127.539C36.232 128.627 36.42 129.779 36.42 130.995C36.42 132.227 36.232 133.387 35.856 134.475C35.48 135.563 34.94 136.515 34.236 137.331C33.532 138.147 32.672 138.791 31.656 139.263C30.64 139.735 29.492 139.971 28.212 139.971C26.932 139.971 25.784 139.735 24.768 139.263C23.752 138.791 22.892 138.147 22.188 137.331C21.484 136.515 20.944 135.563 20.568 134.475C20.192 133.387 20.004 132.227 20.004 130.995C20.004 129.779 20.192 128.627 20.568 127.539C20.944 126.451 21.484 125.499 22.188 124.683C22.892 123.867 23.752 123.219 24.768 122.739C25.784 122.259 26.932 122.019 28.212 122.019Z"/>
<path clip-path="url(#TextBounds)" d="M39.108 122.427L43.332 122.427L48.06 135.843L48.108 135.843L52.716 122.427L56.892 122.427L56.892 139.563L54.036 139.563L54.036 126.339L53.988 126.339L49.236 139.563L46.764 139.563L42.012 126.339L41.964 126.339L41.964 139.563L39.108 139.563L39.108 122.427Z"/>
<path clip-path="url(#TextBounds)" d="M60.444 122.427L64.668 122.427L69.396 135.843L69.444 135.843L74.052 122.427L78.228 122.427L78.228 139.563L75.372 139.563L75.372 126.339L75.324 126.339L70.572 139.563L68.1 139.563L63.348 126.339L63.3 126.339L63.3 139.563L60.444 139.563L60.444 122.427Z"/>
<path clip-path="url(#TextBounds)" d="M81.828 122.427L94.164 122.427L94.164 125.019L84.828 125.019L84.828 129.507L93.468 129.507L93.468 131.955L84.828 131.955L84.828 136.971L94.332 136.971L94.332 139.563L81.828 139.563L81.828 122.427Z"/>
<path clip-path="url(#TextBounds)" d="M96.828 122.427L99.996 122.427L107.82 135.051L107.868 135.051L107.868 122.427L110.724 122.427L110.724 139.563L107.556 139.563L99.756 126.963L99.684 126.963L99.684 139.563L96.828 139.563L96.828 122.427Z"/>
<path clip-path="url(#TextBounds)" d="M112.644 122.427L126.516 122.427L126.516 125.019L121.068 125.019L121.068 139.563L118.068 139.563L118.068 125.019L112.644 125.019L112.644 122.427Z"/>
<path clip-path="url(#TextBounds)" d="M130.476 133.851C130.476 134.507 130.588 135.067 130.812 135.531C131.036 135.995 131.348 136.375 131.748 136.671C132.148 136.967 132.608 137.183 133.128 137.319C133.648 137.455 134.212 137.523 134.82 137.523C135.476 137.523 136.036 137.447 136.5 137.295C136.964 137.143 137.34 136.947 137.628 136.707C137.916 136.467 138.124 136.191 138.252 135.879C138.38 135.567 138.444 135.251 138.444 134.931C138.444 134.275 138.296 133.791 138 133.479C137.704 133.167 137.38 132.947 137.028 132.819C136.42 132.595 135.712 132.383 134.904 132.183C134.096 131.983 133.1 131.723 131.916 131.403C131.18 131.211 130.568 130.959 130.08 130.647C129.592 130.335 129.204 129.987 128.916 129.603C128.628 129.219 128.424 128.811 128.304 128.379C128.184 127.947 128.124 127.507 128.124 127.059C128.124 126.195 128.304 125.447 128.664 124.815C129.024 124.183 129.5 123.659 130.092 123.243C130.684 122.827 131.356 122.519 132.108 122.319C132.86 122.119 133.62 122.019 134.388 122.019C135.284 122.019 136.128 122.135 136.92 122.367C137.712 122.599 138.408 122.947 139.008 123.411C139.608 123.875 140.084 124.447 140.436 125.127C140.788 125.807 140.964 126.595 140.964 127.491L137.964 127.491C137.884 126.387 137.508 125.607 136.836 125.151C136.164 124.695 135.308 124.467 134.268 124.467C133.916 124.467 133.556 124.503 133.188 124.575C132.82 124.647 132.484 124.767 132.18 124.935C131.876 125.103 131.624 125.331 131.424 125.619C131.224 125.907 131.124 126.267 131.124 126.699C131.124 127.307 131.312 127.783 131.688 128.127C132.064 128.471 132.556 128.731 133.164 128.907C133.228 128.923 133.48 128.991 133.92 129.111C134.36 129.231 134.852 129.363 135.396 129.507C135.94 129.651 136.472 129.791 136.992 129.927C137.512 130.063 137.884 130.163 138.108 130.227C138.668 130.403 139.156 130.643 139.572 130.947C139.988 131.251 140.336 131.599 140.616 131.991C140.896 132.383 141.104 132.803 141.24 133.251C141.376 133.699 141.444 134.147 141.444 134.595C141.444 135.555 141.248 136.375 140.856 137.055C140.464 137.735 139.948 138.291 139.308 138.723C138.668 139.155 137.94 139.471 137.124 139.671C136.308 139.871 135.476 139.971 134.628 139.971C133.652 139.971 132.732 139.851 131.868 139.611C131.004 139.371 130.252 139.003 129.612 138.507C128.972 138.011 128.46 137.375 128.076 136.599C127.692 135.823 127.492 134.907 127.476 133.851L130.476 133.851Z"/>
</g>
<path d="M72 0C68.399 0 64.81 2.21937 62.0625 6.6875L32.1875 55.25L2.34375 103.781C-3.1512 112.718 1.32261 119.969 12.3125 119.969L72 119.969L131.688 119.969C142.677 119.969 147.151 112.718 141.656 103.781L111.812 55.25L81.9375 6.6875C79.19 2.21937 75.601 0 72 0ZM72 7.21875C74.7224 7.21875 77.4542 8.90334 79.5312 12.2812L107.812 58.3125L136.125 104.344C140.279 111.1 137.212 116.562 129.281 116.562L72 116.562L14.7188 116.562C6.78791 116.563 3.72082 111.1 7.875 104.344L36.1875 58.3125L64.4688 12.2812C66.5458 8.90334 69.2776 7.21875 72 7.21875Z" id="Fill_2"/>
<clipPath id="TextBounds_2">
<rect height="107.599" width="31.5912" x="56.2044" y="6.18507"/>
</clipPath>
<path clip-path="url(#TextBounds_2)" d="M65.3 91.6851L78.7 91.6851L78.7 104.185L65.3 104.185L65.3 91.6851ZM65.8 32.7851L78.3 32.7851L78.3 53.3851L75 84.2851L69.1 84.2851L65.8 53.3851L65.8 32.7851Z" id="Fill_3"/>
</defs>
<clipPath id="ArtboardFrame">
<rect height="144" width="144" x="0" y="0"/>
</clipPath>
<g clip-path="url(#ArtboardFrame)" id="Layer-1">
<g opacity="1">
<use fill="#ff9300" stroke="none" xlink:href="#Fill"/>
<mask height="295.488" id="StrokeMask" maskUnits="userSpaceOnUse" width="416.304" x="-136.092" y="-16.7493">
<rect fill="#000000" height="295.488" stroke="none" width="416.304" x="-136.092" y="-16.7493"/>
<use fill="#ffffff" fill-rule="evenodd" stroke="none" xlink:href="#Fill"/>
</mask>
<use fill="none" mask="url(#StrokeMask)" stroke="#ff9300" stroke-linecap="butt" stroke-linejoin="round" stroke-width="2" xlink:href="#Fill"/>
</g>
<g opacity="1">
<use fill="#ff9300" fill-rule="nonzero" stroke="none" xlink:href="#Fill_2"/>
<mask height="119.969" id="StrokeMask_2" maskUnits="userSpaceOnUse" width="144.012" x="-0.00594612" y="0">
<rect fill="#000000" height="119.969" stroke="none" width="144.012" x="-0.00594612" y="0"/>
<use fill="#ffffff" fill-rule="evenodd" stroke="none" xlink:href="#Fill_2"/>
</mask>
<use fill="none" mask="url(#StrokeMask_2)" stroke="#ff9300" stroke-linecap="butt" stroke-linejoin="round" stroke-width="2" xlink:href="#Fill_2"/>
</g>
<g opacity="1">
<use fill="#ff9300" stroke="none" xlink:href="#Fill_3"/>
<mask height="214.2" id="StrokeMask_3" maskUnits="userSpaceOnUse" width="156.2" x="-6.1" y="-38.6149">
<rect fill="#000000" height="214.2" stroke="none" width="156.2" x="-6.1" y="-38.6149"/>
<use fill="#ffffff" fill-rule="evenodd" stroke="none" xlink:href="#Fill_3"/>
</mask>
<use fill="none" mask="url(#StrokeMask_3)" stroke="#ff9300" stroke-linecap="butt" stroke-linejoin="round" stroke-width="2" xlink:href="#Fill_3"/>
</g>
</g>
</svg>
