<?xml version="1.0" encoding="UTF-8" standalone="no"?>
<!DOCTYPE svg PUBLIC "-//W3C//DTD SVG 1.1//EN" "http://www.w3.org/Graphics/SVG/1.1/DTD/svg11.dtd">
<!-- Created with Vectornator (http://vectornator.io/) -->
<svg stroke-miterlimit="10" style="fill-rule:nonzero;clip-rule:evenodd;stroke-linecap:round;stroke-linejoin:round;" version="1.1" viewBox="0 0 144 144" xml:space="preserve" xmlns="http://www.w3.org/2000/svg" xmlns:xlink="http://www.w3.org/1999/xlink">
<defs>
<clipPath id="TextBounds">
<rect height="27.4373" width="144" x="0" y="116.563"/>
</clipPath>
<path d="M72 0C68.399 0 64.81 2.21937 62.0625 6.6875L32.1875 55.25L2.34375 103.781C-3.1512 112.718 1.32261 119.969 12.3125 119.969L72 119.969L131.688 119.969C142.677 119.969 147.151 112.718 141.656 103.781L111.812 55.25L81.9375 6.6875C79.19 2.21937 75.601 0 72 0ZM72 7.21875C74.7224 7.21875 77.4542 8.90334 79.5312 12.2812L107.812 58.3125L136.125 104.344C140.279 111.1 137.212 116.562 129.281 116.562L72 116.562L14.7188 116.562C6.78791 116.563 3.72082 111.1 7.875 104.344L36.1875 58.3125L64.4688 12.2812C66.5458 8.90334 69.2776 7.21875 72 7.21875Z" id="Fill"/>
<clipPath id="TextBounds_2">
<rect height="107.599" width="39.3033" x="52.3484" y="6.18507"/>
</clipPath>
</defs>
<clipPath id="ArtboardFrame">
<rect height="144" width="144" x="0" y="0"/>
</clipPath>
<g clip-path="url(#ArtboardFrame)" id="Layer-1">
<g fill="#ba0000" opacity="1" stroke="none">
<path clip-path="url(#TextBounds)" d="M23.328 124.467C22.416 124.467 21.628 124.651 20.964 125.019C20.3 125.387 19.76 125.879 19.344 126.495C18.928 127.111 18.62 127.811 18.42 128.595C18.22 129.379 18.12 130.179 18.12 130.995C18.12 131.811 18.22 132.611 18.42 133.395C18.62 134.179 18.928 134.879 19.344 135.495C19.76 136.111 20.3 136.603 20.964 136.971C21.628 137.339 22.416 137.523 23.328 137.523C24.24 137.523 25.028 137.339 25.692 136.971C26.356 136.603 26.896 136.111 27.312 135.495C27.728 134.879 28.036 134.179 28.236 133.395C28.436 132.611 28.536 131.811 28.536 130.995C28.536 130.179 28.436 129.379 28.236 128.595C28.036 127.811 27.728 127.111 27.312 126.495C26.896 125.879 26.356 125.387 25.692 125.019C25.028 124.651 24.24 124.467 23.328 124.467ZM23.328 122.019C24.608 122.019 25.756 122.259 26.772 122.739C27.788 123.219 28.648 123.867 29.352 124.683C30.056 125.499 30.596 126.451 30.972 127.539C31.348 128.627 31.536 129.779 31.536 130.995C31.536 132.227 31.348 133.387 30.972 134.475C30.596 135.563 30.056 136.515 29.352 137.331C28.648 138.147 27.788 138.791 26.772 139.263C25.756 139.735 24.608 139.971 23.328 139.971C22.048 139.971 20.9 139.735 19.884 139.263C18.868 138.791 18.008 138.147 17.304 137.331C16.6 136.515 16.06 135.563 15.684 134.475C15.308 133.387 15.12 132.227 15.12 130.995C15.12 129.779 15.308 128.627 15.684 127.539C16.06 126.451 16.6 125.499 17.304 124.683C18.008 123.867 18.868 123.219 19.884 122.739C20.9 122.259 22.048 122.019 23.328 122.019Z"/>
<path clip-path="url(#TextBounds)" d="M34.152 122.427L37.32 122.427L45.144 135.051L45.192 135.051L45.192 122.427L48.048 122.427L48.048 139.563L44.88 139.563L37.08 126.963L37.008 126.963L37.008 139.563L34.152 139.563L34.152 122.427Z"/>
<path clip-path="url(#TextBounds)" d="M64.872 122.427L67.872 122.427L67.872 129.243L75.672 129.243L75.672 122.427L78.672 122.427L78.672 139.563L75.672 139.563L75.672 131.835L67.872 131.835L67.872 139.563L64.872 139.563L64.872 122.427Z"/>
<path clip-path="url(#TextBounds)" d="M89.568 124.467C88.656 124.467 87.868 124.651 87.204 125.019C86.54 125.387 86 125.879 85.584 126.495C85.168 127.111 84.86 127.811 84.66 128.595C84.46 129.379 84.36 130.179 84.36 130.995C84.36 131.811 84.46 132.611 84.66 133.395C84.86 134.179 85.168 134.879 85.584 135.495C86 136.111 86.54 136.603 87.204 136.971C87.868 137.339 88.656 137.523 89.568 137.523C90.48 137.523 91.268 137.339 91.932 136.971C92.596 136.603 93.136 136.111 93.552 135.495C93.968 134.879 94.276 134.179 94.476 133.395C94.676 132.611 94.776 131.811 94.776 130.995C94.776 130.179 94.676 129.379 94.476 128.595C94.276 127.811 93.968 127.111 93.552 126.495C93.136 125.879 92.596 125.387 91.932 125.019C91.268 124.651 90.48 124.467 89.568 124.467ZM89.568 122.019C90.848 122.019 91.996 122.259 93.012 122.739C94.028 123.219 94.888 123.867 95.592 124.683C96.296 125.499 96.836 126.451 97.212 127.539C97.588 128.627 97.776 129.779 97.776 130.995C97.776 132.227 97.588 133.387 97.212 134.475C96.836 135.563 96.296 136.515 95.592 137.331C94.888 138.147 94.028 138.791 93.012 139.263C91.996 139.735 90.848 139.971 89.568 139.971C88.288 139.971 87.14 139.735 86.124 139.263C85.108 138.791 84.248 138.147 83.544 137.331C82.84 136.515 82.3 135.563 81.924 134.475C81.548 133.387 81.36 132.227 81.36 130.995C81.36 129.779 81.548 128.627 81.924 127.539C82.3 126.451 82.84 125.499 83.544 124.683C84.248 123.867 85.108 123.219 86.124 122.739C87.14 122.259 88.288 122.019 89.568 122.019Z"/>
<path clip-path="url(#TextBounds)" d="M100.512 122.427L103.512 122.427L103.512 136.971L112.224 136.971L112.224 139.563L100.512 139.563L100.512 122.427Z"/>
<path clip-path="url(#TextBounds)" d="M114.288 122.427L121.392 122.427C122.704 122.427 123.84 122.651 124.8 123.099C125.76 123.547 126.544 124.159 127.152 124.935C127.76 125.711 128.212 126.619 128.508 127.659C128.804 128.699 128.952 129.811 128.952 130.995C128.952 132.179 128.804 133.291 128.508 134.331C128.212 135.371 127.76 136.279 127.152 137.055C126.544 137.831 125.76 138.443 124.8 138.891C123.84 139.339 122.704 139.563 121.392 139.563L114.288 139.563L114.288 122.427ZM117.288 137.115L120.24 137.115C121.408 137.115 122.364 136.959 123.108 136.647C123.852 136.335 124.436 135.903 124.86 135.351C125.284 134.799 125.572 134.151 125.724 133.407C125.876 132.663 125.952 131.859 125.952 130.995C125.952 130.131 125.876 129.327 125.724 128.583C125.572 127.839 125.284 127.191 124.86 126.639C124.436 126.087 123.852 125.655 123.108 125.343C122.364 125.031 121.408 124.875 120.24 124.875L117.288 124.875L117.288 137.115Z"/>
</g>
<g opacity="1">
<use fill="#ba0000" fill-rule="nonzero" stroke="none" xlink:href="#Fill"/>
<mask height="119.969" id="StrokeMask" maskUnits="userSpaceOnUse" width="144.012" x="-0.00594612" y="0">
<rect fill="#000000" height="119.969" stroke="none" width="144.012" x="-0.00594612" y="0"/>
<use fill="#ffffff" fill-rule="evenodd" stroke="none" xlink:href="#Fill"/>
</mask>
<use fill="none" mask="url(#StrokeMask)" stroke="#ba0000" stroke-linecap="butt" stroke-linejoin="round" stroke-width="2" xlink:href="#Fill"/>
</g>
<path clip-path="url(#TextBounds_2)" d="M65.3 91.6851L78.7 91.6851L78.7 104.185L65.3 104.185L65.3 91.6851ZM65.8 32.7851L78.3 32.7851L78.3 53.3851L75 84.2851L69.1 84.2851L65.8 53.3851L65.8 32.7851Z" fill="#ba0000" opacity="1" stroke="none"/>
</g>
</svg>
