<?xml version="1.0" encoding="UTF-8" standalone="no"?>
<!DOCTYPE svg PUBLIC "-//W3C//DTD SVG 1.1//EN" "http://www.w3.org/Graphics/SVG/1.1/DTD/svg11.dtd">
<!-- Created with Vectornator (http://vectornator.io/) -->
<svg height="100%" stroke-miterlimit="10" style="fill-rule:nonzero;clip-rule:evenodd;stroke-linecap:round;stroke-linejoin:round;" version="1.1" viewBox="0 0 144 144" width="100%" xmlSpace="preserve" xmlns="http://www.w3.org/2000/svg" xmlnsVectornator="http://vectornator.io" xmlnsXlink="http://www.w3.org/1999/xlink">
<defs>
<clipPath id="TextBounds">
<rect height="80.5789" width="144" x="1.42109e-14" y="14.1315"/>
</clipPath>
<clipPath id="TextBounds_2">
<rect height="27.4373" width="144" x="0" y="116.563"/>
</clipPath>
<path d="M12.7163 0L131.284 0C138.307 0 144 5.78672 144 12.925L144 131.075C144 138.213 138.307 144 131.284 144L12.7163 144C5.69329 144-1.42109e-14 138.213-1.42109e-14 131.075L-1.42109e-14 12.925C-1.42109e-14 5.78672 5.69329 0 12.7163 0Z" id="Fill"/>
</defs>
<clipPath id="ArtboardFrame">
<rect height="144" width="144" x="0" y="0"/>
</clipPath>
<g clip-path="url(#ArtboardFrame)" id="Layer-1" vectornatorLayerName="Layer 1">
<g fill="#ffffff" opacity="0.696226" stroke="#00507d" stroke-linecap="butt" stroke-linejoin="round" stroke-width="1">
<path clip-path="url(#TextBounds)" d="M27.85 51.2815L20.4 51.2815C20.4 55.6482 21.625 58.8482 24.075 60.8815C26.525 62.9149 30.25 63.9315 35.25 63.9315C36.95 63.9315 38.6667 63.7232 40.4 63.3065C42.1333 62.8899 43.6917 62.2149 45.075 61.2815C46.4583 60.3482 47.5917 59.1315 48.475 57.6315C49.3583 56.1315 49.8 54.3149 49.8 52.1815C49.8 50.5815 49.5667 49.2315 49.1 48.1315C48.6333 47.0315 47.975 46.0982 47.125 45.3315C46.275 44.5649 45.2667 43.9399 44.1 43.4565C42.9333 42.9732 41.65 42.5482 40.25 42.1815C39.65 42.0482 38.8667 41.8732 37.9 41.6565C36.9333 41.4399 35.9917 41.1399 35.075 40.7565C34.1583 40.3732 33.375 39.8899 32.725 39.3065C32.075 38.7232 31.75 37.9982 31.75 37.1315C31.75 36.2982 31.9333 35.5982 32.3 35.0315C32.6667 34.4649 33.15 34.0065 33.75 33.6565C34.35 33.3065 35.025 33.0565 35.775 32.9065C36.525 32.7565 37.2667 32.6815 38 32.6815C38.9 32.6815 39.75 32.7732 40.55 32.9565C41.35 33.1399 42.0417 33.4482 42.625 33.8815C43.2083 34.3149 43.6583 34.8732 43.975 35.5565C44.2917 36.2399 44.4333 37.0815 44.4 38.0815L51.85 38.0815C51.85 36.0149 51.4917 34.2565 50.775 32.8065C50.0583 31.3565 49.0917 30.1649 47.875 29.2315C46.6583 28.2982 45.2417 27.6232 43.625 27.2065C42.0083 26.7899 40.2833 26.5815 38.45 26.5815C36.7167 26.5815 35.0083 26.7899 33.325 27.2065C31.6417 27.6232 30.1333 28.2732 28.8 29.1565C27.4667 30.0399 26.3833 31.1815 25.55 32.5815C24.7167 33.9815 24.3 35.6815 24.3 37.6815C24.3 39.2149 24.5583 40.5149 25.075 41.5815C25.5917 42.6482 26.275 43.5482 27.125 44.2815C27.975 45.0149 28.9333 45.6149 30 46.0815C31.0667 46.5482 32.1667 46.9482 33.3 47.2815C34.4 47.6149 35.4917 47.9315 36.575 48.2315C37.6583 48.5315 38.625 48.8815 39.475 49.2815C40.325 49.6815 41.0167 50.1565 41.55 50.7065C42.0833 51.2565 42.35 51.9649 42.35 52.8315C42.35 53.7315 42.1417 54.4982 41.725 55.1315C41.3083 55.7649 40.775 56.2815 40.125 56.6815C39.475 57.0815 38.75 57.3815 37.95 57.5815C37.15 57.7815 36.35 57.8815 35.55 57.8815C34.4167 57.8815 33.3667 57.7732 32.4 57.5565C31.4333 57.3399 30.6 56.9815 29.9 56.4815C29.2 55.9815 28.6667 55.3065 28.3 54.4565C27.9333 53.6065 27.7833 52.5482 27.85 51.2815Z"/>
<path clip-path="url(#TextBounds)" d="M54.4 48.1815C54.4 53.2815 55.775 57.1815 58.525 59.8815C61.275 62.5815 65.1833 63.9315 70.25 63.9315C73.3833 63.9315 76.1583 63.3399 78.575 62.1565C80.9917 60.9732 83.025 59.3649 84.675 57.3315C86.325 55.2982 87.5833 52.9482 88.45 50.2815C89.3167 47.6149 89.75 44.8149 89.75 41.8815C89.75 39.3815 89.375 37.1815 88.625 35.2815C87.875 33.3815 86.8167 31.7815 85.45 30.4815C84.0833 29.1815 82.4167 28.2065 80.45 27.5565C78.4833 26.9065 76.3 26.5815 73.9 26.5815C70.9 26.5815 68.1917 27.1649 65.775 28.3315C63.3583 29.4982 61.3083 31.0732 59.625 33.0565C57.9417 35.0399 56.65 37.3315 55.75 39.9315C54.85 42.5315 54.4 45.2815 54.4 48.1815ZM62.25 48.1815C62.25 46.4815 62.4833 44.7399 62.95 42.9565C63.4167 41.1732 64.125 39.5565 65.075 38.1065C66.025 36.6565 67.2417 35.4732 68.725 34.5565C70.2083 33.6399 71.95 33.1815 73.95 33.1815C75.4167 33.1815 76.65 33.4315 77.65 33.9315C78.65 34.4315 79.4667 35.0982 80.1 35.9315C80.7333 36.7649 81.1917 37.7399 81.475 38.8565C81.7583 39.9732 81.9 41.1649 81.9 42.4315C81.9 44.1315 81.6583 45.8649 81.175 47.6315C80.6917 49.3982 79.9667 51.0065 79 52.4565C78.0333 53.9065 76.8333 55.0899 75.4 56.0065C73.9667 56.9232 72.2833 57.3815 70.35 57.3815C68.9167 57.3815 67.6917 57.1315 66.675 56.6315C65.6583 56.1315 64.825 55.4565 64.175 54.6065C63.525 53.7565 63.0417 52.7815 62.725 51.6815C62.4083 50.5815 62.25 49.4149 62.25 48.1815Z"/>
<path clip-path="url(#TextBounds)" d="M99.15 51.2815L91.7 51.2815C91.7 55.6482 92.925 58.8482 95.375 60.8815C97.825 62.9149 101.55 63.9315 106.55 63.9315C108.25 63.9315 109.967 63.7232 111.7 63.3065C113.433 62.8899 114.992 62.2149 116.375 61.2815C117.758 60.3482 118.892 59.1315 119.775 57.6315C120.658 56.1315 121.1 54.3149 121.1 52.1815C121.1 50.5815 120.867 49.2315 120.4 48.1315C119.933 47.0315 119.275 46.0982 118.425 45.3315C117.575 44.5649 116.567 43.9399 115.4 43.4565C114.233 42.9732 112.95 42.5482 111.55 42.1815C110.95 42.0482 110.167 41.8732 109.2 41.6565C108.233 41.4399 107.292 41.1399 106.375 40.7565C105.458 40.3732 104.675 39.8899 104.025 39.3065C103.375 38.7232 103.05 37.9982 103.05 37.1315C103.05 36.2982 103.233 35.5982 103.6 35.0315C103.967 34.4649 104.45 34.0065 105.05 33.6565C105.65 33.3065 106.325 33.0565 107.075 32.9065C107.825 32.7565 108.567 32.6815 109.3 32.6815C110.2 32.6815 111.05 32.7732 111.85 32.9565C112.65 33.1399 113.342 33.4482 113.925 33.8815C114.508 34.3149 114.958 34.8732 115.275 35.5565C115.592 36.2399 115.733 37.0815 115.7 38.0815L123.15 38.0815C123.15 36.0149 122.792 34.2565 122.075 32.8065C121.358 31.3565 120.392 30.1649 119.175 29.2315C117.958 28.2982 116.542 27.6232 114.925 27.2065C113.308 26.7899 111.583 26.5815 109.75 26.5815C108.017 26.5815 106.308 26.7899 104.625 27.2065C102.942 27.6232 101.433 28.2732 100.1 29.1565C98.7667 30.0399 97.6833 31.1815 96.85 32.5815C96.0167 33.9815 95.6 35.6815 95.6 37.6815C95.6 39.2149 95.8583 40.5149 96.375 41.5815C96.8917 42.6482 97.575 43.5482 98.425 44.2815C99.275 45.0149 100.233 45.6149 101.3 46.0815C102.367 46.5482 103.467 46.9482 104.6 47.2815C105.7 47.6149 106.792 47.9315 107.875 48.2315C108.958 48.5315 109.925 48.8815 110.775 49.2815C111.625 49.6815 112.317 50.1565 112.85 50.7065C113.383 51.2565 113.65 51.9649 113.65 52.8315C113.65 53.7315 113.442 54.4982 113.025 55.1315C112.608 55.7649 112.075 56.2815 111.425 56.6815C110.775 57.0815 110.05 57.3815 109.25 57.5815C108.45 57.7815 107.65 57.8815 106.85 57.8815C105.717 57.8815 104.667 57.7732 103.7 57.5565C102.733 57.3399 101.9 56.9815 101.2 56.4815C100.5 55.9815 99.9667 55.3065 99.6 54.4565C99.2333 53.6065 99.0833 52.5482 99.15 51.2815Z"/>
</g>
<path d="M1.08655 102.736C12.8286 102.736 18.8149 97.1285 18.8149 97.1285C18.8149 97.1285 24.6653 102.736 36.5433 102.736C48.4213 102.736 54.2716 97.1285 54.2716 97.1285C54.2716 97.1285 60.1161 102.736 72 102.736C83.8839 102.736 89.7284 97.1285 89.7284 97.1285C89.7284 97.1285 95.5669 102.736 107.457 102.736C119.347 102.736 125.185 97.1285 125.185 97.1285C125.185 97.1285 131.148 102.736 142.913 102.736" fill="none" opacity="1" stroke="#00507d" stroke-linecap="round" stroke-linejoin="round" stroke-width="2"/>
<g fill="#00507d" opacity="1" stroke="none">
<path clip-path="url(#TextBounds_2)" d="M35.15 122.713L38.475 122.713L45.35 140.563L42 140.563L40.325 135.838L33.2 135.838L31.525 140.563L28.3 140.563L35.15 122.713ZM34.05 133.463L39.5 133.463L36.825 125.788L36.75 125.788L34.05 133.463Z"/>
<path clip-path="url(#TextBounds_2)" d="M49.1 134.613C49.1 135.296 49.2167 135.879 49.45 136.363C49.6833 136.846 50.0083 137.242 50.425 137.55C50.8417 137.859 51.3208 138.084 51.8625 138.225C52.4042 138.367 52.9917 138.438 53.625 138.438C54.3083 138.438 54.8917 138.359 55.375 138.2C55.8583 138.042 56.25 137.838 56.55 137.588C56.85 137.338 57.0667 137.05 57.2 136.725C57.3333 136.4 57.4 136.071 57.4 135.738C57.4 135.054 57.2458 134.55 56.9375 134.225C56.6292 133.9 56.2917 133.671 55.925 133.538C55.2917 133.304 54.5542 133.084 53.7125 132.875C52.8708 132.667 51.8333 132.396 50.6 132.063C49.8333 131.863 49.1958 131.6 48.6875 131.275C48.1792 130.95 47.775 130.588 47.475 130.188C47.175 129.788 46.9625 129.363 46.8375 128.913C46.7125 128.463 46.65 128.004 46.65 127.538C46.65 126.638 46.8375 125.859 47.2125 125.2C47.5875 124.542 48.0833 123.996 48.7 123.563C49.3167 123.129 50.0167 122.809 50.8 122.6C51.5833 122.392 52.375 122.288 53.175 122.288C54.1083 122.288 54.9875 122.409 55.8125 122.65C56.6375 122.892 57.3625 123.254 57.9875 123.738C58.6125 124.221 59.1083 124.817 59.475 125.525C59.8417 126.234 60.025 127.054 60.025 127.988L56.9 127.988C56.8167 126.838 56.425 126.025 55.725 125.55C55.025 125.075 54.1333 124.838 53.05 124.838C52.6833 124.838 52.3083 124.875 51.925 124.95C51.5417 125.025 51.1917 125.15 50.875 125.325C50.5583 125.5 50.2958 125.738 50.0875 126.038C49.8792 126.338 49.775 126.713 49.775 127.163C49.775 127.796 49.9708 128.292 50.3625 128.65C50.7542 129.009 51.2667 129.279 51.9 129.463C51.9667 129.479 52.2292 129.55 52.6875 129.675C53.1458 129.8 53.6583 129.938 54.225 130.088C54.7917 130.238 55.3458 130.384 55.8875 130.525C56.4292 130.667 56.8167 130.771 57.05 130.838C57.6333 131.021 58.1417 131.271 58.575 131.588C59.0083 131.904 59.3708 132.267 59.6625 132.675C59.9542 133.084 60.1708 133.521 60.3125 133.988C60.4542 134.454 60.525 134.921 60.525 135.388C60.525 136.388 60.3208 137.242 59.9125 137.95C59.5042 138.659 58.9667 139.238 58.3 139.688C57.6333 140.138 56.875 140.467 56.025 140.675C55.175 140.884 54.3083 140.988 53.425 140.988C52.4083 140.988 51.45 140.863 50.55 140.613C49.65 140.363 48.8667 139.979 48.2 139.463C47.5333 138.946 47 138.284 46.6 137.475C46.2 136.667 45.9917 135.713 45.975 134.613L49.1 134.613Z"/>
<path clip-path="url(#TextBounds_2)" d="M65.3 134.613C65.3 135.296 65.4167 135.879 65.65 136.363C65.8833 136.846 66.2083 137.242 66.625 137.55C67.0417 137.859 67.5208 138.084 68.0625 138.225C68.6042 138.367 69.1917 138.438 69.825 138.438C70.5083 138.438 71.0917 138.359 71.575 138.2C72.0583 138.042 72.45 137.838 72.75 137.588C73.05 137.338 73.2667 137.05 73.4 136.725C73.5333 136.4 73.6 136.071 73.6 135.738C73.6 135.054 73.4458 134.55 73.1375 134.225C72.8292 133.9 72.4917 133.671 72.125 133.538C71.4917 133.304 70.7542 133.084 69.9125 132.875C69.0708 132.667 68.0333 132.396 66.8 132.063C66.0333 131.863 65.3958 131.6 64.8875 131.275C64.3792 130.95 63.975 130.588 63.675 130.188C63.375 129.788 63.1625 129.363 63.0375 128.913C62.9125 128.463 62.85 128.004 62.85 127.538C62.85 126.638 63.0375 125.859 63.4125 125.2C63.7875 124.542 64.2833 123.996 64.9 123.563C65.5167 123.129 66.2167 122.809 67 122.6C67.7833 122.392 68.575 122.288 69.375 122.288C70.3083 122.288 71.1875 122.409 72.0125 122.65C72.8375 122.892 73.5625 123.254 74.1875 123.738C74.8125 124.221 75.3083 124.817 75.675 125.525C76.0417 126.234 76.225 127.054 76.225 127.988L73.1 127.988C73.0167 126.838 72.625 126.025 71.925 125.55C71.225 125.075 70.3333 124.838 69.25 124.838C68.8833 124.838 68.5083 124.875 68.125 124.95C67.7417 125.025 67.3917 125.15 67.075 125.325C66.7583 125.5 66.4958 125.738 66.2875 126.038C66.0792 126.338 65.975 126.713 65.975 127.163C65.975 127.796 66.1708 128.292 66.5625 128.65C66.9542 129.009 67.4667 129.279 68.1 129.463C68.1667 129.479 68.4292 129.55 68.8875 129.675C69.3458 129.8 69.8583 129.938 70.425 130.088C70.9917 130.238 71.5458 130.384 72.0875 130.525C72.6292 130.667 73.0167 130.771 73.25 130.838C73.8333 131.021 74.3417 131.271 74.775 131.588C75.2083 131.904 75.5708 132.267 75.8625 132.675C76.1542 133.084 76.3708 133.521 76.5125 133.988C76.6542 134.454 76.725 134.921 76.725 135.388C76.725 136.388 76.5208 137.242 76.1125 137.95C75.7042 138.659 75.1667 139.238 74.5 139.688C73.8333 140.138 73.075 140.467 72.225 140.675C71.375 140.884 70.5083 140.988 69.625 140.988C68.6083 140.988 67.65 140.863 66.75 140.613C65.85 140.363 65.0667 139.979 64.4 139.463C63.7333 138.946 63.2 138.284 62.8 137.475C62.4 136.667 62.1917 135.713 62.175 134.613L65.3 134.613Z"/>
<path clip-path="url(#TextBounds_2)" d="M79.45 122.713L82.575 122.713L82.575 140.563L79.45 140.563L79.45 122.713Z"/>
<path clip-path="url(#TextBounds_2)" d="M88.45 134.613C88.45 135.296 88.5667 135.879 88.8 136.363C89.0333 136.846 89.3583 137.242 89.775 137.55C90.1917 137.859 90.6708 138.084 91.2125 138.225C91.7542 138.367 92.3417 138.438 92.975 138.438C93.6583 138.438 94.2417 138.359 94.725 138.2C95.2083 138.042 95.6 137.838 95.9 137.588C96.2 137.338 96.4167 137.05 96.55 136.725C96.6833 136.4 96.75 136.071 96.75 135.738C96.75 135.054 96.5958 134.55 96.2875 134.225C95.9792 133.9 95.6417 133.671 95.275 133.538C94.6417 133.304 93.9042 133.084 93.0625 132.875C92.2208 132.667 91.1833 132.396 89.95 132.063C89.1833 131.863 88.5458 131.6 88.0375 131.275C87.5292 130.95 87.125 130.588 86.825 130.188C86.525 129.788 86.3125 129.363 86.1875 128.913C86.0625 128.463 86 128.004 86 127.538C86 126.638 86.1875 125.859 86.5625 125.2C86.9375 124.542 87.4333 123.996 88.05 123.563C88.6667 123.129 89.3667 122.809 90.15 122.6C90.9333 122.392 91.725 122.288 92.525 122.288C93.4583 122.288 94.3375 122.409 95.1625 122.65C95.9875 122.892 96.7125 123.254 97.3375 123.738C97.9625 124.221 98.4583 124.817 98.825 125.525C99.1917 126.234 99.375 127.054 99.375 127.988L96.25 127.988C96.1667 126.838 95.775 126.025 95.075 125.55C94.375 125.075 93.4833 124.838 92.4 124.838C92.0333 124.838 91.6583 124.875 91.275 124.95C90.8917 125.025 90.5417 125.15 90.225 125.325C89.9083 125.5 89.6458 125.738 89.4375 126.038C89.2292 126.338 89.125 126.713 89.125 127.163C89.125 127.796 89.3208 128.292 89.7125 128.65C90.1042 129.009 90.6167 129.279 91.25 129.463C91.3167 129.479 91.5792 129.55 92.0375 129.675C92.4958 129.8 93.0083 129.938 93.575 130.088C94.1417 130.238 94.6958 130.384 95.2375 130.525C95.7792 130.667 96.1667 130.771 96.4 130.838C96.9833 131.021 97.4917 131.271 97.925 131.588C98.3583 131.904 98.7208 132.267 99.0125 132.675C99.3042 133.084 99.5208 133.521 99.6625 133.988C99.8042 134.454 99.875 134.921 99.875 135.388C99.875 136.388 99.6708 137.242 99.2625 137.95C98.8542 138.659 98.3167 139.238 97.65 139.688C96.9833 140.138 96.225 140.467 95.375 140.675C94.525 140.884 93.6583 140.988 92.775 140.988C91.7583 140.988 90.8 140.863 89.9 140.613C89 140.363 88.2167 139.979 87.55 139.463C86.8833 138.946 86.35 138.284 85.95 137.475C85.55 136.667 85.3417 135.713 85.325 134.613L88.45 134.613Z"/>
<path clip-path="url(#TextBounds_2)" d="M100.9 122.713L115.35 122.713L115.35 125.413L109.675 125.413L109.675 140.563L106.55 140.563L106.55 125.413L100.9 125.413L100.9 122.713Z"/>
</g>
<path d="M50.2724 86.6849L93.7276 86.6849C93.7276 86.6849 93.7277 102.736 72.1396 102.736C50.1633 102.736 50.2724 86.6849 50.2724 86.6849Z" fill="#00507d" fill-rule="nonzero" opacity="1" stroke="none"/>
<path d="M72.1018 28.3485L89.7921 88.8345L72.1018 88.8345L54.2079 88.8345L72.1018 28.3485Z" fill="none" opacity="1" stroke="#00507d" stroke-linecap="butt" stroke-linejoin="round" stroke-width="0.75"/>
<path d="M73 42.3984L78.5159 50.3586L93.7276 77.7566L73 77.7566L73 42.3984Z" fill="#00507d" fill-rule="nonzero" opacity="1" stroke="#ffffff" stroke-linecap="butt" stroke-linejoin="round" stroke-width="0.5"/>
<path d="M72 5.91613L72 88.8345" fill="none" opacity="1" stroke="#00507d" stroke-linecap="round" stroke-linejoin="round" stroke-width="2"/>
<path d="M72 28.3485L82.3638 80.2342L72 86.6849L72 28.3485Z" fill="#00507d" fill-rule="nonzero" opacity="1" stroke="#ffffff" stroke-linecap="butt" stroke-linejoin="round" stroke-width="0.5"/>
<g opacity="1">
<mask height="144" id="StrokeMask" maskUnits="userSpaceOnUse" width="144" x="-1.42109e-14" y="0">
<rect fill="#000000" height="144" stroke="none" width="144" x="-1.42109e-14" y="0"/>
<use fill="#ffffff" fill-rule="evenodd" stroke="none" xlinkHref="#Fill"/>
</mask>
<use fill="none" mask="url(#StrokeMask)" stroke="#00507d" stroke-linecap="butt" stroke-linejoin="round" stroke-width="2" xlinkHref="#Fill"/>
</g>
</g>
</svg>
