<?xml version="1.0" encoding="UTF-8" standalone="no"?>
<!DOCTYPE svg PUBLIC "-//W3C//DTD SVG 1.1//EN" "http://www.w3.org/Graphics/SVG/1.1/DTD/svg11.dtd">
<!-- Created with Vectornator (http://vectornator.io/) -->
<svg height="100%" stroke-miterlimit="10" style="fill-rule:nonzero;clip-rule:evenodd;stroke-linecap:round;stroke-linejoin:round;" version="1.1" viewBox="0 0 144 144" width="100%" xml:space="preserve" xmlns="http://www.w3.org/2000/svg" xmlns:vectornator="http://vectornator.io" xmlns:xlink="http://www.w3.org/1999/xlink">
<defs>
<clipPath id="TextBounds">
<rect height="27.4373" width="144" x="0" y="116.563"/>
</clipPath>
<path d="M12.7163 2.4869e-14L131.284 2.4869e-14C138.307 2.4869e-14 144 5.78672 144 12.925L144 131.075C144 138.213 138.307 144 131.284 144L12.7163 144C5.69329 144-1.42109e-14 138.213-1.42109e-14 131.075L-1.42109e-14 12.925C-1.42109e-14 5.78672 5.69329 2.4869e-14 12.7163 2.4869e-14Z" id="Fill"/>
</defs>
<clipPath id="ArtboardFrame">
<rect height="144" width="144" x="0" y="0"/>
</clipPath>
<g clip-path="url(#ArtboardFrame)" id="Layer-1" vectornator:layerName="Layer 1">
<path d="M1.08655 102.736C12.8286 102.736 18.8149 97.1285 18.8149 97.1285C18.8149 97.1285 24.6653 102.736 36.5433 102.736C48.4213 102.736 54.2716 97.1285 54.2716 97.1285C54.2716 97.1285 60.1161 102.736 72 102.736C83.8839 102.736 89.7284 97.1285 89.7284 97.1285C89.7284 97.1285 95.5669 102.736 107.457 102.736C119.347 102.736 125.185 97.1285 125.185 97.1285C125.185 97.1285 131.148 102.736 142.913 102.736" fill="none" opacity="1" stroke="#00507d" stroke-linecap="round" stroke-linejoin="round" stroke-width="2"/>
<g fill="#00507d" opacity="1" stroke="none">
<path clip-path="url(#TextBounds)" d="M32.925 128.388C32.7917 127.871 32.6083 127.396 32.375 126.963C32.1417 126.529 31.8417 126.154 31.475 125.838C31.1083 125.521 30.6792 125.275 30.1875 125.1C29.6958 124.925 29.125 124.838 28.475 124.838C27.525 124.838 26.7042 125.029 26.0125 125.413C25.3208 125.796 24.7583 126.309 24.325 126.95C23.8917 127.592 23.5708 128.321 23.3625 129.138C23.1542 129.954 23.05 130.788 23.05 131.638C23.05 132.488 23.1542 133.321 23.3625 134.138C23.5708 134.954 23.8917 135.684 24.325 136.325C24.7583 136.967 25.3208 137.479 26.0125 137.863C26.7042 138.246 27.525 138.438 28.475 138.438C29.175 138.438 29.7917 138.317 30.325 138.075C30.8583 137.834 31.3167 137.5 31.7 137.075C32.0833 136.65 32.3833 136.154 32.6 135.588C32.8167 135.021 32.9583 134.413 33.025 133.763L36.075 133.763C36.0083 134.829 35.7792 135.804 35.3875 136.688C34.9958 137.571 34.4667 138.334 33.8 138.975C33.1333 139.617 32.35 140.113 31.45 140.463C30.55 140.813 29.5583 140.988 28.475 140.988C27.1417 140.988 25.9458 140.742 24.8875 140.25C23.8292 139.759 22.9333 139.088 22.2 138.238C21.4667 137.388 20.9042 136.396 20.5125 135.263C20.1208 134.129 19.925 132.921 19.925 131.638C19.925 130.371 20.1208 129.171 20.5125 128.038C20.9042 126.904 21.4667 125.913 22.2 125.063C22.9333 124.213 23.8292 123.538 24.8875 123.038C25.9458 122.538 27.1417 122.288 28.475 122.288C29.475 122.288 30.4167 122.425 31.3 122.7C32.1833 122.975 32.9625 123.375 33.6375 123.9C34.3125 124.425 34.8583 125.063 35.275 125.813C35.6917 126.563 35.95 127.421 36.05 128.388L32.925 128.388Z"/>
<path clip-path="url(#TextBounds)" d="M43.7 122.713L47.025 122.713L53.9 140.563L50.55 140.563L48.875 135.838L41.75 135.838L40.075 140.563L36.85 140.563L43.7 122.713ZM42.6 133.463L48.05 133.463L45.375 125.788L45.3 125.788L42.6 133.463Z"/>
<path clip-path="url(#TextBounds)" d="M55.6 122.713L63.475 122.713C64.7417 122.713 65.775 122.896 66.575 123.263C67.375 123.629 67.9917 124.088 68.425 124.638C68.8583 125.188 69.1542 125.788 69.3125 126.438C69.4708 127.088 69.55 127.688 69.55 128.238C69.55 128.788 69.4708 129.384 69.3125 130.025C69.1542 130.667 68.8583 131.263 68.425 131.813C67.9917 132.363 67.375 132.817 66.575 133.175C65.775 133.534 64.7417 133.713 63.475 133.713L58.725 133.713L58.725 140.563L55.6 140.563L55.6 122.713ZM58.725 131.163L63.3 131.163C63.65 131.163 64.0083 131.113 64.375 131.013C64.7417 130.913 65.0792 130.75 65.3875 130.525C65.6958 130.3 65.9458 130 66.1375 129.625C66.3292 129.25 66.425 128.779 66.425 128.213C66.425 127.629 66.3417 127.146 66.175 126.763C66.0083 126.379 65.7833 126.075 65.5 125.85C65.2167 125.625 64.8917 125.471 64.525 125.388C64.1583 125.304 63.7667 125.263 63.35 125.263L58.725 125.263L58.725 131.163Z"/>
<path clip-path="url(#TextBounds)" d="M74.325 134.613C74.325 135.296 74.4417 135.879 74.675 136.363C74.9083 136.846 75.2333 137.242 75.65 137.55C76.0667 137.859 76.5458 138.084 77.0875 138.225C77.6292 138.367 78.2167 138.438 78.85 138.438C79.5333 138.438 80.1167 138.359 80.6 138.2C81.0833 138.042 81.475 137.838 81.775 137.588C82.075 137.338 82.2917 137.05 82.425 136.725C82.5583 136.4 82.625 136.071 82.625 135.738C82.625 135.054 82.4708 134.55 82.1625 134.225C81.8542 133.9 81.5167 133.671 81.15 133.538C80.5167 133.304 79.7792 133.084 78.9375 132.875C78.0958 132.667 77.0583 132.396 75.825 132.063C75.0583 131.863 74.4208 131.6 73.9125 131.275C73.4042 130.95 73 130.588 72.7 130.188C72.4 129.788 72.1875 129.363 72.0625 128.913C71.9375 128.463 71.875 128.004 71.875 127.538C71.875 126.638 72.0625 125.859 72.4375 125.2C72.8125 124.542 73.3083 123.996 73.925 123.563C74.5417 123.129 75.2417 122.809 76.025 122.6C76.8083 122.392 77.6 122.288 78.4 122.288C79.3333 122.288 80.2125 122.409 81.0375 122.65C81.8625 122.892 82.5875 123.254 83.2125 123.738C83.8375 124.221 84.3333 124.817 84.7 125.525C85.0667 126.234 85.25 127.054 85.25 127.988L82.125 127.988C82.0417 126.838 81.65 126.025 80.95 125.55C80.25 125.075 79.3583 124.838 78.275 124.838C77.9083 124.838 77.5333 124.875 77.15 124.95C76.7667 125.025 76.4167 125.15 76.1 125.325C75.7833 125.5 75.5208 125.738 75.3125 126.038C75.1042 126.338 75 126.713 75 127.163C75 127.796 75.1958 128.292 75.5875 128.65C75.9792 129.009 76.4917 129.279 77.125 129.463C77.1917 129.479 77.4542 129.55 77.9125 129.675C78.3708 129.8 78.8833 129.938 79.45 130.088C80.0167 130.238 80.5708 130.384 81.1125 130.525C81.6542 130.667 82.0417 130.771 82.275 130.838C82.8583 131.021 83.3667 131.271 83.8 131.588C84.2333 131.904 84.5958 132.267 84.8875 132.675C85.1792 133.084 85.3958 133.521 85.5375 133.988C85.6792 134.454 85.75 134.921 85.75 135.388C85.75 136.388 85.5458 137.242 85.1375 137.95C84.7292 138.659 84.1917 139.238 83.525 139.688C82.8583 140.138 82.1 140.467 81.25 140.675C80.4 140.884 79.5333 140.988 78.65 140.988C77.6333 140.988 76.675 140.863 75.775 140.613C74.875 140.363 74.0917 139.979 73.425 139.463C72.7583 138.946 72.225 138.284 71.825 137.475C71.425 136.667 71.2167 135.713 71.2 134.613L74.325 134.613Z"/>
<path clip-path="url(#TextBounds)" d="M88.475 122.713L91.6 122.713L91.6 140.563L88.475 140.563L88.475 122.713Z"/>
<path clip-path="url(#TextBounds)" d="M94.9 122.713L108.475 122.713L108.475 125.088L98.075 137.863L108.725 137.863L108.725 140.563L94.1 140.563L94.1 138.013L104.5 125.413L94.9 125.413L94.9 122.713Z"/>
<path clip-path="url(#TextBounds)" d="M111.175 122.713L124.025 122.713L124.025 125.413L114.3 125.413L114.3 130.088L123.3 130.088L123.3 132.638L114.3 132.638L114.3 137.863L124.2 137.863L124.2 140.563L111.175 140.563L111.175 122.713Z"/>
</g>
<path d="M97.9091 94.3773L35.5478 103.464L38.0135 85.9467L40.5075 68.2275L97.9091 94.3773Z" fill="none" opacity="1" stroke="#00507d" stroke-linecap="butt" stroke-linejoin="round" stroke-width="0.75"/>
<path d="M117.196 97.9991L101.043 101.296L45.969 108.906L48.858 88.3802L117.196 97.9991Z" fill="#00507d" fill-rule="nonzero" opacity="1" stroke="#ffffff" stroke-linecap="butt" stroke-linejoin="round" stroke-width="0.5"/>
<path d="M120.137 97.4031L38.0277 85.8459" fill="none" opacity="1" stroke="#00507d" stroke-linecap="round" stroke-linejoin="round" stroke-width="2"/>
<path d="M97.9232 94.2765L45.0995 97.3073L40.1562 86.1455L97.9232 94.2765Z" fill="#00507d" fill-rule="nonzero" opacity="1" stroke="#ffffff" stroke-linecap="butt" stroke-linejoin="round" stroke-width="0.5"/>
<path d="M43.1846 64.63L37.1278 107.661C37.1278 107.661 21.2335 105.424 24.2424 84.0465C27.3054 62.2848 43.1846 64.63 43.1846 64.63Z" fill="#00507d" fill-rule="nonzero" opacity="1" stroke="#ffffff" stroke-linecap="butt" stroke-linejoin="round" stroke-width="0.5"/>
<g opacity="1">
<mask height="144" id="StrokeMask" maskUnits="userSpaceOnUse" width="144" x="-1.42109e-14" y="2.4869e-14">
<rect fill="#000000" height="144" stroke="none" width="144" x="-1.42109e-14" y="2.4869e-14"/>
<use fill="#ffffff" fill-rule="evenodd" stroke="none" xlink:href="#Fill"/>
</mask>
<use fill="none" mask="url(#StrokeMask)" stroke="#00507d" stroke-linecap="butt" stroke-linejoin="round" stroke-width="2" xlink:href="#Fill"/>
</g>
</g>
</svg>
