<?xml version="1.0" encoding="UTF-8" standalone="no"?>
<!DOCTYPE svg PUBLIC "-//W3C//DTD SVG 1.1//EN" "http://www.w3.org/Graphics/SVG/1.1/DTD/svg11.dtd">
<!-- Created with Vectornator (http://vectornator.io/) -->
<svg height="100%" stroke-miterlimit="10" style="fill-rule:nonzero;clip-rule:evenodd;stroke-linecap:round;stroke-linejoin:round;" version="1.1" viewBox="0 0 144 144" width="100%" xml:space="preserve" xmlns="http://www.w3.org/2000/svg" xmlns:xlink="http://www.w3.org/1999/xlink">
<defs>
<clipPath id="TextBounds">
<rect height="46.1077" width="81.1521" x="31.4281" y="24.5184"/>
</clipPath>
<clipPath id="TextBounds_2">
<rect height="27.4373" width="144" x="0" y="116.563"/>
</clipPath>
<path d="M12.7163 0L131.284 0C138.307 0 144 5.78672 144 12.925L144 131.075C144 138.213 138.307 144 131.284 144L12.7163 144C5.69329 144-1.42109e-14 138.213-1.42109e-14 131.075L-1.42109e-14 12.925C-1.42109e-14 5.78672 5.69329 0 12.7163 0Z" id="Fill"/>
<clipPath id="TextBounds_3">
<rect height="38.5973" width="67.4596" x="38.2744" y="61.3481"/>
</clipPath>
</defs>
<clipPath id="ArtboardFrame">
<rect height="144" width="144" x="0" y="0"/>
</clipPath>
<g clip-path="url(#ArtboardFrame)" id="Layer-1">
<g fill="#ffffff" opacity="0.696226" stroke="#00507d" stroke-linecap="butt" stroke-linejoin="round" stroke-width="1">
<path clip-path="url(#TextBounds)" d="M48.6492 32.0984L44.1492 53.5184L48.8592 53.5184L53.3892 32.0984L48.6492 32.0984Z"/>
<path clip-path="url(#TextBounds)" d="M57.5292 32.0984L53.0292 53.5184L57.4692 53.5184L60.6792 36.4784L60.7392 36.4784L62.8092 53.5184L66.4092 53.5184L75.4692 36.4784L75.5292 36.4784L71.6292 53.5184L76.0392 53.5184L80.5692 32.0984L73.9992 32.0984L65.7492 47.6084L65.6892 47.6084L64.0392 32.0984L57.5292 32.0984Z"/>
<path clip-path="url(#TextBounds)" d="M84.9492 46.4084L80.4792 46.4084C80.4792 49.0284 81.2142 50.9484 82.6842 52.1684C84.1542 53.3884 86.3892 53.9984 89.3892 53.9984C90.4092 53.9984 91.4392 53.8734 92.4792 53.6234C93.5192 53.3734 94.4542 52.9684 95.2842 52.4084C96.1142 51.8484 96.7942 51.1184 97.3242 50.2184C97.8542 49.3184 98.1192 48.2284 98.1192 46.9484C98.1192 45.9884 97.9792 45.1784 97.6992 44.5184C97.4192 43.8584 97.0242 43.2984 96.5142 42.8384C96.0042 42.3784 95.3992 42.0034 94.6992 41.7134C93.9992 41.4234 93.2292 41.1684 92.3892 40.9484C92.0292 40.8684 91.5592 40.7634 90.9792 40.6334C90.3992 40.5034 89.8342 40.3234 89.2842 40.0934C88.7342 39.8634 88.2642 39.5734 87.8742 39.2234C87.4842 38.8734 87.2892 38.4384 87.2892 37.9184C87.2892 37.4184 87.3992 36.9984 87.6192 36.6584C87.8392 36.3184 88.1292 36.0434 88.4892 35.8334C88.8492 35.6234 89.2542 35.4734 89.7042 35.3834C90.1542 35.2934 90.5992 35.2484 91.0392 35.2484C91.5792 35.2484 92.0892 35.3034 92.5692 35.4134C93.0492 35.5234 93.4642 35.7084 93.8142 35.9684C94.1642 36.2284 94.4342 36.5634 94.6242 36.9734C94.8142 37.3834 94.8992 37.8884 94.8792 38.4884L99.3492 38.4884C99.3492 37.2484 99.1342 36.1934 98.7042 35.3234C98.2742 34.4534 97.6942 33.7384 96.9642 33.1784C96.2342 32.6184 95.3842 32.2134 94.4142 31.9634C93.4442 31.7134 92.4092 31.5884 91.3092 31.5884C90.2692 31.5884 89.2442 31.7134 88.2342 31.9634C87.2242 32.2134 86.3192 32.6034 85.5192 33.1334C84.7192 33.6634 84.0692 34.3484 83.5692 35.1884C83.0692 36.0284 82.8192 37.0484 82.8192 38.2484C82.8192 39.1684 82.9742 39.9484 83.2842 40.5884C83.5942 41.2284 84.0042 41.7684 84.5142 42.2084C85.0242 42.6484 85.5992 43.0084 86.2392 43.2884C86.8792 43.5684 87.5392 43.8084 88.2192 44.0084C88.8792 44.2084 89.5342 44.3984 90.1842 44.5784C90.8342 44.7584 91.4142 44.9684 91.9242 45.2084C92.4342 45.4484 92.8492 45.7334 93.1692 46.0634C93.4892 46.3934 93.6492 46.8184 93.6492 47.3384C93.6492 47.8784 93.5242 48.3384 93.2742 48.7184C93.0242 49.0984 92.7042 49.4084 92.3142 49.6484C91.9242 49.8884 91.4892 50.0684 91.0092 50.1884C90.5292 50.3084 90.0492 50.3684 89.5692 50.3684C88.8892 50.3684 88.2592 50.3034 87.6792 50.1734C87.0992 50.0434 86.5992 49.8284 86.1792 49.5284C85.7592 49.2284 85.4392 48.8234 85.2192 48.3134C84.9992 47.8034 84.9092 47.1684 84.9492 46.4084Z"/>
</g>
<g fill="#00507d" opacity="1" stroke="none">
<path clip-path="url(#TextBounds_2)" d="M7.4625 122.713L10.5875 122.713L10.5875 140.563L7.4625 140.563L7.4625 122.713Z"/>
<path clip-path="url(#TextBounds_2)" d="M14.2875 122.713L17.5875 122.713L25.7375 135.863L25.7875 135.863L25.7875 122.713L28.7625 122.713L28.7625 140.563L25.4625 140.563L17.3375 127.438L17.2625 127.438L17.2625 140.563L14.2875 140.563L14.2875 122.713Z"/>
<path clip-path="url(#TextBounds_2)" d="M44.5125 128.388C44.3792 127.871 44.1958 127.396 43.9625 126.963C43.7292 126.529 43.4292 126.154 43.0625 125.838C42.6958 125.521 42.2667 125.275 41.775 125.1C41.2833 124.925 40.7125 124.838 40.0625 124.838C39.1125 124.838 38.2917 125.029 37.6 125.413C36.9083 125.796 36.3458 126.309 35.9125 126.95C35.4792 127.592 35.1583 128.321 34.95 129.138C34.7417 129.954 34.6375 130.788 34.6375 131.638C34.6375 132.488 34.7417 133.321 34.95 134.138C35.1583 134.954 35.4792 135.684 35.9125 136.325C36.3458 136.967 36.9083 137.479 37.6 137.863C38.2917 138.246 39.1125 138.438 40.0625 138.438C40.7625 138.438 41.3792 138.317 41.9125 138.075C42.4458 137.834 42.9042 137.5 43.2875 137.075C43.6708 136.65 43.9708 136.154 44.1875 135.588C44.4042 135.021 44.5458 134.413 44.6125 133.763L47.6625 133.763C47.5958 134.829 47.3667 135.804 46.975 136.688C46.5833 137.571 46.0542 138.334 45.3875 138.975C44.7208 139.617 43.9375 140.113 43.0375 140.463C42.1375 140.813 41.1458 140.988 40.0625 140.988C38.7292 140.988 37.5333 140.742 36.475 140.25C35.4167 139.759 34.5208 139.088 33.7875 138.238C33.0542 137.388 32.4917 136.396 32.1 135.263C31.7083 134.129 31.5125 132.921 31.5125 131.638C31.5125 130.371 31.7083 129.171 32.1 128.038C32.4917 126.904 33.0542 125.913 33.7875 125.063C34.5208 124.213 35.4167 123.538 36.475 123.038C37.5333 122.538 38.7292 122.288 40.0625 122.288C41.0625 122.288 42.0042 122.425 42.8875 122.7C43.7708 122.975 44.55 123.375 45.225 123.9C45.9 124.425 46.4458 125.063 46.8625 125.813C47.2792 126.563 47.5375 127.421 47.6375 128.388L44.5125 128.388Z"/>
<path clip-path="url(#TextBounds_2)" d="M50.5125 122.713L53.6375 122.713L53.6375 140.563L50.5125 140.563L50.5125 122.713Z"/>
<path clip-path="url(#TextBounds_2)" d="M57.4625 122.713L64.8625 122.713C66.2292 122.713 67.4125 122.946 68.4125 123.413C69.4125 123.879 70.2292 124.517 70.8625 125.325C71.4958 126.134 71.9667 127.079 72.275 128.163C72.5833 129.246 72.7375 130.404 72.7375 131.638C72.7375 132.871 72.5833 134.029 72.275 135.113C71.9667 136.196 71.4958 137.142 70.8625 137.95C70.2292 138.759 69.4125 139.396 68.4125 139.863C67.4125 140.329 66.2292 140.563 64.8625 140.563L57.4625 140.563L57.4625 122.713ZM60.5875 138.013L63.6625 138.013C64.8792 138.013 65.875 137.85 66.65 137.525C67.425 137.2 68.0333 136.75 68.475 136.175C68.9167 135.6 69.2167 134.925 69.375 134.15C69.5333 133.375 69.6125 132.538 69.6125 131.638C69.6125 130.738 69.5333 129.9 69.375 129.125C69.2167 128.35 68.9167 127.675 68.475 127.1C68.0333 126.525 67.425 126.075 66.65 125.75C65.875 125.425 64.8792 125.263 63.6625 125.263L60.5875 125.263L60.5875 138.013Z"/>
<path clip-path="url(#TextBounds_2)" d="M75.5125 122.713L88.3625 122.713L88.3625 125.413L78.6375 125.413L78.6375 130.088L87.6375 130.088L87.6375 132.638L78.6375 132.638L78.6375 137.863L88.5375 137.863L88.5375 140.563L75.5125 140.563L75.5125 122.713Z"/>
<path clip-path="url(#TextBounds_2)" d="M91.1375 122.713L94.4375 122.713L102.588 135.863L102.638 135.863L102.638 122.713L105.612 122.713L105.612 140.563L102.312 140.563L94.1875 127.438L94.1125 127.438L94.1125 140.563L91.1375 140.563L91.1375 122.713Z"/>
<path clip-path="url(#TextBounds_2)" d="M107.612 122.713L122.062 122.713L122.062 125.413L116.387 125.413L116.387 140.563L113.262 140.563L113.262 125.413L107.612 125.413L107.612 122.713Z"/>
<path clip-path="url(#TextBounds_2)" d="M126.188 134.613C126.188 135.296 126.304 135.879 126.537 136.363C126.771 136.846 127.096 137.242 127.513 137.55C127.929 137.859 128.408 138.084 128.95 138.225C129.492 138.367 130.079 138.438 130.713 138.438C131.396 138.438 131.979 138.359 132.463 138.2C132.946 138.042 133.337 137.838 133.637 137.588C133.938 137.338 134.154 137.05 134.287 136.725C134.421 136.4 134.488 136.071 134.488 135.738C134.488 135.054 134.333 134.55 134.025 134.225C133.717 133.9 133.379 133.671 133.012 133.538C132.379 133.304 131.642 133.084 130.8 132.875C129.958 132.667 128.921 132.396 127.688 132.063C126.921 131.863 126.283 131.6 125.775 131.275C125.267 130.95 124.863 130.588 124.562 130.188C124.262 129.788 124.05 129.363 123.925 128.913C123.8 128.463 123.737 128.004 123.737 127.538C123.737 126.638 123.925 125.859 124.3 125.2C124.675 124.542 125.171 123.996 125.787 123.563C126.404 123.129 127.104 122.809 127.888 122.6C128.671 122.392 129.462 122.288 130.262 122.288C131.196 122.288 132.075 122.409 132.9 122.65C133.725 122.892 134.45 123.254 135.075 123.738C135.7 124.221 136.196 124.817 136.562 125.525C136.929 126.234 137.113 127.054 137.113 127.988L133.988 127.988C133.904 126.838 133.513 126.025 132.812 125.55C132.112 125.075 131.221 124.838 130.137 124.838C129.771 124.838 129.396 124.875 129.012 124.95C128.629 125.025 128.279 125.15 127.962 125.325C127.646 125.5 127.383 125.738 127.175 126.038C126.967 126.338 126.862 126.713 126.862 127.163C126.862 127.796 127.058 128.292 127.45 128.65C127.842 129.009 128.354 129.279 128.988 129.463C129.054 129.479 129.317 129.55 129.775 129.675C130.233 129.8 130.746 129.938 131.312 130.088C131.879 130.238 132.433 130.384 132.975 130.525C133.517 130.667 133.904 130.771 134.137 130.838C134.721 131.021 135.229 131.271 135.662 131.588C136.096 131.904 136.458 132.267 136.75 132.675C137.042 133.084 137.258 133.521 137.4 133.988C137.542 134.454 137.613 134.921 137.613 135.388C137.613 136.388 137.408 137.242 137 137.95C136.592 138.659 136.054 139.238 135.387 139.688C134.721 140.138 133.963 140.467 133.113 140.675C132.262 140.884 131.396 140.988 130.512 140.988C129.496 140.988 128.538 140.863 127.638 140.613C126.737 140.363 125.954 139.979 125.287 139.463C124.621 138.946 124.088 138.284 123.688 137.475C123.287 136.667 123.079 135.713 123.062 134.613L126.188 134.613Z"/>
</g>
<g opacity="1">
<mask height="144" id="StrokeMask" maskUnits="userSpaceOnUse" width="144" x="-1.42109e-14" y="0">
<rect fill="#000000" height="144" stroke="none" width="144" x="-1.42109e-14" y="0"/>
<use fill="#ffffff" fill-rule="evenodd" stroke="none" xlink:href="#Fill"/>
</mask>
<use fill="none" mask="url(#StrokeMask)" stroke="#00507d" stroke-linecap="butt" stroke-linejoin="round" stroke-width="2" xlink:href="#Fill"/>
</g>
<path d="M108 28.7428C107.789 22.4117 102.73 17.261 96.7234 17.261L87.6123 17.261C87.8992 18.11 88.4168 18.8586 88.7768 19.6797L96.7234 19.6797C101.513 19.6797 105.547 23.7831 105.715 28.7851L105.715 99.6012C105.548 104.968 101.598 109.175 96.7223 109.175L46.8987 109.175C44.5218 109.175 42.3094 108.183 40.6685 106.382C39.0526 104.609 38.2081 102.272 38.2927 99.7548L38.2927 28.854C38.2093 26.4958 39.0355 24.2403 40.6193 22.5012C42.2512 20.7101 44.5401 19.6809 46.8987 19.6809L55.2533 19.6809C55.2933 19.3302 55.3767 18.9843 55.5264 18.6723C55.6304 18.1728 55.7504 17.6782 55.9778 17.2622L46.8987 17.2622C43.9219 17.2622 41.033 18.5598 38.9726 20.8226C36.9545 23.0394 35.9021 25.9225 36.0072 28.8988L36.0072 99.7113C35.9009 102.846 36.9717 105.813 39.0229 108.062C41.0981 110.339 43.8956 111.593 46.8976 111.593L96.7234 111.593C102.839 111.593 107.792 106.36 108 99.6411L108 28.7428Z" fill="#00507d" fill-rule="nonzero" opacity="1" stroke="none"/>
<path d="M88.2226 24.5184L55.7858 24.5184C55.3287 24.5184 54.9162 24.2306 54.7356 23.7855C54.1014 22.2206 54.0077 20.5094 54.4636 18.8356C55.3001 15.7722 58.0827 13.6341 61.2321 13.6341L62.6685 13.6341C62.9177 8.36602 67.0464 4.16103 72.0847 4.16103C77.1231 4.16103 81.2518 8.36602 81.5009 13.6341L82.7762 13.6341C85.9245 13.6341 88.7082 15.7734 89.5447 18.8356L89.5447 18.8356C90.0007 20.5081 89.907 22.2206 89.2727 23.7855C89.0922 24.2294 88.6797 24.5184 88.2226 24.5184ZM56.6029 22.0997L87.4066 22.0997C87.6043 21.2616 87.5872 20.3787 87.3484 19.5068C86.793 17.4726 84.9132 16.0528 82.7762 16.0528L80.3365 16.0528C80.0177 16.0528 79.7137 15.9125 79.4977 15.6646C79.2817 15.4167 79.1732 15.0853 79.1972 14.7491C79.212 14.5471 79.2269 14.3452 79.2269 14.1384C79.2269 9.97086 76.0226 6.57978 72.0847 6.57978C68.1468 6.57978 64.9426 9.97086 64.9426 14.1384C64.9426 14.3452 64.9575 14.5471 64.9723 14.7491C64.9963 15.0853 64.8877 15.4167 64.6718 15.6646C64.4558 15.9125 64.1507 16.0528 63.833 16.0528L61.2321 16.0528C59.0952 16.0528 57.2154 17.4726 56.66 19.5068C56.4223 20.3775 56.404 21.2616 56.6029 22.0997Z" fill="#00507d" fill-rule="nonzero" opacity="1" stroke="none"/>
<g fill="#ffffff" opacity="0.696226" stroke="#00507d" stroke-linecap="butt" stroke-linejoin="round" stroke-width="0.5">
<path clip-path="url(#TextBounds_3)" d="M66.824 64.2081L65.324 71.3481L66.894 71.3481L68.404 64.2081L66.824 64.2081Z"/>
<path clip-path="url(#TextBounds_3)" d="M69.274 66.1781L68.204 71.3481L69.614 71.3481L70.194 68.5981C70.234 68.4181 70.2923 68.2415 70.369 68.0681C70.4456 67.8948 70.5423 67.7415 70.659 67.6081C70.7756 67.4748 70.9156 67.3665 71.079 67.2831C71.2423 67.1998 71.4306 67.1581 71.644 67.1581C71.8106 67.1581 71.9656 67.2081 72.109 67.3081C72.2523 67.4081 72.324 67.5348 72.324 67.6881C72.324 67.7615 72.3123 67.8648 72.289 67.9981C72.2656 68.1315 72.2473 68.2381 72.234 68.3181L71.604 71.3481L73.024 71.3481L73.664 68.3181C73.6706 68.2715 73.6823 68.2098 73.699 68.1331C73.7156 68.0565 73.7323 67.9748 73.749 67.8881C73.7656 67.8015 73.7806 67.7165 73.794 67.6331C73.8073 67.5498 73.814 67.4815 73.814 67.4281C73.814 66.5015 73.3106 66.0381 72.304 66.0381C71.5573 66.0381 70.954 66.3248 70.494 66.8981L70.474 66.8981L70.634 66.1781L69.274 66.1781Z"/>
<path clip-path="url(#TextBounds_3)" d="M78.344 67.9681L79.764 67.9681C79.7573 67.6281 79.6923 67.3348 79.569 67.0881C79.4456 66.8415 79.279 66.6415 79.069 66.4881C78.859 66.3348 78.614 66.2215 78.334 66.1481C78.054 66.0748 77.7573 66.0381 77.444 66.0381C76.9773 66.0381 76.564 66.1231 76.204 66.2931C75.844 66.4631 75.539 66.6965 75.289 66.9931C75.039 67.2898 74.849 67.6331 74.719 68.0231C74.589 68.4131 74.524 68.8281 74.524 69.2681C74.524 70.0281 74.7256 70.5865 75.129 70.9431C75.5323 71.2998 76.0973 71.4781 76.824 71.4781C77.504 71.4781 78.0656 71.3031 78.509 70.9531C78.9523 70.6031 79.2806 70.1048 79.494 69.4581L78.074 69.4581C78.034 69.5848 77.9823 69.7065 77.919 69.8231C77.8556 69.9398 77.7756 70.0415 77.679 70.1281C77.5823 70.2148 77.4723 70.2848 77.349 70.3381C77.2256 70.3915 77.084 70.4181 76.924 70.4181C76.744 70.4181 76.5923 70.3881 76.469 70.3281C76.3456 70.2681 76.244 70.1881 76.164 70.0881C76.084 69.9881 76.0273 69.8698 75.994 69.7331C75.9606 69.5965 75.944 69.4515 75.944 69.2981C75.944 69.0781 75.969 68.8398 76.019 68.5831C76.069 68.3265 76.1506 68.0881 76.264 67.8681C76.3773 67.6481 76.5273 67.4665 76.714 67.3231C76.9006 67.1798 77.1273 67.1081 77.394 67.1081C77.714 67.1081 77.9523 67.1748 78.109 67.3081C78.2656 67.4415 78.344 67.6615 78.344 67.9681Z"/>
<path clip-path="url(#TextBounds_3)" d="M82.554 65.3781L82.814 64.2081L81.384 64.2081L81.124 65.3781L82.554 65.3781ZM80.964 66.1781L79.874 71.3481L81.294 71.3481L82.394 66.1781L80.964 66.1781Z"/>
<path clip-path="url(#TextBounds_3)" d="M85.644 67.1081C85.9906 67.1081 86.2473 67.2098 86.414 67.4131C86.5806 67.6165 86.664 67.8881 86.664 68.2281C86.664 68.4481 86.6323 68.6865 86.569 68.9431C86.5056 69.1998 86.409 69.4381 86.279 69.6581C86.149 69.8781 85.9873 70.0598 85.794 70.2031C85.6006 70.3465 85.3706 70.4181 85.104 70.4181C84.9373 70.4181 84.7906 70.3865 84.664 70.3231C84.5373 70.2598 84.4323 70.1765 84.349 70.0731C84.2656 69.9698 84.2023 69.8481 84.159 69.7081C84.1156 69.5681 84.094 69.4215 84.094 69.2681C84.094 69.0415 84.124 68.8015 84.184 68.5481C84.244 68.2948 84.3373 68.0615 84.464 67.8481C84.5906 67.6348 84.7523 67.4581 84.949 67.3181C85.1456 67.1781 85.3773 67.1081 85.644 67.1081ZM86.214 70.7081L86.074 71.3481L87.444 71.3481L88.954 64.2081L87.534 64.2081L86.964 66.8681L86.944 66.8681C86.8306 66.5815 86.6356 66.3715 86.359 66.2381C86.0823 66.1048 85.794 66.0381 85.494 66.0381C85.014 66.0381 84.5973 66.1365 84.244 66.3331C83.8906 66.5298 83.5973 66.7881 83.364 67.1081C83.1306 67.4281 82.9573 67.7915 82.844 68.1981C82.7306 68.6048 82.674 69.0215 82.674 69.4481C82.674 70.0748 82.8456 70.5698 83.189 70.9331C83.5323 71.2965 84.0173 71.4781 84.644 71.4781C84.964 71.4781 85.2623 71.4165 85.539 71.2931C85.8156 71.1698 86.034 70.9681 86.194 70.6881L86.214 70.7081Z"/>
<path clip-path="url(#TextBounds_3)" d="M92.674 68.2081L90.304 68.2081C90.3573 68.0615 90.4223 67.9215 90.499 67.7881C90.5756 67.6548 90.6706 67.5381 90.784 67.4381C90.8973 67.3381 91.0306 67.2581 91.184 67.1981C91.3373 67.1381 91.514 67.1081 91.714 67.1081C91.9206 67.1081 92.0873 67.1398 92.214 67.2031C92.3406 67.2665 92.4373 67.3515 92.504 67.4581C92.5706 67.5648 92.6156 67.6831 92.639 67.8131C92.6623 67.9431 92.674 68.0748 92.674 68.2081ZM90.154 69.1081L93.964 69.1081C94.0173 68.8215 94.044 68.5515 94.044 68.2981C94.044 67.9248 93.9856 67.5965 93.869 67.3131C93.7523 67.0298 93.589 66.7931 93.379 66.6031C93.169 66.4131 92.9156 66.2715 92.619 66.1781C92.3223 66.0848 91.994 66.0381 91.634 66.0381C91.194 66.0381 90.7973 66.1265 90.444 66.3031C90.0906 66.4798 89.7923 66.7165 89.549 67.0131C89.3056 67.3098 89.1173 67.6498 88.984 68.0331C88.8506 68.4165 88.784 68.8148 88.784 69.2281C88.784 69.6015 88.839 69.9281 88.949 70.2081C89.059 70.4881 89.214 70.7231 89.414 70.9131C89.614 71.1031 89.8556 71.2448 90.139 71.3381C90.4223 71.4315 90.7373 71.4781 91.084 71.4781C91.4573 71.4781 91.7856 71.4415 92.069 71.3681C92.3523 71.2948 92.6006 71.1831 92.814 71.0331C93.0273 70.8831 93.2106 70.6981 93.364 70.4781C93.5173 70.2581 93.6506 70.0015 93.764 69.7081L92.344 69.7081C92.2906 69.7881 92.2323 69.8715 92.169 69.9581C92.1056 70.0448 92.0323 70.1215 91.949 70.1881C91.8656 70.2548 91.769 70.3098 91.659 70.3531C91.549 70.3965 91.424 70.4181 91.284 70.4181C90.8973 70.4181 90.6106 70.3248 90.424 70.1381C90.2373 69.9515 90.144 69.7081 90.144 69.4081L90.144 69.2781C90.144 69.2515 90.144 69.2248 90.144 69.1981C90.144 69.1715 90.1473 69.1415 90.154 69.1081Z"/>
<path clip-path="url(#TextBounds_3)" d="M95.384 66.1781L94.314 71.3481L95.724 71.3481L96.304 68.5981C96.344 68.4181 96.4023 68.2415 96.479 68.0681C96.5556 67.8948 96.6523 67.7415 96.769 67.6081C96.8856 67.4748 97.0256 67.3665 97.189 67.2831C97.3523 67.1998 97.5406 67.1581 97.754 67.1581C97.9206 67.1581 98.0756 67.2081 98.219 67.3081C98.3623 67.4081 98.434 67.5348 98.434 67.6881C98.434 67.7615 98.4223 67.8648 98.399 67.9981C98.3756 68.1315 98.3573 68.2381 98.344 68.3181L97.714 71.3481L99.134 71.3481L99.774 68.3181C99.7806 68.2715 99.7923 68.2098 99.809 68.1331C99.8256 68.0565 99.8423 67.9748 99.859 67.8881C99.8756 67.8015 99.8906 67.7165 99.904 67.6331C99.9173 67.5498 99.924 67.4815 99.924 67.4281C99.924 66.5015 99.4206 66.0381 98.414 66.0381C97.6673 66.0381 97.064 66.3248 96.604 66.8981L96.584 66.8981L96.744 66.1781L95.384 66.1781Z"/>
<path clip-path="url(#TextBounds_3)" d="M103.314 66.1781L103.634 64.6081L102.214 64.6081L101.894 66.1781L100.984 66.1781L100.764 67.1281L101.694 67.1281L101.114 69.8981C101.094 69.9915 101.077 70.0798 101.064 70.1631C101.051 70.2465 101.044 70.3215 101.044 70.3881C101.037 70.6015 101.072 70.7748 101.149 70.9081C101.226 71.0415 101.329 71.1465 101.459 71.2231C101.589 71.2998 101.736 71.3531 101.899 71.3831C102.062 71.4131 102.227 71.4281 102.394 71.4281C102.547 71.4281 102.697 71.4231 102.844 71.4131C102.991 71.4031 103.137 71.3915 103.284 71.3781L103.524 70.2881C103.357 70.3081 103.187 70.3181 103.014 70.3181C102.961 70.3181 102.906 70.3165 102.849 70.3131C102.792 70.3098 102.741 70.2948 102.694 70.2681C102.647 70.2415 102.609 70.2031 102.579 70.1531C102.549 70.1031 102.534 70.0315 102.534 69.9381C102.534 69.9181 102.537 69.8865 102.544 69.8431C102.551 69.7998 102.561 69.7515 102.574 69.6981L103.104 67.1281L104.114 67.1281L104.334 66.1781L103.314 66.1781Z"/>
<path clip-path="url(#TextBounds_3)" d="M42.574 76.4982L41.074 83.6382L42.554 83.6382L43.624 77.9582L43.644 77.9582L44.334 83.6382L45.534 83.6382L48.554 77.9582L48.574 77.9582L47.274 83.6382L48.744 83.6382L50.254 76.4982L48.064 76.4982L45.314 81.6682L45.294 81.6682L44.744 76.4982L42.574 76.4982Z"/>
<path clip-path="url(#TextBounds_3)" d="M50.774 80.0382L52.104 80.0382C52.1506 79.7782 52.274 79.5865 52.474 79.4632C52.674 79.3399 52.9006 79.2782 53.154 79.2782C53.2473 79.2782 53.3456 79.2865 53.449 79.3032C53.5523 79.3199 53.649 79.3515 53.739 79.3982C53.829 79.4449 53.904 79.5082 53.964 79.5882C54.024 79.6682 54.054 79.7749 54.054 79.9082C54.054 80.0749 54.014 80.1999 53.934 80.2832C53.854 80.3665 53.7323 80.4299 53.569 80.4732C53.4056 80.5165 53.2006 80.5482 52.954 80.5682C52.7073 80.5882 52.4173 80.6182 52.084 80.6582C51.4573 80.7315 50.9723 80.9182 50.629 81.2182C50.2856 81.5182 50.114 81.9182 50.114 82.4182C50.114 82.5982 50.1473 82.7699 50.214 82.9332C50.2806 83.0965 50.384 83.2399 50.524 83.3632C50.664 83.4865 50.839 83.5849 51.049 83.6582C51.259 83.7315 51.504 83.7682 51.784 83.7682C52.084 83.7682 52.374 83.7165 52.654 83.6132C52.934 83.5099 53.1706 83.3482 53.364 83.1282L53.364 83.6382L54.784 83.6382C54.7506 83.5249 54.734 83.4249 54.734 83.3382C54.734 83.2382 54.739 83.1199 54.749 82.9832C54.759 82.8465 54.7773 82.7315 54.804 82.6382L55.264 80.5582C55.3373 80.2249 55.374 79.9349 55.374 79.6882C55.3806 79.3949 55.3156 79.1599 55.179 78.9832C55.0423 78.8065 54.8673 78.6699 54.654 78.5732C54.4406 78.4765 54.2073 78.4115 53.954 78.3782C53.7006 78.3449 53.4573 78.3282 53.224 78.3282C52.9306 78.3282 52.6473 78.3565 52.374 78.4132C52.1006 78.4699 51.854 78.5649 51.634 78.6982C51.414 78.8315 51.2273 79.0065 51.074 79.2232C50.9206 79.4399 50.8206 79.7115 50.774 80.0382ZM53.774 81.1582L53.634 81.6582C53.594 81.7982 53.544 81.9382 53.484 82.0782C53.424 82.2182 53.3423 82.3432 53.239 82.4532C53.1356 82.5632 53.009 82.6532 52.859 82.7232C52.709 82.7932 52.524 82.8282 52.304 82.8282C52.0973 82.8282 51.9156 82.7799 51.759 82.6832C51.6023 82.5865 51.524 82.4415 51.524 82.2482C51.524 82.0882 51.554 81.9565 51.614 81.8532C51.674 81.7499 51.7523 81.6682 51.849 81.6082C51.9456 81.5482 52.0573 81.5032 52.184 81.4732C52.3106 81.4432 52.4406 81.4215 52.574 81.4082C52.7806 81.3949 52.9873 81.3765 53.194 81.3532C53.4006 81.3299 53.594 81.2649 53.774 81.1582Z"/>
<path clip-path="url(#TextBounds_3)" d="M56.874 78.4682L55.804 83.6382L57.214 83.6382L57.794 80.8882C57.834 80.7082 57.8923 80.5315 57.969 80.3582C58.0456 80.1849 58.1423 80.0315 58.259 79.8982C58.3756 79.7649 58.5156 79.6565 58.679 79.5732C58.8423 79.4899 59.0306 79.4482 59.244 79.4482C59.4106 79.4482 59.5656 79.4982 59.709 79.5982C59.8523 79.6982 59.924 79.8249 59.924 79.9782C59.924 80.0515 59.9123 80.1549 59.889 80.2882C59.8656 80.4215 59.8473 80.5282 59.834 80.6082L59.204 83.6382L60.624 83.6382L61.264 80.6082C61.2706 80.5615 61.2823 80.4999 61.299 80.4232C61.3156 80.3465 61.3323 80.2649 61.349 80.1782C61.3656 80.0915 61.3806 80.0065 61.394 79.9232C61.4073 79.8399 61.414 79.7715 61.414 79.7182C61.414 78.7915 60.9106 78.3282 59.904 78.3282C59.1573 78.3282 58.554 78.6149 58.094 79.1882L58.074 79.1882L58.234 78.4682L56.874 78.4682Z"/>
<path clip-path="url(#TextBounds_3)" d="M62.624 80.0382L63.954 80.0382C64.0006 79.7782 64.124 79.5865 64.324 79.4632C64.524 79.3399 64.7506 79.2782 65.004 79.2782C65.0973 79.2782 65.1956 79.2865 65.299 79.3032C65.4023 79.3199 65.499 79.3515 65.589 79.3982C65.679 79.4449 65.754 79.5082 65.814 79.5882C65.874 79.6682 65.904 79.7749 65.904 79.9082C65.904 80.0749 65.864 80.1999 65.784 80.2832C65.704 80.3665 65.5823 80.4299 65.419 80.4732C65.2556 80.5165 65.0506 80.5482 64.804 80.5682C64.5573 80.5882 64.2673 80.6182 63.934 80.6582C63.3073 80.7315 62.8223 80.9182 62.479 81.2182C62.1356 81.5182 61.964 81.9182 61.964 82.4182C61.964 82.5982 61.9973 82.7699 62.064 82.9332C62.1306 83.0965 62.234 83.2399 62.374 83.3632C62.514 83.4865 62.689 83.5849 62.899 83.6582C63.109 83.7315 63.354 83.7682 63.634 83.7682C63.934 83.7682 64.224 83.7165 64.504 83.6132C64.784 83.5099 65.0206 83.3482 65.214 83.1282L65.214 83.6382L66.634 83.6382C66.6006 83.5249 66.584 83.4249 66.584 83.3382C66.584 83.2382 66.589 83.1199 66.599 82.9832C66.609 82.8465 66.6273 82.7315 66.654 82.6382L67.114 80.5582C67.1873 80.2249 67.224 79.9349 67.224 79.6882C67.2306 79.3949 67.1656 79.1599 67.029 78.9832C66.8923 78.8065 66.7173 78.6699 66.504 78.5732C66.2906 78.4765 66.0573 78.4115 65.804 78.3782C65.5506 78.3449 65.3073 78.3282 65.074 78.3282C64.7806 78.3282 64.4973 78.3565 64.224 78.4132C63.9506 78.4699 63.704 78.5649 63.484 78.6982C63.264 78.8315 63.0773 79.0065 62.924 79.2232C62.7706 79.4399 62.6706 79.7115 62.624 80.0382ZM65.624 81.1582L65.484 81.6582C65.444 81.7982 65.394 81.9382 65.334 82.0782C65.274 82.2182 65.1923 82.3432 65.089 82.4532C64.9856 82.5632 64.859 82.6532 64.709 82.7232C64.559 82.7932 64.374 82.8282 64.154 82.8282C63.9473 82.8282 63.7656 82.7799 63.609 82.6832C63.4523 82.5865 63.374 82.4415 63.374 82.2482C63.374 82.0882 63.404 81.9565 63.464 81.8532C63.524 81.7499 63.6023 81.6682 63.699 81.6082C63.7956 81.5482 63.9073 81.5032 64.034 81.4732C64.1606 81.4432 64.2906 81.4215 64.424 81.4082C64.6306 81.3949 64.8373 81.3765 65.044 81.3532C65.2506 81.3299 65.444 81.2649 65.624 81.1582Z"/>
<path clip-path="url(#TextBounds_3)" d="M72.634 83.3682L73.664 78.4682L72.304 78.4682L72.144 79.2582L72.124 79.2582C71.9773 78.9182 71.7673 78.6782 71.494 78.5382C71.2206 78.3982 70.904 78.3282 70.544 78.3282C70.1306 78.3282 69.7623 78.4199 69.439 78.6032C69.1156 78.7865 68.8423 79.0265 68.619 79.3232C68.3956 79.6199 68.2256 79.9532 68.109 80.3232C67.9923 80.6932 67.934 81.0682 67.934 81.4482C67.934 81.7682 67.9806 82.0565 68.074 82.3132C68.1673 82.5699 68.299 82.7915 68.469 82.9782C68.639 83.1649 68.8473 83.3082 69.094 83.4082C69.3406 83.5082 69.6173 83.5582 69.924 83.5582C70.504 83.5582 70.9773 83.3149 71.344 82.8282L71.364 82.8482C71.2906 83.0949 71.2173 83.3282 71.144 83.5482C71.0706 83.7682 70.9806 83.9582 70.874 84.1182C70.7673 84.2782 70.639 84.4049 70.489 84.4982C70.339 84.5915 70.1506 84.6382 69.924 84.6382C69.8106 84.6382 69.6973 84.6249 69.584 84.5982C69.4706 84.5715 69.369 84.5282 69.279 84.4682C69.189 84.4082 69.1173 84.3315 69.064 84.2382C69.0106 84.1449 68.9873 84.0315 68.994 83.8982L67.584 83.8982C67.584 84.2115 67.649 84.4749 67.779 84.6882C67.909 84.9015 68.079 85.0749 68.289 85.2082C68.499 85.3415 68.7356 85.4382 68.999 85.4982C69.2623 85.5582 69.524 85.5882 69.784 85.5882C70.2106 85.5882 70.5823 85.5449 70.899 85.4582C71.2156 85.3715 71.489 85.2382 71.719 85.0582C71.949 84.8782 72.1373 84.6482 72.284 84.3682C72.4306 84.0882 72.5473 83.7549 72.634 83.3682ZM70.804 79.3982C71.1506 79.3982 71.4073 79.5032 71.574 79.7132C71.7406 79.9232 71.824 80.1915 71.824 80.5182C71.824 80.7382 71.7923 80.9649 71.729 81.1982C71.6656 81.4315 71.5723 81.6432 71.449 81.8332C71.3256 82.0232 71.169 82.1799 70.979 82.3032C70.789 82.4265 70.5673 82.4882 70.314 82.4882C70.1473 82.4882 70.004 82.4582 69.884 82.3982C69.764 82.3382 69.664 82.2549 69.584 82.1482C69.504 82.0415 69.4456 81.9199 69.409 81.7832C69.3723 81.6465 69.354 81.5015 69.354 81.3482C69.354 81.1415 69.3856 80.9232 69.449 80.6932C69.5123 80.4632 69.604 80.2532 69.724 80.0632C69.844 79.8732 69.994 79.7149 70.174 79.5882C70.354 79.4615 70.564 79.3982 70.804 79.3982Z"/>
<path clip-path="url(#TextBounds_3)" d="M77.864 80.4982L75.494 80.4982C75.5473 80.3515 75.6123 80.2115 75.689 80.0782C75.7656 79.9449 75.8606 79.8282 75.974 79.7282C76.0873 79.6282 76.2206 79.5482 76.374 79.4882C76.5273 79.4282 76.704 79.3982 76.904 79.3982C77.1106 79.3982 77.2773 79.4299 77.404 79.4932C77.5306 79.5565 77.6273 79.6415 77.694 79.7482C77.7606 79.8549 77.8056 79.9732 77.829 80.1032C77.8523 80.2332 77.864 80.3649 77.864 80.4982ZM75.344 81.3982L79.154 81.3982C79.2073 81.1115 79.234 80.8415 79.234 80.5882C79.234 80.2149 79.1756 79.8865 79.059 79.6032C78.9423 79.3199 78.779 79.0832 78.569 78.8932C78.359 78.7032 78.1056 78.5615 77.809 78.4682C77.5123 78.3749 77.184 78.3282 76.824 78.3282C76.384 78.3282 75.9873 78.4165 75.634 78.5932C75.2806 78.7699 74.9823 79.0065 74.739 79.3032C74.4956 79.5999 74.3073 79.9399 74.174 80.3232C74.0406 80.7065 73.974 81.1049 73.974 81.5182C73.974 81.8915 74.029 82.2182 74.139 82.4982C74.249 82.7782 74.404 83.0132 74.604 83.2032C74.804 83.3932 75.0456 83.5349 75.329 83.6282C75.6123 83.7215 75.9273 83.7682 76.274 83.7682C76.6473 83.7682 76.9756 83.7315 77.259 83.6582C77.5423 83.5849 77.7906 83.4732 78.004 83.3232C78.2173 83.1732 78.4006 82.9882 78.554 82.7682C78.7073 82.5482 78.8406 82.2915 78.954 81.9982L77.534 81.9982C77.4806 82.0782 77.4223 82.1615 77.359 82.2482C77.2956 82.3349 77.2223 82.4115 77.139 82.4782C77.0556 82.5449 76.959 82.5999 76.849 82.6432C76.739 82.6865 76.614 82.7082 76.474 82.7082C76.0873 82.7082 75.8006 82.6149 75.614 82.4282C75.4273 82.2415 75.334 81.9982 75.334 81.6982L75.334 81.5682C75.334 81.5415 75.334 81.5149 75.334 81.4882C75.334 81.4615 75.3373 81.4315 75.344 81.3982Z"/>
<path clip-path="url(#TextBounds_3)" d="M80.574 78.4682L79.504 83.6382L80.914 83.6382L81.494 80.8682C81.5273 80.7082 81.5806 80.5449 81.654 80.3782C81.7273 80.2115 81.819 80.0599 81.929 79.9232C82.039 79.7865 82.169 79.6732 82.319 79.5832C82.469 79.4932 82.6373 79.4482 82.824 79.4482C83.004 79.4482 83.1523 79.5015 83.269 79.6082C83.3856 79.7149 83.444 79.8449 83.444 79.9982C83.444 80.1115 83.4306 80.2349 83.404 80.3682L82.724 83.6382L84.154 83.6382L84.734 80.8682C84.7673 80.7082 84.8206 80.5449 84.894 80.3782C84.9673 80.2115 85.059 80.0599 85.169 79.9232C85.279 79.7865 85.409 79.6732 85.559 79.5832C85.709 79.4932 85.8773 79.4482 86.064 79.4482C86.244 79.4482 86.3923 79.5015 86.509 79.6082C86.6256 79.7149 86.684 79.8449 86.684 79.9982C86.684 80.1115 86.6706 80.2349 86.644 80.3682L85.964 83.6382L87.384 83.6382L88.024 80.5982C88.0573 80.4449 88.0906 80.2865 88.124 80.1232C88.1573 79.9599 88.174 79.7982 88.174 79.6382C88.174 79.4182 88.1306 79.2249 88.044 79.0582C87.9573 78.8915 87.8406 78.7549 87.694 78.6482C87.5473 78.5415 87.379 78.4615 87.189 78.4082C86.999 78.3549 86.804 78.3282 86.604 78.3282C86.4373 78.3282 86.269 78.3499 86.099 78.3932C85.929 78.4365 85.7673 78.4982 85.614 78.5782C85.4606 78.6582 85.3173 78.7532 85.184 78.8632C85.0506 78.9732 84.9406 79.0949 84.854 79.2282C84.794 78.9082 84.6506 78.6782 84.424 78.5382C84.1973 78.3982 83.924 78.3282 83.604 78.3282C83.224 78.3282 82.8806 78.3982 82.574 78.5382C82.2673 78.6782 82.0073 78.8982 81.794 79.1982L81.774 79.1982L81.934 78.4682L80.574 78.4682Z"/>
<path clip-path="url(#TextBounds_3)" d="M92.674 80.4982L90.304 80.4982C90.3573 80.3515 90.4223 80.2115 90.499 80.0782C90.5756 79.9449 90.6706 79.8282 90.784 79.7282C90.8973 79.6282 91.0306 79.5482 91.184 79.4882C91.3373 79.4282 91.514 79.3982 91.714 79.3982C91.9206 79.3982 92.0873 79.4299 92.214 79.4932C92.3406 79.5565 92.4373 79.6415 92.504 79.7482C92.5706 79.8549 92.6156 79.9732 92.639 80.1032C92.6623 80.2332 92.674 80.3649 92.674 80.4982ZM90.154 81.3982L93.964 81.3982C94.0173 81.1115 94.044 80.8415 94.044 80.5882C94.044 80.2149 93.9856 79.8865 93.869 79.6032C93.7523 79.3199 93.589 79.0832 93.379 78.8932C93.169 78.7032 92.9156 78.5615 92.619 78.4682C92.3223 78.3749 91.994 78.3282 91.634 78.3282C91.194 78.3282 90.7973 78.4165 90.444 78.5932C90.0906 78.7699 89.7923 79.0065 89.549 79.3032C89.3056 79.5999 89.1173 79.9399 88.984 80.3232C88.8506 80.7065 88.784 81.1049 88.784 81.5182C88.784 81.8915 88.839 82.2182 88.949 82.4982C89.059 82.7782 89.214 83.0132 89.414 83.2032C89.614 83.3932 89.8556 83.5349 90.139 83.6282C90.4223 83.7215 90.7373 83.7682 91.084 83.7682C91.4573 83.7682 91.7856 83.7315 92.069 83.6582C92.3523 83.5849 92.6006 83.4732 92.814 83.3232C93.0273 83.1732 93.2106 82.9882 93.364 82.7682C93.5173 82.5482 93.6506 82.2915 93.764 81.9982L92.344 81.9982C92.2906 82.0782 92.2323 82.1615 92.169 82.2482C92.1056 82.3349 92.0323 82.4115 91.949 82.4782C91.8656 82.5449 91.769 82.5999 91.659 82.6432C91.549 82.6865 91.424 82.7082 91.284 82.7082C90.8973 82.7082 90.6106 82.6149 90.424 82.4282C90.2373 82.2415 90.144 81.9982 90.144 81.6982L90.144 81.5682C90.144 81.5415 90.144 81.5149 90.144 81.4882C90.144 81.4615 90.1473 81.4315 90.154 81.3982Z"/>
<path clip-path="url(#TextBounds_3)" d="M95.384 78.4682L94.314 83.6382L95.724 83.6382L96.304 80.8882C96.344 80.7082 96.4023 80.5315 96.479 80.3582C96.5556 80.1849 96.6523 80.0315 96.769 79.8982C96.8856 79.7649 97.0256 79.6565 97.189 79.5732C97.3523 79.4899 97.5406 79.4482 97.754 79.4482C97.9206 79.4482 98.0756 79.4982 98.219 79.5982C98.3623 79.6982 98.434 79.8249 98.434 79.9782C98.434 80.0515 98.4223 80.1549 98.399 80.2882C98.3756 80.4215 98.3573 80.5282 98.344 80.6082L97.714 83.6382L99.134 83.6382L99.774 80.6082C99.7806 80.5615 99.7923 80.4999 99.809 80.4232C99.8256 80.3465 99.8423 80.2649 99.859 80.1782C99.8756 80.0915 99.8906 80.0065 99.904 79.9232C99.9173 79.8399 99.924 79.7715 99.924 79.7182C99.924 78.7915 99.4206 78.3282 98.414 78.3282C97.6673 78.3282 97.064 78.6149 96.604 79.1882L96.584 79.1882L96.744 78.4682L95.384 78.4682Z"/>
<path clip-path="url(#TextBounds_3)" d="M103.314 78.4682L103.634 76.8982L102.214 76.8982L101.894 78.4682L100.984 78.4682L100.764 79.4182L101.694 79.4182L101.114 82.1882C101.094 82.2815 101.077 82.3699 101.064 82.4532C101.051 82.5365 101.044 82.6115 101.044 82.6782C101.037 82.8915 101.072 83.0649 101.149 83.1982C101.226 83.3315 101.329 83.4365 101.459 83.5132C101.589 83.5899 101.736 83.6432 101.899 83.6732C102.062 83.7032 102.227 83.7182 102.394 83.7182C102.547 83.7182 102.697 83.7132 102.844 83.7032C102.991 83.6932 103.137 83.6815 103.284 83.6682L103.524 82.5782C103.357 82.5982 103.187 82.6082 103.014 82.6082C102.961 82.6082 102.906 82.6065 102.849 82.6032C102.792 82.5999 102.741 82.5849 102.694 82.5582C102.647 82.5315 102.609 82.4932 102.579 82.4432C102.549 82.3932 102.534 82.3215 102.534 82.2282C102.534 82.2082 102.537 82.1765 102.544 82.1332C102.551 82.0899 102.561 82.0415 102.574 81.9882L103.104 79.4182L104.114 79.4182L104.334 78.4682L103.314 78.4682Z"/>
<path clip-path="url(#TextBounds_3)" d="M72.434 93.5583L70.944 93.5583C70.944 94.4316 71.189 95.0716 71.679 95.4783C72.169 95.8849 72.914 96.0883 73.914 96.0883C74.254 96.0883 74.5973 96.0466 74.944 95.9633C75.2906 95.8799 75.6023 95.7449 75.879 95.5583C76.1556 95.3716 76.3823 95.1283 76.559 94.8283C76.7356 94.5283 76.824 94.1649 76.824 93.7383C76.824 93.4183 76.7773 93.1483 76.684 92.9283C76.5906 92.7083 76.459 92.5216 76.289 92.3683C76.119 92.2149 75.9173 92.0899 75.684 91.9933C75.4506 91.8966 75.194 91.8116 74.914 91.7383C74.794 91.7116 74.6373 91.6766 74.444 91.6333C74.2506 91.5899 74.0623 91.5299 73.879 91.4533C73.6956 91.3766 73.539 91.2799 73.409 91.1633C73.279 91.0466 73.214 90.9016 73.214 90.7283C73.214 90.5616 73.2506 90.4216 73.324 90.3083C73.3973 90.1949 73.494 90.1033 73.614 90.0333C73.734 89.9633 73.869 89.9133 74.019 89.8833C74.169 89.8533 74.3173 89.8383 74.464 89.8383C74.644 89.8383 74.814 89.8566 74.974 89.8933C75.134 89.9299 75.2723 89.9916 75.389 90.0783C75.5056 90.1649 75.5956 90.2766 75.659 90.4133C75.7223 90.5499 75.7506 90.7183 75.744 90.9183L77.234 90.9183C77.234 90.5049 77.1623 90.1533 77.019 89.8633C76.8756 89.5733 76.6823 89.3349 76.439 89.1483C76.1956 88.9616 75.9123 88.8266 75.589 88.7433C75.2656 88.6599 74.9206 88.6183 74.554 88.6183C74.2073 88.6183 73.8656 88.6599 73.529 88.7433C73.1923 88.8266 72.8906 88.9566 72.624 89.1333C72.3573 89.3099 72.1406 89.5383 71.974 89.8183C71.8073 90.0983 71.724 90.4383 71.724 90.8383C71.724 91.1449 71.7756 91.4049 71.879 91.6183C71.9823 91.8316 72.119 92.0116 72.289 92.1583C72.459 92.3049 72.6506 92.4249 72.864 92.5183C73.0773 92.6116 73.2973 92.6916 73.524 92.7583C73.744 92.8249 73.9623 92.8883 74.179 92.9483C74.3956 93.0083 74.589 93.0783 74.759 93.1583C74.929 93.2383 75.0673 93.3333 75.174 93.4433C75.2806 93.5533 75.334 93.6949 75.334 93.8683C75.334 94.0483 75.2923 94.2016 75.209 94.3283C75.1256 94.4549 75.019 94.5583 74.889 94.6383C74.759 94.7183 74.614 94.7783 74.454 94.8183C74.294 94.8583 74.134 94.8783 73.974 94.8783C73.7473 94.8783 73.5373 94.8566 73.344 94.8133C73.1506 94.7699 72.984 94.6983 72.844 94.5983C72.704 94.4983 72.5973 94.3633 72.524 94.1933C72.4506 94.0233 72.4206 93.8116 72.434 93.5583Z"/>
<path clip-path="url(#TextBounds_3)" d="M81.294 92.5483L82.714 92.5483C82.7073 92.2083 82.6423 91.9149 82.519 91.6683C82.3956 91.4216 82.229 91.2216 82.019 91.0683C81.809 90.9149 81.564 90.8016 81.284 90.7283C81.004 90.6549 80.7073 90.6183 80.394 90.6183C79.9273 90.6183 79.514 90.7033 79.154 90.8733C78.794 91.0433 78.489 91.2766 78.239 91.5733C77.989 91.8699 77.799 92.2133 77.669 92.6033C77.539 92.9933 77.474 93.4083 77.474 93.8483C77.474 94.6083 77.6756 95.1666 78.079 95.5233C78.4823 95.8799 79.0473 96.0583 79.774 96.0583C80.454 96.0583 81.0156 95.8833 81.459 95.5333C81.9023 95.1833 82.2306 94.6849 82.444 94.0383L81.024 94.0383C80.984 94.1649 80.9323 94.2866 80.869 94.4033C80.8056 94.5199 80.7256 94.6216 80.629 94.7083C80.5323 94.7949 80.4223 94.8649 80.299 94.9183C80.1756 94.9716 80.034 94.9983 79.874 94.9983C79.694 94.9983 79.5423 94.9683 79.419 94.9083C79.2956 94.8483 79.194 94.7683 79.114 94.6683C79.034 94.5683 78.9773 94.4499 78.944 94.3133C78.9106 94.1766 78.894 94.0316 78.894 93.8783C78.894 93.6583 78.919 93.4199 78.969 93.1633C79.019 92.9066 79.1006 92.6683 79.214 92.4483C79.3273 92.2283 79.4773 92.0466 79.664 91.9033C79.8506 91.7599 80.0773 91.6883 80.344 91.6883C80.664 91.6883 80.9023 91.7549 81.059 91.8883C81.2156 92.0216 81.294 92.2416 81.294 92.5483Z"/>
<path clip-path="url(#TextBounds_3)" d="M83.894 90.7583L82.824 95.9283L84.234 95.9283L84.714 93.6383C84.7606 93.4183 84.8223 93.2066 84.899 93.0033C84.9756 92.7999 85.079 92.6183 85.209 92.4583C85.339 92.2983 85.499 92.1716 85.689 92.0783C85.879 91.9849 86.1106 91.9383 86.384 91.9383C86.484 91.9383 86.584 91.9483 86.684 91.9683C86.784 91.9883 86.884 92.0083 86.984 92.0283L87.274 90.6483C87.1273 90.6283 86.9806 90.6183 86.834 90.6183C86.454 90.6183 86.1023 90.7099 85.779 90.8933C85.4556 91.0766 85.214 91.3483 85.054 91.7083L85.034 91.6883L85.244 90.7583L83.894 90.7583Z"/>
<path clip-path="url(#TextBounds_3)" d="M90.634 92.7883L88.264 92.7883C88.3173 92.6416 88.3823 92.5016 88.459 92.3683C88.5356 92.2349 88.6306 92.1183 88.744 92.0183C88.8573 91.9183 88.9906 91.8383 89.144 91.7783C89.2973 91.7183 89.474 91.6883 89.674 91.6883C89.8806 91.6883 90.0473 91.7199 90.174 91.7833C90.3006 91.8466 90.3973 91.9316 90.464 92.0383C90.5306 92.1449 90.5756 92.2633 90.599 92.3933C90.6223 92.5233 90.634 92.6549 90.634 92.7883ZM88.114 93.6883L91.924 93.6883C91.9773 93.4016 92.004 93.1316 92.004 92.8783C92.004 92.5049 91.9456 92.1766 91.829 91.8933C91.7123 91.6099 91.549 91.3733 91.339 91.1833C91.129 90.9933 90.8756 90.8516 90.579 90.7583C90.2823 90.6649 89.954 90.6183 89.594 90.6183C89.154 90.6183 88.7573 90.7066 88.404 90.8833C88.0506 91.0599 87.7523 91.2966 87.509 91.5933C87.2656 91.8899 87.0773 92.2299 86.944 92.6133C86.8106 92.9966 86.744 93.3949 86.744 93.8083C86.744 94.1816 86.799 94.5083 86.909 94.7883C87.019 95.0683 87.174 95.3033 87.374 95.4933C87.574 95.6833 87.8156 95.8249 88.099 95.9183C88.3823 96.0116 88.6973 96.0583 89.044 96.0583C89.4173 96.0583 89.7456 96.0216 90.029 95.9483C90.3123 95.8749 90.5606 95.7633 90.774 95.6133C90.9873 95.4633 91.1706 95.2783 91.324 95.0583C91.4773 94.8383 91.6106 94.5816 91.724 94.2883L90.304 94.2883C90.2506 94.3683 90.1923 94.4516 90.129 94.5383C90.0656 94.6249 89.9923 94.7016 89.909 94.7683C89.8256 94.8349 89.729 94.8899 89.619 94.9333C89.509 94.9766 89.384 94.9983 89.244 94.9983C88.8573 94.9983 88.5706 94.9049 88.384 94.7183C88.1973 94.5316 88.104 94.2883 88.104 93.9883L88.104 93.8583C88.104 93.8316 88.104 93.8049 88.104 93.7783C88.104 93.7516 88.1073 93.7216 88.114 93.6883Z"/>
<path clip-path="url(#TextBounds_3)" d="M96.374 92.7883L94.004 92.7883C94.0573 92.6416 94.1223 92.5016 94.199 92.3683C94.2756 92.2349 94.3706 92.1183 94.484 92.0183C94.5973 91.9183 94.7306 91.8383 94.884 91.7783C95.0373 91.7183 95.214 91.6883 95.414 91.6883C95.6206 91.6883 95.7873 91.7199 95.914 91.7833C96.0406 91.8466 96.1373 91.9316 96.204 92.0383C96.2706 92.1449 96.3156 92.2633 96.339 92.3933C96.3623 92.5233 96.374 92.6549 96.374 92.7883ZM93.854 93.6883L97.664 93.6883C97.7173 93.4016 97.744 93.1316 97.744 92.8783C97.744 92.5049 97.6856 92.1766 97.569 91.8933C97.4523 91.6099 97.289 91.3733 97.079 91.1833C96.869 90.9933 96.6156 90.8516 96.319 90.7583C96.0223 90.6649 95.694 90.6183 95.334 90.6183C94.894 90.6183 94.4973 90.7066 94.144 90.8833C93.7906 91.0599 93.4923 91.2966 93.249 91.5933C93.0056 91.8899 92.8173 92.2299 92.684 92.6133C92.5506 92.9966 92.484 93.3949 92.484 93.8083C92.484 94.1816 92.539 94.5083 92.649 94.7883C92.759 95.0683 92.914 95.3033 93.114 95.4933C93.314 95.6833 93.5556 95.8249 93.839 95.9183C94.1223 96.0116 94.4373 96.0583 94.784 96.0583C95.1573 96.0583 95.4856 96.0216 95.769 95.9483C96.0523 95.8749 96.3006 95.7633 96.514 95.6133C96.7273 95.4633 96.9106 95.2783 97.064 95.0583C97.2173 94.8383 97.3506 94.5816 97.464 94.2883L96.044 94.2883C95.9906 94.3683 95.9323 94.4516 95.869 94.5383C95.8056 94.6249 95.7323 94.7016 95.649 94.7683C95.5656 94.8349 95.469 94.8899 95.359 94.9333C95.249 94.9766 95.124 94.9983 94.984 94.9983C94.5973 94.9983 94.3106 94.9049 94.124 94.7183C93.9373 94.5316 93.844 94.2883 93.844 93.9883L93.844 93.8583C93.844 93.8316 93.844 93.8049 93.844 93.7783C93.844 93.7516 93.8473 93.7216 93.854 93.6883Z"/>
<path clip-path="url(#TextBounds_3)" d="M99.084 90.7583L98.014 95.9283L99.424 95.9283L100.004 93.1783C100.044 92.9983 100.102 92.8216 100.179 92.6483C100.256 92.4749 100.352 92.3216 100.469 92.1883C100.586 92.0549 100.726 91.9466 100.889 91.8633C101.052 91.7799 101.241 91.7383 101.454 91.7383C101.621 91.7383 101.776 91.7883 101.919 91.8883C102.062 91.9883 102.134 92.1149 102.134 92.2683C102.134 92.3416 102.122 92.4449 102.099 92.5783C102.076 92.7116 102.057 92.8183 102.044 92.8983L101.414 95.9283L102.834 95.9283L103.474 92.8983C103.481 92.8516 103.492 92.7899 103.509 92.7133C103.526 92.6366 103.542 92.5549 103.559 92.4683C103.576 92.3816 103.591 92.2966 103.604 92.2133C103.617 92.1299 103.624 92.0616 103.624 92.0083C103.624 91.0816 103.121 90.6183 102.114 90.6183C101.367 90.6183 100.764 90.9049 100.304 91.4783L100.284 91.4783L100.444 90.7583L99.084 90.7583Z"/>
</g>
</g>
</svg>
