<?xml version="1.0" encoding="UTF-8" standalone="no"?>
<!DOCTYPE svg PUBLIC "-//W3C//DTD SVG 1.1//EN" "http://www.w3.org/Graphics/SVG/1.1/DTD/svg11.dtd">
<!-- Created with Vectornator (http://vectornator.io/) -->
<svg height="100%" stroke-miterlimit="10" style="fill-rule:nonzero;clip-rule:evenodd;stroke-linecap:round;stroke-linejoin:round;" version="1.1" viewBox="0 0 144 144" width="100%" xmlSpace="preserve" xmlns="http://www.w3.org/2000/svg" xmlnsVectornator="http://vectornator.io" xmlnsXlink="http://www.w3.org/1999/xlink">
<defs>
<clipPath id="TextBounds">
<rect height="27.4373" width="144" x="0" y="116.563"/>
</clipPath>
<path d="M12.7163 0L131.284 0C138.307 0 144 5.78672 144 12.925L144 131.075C144 138.213 138.307 144 131.284 144L12.7163 144C5.69329 144-1.42109e-14 138.213-1.42109e-14 131.075L-1.42109e-14 12.925C-1.42109e-14 5.78672 5.69329 0 12.7163 0Z" id="Fill"/>
</defs>
<clipPath id="ArtboardFrame">
<rect height="144" width="144" x="0" y="0"/>
</clipPath>
<g clip-path="url(#ArtboardFrame)" id="Layer-1" vectornatorLayerName="Layer 1">
<path d="M1.08655 102.736C12.8286 102.736 18.8149 97.1285 18.8149 97.1285C18.8149 97.1285 24.6653 102.736 36.5433 102.736C48.4213 102.736 54.2716 97.1285 54.2716 97.1285C54.2716 97.1285 60.1161 102.736 72 102.736C83.8839 102.736 89.7284 97.1285 89.7284 97.1285" fill="none" opacity="1" stroke="#00507d" stroke-linecap="round" stroke-linejoin="round" stroke-width="2"/>
<g fill="#00507d" opacity="1" stroke="none">
<path clip-path="url(#TextBounds)" d="M15.475 122.713L18.8 122.713L25.675 140.563L22.325 140.563L20.65 135.838L13.525 135.838L11.85 140.563L8.625 140.563L15.475 122.713ZM14.375 133.463L19.825 133.463L17.15 125.788L17.075 125.788L14.375 133.463Z"/>
<path clip-path="url(#TextBounds)" d="M42.95 140.563L40.95 140.563L40.475 138.463C39.6417 139.413 38.8083 140.071 37.975 140.438C37.1417 140.804 36.1833 140.988 35.1 140.988C33.7667 140.988 32.5708 140.742 31.5125 140.25C30.4542 139.759 29.5583 139.088 28.825 138.238C28.0917 137.388 27.5292 136.396 27.1375 135.263C26.7458 134.129 26.55 132.921 26.55 131.638C26.55 130.371 26.7458 129.171 27.1375 128.038C27.5292 126.904 28.0917 125.913 28.825 125.063C29.5583 124.213 30.4542 123.538 31.5125 123.038C32.5708 122.538 33.7667 122.288 35.1 122.288C36.0667 122.288 36.9875 122.417 37.8625 122.675C38.7375 122.934 39.5167 123.317 40.2 123.825C40.8833 124.334 41.45 124.971 41.9 125.738C42.35 126.504 42.6333 127.388 42.75 128.388L39.7 128.388C39.6167 127.804 39.4375 127.292 39.1625 126.85C38.8875 126.409 38.5417 126.038 38.125 125.738C37.7083 125.438 37.2417 125.213 36.725 125.063C36.2083 124.913 35.6667 124.838 35.1 124.838C34.15 124.838 33.3292 125.029 32.6375 125.413C31.9458 125.796 31.3833 126.309 30.95 126.95C30.5167 127.592 30.1958 128.321 29.9875 129.138C29.7792 129.954 29.675 130.788 29.675 131.638C29.675 132.488 29.7792 133.321 29.9875 134.138C30.1958 134.954 30.5167 135.684 30.95 136.325C31.3833 136.967 31.9458 137.479 32.6375 137.863C33.3292 138.246 34.15 138.438 35.1 138.438C35.9 138.454 36.6083 138.35 37.225 138.125C37.8417 137.9 38.3625 137.575 38.7875 137.15C39.2125 136.725 39.5333 136.204 39.75 135.588C39.9667 134.971 40.0833 134.288 40.1 133.538L35.35 133.538L35.35 131.163L42.95 131.163L42.95 140.563Z"/>
<path clip-path="url(#TextBounds)" d="M46.35 122.713L54.875 122.713C56.8417 122.713 58.3167 123.138 59.3 123.988C60.2833 124.838 60.775 126.021 60.775 127.538C60.775 128.388 60.65 129.092 60.4 129.65C60.15 130.209 59.8583 130.659 59.525 131C59.1917 131.342 58.8625 131.588 58.5375 131.738C58.2125 131.888 57.975 131.988 57.825 132.038L57.825 132.088C58.0917 132.121 58.3792 132.204 58.6875 132.338C58.9958 132.471 59.2833 132.684 59.55 132.975C59.8167 133.267 60.0375 133.646 60.2125 134.113C60.3875 134.579 60.475 135.163 60.475 135.863C60.475 136.913 60.5542 137.867 60.7125 138.725C60.8708 139.584 61.1167 140.196 61.45 140.563L58.1 140.563C57.8667 140.179 57.7292 139.754 57.6875 139.288C57.6458 138.821 57.625 138.371 57.625 137.938C57.625 137.121 57.575 136.417 57.475 135.825C57.375 135.234 57.1917 134.742 56.925 134.35C56.6583 133.959 56.2958 133.671 55.8375 133.488C55.3792 133.304 54.7917 133.213 54.075 133.213L49.475 133.213L49.475 140.563L46.35 140.563L46.35 122.713ZM49.475 130.838L54.6 130.838C55.6 130.838 56.3583 130.6 56.875 130.125C57.3917 129.65 57.65 128.938 57.65 127.988C57.65 127.421 57.5667 126.959 57.4 126.6C57.2333 126.242 57.0042 125.963 56.7125 125.763C56.4208 125.563 56.0875 125.429 55.7125 125.363C55.3375 125.296 54.95 125.263 54.55 125.263L49.475 125.263L49.475 130.838Z"/>
<path clip-path="url(#TextBounds)" d="M71.55 124.838C70.6 124.838 69.7792 125.029 69.0875 125.413C68.3958 125.796 67.8333 126.309 67.4 126.95C66.9667 127.592 66.6458 128.321 66.4375 129.138C66.2292 129.954 66.125 130.788 66.125 131.638C66.125 132.488 66.2292 133.321 66.4375 134.138C66.6458 134.954 66.9667 135.684 67.4 136.325C67.8333 136.967 68.3958 137.479 69.0875 137.863C69.7792 138.246 70.6 138.438 71.55 138.438C72.5 138.438 73.3208 138.246 74.0125 137.863C74.7042 137.479 75.2667 136.967 75.7 136.325C76.1333 135.684 76.4542 134.954 76.6625 134.138C76.8708 133.321 76.975 132.488 76.975 131.638C76.975 130.788 76.8708 129.954 76.6625 129.138C76.4542 128.321 76.1333 127.592 75.7 126.95C75.2667 126.309 74.7042 125.796 74.0125 125.413C73.3208 125.029 72.5 124.838 71.55 124.838ZM71.55 122.288C72.8833 122.288 74.0792 122.538 75.1375 123.038C76.1958 123.538 77.0917 124.213 77.825 125.063C78.5583 125.913 79.1208 126.904 79.5125 128.038C79.9042 129.171 80.1 130.371 80.1 131.638C80.1 132.921 79.9042 134.129 79.5125 135.263C79.1208 136.396 78.5583 137.388 77.825 138.238C77.0917 139.088 76.1958 139.759 75.1375 140.25C74.0792 140.742 72.8833 140.988 71.55 140.988C70.2167 140.988 69.0208 140.742 67.9625 140.25C66.9042 139.759 66.0083 139.088 65.275 138.238C64.5417 137.388 63.9792 136.396 63.5875 135.263C63.1958 134.129 63 132.921 63 131.638C63 130.371 63.1958 129.171 63.5875 128.038C63.9792 126.904 64.5417 125.913 65.275 125.063C66.0083 124.213 66.9042 123.538 67.9625 123.038C69.0208 122.538 70.2167 122.288 71.55 122.288Z"/>
<path clip-path="url(#TextBounds)" d="M82.75 122.713L85.875 122.713L85.875 133.113C85.875 133.713 85.9042 134.321 85.9625 134.938C86.0208 135.554 86.1875 136.109 86.4625 136.6C86.7375 137.092 87.1542 137.496 87.7125 137.813C88.2708 138.129 89.0583 138.288 90.075 138.288C91.0917 138.288 91.8792 138.129 92.4375 137.813C92.9958 137.496 93.4125 137.092 93.6875 136.6C93.9625 136.109 94.1292 135.554 94.1875 134.938C94.2458 134.321 94.275 133.713 94.275 133.113L94.275 122.713L97.4 122.713L97.4 134.138C97.4 135.288 97.225 136.288 96.875 137.138C96.525 137.988 96.0292 138.7 95.3875 139.275C94.7458 139.85 93.975 140.279 93.075 140.563C92.175 140.846 91.175 140.988 90.075 140.988C88.975 140.988 87.975 140.846 87.075 140.563C86.175 140.279 85.4042 139.85 84.7625 139.275C84.1208 138.7 83.625 137.988 83.275 137.138C82.925 136.288 82.75 135.288 82.75 134.138L82.75 122.713Z"/>
<path clip-path="url(#TextBounds)" d="M100.875 122.713L104.175 122.713L112.325 135.863L112.375 135.863L112.375 122.713L115.35 122.713L115.35 140.563L112.05 140.563L103.925 127.438L103.85 127.438L103.85 140.563L100.875 140.563L100.875 122.713Z"/>
<path clip-path="url(#TextBounds)" d="M119.05 122.713L126.45 122.713C127.817 122.713 129 122.946 130 123.413C131 123.879 131.817 124.517 132.45 125.325C133.083 126.134 133.554 127.079 133.863 128.163C134.171 129.246 134.325 130.404 134.325 131.638C134.325 132.871 134.171 134.029 133.863 135.113C133.554 136.196 133.083 137.142 132.45 137.95C131.817 138.759 131 139.396 130 139.863C129 140.329 127.817 140.563 126.45 140.563L119.05 140.563L119.05 122.713ZM122.175 138.013L125.25 138.013C126.467 138.013 127.462 137.85 128.238 137.525C129.013 137.2 129.621 136.75 130.062 136.175C130.504 135.6 130.804 134.925 130.963 134.15C131.121 133.375 131.2 132.538 131.2 131.638C131.2 130.738 131.121 129.9 130.963 129.125C130.804 128.35 130.504 127.675 130.062 127.1C129.621 126.525 129.013 126.075 128.238 125.75C127.462 125.425 126.467 125.263 125.25 125.263L122.175 125.263L122.175 138.013Z"/>
</g>
<path d="M51.7447 89.1434L94.8825 83.8996C94.8825 83.8996 96.8194 99.8333 75.389 102.438C53.5734 105.09 51.7447 89.1434 51.7447 89.1434Z" fill="#00507d" fill-rule="nonzero" opacity="1" stroke="none"/>
<path d="M66.3751 28.5991L91.2351 86.5083L73.674 88.6431L55.9108 90.8024L66.3751 28.5991Z" fill="none" opacity="1" stroke="#00507d" stroke-linecap="butt" stroke-linejoin="round" stroke-width="0.75"/>
<path d="M64.901 9.03L72.2515 23.7875L93.8051 75.0365L73.2289 77.5378L64.901 9.03Z" fill="#00507d" fill-rule="nonzero" opacity="1" stroke="#ffffff" stroke-linecap="butt" stroke-linejoin="round" stroke-width="0.5"/>
<path d="M63.567 6.34294L73.573 88.6553" fill="none" opacity="1" stroke="#00507d" stroke-linecap="round" stroke-linejoin="round" stroke-width="2"/>
<path d="M66.274 28.6114L82.8232 78.8673L73.3136 86.5215L66.274 28.6114Z" fill="#00507d" fill-rule="nonzero" opacity="1" stroke="#ffffff" stroke-linecap="butt" stroke-linejoin="round" stroke-width="0.5"/>
<path d="M0.247909 115.508C0.247909 115.508 39.3238 115.509 54.2079 115.509C82.3638 115.509 89.7921 97.1285 89.7921 97.1285C89.7921 97.1285 93.2586 86.6849 106.321 86.6849C119.324 86.6849 144 86.6849 144 86.6849" fill="none" opacity="1" stroke="#00507d" stroke-linecap="butt" stroke-linejoin="round" stroke-width="2"/>
<path d="M149.366 32.4779C149.366 29.6829 144.771 29.6829 142.473 29.6829C140.176 29.6829 137.878 26.8878 137.878 24.0928C137.878 21.2977 135.581 21.2977 133.283 21.2977C130.986 21.2977 128.688 18.5026 126.391 18.5026C121.796 18.5026 124.093 21.2977 117.201 21.2977C113.169 21.2977 110.908 23.4499 110.414 25.8648C108.657 25.4931 106.885 25.4623 105.713 26.8878C103.416 29.6829 101.118 29.6829 101.118 32.4779C101.118 35.273 103.416 38.0681 108.011 38.0681C112.606 38.0681 108.011 35.273 112.606 35.273C117.201 35.273 119.498 35.273 119.498 32.4779C119.498 32.1621 119.462 31.8463 119.404 31.536C120.197 31.9385 120.99 32.2543 121.78 32.2543C124.061 32.2543 124.093 29.6829 126.391 29.6829C128.688 29.6829 128.688 32.4779 128.688 35.273C128.688 38.0681 135.581 38.0066 140.266 38.0066C144.952 38.0066 149.366 35.273 149.366 32.4779ZM112.606 43.6582C110.308 43.6582 105.713 40.8631 103.416 43.6582C101.118 46.4532 98.8209 46.4532 98.8209 49.2483C98.8209 52.0434 101.118 54.8384 105.713 54.8384C110.308 54.8384 105.713 52.0434 110.308 52.0434C114.903 52.0434 114.903 52.0434 114.903 49.2483C114.903 46.4532 114.903 43.6582 112.606 43.6582ZM149.366 49.2483C142.473 49.2483 142.473 52.0434 137.878 52.0434C133.283 52.0434 130.986 54.8384 130.986 57.6335C130.986 60.4285 137.878 63.2236 140.176 63.2236C142.473 63.2236 147.068 60.4285 149.366 57.6335C151.663 54.8384 153.961 57.6335 153.961 54.8384C153.961 52.0434 153.961 49.2483 149.366 49.2483Z" fill="#00507d" fill-rule="nonzero" opacity="1" stroke="none"/>
<path d="M126.391 57.6335C126.391 53.7959 128.319 49.9694 131.969 47.943C132.567 46.6181 133.401 45.0585 134.299 43.4513C132.95 43.3451 131.622 43.1635 130.391 42.8448C129.189 44.7343 128.087 45.9222 127.485 45.1927C126.965 44.561 126.464 42.7526 126.012 40.5193C125.205 39.6948 124.599 38.6606 124.303 37.3302C123.806 37.5454 123.25 37.7103 122.628 37.7913C122.552 37.8948 122.451 37.9646 122.37 38.0597C122.409 40.0805 122.281 41.724 121.794 42.1041C121.318 42.4759 120.188 41.5982 118.88 40.2482C118.435 40.3796 117.98 40.4914 117.516 40.5724C118.71 42.297 119.232 44.7007 119.413 47.1045C120.817 49.0051 121.796 50.7884 121.796 52.0657C121.796 56.89 121.828 59.8779 121.828 59.8779L117.467 55.8558C116.257 57.0381 114.625 57.4378 112.912 57.5692C116.875 62.3935 121.796 69.3895 121.796 74.4038C121.796 82.789 121.796 85.5841 121.796 85.5841L130.986 85.5841C130.986 85.5841 130.986 79.994 130.986 74.4038C130.986 72.397 132.176 69.669 133.697 66.9969C130.076 65.3115 126.391 62.3432 126.391 57.6335Z" fill="#00507d" fill-rule="nonzero" opacity="1" stroke="none"/>
<g opacity="1">
<mask height="144" id="StrokeMask" maskUnits="userSpaceOnUse" width="144" x="-1.42109e-14" y="0">
<rect fill="#000000" height="144" stroke="none" width="144" x="-1.42109e-14" y="0"/>
<use fill="#ffffff" fill-rule="evenodd" stroke="none" xlinkHref="#Fill"/>
</mask>
<use fill="none" mask="url(#StrokeMask)" stroke="#00507d" stroke-linecap="butt" stroke-linejoin="round" stroke-width="2" xlinkHref="#Fill"/>
</g>
</g>
</svg>
