<?xml version="1.0" encoding="UTF-8" standalone="no"?>
<!DOCTYPE svg PUBLIC "-//W3C//DTD SVG 1.1//EN" "http://www.w3.org/Graphics/SVG/1.1/DTD/svg11.dtd">
<!-- Created with Vectornator (http://vectornator.io/) -->
<svg height="100%" stroke-miterlimit="10" style="fill-rule:nonzero;clip-rule:evenodd;stroke-linecap:round;stroke-linejoin:round;" version="1.1" viewBox="0 0 144 144" width="100%" xml:space="preserve" xmlns="http://www.w3.org/2000/svg" xmlns:xlink="http://www.w3.org/1999/xlink">
<defs/>
<clipPath id="ArtboardFrame">
<rect height="144" width="144" x="0" y="0"/>
</clipPath>
<g clip-path="url(#ArtboardFrame)" id="Layer-1">
<path d="M106.574 33.7709L113.197 16.1267C113.81 14.4767 113.151 12.6238 111.624 11.741L104.437 7.58637C102.916 6.70715 100.975 7.05737 99.8575 8.4155L87.8732 22.9608L106.574 33.7709ZM37.4264 110.229L30.803 127.873C30.1901 129.523 30.8489 131.376 32.3761 132.259L39.5633 136.414C41.0842 137.293 43.0248 136.943 44.1425 135.585L56.1268 121.039L37.4264 110.229ZM110.229 106.574L127.873 113.197C129.523 113.81 131.376 113.151 132.259 111.624L136.414 104.437C137.293 102.916 136.943 100.975 135.585 99.8575L121.039 87.8732L110.229 106.574ZM33.7709 37.4264L16.1267 30.803C14.4767 30.1901 12.6238 30.8489 11.741 32.3761L7.58637 39.5633C6.70715 41.0842 7.05737 43.0248 8.4155 44.1425L22.9608 56.1268L33.7709 37.4264ZM82.8262 21.6068L79.7361 3.013C79.4509 1.27636 77.9507 0.00162326 76.186 0.00442983L67.8895-0.00124162C66.1284-0.00466954 64.6252 1.27205 64.3397 3.00317L61.2302 21.5892L82.8262 21.6068ZM61.1738 122.393L64.2639 140.987C64.5491 142.724 66.0529 143.992 67.814 143.996L76.1105 144.001C77.8716 144.005 79.3748 142.728 79.6603 140.997L82.7698 122.411L61.1738 122.393ZM122.393 82.8262L140.987 79.7361C142.724 79.4509 143.992 77.9471 143.996 76.186L144.001 67.8895C144.005 66.1284 142.728 64.6252 140.997 64.3397L122.411 61.2302L122.393 82.8262ZM21.6068 61.1738L3.013 64.2639C1.27636 64.5491 0.00785839 66.0529 0.00443029 67.814L-0.00124074 76.1105C-0.00466889 77.8716 1.27205 79.3748 3.00317 79.6603L21.5892 82.7698L21.6068 61.1738ZM56.1804 22.9447L44.2038 8.38699C43.0925 7.02935 41.1527 6.67317 39.6283 7.55505L32.4417 11.7005C30.9111 12.5788 30.2473 14.4322 30.8669 16.0794L37.4687 33.7342L56.1804 22.9447ZM87.8196 121.055L99.79 135.609C100.908 136.971 102.845 137.317 104.365 136.441L111.552 132.296C113.076 131.414 113.74 129.561 113.127 127.917L106.525 110.262L87.8196 121.055ZM121.055 56.1804L135.609 44.21C136.971 43.0925 137.317 41.1554 136.441 39.6346L132.296 32.448C131.414 30.9236 129.561 30.2597 127.917 30.8731L110.262 37.4749L121.055 56.1804ZM22.9447 87.8196L8.3906 99.79C7.02935 100.908 6.68301 102.845 7.55866 104.365L11.7041 111.552C12.586 113.076 14.4394 113.74 16.083 113.127L33.7378 106.525L22.9447 87.8196Z" fill="#00507d" fill-rule="nonzero" opacity="1" stroke="none"/>
<path d="M79.2067 59.5331C72.3214 55.553 63.5132 57.908 59.5331 64.7933C55.553 71.6786 57.908 80.4868 64.7933 84.4669C71.6786 88.447 80.4868 86.092 84.4669 79.2067C88.447 72.3214 86.092 63.5132 79.2067 59.5331ZM75.6033 65.7665L97.2234 28.3658M64.8002 71.9962L21.6011 71.9736M75.5965 78.2372L97.1755 115.661" fill="none" opacity="1" stroke="#00507d" stroke-linecap="butt" stroke-linejoin="miter" stroke-width="12"/>
<path d="M97.2234 28.3658C73.1249 14.4353 42.2964 22.6781 28.3659 46.7766C14.4353 70.8751 22.6781 101.704 46.7766 115.634C70.8751 129.565 101.704 121.322 115.634 97.2234C129.565 73.1249 121.322 42.2964 97.2234 28.3658Z" fill="none" opacity="1" stroke="#00507d" stroke-linecap="butt" stroke-linejoin="miter" stroke-width="12"/>
</g>
</svg>
