<?xml version="1.0" encoding="UTF-8" standalone="no"?>
<!DOCTYPE svg PUBLIC "-//W3C//DTD SVG 1.1//EN" "http://www.w3.org/Graphics/SVG/1.1/DTD/svg11.dtd">
<!-- Created with Vectornator (http://vectornator.io/) -->
<svg stroke-miterlimit="10" style="fill-rule:nonzero;clip-rule:evenodd;stroke-linecap:round;stroke-linejoin:round;" version="1.1" viewBox="0 0 144 144" xml:space="preserve" xmlns="http://www.w3.org/2000/svg" xmlns:xlink="http://www.w3.org/1999/xlink">
<defs>
<clipPath id="TextBounds">
<rect height="27.4373" width="144" x="0" y="114.563"/>
</clipPath>
<path d="M12.7163 0L131.284 0C138.307 0 144 5.78672 144 12.925L144 131.075C144 138.213 138.307 144 131.284 144L12.7163 144C5.69329 144-1.42109e-14 138.213-1.42109e-14 131.075L-1.42109e-14 12.925C-1.42109e-14 5.78672 5.69329 0 12.7163 0Z" id="Fill"/>
<clipPath id="TextBounds_2">
<rect height="1" width="0" x="75.7925" y="92.2805"/>
</clipPath>
</defs>
<clipPath id="ArtboardFrame">
<rect height="144" width="144" x="0" y="0"/>
</clipPath>
<g clip-path="url(#ArtboardFrame)" id="Layer-1">
<g fill="#00507d" opacity="1" stroke="none">
<path clip-path="url(#TextBounds)" d="M58.95 125.513L58.95 131.588L54.35 131.588L58.875 125.513L58.95 125.513ZM58.95 134.513L58.95 138.563L62.325 138.563L62.325 134.513L64.65 134.513L64.65 131.588L62.325 131.588L62.325 121.063L59.15 121.063L51.55 131.263L51.55 134.513L58.95 134.513Z"/>
<path clip-path="url(#TextBounds)" d="M77.475 138.563L77.475 137.113L67.75 137.113C67.85 136.529 68.1 135.992 68.5 135.5C68.9 135.009 69.3625 134.554 69.8875 134.138C70.4125 133.721 70.9583 133.342 71.525 133C72.0917 132.659 72.5833 132.346 73 132.063C73.5833 131.696 74.1375 131.3 74.6625 130.875C75.1875 130.45 75.6542 129.988 76.0625 129.488C76.4708 128.988 76.7958 128.438 77.0375 127.838C77.2792 127.238 77.4 126.571 77.4 125.838C77.4 125.021 77.2625 124.304 76.9875 123.688C76.7125 123.071 76.3292 122.559 75.8375 122.15C75.3458 121.742 74.7708 121.434 74.1125 121.225C73.4542 121.017 72.7417 120.913 71.975 120.913C71.025 120.913 70.1958 121.067 69.4875 121.375C68.7792 121.684 68.1917 122.113 67.725 122.663C67.2583 123.213 66.9125 123.867 66.6875 124.625C66.4625 125.384 66.3583 126.213 66.375 127.113L67.95 127.113C67.9333 126.463 67.9958 125.846 68.1375 125.263C68.2792 124.679 68.5083 124.163 68.825 123.713C69.1417 123.263 69.5542 122.904 70.0625 122.638C70.5708 122.371 71.1833 122.238 71.9 122.238C72.4333 122.238 72.9375 122.317 73.4125 122.475C73.8875 122.634 74.3042 122.867 74.6625 123.175C75.0208 123.484 75.3042 123.859 75.5125 124.3C75.7208 124.742 75.825 125.246 75.825 125.813C75.825 126.513 75.7042 127.117 75.4625 127.625C75.2208 128.134 74.8583 128.629 74.375 129.113C73.8917 129.596 73.3458 130.05 72.7375 130.475C72.1292 130.9 71.5167 131.317 70.9 131.725C70.2833 132.134 69.6833 132.559 69.1 133C68.5167 133.442 67.9917 133.929 67.525 134.463C67.0583 134.996 66.6833 135.596 66.4 136.263C66.1167 136.929 65.9667 137.696 65.95 138.563L77.475 138.563Z"/>
<path clip-path="url(#TextBounds)" d="M85.9 120.913C84.6333 120.913 83.6 121.192 82.8 121.75C82 122.309 81.3792 123.021 80.9375 123.888C80.4958 124.754 80.1958 125.721 80.0375 126.788C79.8792 127.854 79.8 128.904 79.8 129.938C79.8 130.954 79.8792 131.996 80.0375 133.063C80.1958 134.129 80.4958 135.096 80.9375 135.963C81.3792 136.829 82 137.538 82.8 138.088C83.6 138.638 84.6333 138.913 85.9 138.913C87.1833 138.913 88.2208 138.638 89.0125 138.088C89.8042 137.538 90.4208 136.829 90.8625 135.963C91.3042 135.096 91.6042 134.129 91.7625 133.063C91.9208 131.996 92 130.946 92 129.913C92 128.896 91.9208 127.854 91.7625 126.788C91.6042 125.721 91.3042 124.754 90.8625 123.888C90.4208 123.021 89.8042 122.309 89.0125 121.75C88.2208 121.192 87.1833 120.913 85.9 120.913ZM85.9 122.238C86.9 122.238 87.7 122.496 88.3 123.013C88.9 123.529 89.3542 124.171 89.6625 124.938C89.9708 125.704 90.175 126.538 90.275 127.438C90.375 128.338 90.425 129.163 90.425 129.913C90.425 130.679 90.375 131.509 90.275 132.4C90.175 133.292 89.9708 134.125 89.6625 134.9C89.3542 135.675 88.9 136.321 88.3 136.838C87.7 137.354 86.9 137.613 85.9 137.613C84.9 137.613 84.1 137.354 83.5 136.838C82.9 136.321 82.4458 135.675 82.1375 134.9C81.8292 134.125 81.625 133.292 81.525 132.4C81.425 131.509 81.375 130.679 81.375 129.913C81.375 129.163 81.425 128.338 81.525 127.438C81.625 126.538 81.8292 125.704 82.1375 124.938C82.4458 124.171 82.9 123.529 83.5 123.013C84.1 122.496 84.9 122.238 85.9 122.238Z"/>
<path clip-path="url(#TextBounds)" d="M51.15 139.813L65.05 139.813L65.05 141.063L51.15 141.063L51.15 139.813Z"/>
</g>
<g opacity="1">
<mask height="144" id="StrokeMask" maskUnits="userSpaceOnUse" width="144" x="-1.42109e-14" y="0">
<rect fill="#000000" height="144" stroke="none" width="144" x="-1.42109e-14" y="0"/>
<use fill="#ffffff" fill-rule="evenodd" stroke="none" xlink:href="#Fill"/>
</mask>

</g>
<g fill="#00507d" opacity="1" stroke="none"/>
<path d="M74.2352 6.56274C73.1957 6.56274 72.0932 6.90745 71.2779 7.55231L38.1443 33.7589C37.4175 34.3337 36.8342 35.1592 36.5632 36.0452L34.3224 43.3703C34.2096 43.7394 34.3058 44.1999 34.5386 44.5078C34.784 44.8323 35.2236 45.0537 35.6305 45.0537L58.3452 45.0537C58.6301 45.0537 58.9419 45.2086 59.1073 45.4405C59.2673 45.6648 59.3021 45.996 59.221 46.2594L57.3556 52.322C57.2374 52.7063 57.2911 53.1901 57.5262 53.5163C57.7642 53.8464 58.2112 54.0623 58.6182 54.0623L65.5452 54.0623C66.0644 54.0623 66.6074 53.8831 67.0239 53.5732C67.4323 53.2692 67.7488 52.8082 67.8997 52.322L69.6969 46.5324C69.8213 46.1316 70.0801 45.7523 70.4134 45.4973C70.7649 45.2285 71.2221 45.0537 71.6646 45.0537L81.9243 45.0537C82.1793 45.0537 82.4299 45.2374 82.5841 45.4405C82.7548 45.6653 82.885 45.9901 82.8002 46.2594L80.8893 52.322C80.6145 53.1938 80.0464 54.0235 79.3082 54.5627L57.1964 70.7144C56.3941 71.3004 55.7358 72.1759 55.4447 73.1258L53.5907 79.177C53.4711 79.5673 53.5622 80.0557 53.8068 80.3826C54.0506 80.7085 54.4918 80.9286 54.8988 80.9286L74.2807 80.9286C74.569 80.9286 74.8866 81.0808 75.0542 81.3153C75.2032 81.5239 75.2315 81.8323 75.1566 82.0774L67.0807 108.5C66.8677 109.197 66.8428 109.966 66.967 110.684C67.088 111.384 67.3653 112.079 67.786 112.652C68.2225 113.246 68.8207 113.745 69.4807 114.074C70.132 114.398 70.8802 114.563 71.6078 114.563L92.2523 114.563C93.3849 114.563 94.5413 114.312 95.5736 113.846C96.6042 113.381 97.5568 112.682 98.3035 111.833C99.0455 110.989 99.6133 109.961 99.9414 108.887L109.496 77.5959C109.709 76.8976 109.79 76.1316 109.667 75.412C109.545 74.7045 109.224 74.0168 108.791 73.4443C108.347 72.8582 107.753 72.3638 107.096 72.0338C106.462 71.7151 105.736 71.5333 105.026 71.5333L74.7812 71.5333C74.5256 71.5333 74.2393 71.447 74.0646 71.2604C73.8967 71.0808 73.82 70.7993 73.8485 70.5552C73.8781 70.302 74.0294 70.0458 74.2352 69.8954L88.203 59.6926C89.0152 59.0993 89.659 58.1971 89.9547 57.2357L94.7092 41.7779C94.9234 41.0813 94.9347 40.3123 94.8115 39.594C94.6892 38.8799 94.4192 38.1663 93.9926 37.5807C93.5584 36.9847 92.962 36.4792 92.2978 36.1589C91.6461 35.8447 90.8943 35.7267 90.1708 35.7267L74.2352 35.7267C73.947 35.7267 73.6283 35.5753 73.4618 35.34C73.3029 35.1154 73.2789 34.7841 73.3594 34.521L81.3784 8.31439C81.497 7.92675 81.4544 7.43882 81.2191 7.10871C80.9829 6.77732 80.5341 6.56273 80.1272 6.56273L74.2352 6.56274ZM64.1348 26.6613C64.4803 26.7249 64.8131 26.9662 64.9992 27.2642C65.1944 27.5766 65.2778 28.0039 65.1698 28.3561L63.3158 34.4073C63.1658 34.897 62.8502 35.3632 62.44 35.6698C62.0242 35.9807 61.4805 36.1589 60.9613 36.1589L55.2855 36.1589C54.929 36.1589 54.5514 35.9865 54.3073 35.7267C54.0526 35.4557 53.8956 35.0513 53.9205 34.6803C53.9438 34.3333 54.1369 33.9746 54.4096 33.7589L63.0428 26.9343C63.3372 26.7016 63.7658 26.5934 64.1348 26.6613ZM96.7224 80.9286C97.0073 80.9286 97.3179 81.0843 97.4845 81.3153C97.6347 81.5237 97.6732 81.8318 97.5983 82.0774L90.9897 103.746C90.8683 104.144 90.5693 104.497 90.2277 104.735C89.8822 104.976 89.4429 105.111 89.022 105.111L79.9111 105.111C79.6279 105.111 79.4248 104.799 79.149 104.735C79.1453 104.734 79.1405 104.738 79.1376 104.735C78.9554 104.577 78.9649 104.249 79.0353 104.019L85.6438 82.3504C85.762 81.963 86.026 81.6053 86.349 81.3608C86.6894 81.1032 87.1278 80.9286 87.5547 80.9286L96.7224 80.9286Z" fill="#000000" fill-rule="evenodd" opacity="1" stroke="none"/>
</g>
</svg>
