<?xml version="1.0" encoding="UTF-8" standalone="no"?>
<!DOCTYPE svg PUBLIC "-//W3C//DTD SVG 1.1//EN" "http://www.w3.org/Graphics/SVG/1.1/DTD/svg11.dtd">
<!-- Created with Vectornator (http://vectornator.io/) -->
<svg height="100%" stroke-miterlimit="10" style="fill-rule:nonzero;clip-rule:evenodd;stroke-linecap:round;stroke-linejoin:round;" version="1.1" viewBox="0 0 144 144" width="100%" xml:space="preserve" xmlns="http://www.w3.org/2000/svg" xmlns:xlink="http://www.w3.org/1999/xlink">
<defs>
<clipPath id="TextBounds">
<rect height="27.4373" width="144" x="0" y="114.563"/>
</clipPath>
<path d="M12.7163 0L131.284 0C138.307 0 144 5.78672 144 12.925L144 131.075C144 138.213 138.307 144 131.284 144L12.7163 144C5.69329 144-1.42109e-14 138.213-1.42109e-14 131.075L-1.42109e-14 12.925C-1.42109e-14 5.78672 5.69329 0 12.7163 0Z" id="Fill"/>
<clipPath id="TextBounds_2">
<rect height="1" width="0" x="75.7925" y="92.2805"/>
</clipPath>
</defs>
<clipPath id="ArtboardFrame">
<rect height="144" width="144" x="0" y="0"/>
</clipPath>
<g clip-path="url(#ArtboardFrame)" id="Layer-1">
<g fill="#00507d" opacity="1" stroke="none">
<path clip-path="url(#TextBounds)" d="M58.95 125.513L58.95 131.588L54.35 131.588L58.875 125.513L58.95 125.513ZM58.95 134.513L58.95 138.563L62.325 138.563L62.325 134.513L64.65 134.513L64.65 131.588L62.325 131.588L62.325 121.063L59.15 121.063L51.55 131.263L51.55 134.513L58.95 134.513Z"/>
<path clip-path="url(#TextBounds)" d="M66.15 127.113L68.275 127.113C68.2583 126.579 68.3125 126.05 68.4375 125.525C68.5625 125 68.7667 124.529 69.05 124.113C69.3333 123.696 69.6958 123.359 70.1375 123.1C70.5792 122.842 71.1083 122.713 71.725 122.713C72.1917 122.713 72.6333 122.788 73.05 122.938C73.4667 123.088 73.8292 123.304 74.1375 123.588C74.4458 123.871 74.6917 124.209 74.875 124.6C75.0583 124.992 75.15 125.429 75.15 125.913C75.15 126.529 75.0542 127.071 74.8625 127.538C74.6708 128.004 74.3875 128.438 74.0125 128.838C73.6375 129.238 73.1667 129.634 72.6 130.025C72.0333 130.417 71.375 130.846 70.625 131.313C70.0083 131.679 69.4167 132.071 68.85 132.488C68.2833 132.904 67.775 133.388 67.325 133.938C66.875 134.488 66.5042 135.134 66.2125 135.875C65.9208 136.617 65.7333 137.513 65.65 138.563L77.225 138.563L77.225 136.688L68.125 136.688C68.225 136.138 68.4375 135.65 68.7625 135.225C69.0875 134.8 69.4792 134.404 69.9375 134.038C70.3958 133.671 70.9 133.325 71.45 133C72 132.675 72.55 132.346 73.1 132.013C73.65 131.663 74.1833 131.296 74.7 130.913C75.2167 130.529 75.675 130.1 76.075 129.625C76.475 129.15 76.7958 128.613 77.0375 128.013C77.2792 127.413 77.4 126.721 77.4 125.938C77.4 125.104 77.2542 124.371 76.9625 123.738C76.6708 123.104 76.275 122.575 75.775 122.15C75.275 121.725 74.6875 121.4 74.0125 121.175C73.3375 120.95 72.6167 120.838 71.85 120.838C70.9167 120.838 70.0833 120.996 69.35 121.313C68.6167 121.629 68.0042 122.067 67.5125 122.625C67.0208 123.184 66.6583 123.846 66.425 124.613C66.1917 125.379 66.1 126.213 66.15 127.113Z"/>
<path clip-path="url(#TextBounds)" d="M82.25 129.838C82.25 129.404 82.2542 128.925 82.2625 128.4C82.2708 127.875 82.3125 127.35 82.3875 126.825C82.4625 126.3 82.5708 125.788 82.7125 125.288C82.8542 124.788 83.0625 124.35 83.3375 123.975C83.6125 123.6 83.9583 123.296 84.375 123.063C84.7917 122.829 85.3 122.713 85.9 122.713C86.5 122.713 87.0083 122.829 87.425 123.063C87.8417 123.296 88.1875 123.6 88.4625 123.975C88.7375 124.35 88.9458 124.788 89.0875 125.288C89.2292 125.788 89.3375 126.3 89.4125 126.825C89.4875 127.35 89.5292 127.875 89.5375 128.4C89.5458 128.925 89.55 129.404 89.55 129.838C89.55 130.504 89.5292 131.25 89.4875 132.075C89.4458 132.9 89.3125 133.675 89.0875 134.4C88.8625 135.125 88.5 135.738 88 136.238C87.5 136.738 86.8 136.988 85.9 136.988C85 136.988 84.3 136.738 83.8 136.238C83.3 135.738 82.9375 135.125 82.7125 134.4C82.4875 133.675 82.3542 132.9 82.3125 132.075C82.2708 131.25 82.25 130.504 82.25 129.838ZM80 129.863C80 130.513 80.0167 131.188 80.05 131.888C80.0833 132.588 80.1667 133.271 80.3 133.938C80.4333 134.604 80.625 135.234 80.875 135.825C81.125 136.417 81.4667 136.938 81.9 137.388C82.3333 137.838 82.8792 138.192 83.5375 138.45C84.1958 138.709 84.9833 138.838 85.9 138.838C86.8333 138.838 87.625 138.709 88.275 138.45C88.925 138.192 89.4667 137.838 89.9 137.388C90.3333 136.938 90.675 136.417 90.925 135.825C91.175 135.234 91.3667 134.604 91.5 133.938C91.6333 133.271 91.7167 132.588 91.75 131.888C91.7833 131.188 91.8 130.513 91.8 129.863C91.8 129.213 91.7833 128.538 91.75 127.838C91.7167 127.138 91.6333 126.454 91.5 125.788C91.3667 125.121 91.175 124.488 90.925 123.888C90.675 123.288 90.3333 122.763 89.9 122.313C89.4667 121.863 88.9208 121.504 88.2625 121.238C87.6042 120.971 86.8167 120.838 85.9 120.838C84.9833 120.838 84.1958 120.971 83.5375 121.238C82.8792 121.504 82.3333 121.863 81.9 122.313C81.4667 122.763 81.125 123.288 80.875 123.888C80.625 124.488 80.4333 125.121 80.3 125.788C80.1667 126.454 80.0833 127.138 80.05 127.838C80.0167 128.538 80 129.213 80 129.863Z"/>
<path clip-path="url(#TextBounds)" d="M51.15 139.813L65.05 139.813L65.05 141.063L51.15 141.063L51.15 139.813Z"/>
</g>
<g opacity="1">
<mask height="144" id="StrokeMask" maskUnits="userSpaceOnUse" width="144" x="-1.42109e-14" y="0">
<rect fill="#000000" height="144" stroke="none" width="144" x="-1.42109e-14" y="0"/>
<use fill="#ffffff" fill-rule="evenodd" stroke="none" xlink:href="#Fill"/>
</mask>
<use fill="none" mask="url(#StrokeMask)" stroke="#00507d" stroke-linecap="butt" stroke-linejoin="round" stroke-width="2" xlink:href="#Fill"/>
</g>
<g fill="#00507d" opacity="1" stroke="none"/>
<path d="M74.2352 6.56274C73.1957 6.56274 72.0932 6.90745 71.2779 7.55231L38.1443 33.7589C37.4175 34.3337 36.8342 35.1592 36.5632 36.0452L34.3224 43.3703C34.2096 43.7394 34.3058 44.1999 34.5386 44.5078C34.784 44.8323 35.2236 45.0537 35.6305 45.0537L58.3452 45.0537C58.6301 45.0537 58.9419 45.2086 59.1073 45.4405C59.2673 45.6648 59.3021 45.996 59.221 46.2594L57.3556 52.322C57.2374 52.7063 57.2911 53.1901 57.5262 53.5163C57.7642 53.8464 58.2112 54.0623 58.6182 54.0623L65.5452 54.0623C66.0644 54.0623 66.6074 53.8831 67.0239 53.5732C67.4323 53.2692 67.7488 52.8082 67.8997 52.322L69.6969 46.5324C69.8213 46.1316 70.0801 45.7523 70.4134 45.4973C70.7649 45.2285 71.2221 45.0537 71.6646 45.0537L81.9243 45.0537C82.1793 45.0537 82.4299 45.2374 82.5841 45.4405C82.7548 45.6653 82.885 45.9901 82.8002 46.2594L80.8893 52.322C80.6145 53.1938 80.0464 54.0235 79.3082 54.5627L57.1964 70.7144C56.3941 71.3004 55.7358 72.1759 55.4447 73.1258L53.5907 79.177C53.4711 79.5673 53.5622 80.0557 53.8068 80.3826C54.0506 80.7085 54.4918 80.9286 54.8988 80.9286L74.2807 80.9286C74.569 80.9286 74.8866 81.0808 75.0542 81.3153C75.2032 81.5239 75.2315 81.8323 75.1566 82.0774L67.0807 108.5C66.8677 109.197 66.8428 109.966 66.967 110.684C67.088 111.384 67.3653 112.079 67.786 112.652C68.2225 113.246 68.8207 113.745 69.4807 114.074C70.132 114.398 70.8802 114.563 71.6078 114.563L92.2523 114.563C93.3849 114.563 94.5413 114.312 95.5736 113.846C96.6042 113.381 97.5568 112.682 98.3035 111.833C99.0455 110.989 99.6133 109.961 99.9414 108.887L109.496 77.5959C109.709 76.8976 109.79 76.1316 109.667 75.412C109.545 74.7045 109.224 74.0168 108.791 73.4443C108.347 72.8582 107.753 72.3638 107.096 72.0338C106.462 71.7151 105.736 71.5333 105.026 71.5333L74.7812 71.5333C74.5256 71.5333 74.2393 71.447 74.0646 71.2604C73.8967 71.0808 73.82 70.7993 73.8485 70.5552C73.8781 70.302 74.0294 70.0458 74.2352 69.8954L88.203 59.6926C89.0152 59.0993 89.659 58.1971 89.9547 57.2357L94.7092 41.7779C94.9234 41.0813 94.9347 40.3123 94.8115 39.594C94.6892 38.8799 94.4192 38.1663 93.9926 37.5807C93.5584 36.9847 92.962 36.4792 92.2978 36.1589C91.6461 35.8447 90.8943 35.7267 90.1708 35.7267L74.2352 35.7267C73.947 35.7267 73.6283 35.5753 73.4618 35.34C73.3029 35.1154 73.2789 34.7841 73.3594 34.521L81.3784 8.31439C81.497 7.92675 81.4544 7.43882 81.2191 7.10871C80.9829 6.77732 80.5341 6.56273 80.1272 6.56273L74.2352 6.56274ZM64.1348 26.6613C64.4803 26.7249 64.8131 26.9662 64.9992 27.2642C65.1944 27.5766 65.2778 28.0039 65.1698 28.3561L63.3158 34.4073C63.1658 34.897 62.8502 35.3632 62.44 35.6698C62.0242 35.9807 61.4805 36.1589 60.9613 36.1589L55.2855 36.1589C54.929 36.1589 54.5514 35.9865 54.3073 35.7267C54.0526 35.4557 53.8956 35.0513 53.9205 34.6803C53.9438 34.3333 54.1369 33.9746 54.4096 33.7589L63.0428 26.9343C63.3372 26.7016 63.7658 26.5934 64.1348 26.6613ZM96.7224 80.9286C97.0073 80.9286 97.3179 81.0843 97.4845 81.3153C97.6347 81.5237 97.6732 81.8318 97.5983 82.0774L90.9897 103.746C90.8683 104.144 90.5693 104.497 90.2277 104.735C89.8822 104.976 89.4429 105.111 89.022 105.111L79.9111 105.111C79.6279 105.111 79.4248 104.799 79.149 104.735C79.1453 104.734 79.1405 104.738 79.1376 104.735C78.9554 104.577 78.9649 104.249 79.0353 104.019L85.6438 82.3504C85.762 81.963 86.026 81.6053 86.349 81.3608C86.6894 81.1032 87.1278 80.9286 87.5547 80.9286L96.7224 80.9286Z" fill="#000000" fill-rule="evenodd" opacity="1" stroke="none"/>
</g>
</svg>
