<?xml version="1.0" encoding="UTF-8"?>
<svg id="Layer_1" data-name="Layer 1" xmlns="http://www.w3.org/2000/svg" xmlns:xlink="http://www.w3.org/1999/xlink" viewBox="0 0 146 146">
  <defs>
    <style>
      .cls-1 {
        fill: #00507d;
      }

      .cls-2 {
        fill: #fff;
        fill-rule: evenodd;
      }

      .cls-3 {
        fill: #0e2445;
      }

      .cls-4 {
        stroke: #00507d;
        stroke-linejoin: round;
        stroke-width: 2px;
      }

      .cls-4, .cls-5 {
        fill: none;
      }

      .cls-6 {
        clip-path: url(#clippath);
      }

      .cls-7 {
        mask: url(#mask);
      }
    </style>
    <clipPath id="clippath">
      <rect class="cls-5" x="1" y="1" width="144" height="144"/>
    </clipPath>
    <mask id="mask" x="0" y="0" width="146" height="146" maskUnits="userSpaceOnUse">
      <g id="StrokeMask">
        <rect x="1" y="1" width="144" height="144"/>
        <path id="Fill" class="cls-2" d="m13.72,1h118.57c7.02,0,12.72,5.79,12.72,12.93v118.15c0,7.14-5.69,12.93-12.72,12.93H13.72c-7.02,0-12.72-5.79-12.72-12.93V13.93C1,6.79,6.69,1,13.72,1Z"/>
      </g>
    </mask>
  </defs>
  <g class="cls-6">
    <g id="Layer-1">
      <g class="cls-7">
        <path id="Fill-2" data-name="Fill" class="cls-4" d="m13.72,1h118.57c7.02,0,12.72,5.79,12.72,12.93v118.15c0,7.14-5.69,12.93-12.72,12.93H13.72c-7.02,0-12.72-5.79-12.72-12.93V13.93C1,6.79,6.69,1,13.72,1Z"/>
      </g>
      <path class="cls-3" d="m15.93,60.59l-5.98,18.78s5.98-.15,5.98,0,5.98-18.83,5.98-18.83l-5.98.04Z"/>
      <path class="cls-3" d="m26.54,60.55h14.4s5.69,4.33,3.18,9.04c-2.51,4.71-13.23,9.79-13.23,9.79h-10.05l3.91-12.88h5.64s-2.43,8.86-2.43,8.86c0,0,7.89-3.73,9.91-6.5,2.02-2.77-1.83-4.57-1.83-4.57l-10.63.04,1.15-3.78Z"/>
      <path class="cls-3" d="m64.81,60.55h-14.8l-6.12,18.83h15.65l1.14-3.12h-10.68l1.65-4.14,8.04.05,1.22-3.86-7.43.07,1.33-3.47,8.44.14,1.55-4.5Z"/>
      <path class="cls-3" d="m87.91,60.55s-17.14-1.72-21.82,7.06c-5.32,9.98,3.99,17.99,3.99,17.99h26.36l1.34-3.68h-25.8s-2.27-2.23-2.9-4.11c-.63-1.87.13-4.81.13-4.81h9.06l-2.43,6.38h4.42l5.41-13.86h-4.22s-1.47,3.16-1.51,3.2c-.04.04-9.15.05-9.15.05,0,0,1.24-2.47,5.05-3.66,3.82-1.19,10.54-.98,10.54-.98l1.54-3.58Z"/>
      <path class="cls-3" d="m91.79,60.59l-6.14,18.78,13.25-.12,1.03-3-8.58-.07,5.25-15.63-4.81.04Z"/>
      <path class="cls-3" d="m108.87,81.91l-.61,3.68h27.95l.41-3.68h-27.76Z"/>
      <path class="cls-3" d="m8.61,81.91h55.02l2.76,3.68H7.24l1.37-3.68Z"/>
      <path class="cls-3" d="m116.89,60.68l-3.11,18.43h-3.76l2.71-15.89h-4.99l1.71-2.54h7.44Z"/>
      <path class="cls-3" d="m135.02,69.3c2.34,1,3.51,2.51,3.51,4.54,0,1.62-.76,2.94-2.28,3.97-1.53,1.04-3.46,1.56-5.79,1.56s-4.32-.5-5.85-1.49c-1.5-1-2.25-2.3-2.25-3.9,0-2.32,1.62-3.97,4.85-4.94-1.93-.95-2.9-2.21-2.9-3.77,0-1.44.69-2.61,2.07-3.51,1.4-.9,3.19-1.35,5.38-1.35s3.8.44,5.08,1.32c1.28.88,1.92,2.05,1.92,3.5,0,.48-.07.91-.21,1.31-.14.39-.36.75-.66,1.08-.3.33-.69.63-1.16.91-.48.28-1.05.54-1.71.78Zm.1-3.96c0-.73-.32-1.32-.97-1.78-.65-.45-1.49-.68-2.53-.68s-1.93.25-2.64.74c-.7.49-1.05,1.1-1.05,1.84s.33,1.29.98,1.74c.66.45,1.49.68,2.49.68,1.06,0,1.95-.23,2.66-.7.7-.48,1.05-1.09,1.05-1.84Zm-.23,8.27c0-.88-.4-1.59-1.21-2.14-.81-.55-1.85-.82-3.12-.82-1.37,0-2.47.3-3.3.91-.84.6-1.26,1.37-1.26,2.33,0,.9.41,1.63,1.23,2.18.84.56,1.9.85,3.17.85s2.39-.31,3.23-.92c.84-.64,1.26-1.43,1.26-2.39Z"/>
      <g>
        <path class="cls-1" d="m51.94,138.24h-3.66v-17.77h3.66v17.77Z"/>
        <path class="cls-1" d="m55.06,131.52c0-2.05.46-3.68,1.37-4.9.92-1.22,2.16-1.83,3.73-1.83,1.78,0,3.14.7,4.08,2.11v-7.41h1.45v18.75h-1.37l-.06-1.76c-.94,1.33-2.31,2-4.13,2-1.52,0-2.75-.61-3.68-1.84-.93-1.22-1.4-2.88-1.4-4.96v-.17Zm1.48.26c0,1.68.34,3.01,1.01,3.99.68.97,1.63,1.46,2.86,1.46,1.8,0,3.08-.79,3.83-2.38v-6.2c-.76-1.72-2.03-2.58-3.81-2.58-1.23,0-2.19.48-2.87,1.45-.68.96-1.03,2.39-1.03,4.27Z"/>
        <path class="cls-1" d="m74.65,138.49c-1.12,0-2.14-.28-3.05-.83-.91-.55-1.61-1.32-2.12-2.31-.5-.99-.76-2.1-.76-3.33v-.52c0-1.27.25-2.41.74-3.43.49-1.02,1.18-1.82,2.06-2.4s1.83-.87,2.86-.87c1.6,0,2.88.55,3.82,1.64.94,1.09,1.41,2.59,1.41,4.49v.82h-9.42v.28c0,1.5.43,2.75,1.29,3.74.86,1,1.94,1.5,3.24,1.5.78,0,1.47-.14,2.07-.43.6-.29,1.14-.74,1.63-1.37l.92.7c-1.07,1.55-2.63,2.33-4.67,2.33Zm-.27-12.45c-1.1,0-2.02.4-2.78,1.21-.75.8-1.21,1.89-1.37,3.25h7.92v-.16c-.04-1.27-.4-2.3-1.09-3.1s-1.58-1.2-2.69-1.2Z"/>
        <path class="cls-1" d="m90.79,138.24c-.15-.42-.24-1.03-.28-1.84-.51.67-1.17,1.18-1.96,1.54-.79.36-1.63.54-2.52.54-1.27,0-2.3-.35-3.08-1.06-.79-.71-1.18-1.6-1.18-2.69,0-1.29.54-2.3,1.61-3.05,1.07-.75,2.56-1.12,4.47-1.12h2.65v-1.5c0-.94-.29-1.69-.87-2.23-.58-.54-1.43-.81-2.54-.81-1.02,0-1.86.26-2.53.78-.67.52-1,1.15-1,1.88h-1.46c0-1.06.49-1.97,1.46-2.74.98-.77,2.18-1.15,3.6-1.15s2.63.37,3.49,1.1c.85.74,1.29,1.76,1.31,3.08v6.25c0,1.28.13,2.23.4,2.87v.15h-1.56Zm-4.59-1.05c.98,0,1.85-.24,2.62-.71.77-.47,1.33-1.1,1.68-1.89v-2.9h-2.61c-1.46.02-2.6.28-3.42.8-.82.52-1.23,1.23-1.23,2.13,0,.74.27,1.35.82,1.84.55.49,1.26.73,2.14.73Z"/>
        <path class="cls-1" d="m97.48,138.24h-1.46v-18.75h1.46v18.75Z"/>
        <path class="cls-1" d="m46.46,140.68v-1.22h7.29v1.22h-7.29Z"/>
      </g>
    </g>
  </g>
</svg>