<?xml version="1.0" encoding="UTF-8"?>
<svg id="Layer_1" data-name="Layer 1" xmlns="http://www.w3.org/2000/svg" xmlns:xlink="http://www.w3.org/1999/xlink" viewBox="0 0 146 146">
  <defs>
    <style>
      .cls-1 {
        fill: #00507d;
      }

      .cls-2 {
        fill: #fff;
      }

      .cls-2, .cls-3 {
        fill-rule: evenodd;
      }

      .cls-4 {
        stroke: #00507d;
        stroke-linejoin: round;
        stroke-width: 2px;
      }

      .cls-4, .cls-5 {
        fill: none;
      }

      .cls-6 {
        clip-path: url(#clippath);
      }

      .cls-7 {
        mask: url(#mask);
      }
    </style>
    <clipPath id="clippath">
      <rect class="cls-5" x="1" y="1" width="144" height="144"/>
    </clipPath>
    <mask id="mask" x="0" y="0" width="146" height="146" maskUnits="userSpaceOnUse">
      <g id="StrokeMask">
        <rect x="1" y="1" width="144" height="144"/>
        <path id="Fill" class="cls-2" d="m13.72,1h118.57c7.02,0,12.72,5.79,12.72,12.93v118.15c0,7.14-5.69,12.93-12.72,12.93H13.72c-7.02,0-12.72-5.79-12.72-12.93V13.93C1,6.79,6.69,1,13.72,1Z"/>
      </g>
    </mask>
  </defs>
  <g class="cls-6">
    <g id="Layer-1">
      <g class="cls-7">
        <path id="Fill-2" data-name="Fill" class="cls-4" d="m13.72,1h118.57c7.02,0,12.72,5.79,12.72,12.93v118.15c0,7.14-5.69,12.93-12.72,12.93H13.72c-7.02,0-12.72-5.79-12.72-12.93V13.93C1,6.79,6.69,1,13.72,1Z"/>
      </g>
      <path class="cls-3" d="m75.24,7.56c-1.04,0-2.14.34-2.96.99l-33.13,26.21c-.73.57-1.31,1.4-1.58,2.29l-2.24,7.33c-.11.37-.02.83.22,1.14.25.32.68.55,1.09.55h22.71c.28,0,.6.15.76.39.16.22.19.56.11.82l-1.87,6.06c-.12.38-.06.87.17,1.19.24.33.69.55,1.09.55h6.93c.52,0,1.06-.18,1.48-.49.41-.3.72-.76.88-1.25l1.8-5.79c.12-.4.38-.78.72-1.04.35-.27.81-.44,1.25-.44h10.26c.25,0,.51.18.66.39.17.22.3.55.22.82l-1.91,6.06c-.27.87-.84,1.7-1.58,2.24l-22.11,16.15c-.8.59-1.46,1.46-1.75,2.41l-1.85,6.05c-.12.39-.03.88.22,1.21.24.33.68.55,1.09.55h19.38c.29,0,.61.15.77.39.15.21.18.52.1.76l-8.08,26.42c-.21.7-.24,1.47-.11,2.18.12.7.4,1.4.82,1.97.44.59,1.03,1.09,1.69,1.42.65.32,1.4.49,2.13.49h20.64c1.13,0,2.29-.25,3.32-.72,1.03-.47,1.98-1.16,2.73-2.01.74-.84,1.31-1.87,1.64-2.95l9.55-31.29c.21-.7.29-1.46.17-2.18-.12-.71-.44-1.4-.88-1.97-.44-.59-1.04-1.08-1.69-1.41-.63-.32-1.36-.5-2.07-.5h-30.24c-.26,0-.54-.09-.72-.27-.17-.18-.24-.46-.22-.71.03-.25.18-.51.39-.66l13.97-10.2c.81-.59,1.46-1.5,1.75-2.46l4.75-15.46c.21-.7.23-1.47.1-2.18-.12-.71-.39-1.43-.82-2.01-.43-.6-1.03-1.1-1.69-1.42-.65-.31-1.4-.43-2.13-.43h-15.94c-.29,0-.61-.15-.77-.39-.16-.22-.18-.56-.1-.82l8.02-26.21c.12-.39.08-.88-.16-1.21-.24-.33-.68-.55-1.09-.55h-5.89Zm-10.1,20.1c.35.06.68.3.86.6.2.31.28.74.17,1.09l-1.85,6.05c-.15.49-.47.96-.88,1.26-.42.31-.96.49-1.48.49h-5.68c-.36,0-.73-.17-.98-.43-.25-.27-.41-.68-.39-1.05.02-.35.22-.71.49-.92l8.63-6.82c.29-.23.72-.34,1.09-.27Zm32.59,54.27c.28,0,.6.16.76.39.15.21.19.52.11.76l-6.61,21.67c-.12.4-.42.75-.76.99-.35.24-.78.38-1.21.38h-9.11c-.28,0-.49-.31-.76-.38,0,0,0,0-.01,0-.18-.16-.17-.49-.1-.72l6.61-21.67c.12-.39.38-.75.71-.99.34-.26.78-.43,1.21-.43h9.17Z"/>
      <g>
        <path class="cls-1" d="m63.62,131.55h2.01v2.84h-2.01v3.85h-3.53v-3.85h-7.29l-.16-2.22,7.41-11.71h3.56v11.08Zm-7.46,0h3.93v-6.27l-.23.4-3.7,5.87Z"/>
        <path class="cls-1" d="m79.12,138.24h-11.13v-1.12l6.09-6.91c1.01-1.16,1.71-2.12,2.1-2.88s.59-1.49.59-2.21c0-1.12-.33-2.01-.99-2.67-.66-.65-1.57-.98-2.72-.98s-2.16.38-2.9,1.15c-.74.76-1.1,1.76-1.1,2.98h-1.45c0-1,.23-1.91.68-2.73.45-.82,1.09-1.47,1.93-1.93.83-.47,1.78-.7,2.85-.7,1.63,0,2.9.43,3.81,1.28.92.86,1.37,2.02,1.37,3.49,0,.83-.26,1.74-.77,2.72-.52.98-1.43,2.21-2.73,3.69l-4.96,5.6h9.34v1.23Z"/>
        <path class="cls-1" d="m92.56,130.83c0,2.51-.46,4.41-1.38,5.71-.92,1.3-2.27,1.95-4.07,1.95s-3.1-.64-4.04-1.91-1.42-3.13-1.44-5.56v-3.19c0-2.5.46-4.39,1.39-5.68s2.28-1.93,4.07-1.93,3.1.62,4.03,1.86c.93,1.24,1.41,3.07,1.44,5.49v3.26Zm-1.46-3.19c0-2.03-.33-3.57-1-4.61-.66-1.04-1.67-1.56-3.01-1.56s-2.31.51-2.98,1.53c-.67,1.02-1.01,2.52-1.03,4.5v3.49c0,2.03.34,3.58,1.03,4.65.69,1.07,1.69,1.61,3,1.61s2.29-.53,2.96-1.58c.67-1.05,1.01-2.59,1.02-4.61v-3.42Z"/>
        <path class="cls-1" d="m51.97,140.68v-1.22h14.34v1.22h-14.34Z"/>
      </g>
    </g>
  </g>
</svg>