<?xml version="1.0" encoding="UTF-8"?>
<svg id="Layer_1" data-name="Layer 1" xmlns="http://www.w3.org/2000/svg" xmlns:xlink="http://www.w3.org/1999/xlink" viewBox="0 0 146 146">
  <defs>
    <style>
      .cls-1 {
        fill: #00507d;
      }

      .cls-2 {
        fill: #fff;
        fill-rule: evenodd;
      }

      .cls-3 {
        stroke: #00507d;
        stroke-width: 2px;
      }

      .cls-3, .cls-4 {
        stroke-linejoin: round;
      }

      .cls-3, .cls-4, .cls-5 {
        fill: none;
      }

      .cls-4 {
        stroke: #000;
        stroke-linecap: round;
        stroke-width: 6px;
      }

      .cls-6 {
        clip-path: url(#clippath);
      }

      .cls-7 {
        mask: url(#mask);
      }
    </style>
    <clipPath id="clippath">
      <rect class="cls-5" x="1" y="1" width="144" height="144"/>
    </clipPath>
    <mask id="mask" x="0" y="0" width="146" height="146" maskUnits="userSpaceOnUse">
      <g id="StrokeMask">
        <rect x="1" y="1" width="144" height="144"/>
        <path id="Fill" class="cls-2" d="m13.72,1h118.57c7.02,0,12.72,5.79,12.72,12.93v118.15c0,7.14-5.69,12.93-12.72,12.93H13.72c-7.02,0-12.72-5.79-12.72-12.93V13.93C1,6.79,6.69,1,13.72,1Z"/>
      </g>
    </mask>
  </defs>
  <g class="cls-6">
    <g id="Layer-1">
      <g class="cls-7">
        <path id="Fill-2" data-name="Fill" class="cls-3" d="m13.72,1h118.57c7.02,0,12.72,5.79,12.72,12.93v118.15c0,7.14-5.69,12.93-12.72,12.93H13.72c-7.02,0-12.72-5.79-12.72-12.93V13.93C1,6.79,6.69,1,13.72,1Z"/>
      </g>
      <path d="m107.37,45.97c-3.07,0-5.56,2.49-5.56,5.56s2.49,5.56,5.56,5.56,5.56-2.49,5.56-5.56-2.49-5.56-5.56-5.56Zm-.83,14.18c-2.5-.83-5.28.83-6.39,3.34l-4.73,12.51c-1.11,2.5.28,5.28,2.78,6.12,1.39.28,2.5.28,3.61-.56,1.11-.56,2.22-1.67,2.5-2.78l4.73-12.51c1.39-2.78,0-5.56-2.5-6.12Zm6.39,35.58c-.83.28-1.67.56-2.78.56-2.22,0-5.84-.56-8.34-2.5-2.5,1.95-6.12,2.5-8.34,2.5s-5.84-.56-8.34-2.5c-2.5,1.95-6.12,2.5-8.34,2.5s-5.84-.56-8.34-2.5c-2.5,1.95-6.12,2.5-8.34,2.5s-5.84-.56-8.34-2.5c-2.5,1.95-6.12,2.5-8.34,2.5-1.11,0-1.95,0-2.78-.28v5c.83,0,1.67.28,2.78.28,4.73,0,6.67-1.11,8.34-2.5,2.5,1.95,6.12,2.5,8.34,2.5s5.84-.56,8.34-2.5c2.5,1.95,6.12,2.5,8.34,2.5s5.84-.56,8.34-2.5c2.5,1.95,6.12,2.5,8.34,2.5s5.84-.56,8.34-2.5c2.5,1.95,6.12,2.5,8.34,2.5,1.11,0,1.95-.28,2.78-.56v-5Zm-41.42-5.28c8.9-38.92,19.18-61.16,19.18-61.16,0,0-39.47,5.84-50.04,47.81l30.86,13.34Z"/>
      <path class="cls-4" d="m99.03,79.33h-9.73l-9.73,8.34m25.02-25.02h-9.73l-6.95-5.56"/>
      <g>
        <path class="cls-1" d="m39.25,133.12l2.39-12.65h3.65l-3.94,17.77h-3.69l-2.89-11.89-2.89,11.89h-3.69l-3.94-17.77h3.65l2.4,12.62,2.93-12.62h3.1l2.92,12.65Z"/>
        <path class="cls-1" d="m47.51,121.22c0-.28.09-.51.27-.7.18-.19.42-.29.73-.29s.56.1.74.29c.18.19.27.42.27.7s-.09.5-.27.69c-.18.19-.43.28-.74.28s-.55-.09-.73-.28c-.18-.19-.27-.42-.27-.69Zm1.72,17.02h-1.46v-13.21h1.46v13.21Z"/>
        <path class="cls-1" d="m54.59,125.03l.05,2.26c.5-.81,1.11-1.43,1.86-1.86.74-.43,1.56-.64,2.45-.64,1.42,0,2.47.4,3.16,1.2.69.8,1.04,1.99,1.05,3.59v8.67h-1.45v-8.68c0-1.18-.26-2.06-.75-2.64-.49-.58-1.28-.87-2.36-.87-.9,0-1.7.28-2.4.85-.7.57-1.21,1.33-1.54,2.29v9.04h-1.45v-13.21h1.39Z"/>
        <path class="cls-1" d="m66.34,131.52c0-2.05.46-3.68,1.37-4.9.92-1.22,2.16-1.83,3.73-1.83,1.78,0,3.14.7,4.08,2.11v-7.41h1.45v18.75h-1.37l-.06-1.76c-.94,1.33-2.31,2-4.13,2-1.52,0-2.75-.61-3.68-1.84-.93-1.22-1.4-2.88-1.4-4.96v-.17Zm1.48.26c0,1.68.34,3.01,1.01,3.99.68.97,1.63,1.46,2.86,1.46,1.8,0,3.08-.79,3.83-2.38v-6.2c-.76-1.72-2.03-2.58-3.81-2.58-1.23,0-2.19.48-2.87,1.45-.68.96-1.03,2.39-1.03,4.27Z"/>
        <path class="cls-1" d="m88.73,134.88c0-.72-.29-1.31-.87-1.75s-1.46-.78-2.63-1.03-2.08-.53-2.73-.85c-.65-.32-1.13-.71-1.44-1.18-.31-.46-.47-1.03-.47-1.69,0-1.04.44-1.9,1.31-2.58s1.99-1.02,3.34-1.02c1.47,0,2.66.36,3.55,1.09.89.73,1.34,1.68,1.34,2.85h-1.46c0-.77-.32-1.42-.97-1.93-.65-.51-1.46-.77-2.45-.77s-1.73.21-2.31.64c-.58.43-.87.98-.87,1.67s.24,1.17.73,1.53c.48.36,1.37.69,2.65,1,1.28.3,2.24.62,2.88.96.64.34,1.11.75,1.42,1.23s.46,1.06.46,1.75c0,1.11-.45,2.01-1.35,2.67-.9.67-2.07,1-3.52,1-1.54,0-2.79-.37-3.74-1.12-.96-.74-1.43-1.69-1.43-2.83h1.46c.06.86.42,1.52,1.08,2,.66.48,1.54.71,2.63.71,1.02,0,1.84-.22,2.47-.67.63-.45.94-1.01.94-1.7Z"/>
        <path class="cls-1" d="m101.97,136.57c-.88,1.28-2.28,1.92-4.21,1.92-1.41,0-2.48-.41-3.21-1.23-.73-.82-1.11-2.03-1.12-3.63v-8.59h1.45v8.41c0,2.51,1.02,3.77,3.05,3.77s3.46-.88,4.02-2.62v-9.56h1.46v13.21h-1.42l-.02-1.67Z"/>
        <path class="cls-1" d="m113.31,126.28c-.31-.06-.64-.09-.99-.09-.91,0-1.68.25-2.31.76-.63.51-1.08,1.25-1.35,2.21v9.07h-1.45v-13.21h1.43l.03,2.1c.77-1.56,2.01-2.34,3.72-2.34.41,0,.73.05.96.16l-.04,1.33Z"/>
        <path class="cls-1" d="m116.85,138.24v-12.01h-2.18v-1.2h2.18v-1.6c0-1.35.34-2.39,1.03-3.11s1.65-1.09,2.88-1.09c.55,0,1.07.07,1.55.21l-.11,1.21c-.41-.1-.85-.15-1.33-.15-.81,0-1.43.25-1.88.75-.45.5-.67,1.21-.67,2.14v1.64h3.15v1.2h-3.15v12.01h-1.46Z"/>
        <path class="cls-1" d="m23.82,140.68v-1.22h21.86v1.22h-21.86Z"/>
      </g>
    </g>
  </g>
</svg>