<?xml version="1.0" encoding="UTF-8"?>
<svg id="Layer_1" data-name="Layer 1" xmlns="http://www.w3.org/2000/svg" xmlns:xlink="http://www.w3.org/1999/xlink" viewBox="0 0 150.25 146">
  <defs>
    <style>
      .cls-1 {
        fill: #00507d;
      }

      .cls-2, .cls-3, .cls-4 {
        fill: #194821;
      }

      .cls-5 {
        fill: #fff;
        fill-rule: evenodd;
      }

      .cls-6 {
        stroke: #00507d;
        stroke-linejoin: round;
        stroke-width: 2px;
      }

      .cls-6, .cls-7 {
        fill: none;
      }

      .cls-3 {
        stroke-width: .8px;
      }

      .cls-3, .cls-4 {
        stroke: #194821;
        stroke-miterlimit: 10;
      }

      .cls-8 {
        clip-path: url(#clippath);
      }

      .cls-9 {
        mask: url(#mask);
      }
    </style>
    <clipPath id="clippath">
      <rect class="cls-7" x="1" y="1" width="144" height="144"/>
    </clipPath>
    <mask id="mask" x="0" y="0" width="146" height="146" maskUnits="userSpaceOnUse">
      <g id="StrokeMask">
        <rect x="1" y="1" width="144" height="144"/>
        <path id="Fill" class="cls-5" d="m13.72,1h118.57c7.02,0,12.72,5.79,12.72,12.93v118.15c0,7.14-5.69,12.93-12.72,12.93H13.72c-7.02,0-12.72-5.79-12.72-12.93V13.93C1,6.79,6.69,1,13.72,1Z"/>
      </g>
    </mask>
  </defs>
  <g class="cls-8">
    <g id="Layer-1">
      <g class="cls-9">
        <path id="Fill-2" data-name="Fill" class="cls-6" d="m13.72,1h118.57c7.02,0,12.72,5.79,12.72,12.93v118.15c0,7.14-5.69,12.93-12.72,12.93H13.72c-7.02,0-12.72-5.79-12.72-12.93V13.93C1,6.79,6.69,1,13.72,1Z"/>
      </g>
      <g>
        <path class="cls-4" d="m75.21,88.85c-2.17-.65-5.32,2.07-6.65-.4-.69-1.28-.47-3.33-.24-7.71-1.65-.98-6.02.25-9.06-1.01-1.68-.69-2.08-1.39-4.1-3.83-3.52-.04-7.91-.77-9.97-3.04-2.27-2.49-2.21-4.93-5.06-5.45-6.62-1.21-9.08-6.49-9.59-7.61-.98-2.17-2.71-3.18-6.28-4.86-2.65-1.24-4.54-3.59-5.16-6.66-2.2-1.48-11.97-7.29-10.81-14.87,15.88,9.58,24.06,13.01,31.79,15.98,13.36,5.13,33.47,7.94,38.38,11.04,8.54,5.4,1.26,11.47,1.29,18.09.01,3.48,5.72,12.09,1.43,15.46-2.17,1.71-4.99-4.85-5.98-5.14Z"/>
        <path class="cls-3" d="m75.21,88.85c-2.17-.65-5.32,2.07-6.65-.4-.69-1.28-.47-3.33-.24-7.71-1.65-.98-6.02.25-9.06-1.01-1.68-.69-2.08-1.39-4.1-3.83-3.52-.04-7.91-.77-9.97-3.04-2.27-2.49-2.21-4.93-5.06-5.45-6.62-1.21-9.08-6.49-9.59-7.61-.98-2.17-2.71-3.18-6.28-4.86-2.65-1.24-4.54-3.59-5.16-6.66-2.2-1.48-11.97-7.29-10.81-14.87,15.88,9.58,24.06,13.01,31.79,15.98,13.36,5.13,33.47,7.94,38.38,11.04,8.54,5.4,1.26,11.47,1.29,18.09.01,3.48,5.72,12.09,1.43,15.46-2.17,1.71-4.99-4.85-5.98-5.14Z"/>
        <path class="cls-4" d="m112.17,72.37l-4.59,4.11c-4.26-3.87-8.2-1.81-9.73.07-1.54,1.88-1.86,5.58.07,7.81,1.93,2.23,5.78,3.39,9.77-.07l4.25,4.45c-5.71,4.59-11.42,4.4-15.8,1.95-4.38-2.45-5.85-6.04-5.8-10.55.05-4.5,2.38-8.43,6.42-10.53,4.04-2.09,10.15-2.15,15.42,2.74Z"/>
        <path class="cls-3" d="m112.17,72.37l-4.59,4.11c-4.26-3.87-8.2-1.81-9.73.07-1.54,1.88-1.86,5.58.07,7.81,1.93,2.23,5.78,3.39,9.77-.07l4.25,4.45c-5.71,4.59-11.42,4.4-15.8,1.95-4.38-2.45-5.85-6.04-5.8-10.55.05-4.5,2.38-8.43,6.42-10.53,4.04-2.09,10.15-2.15,15.42,2.74Z"/>
        <path class="cls-4" d="m137.8,72.37l-4.59,4.11c-4.26-3.87-8.19-1.81-9.73.07-1.54,1.88-1.86,5.58.07,7.81,1.93,2.23,5.78,3.39,9.77-.07l4.25,4.45c-5.71,4.59-11.42,4.4-15.8,1.95-4.38-2.45-5.85-6.04-5.8-10.55.05-4.5,2.38-8.43,6.42-10.53,4.04-2.09,10.15-2.15,15.42,2.74Z"/>
        <path class="cls-3" d="m137.8,72.37l-4.59,4.11c-4.26-3.87-8.19-1.81-9.73.07-1.54,1.88-1.86,5.58.07,7.81,1.93,2.23,5.78,3.39,9.77-.07l4.25,4.45c-5.71,4.59-11.42,4.4-15.8,1.95-4.38-2.45-5.85-6.04-5.8-10.55.05-4.5,2.38-8.43,6.42-10.53,4.04-2.09,10.15-2.15,15.42,2.74Z"/>
      </g>
      <g>
        <path class="cls-1" d="m29.51,130.98h-7.03v7.26h-3.66v-17.77h11.57v2.97h-7.91v4.59h7.03v2.95Z"/>
        <path class="cls-1" d="m32.74,121.22c0-.28.09-.51.27-.7.18-.19.42-.29.73-.29s.56.1.74.29c.18.19.27.42.27.7s-.09.5-.27.69c-.18.19-.43.28-.74.28s-.55-.09-.73-.28c-.18-.19-.27-.42-.27-.69Zm1.72,17.02h-1.46v-13.21h1.46v13.21Z"/>
        <path class="cls-1" d="m42.58,130.39l3.56-5.36h1.73l-4.48,6.48,4.68,6.73h-1.72l-3.76-5.59-3.76,5.59h-1.72l4.66-6.73-4.48-6.48h1.72l3.56,5.36Z"/>
        <path class="cls-1" d="m55.7,138.49c-1.12,0-2.14-.28-3.05-.83-.91-.55-1.61-1.32-2.12-2.31-.5-.99-.76-2.1-.76-3.33v-.52c0-1.27.25-2.41.74-3.43.49-1.02,1.18-1.82,2.06-2.4s1.83-.87,2.86-.87c1.6,0,2.87.55,3.81,1.64.94,1.09,1.41,2.59,1.41,4.49v.82h-9.42v.28c0,1.5.43,2.75,1.29,3.74.86,1,1.94,1.5,3.24,1.5.78,0,1.47-.14,2.07-.43.6-.29,1.14-.74,1.63-1.37l.92.7c-1.07,1.55-2.63,2.33-4.68,2.33Zm-.27-12.45c-1.1,0-2.02.4-2.78,1.21-.75.8-1.21,1.89-1.37,3.25h7.92v-.16c-.04-1.27-.4-2.3-1.09-3.1s-1.58-1.2-2.69-1.2Z"/>
        <path class="cls-1" d="m62.92,131.52c0-2.05.46-3.68,1.37-4.9.92-1.22,2.16-1.83,3.73-1.83,1.78,0,3.14.7,4.08,2.11v-7.41h1.45v18.75h-1.37l-.06-1.76c-.94,1.33-2.31,2-4.13,2-1.52,0-2.75-.61-3.68-1.84-.93-1.22-1.4-2.88-1.4-4.96v-.17Zm1.48.26c0,1.68.34,3.01,1.01,3.99.68.97,1.63,1.46,2.86,1.46,1.8,0,3.08-.79,3.83-2.38v-6.2c-.76-1.72-2.03-2.58-3.81-2.58-1.23,0-2.19.48-2.87,1.45-.68.96-1.03,2.39-1.03,4.27Z"/>
        <path class="cls-1" d="m87.82,129.42l-2.5,2.47v6.36h-1.5v-17.77h1.5v9.58l9.11-9.58h1.89l-7.45,7.91,8.02,9.86h-1.83l-7.24-8.83Z"/>
        <path class="cls-1" d="m104.36,138.49c-1.12,0-2.14-.28-3.05-.83-.91-.55-1.61-1.32-2.12-2.31-.5-.99-.76-2.1-.76-3.33v-.52c0-1.27.25-2.41.74-3.43s1.18-1.82,2.06-2.4,1.83-.87,2.86-.87c1.6,0,2.88.55,3.82,1.64.94,1.09,1.41,2.59,1.41,4.49v.82h-9.42v.28c0,1.5.43,2.75,1.29,3.74.86,1,1.94,1.5,3.24,1.5.78,0,1.47-.14,2.07-.43.6-.29,1.14-.74,1.63-1.37l.92.7c-1.07,1.55-2.63,2.33-4.67,2.33Zm-.27-12.45c-1.1,0-2.02.4-2.78,1.21-.75.8-1.21,1.89-1.37,3.25h7.92v-.16c-.04-1.27-.4-2.3-1.09-3.1s-1.58-1.2-2.69-1.2Z"/>
        <path class="cls-1" d="m117.28,138.49c-1.12,0-2.14-.28-3.05-.83-.91-.55-1.61-1.32-2.12-2.31-.5-.99-.76-2.1-.76-3.33v-.52c0-1.27.25-2.41.74-3.43s1.18-1.82,2.06-2.4,1.83-.87,2.86-.87c1.6,0,2.88.55,3.82,1.64.94,1.09,1.41,2.59,1.41,4.49v.82h-9.42v.28c0,1.5.43,2.75,1.29,3.74.86,1,1.94,1.5,3.24,1.5.78,0,1.47-.14,2.07-.43.6-.29,1.14-.74,1.63-1.37l.92.7c-1.07,1.55-2.63,2.33-4.67,2.33Zm-.27-12.45c-1.1,0-2.02.4-2.78,1.21-.75.8-1.21,1.89-1.37,3.25h7.92v-.16c-.04-1.27-.4-2.3-1.09-3.1s-1.58-1.2-2.69-1.2Z"/>
        <path class="cls-1" d="m126.71,138.24h-1.46v-18.75h1.46v18.75Z"/>
        <path class="cls-1" d="m17.23,140.68v-1.22h13.7v1.22h-13.7Z"/>
      </g>
      <g>
        <path class="cls-2" d="m35.67,34.96l-1.76,1.93v4.69h-4.28v-17.77h4.28v7.84l1.49-2.26,3.83-5.58h5.3l-6.01,7.86,6.01,9.91h-5.08l-3.78-6.62Z"/>
        <path class="cls-2" d="m51.82,41.82c-2.03,0-3.67-.6-4.92-1.81-1.25-1.21-1.88-2.78-1.88-4.72v-.34c0-1.35.25-2.54.75-3.58.5-1.03,1.23-1.83,2.19-2.4.96-.57,2.1-.85,3.42-.85,1.86,0,3.32.58,4.39,1.73s1.61,2.76,1.61,4.82v1.6h-8.18c.15.74.47,1.32.96,1.75.5.42,1.14.63,1.93.63,1.3,0,2.32-.46,3.05-1.37l1.88,2.22c-.51.71-1.24,1.27-2.18,1.69-.94.42-1.95.63-3.03.63Zm-.46-10.52c-1.2,0-1.92.8-2.15,2.39h4.15v-.32c.02-.66-.15-1.17-.5-1.53-.35-.36-.85-.54-1.5-.54Z"/>
        <path class="cls-2" d="m65.43,41.82c-2.03,0-3.67-.6-4.92-1.81-1.25-1.21-1.88-2.78-1.88-4.72v-.34c0-1.35.25-2.54.75-3.58.5-1.03,1.23-1.83,2.19-2.4.96-.57,2.1-.85,3.42-.85,1.86,0,3.32.58,4.39,1.73s1.61,2.76,1.61,4.82v1.6h-8.18c.15.74.47,1.32.96,1.75.5.42,1.14.63,1.93.63,1.3,0,2.32-.46,3.05-1.37l1.88,2.22c-.51.71-1.24,1.27-2.18,1.69-.94.42-1.95.63-3.03.63Zm-.46-10.52c-1.2,0-1.92.8-2.15,2.39h4.15v-.32c.02-.66-.15-1.17-.5-1.53-.35-.36-.85-.54-1.5-.54Z"/>
        <path class="cls-2" d="m76.99,41.57h-4.13v-18.75h4.13v18.75Z"/>
        <path class="cls-2" d="m91.57,23.8l3.97,12.37,3.96-12.37h5.64v17.77h-4.3v-4.15l.42-8.5-4.3,12.65h-2.83l-4.31-12.66.42,8.51v4.15h-4.28v-17.77h5.63Z"/>
        <path class="cls-2" d="m114.05,41.82c-2.03,0-3.67-.6-4.92-1.81-1.25-1.21-1.88-2.78-1.88-4.72v-.34c0-1.35.25-2.54.75-3.58.5-1.03,1.23-1.83,2.19-2.4s2.1-.85,3.42-.85c1.86,0,3.32.58,4.39,1.73s1.61,2.76,1.61,4.82v1.6h-8.18c.15.74.47,1.32.96,1.75.5.42,1.14.63,1.93.63,1.3,0,2.32-.46,3.05-1.37l1.88,2.22c-.51.71-1.24,1.27-2.18,1.69-.94.42-1.95.63-3.03.63Zm-.46-10.52c-1.2,0-1.92.8-2.15,2.39h4.15v-.32c.02-.66-.15-1.17-.5-1.53-.35-.36-.85-.54-1.5-.54Z"/>
        <path class="cls-2" d="m129.26,32.09l-1.35-.1c-1.29,0-2.12.41-2.49,1.22v8.36h-4.11v-13.21h3.86l.13,1.7c.69-1.29,1.66-1.94,2.89-1.94.44,0,.82.05,1.15.15l-.07,3.82Z"/>
        <path class="cls-2" d="m136.1,38.64c.58,0,1.03-.16,1.34-.47s.47-.75.46-1.31h3.86c0,1.45-.52,2.64-1.56,3.56-1.04.93-2.37,1.39-4.01,1.39-1.92,0-3.43-.6-4.54-1.81s-1.66-2.87-1.66-5v-.17c0-1.33.25-2.51.74-3.53.49-1.02,1.2-1.81,2.13-2.36.93-.55,2.03-.82,3.29-.82,1.72,0,3.08.48,4.09,1.43,1.01.95,1.51,2.24,1.51,3.87h-3.86c0-.68-.17-1.21-.5-1.57-.33-.37-.78-.55-1.34-.55-1.07,0-1.69.68-1.87,2.04-.06.43-.09,1.03-.09,1.78,0,1.33.16,2.25.48,2.76.32.51.82.77,1.51.77Z"/>
      </g>
    </g>
  </g>
</svg>