<?xml version="1.0" encoding="UTF-8"?>
<svg id="Layer_1" data-name="Layer 1" xmlns="http://www.w3.org/2000/svg" xmlns:xlink="http://www.w3.org/1999/xlink" viewBox="0 0 146 146">
  <defs>
    <style>
      .cls-1 {
        fill: #00507d;
      }

      .cls-2 {
        clip-path: url(#clippath-11);
      }

      .cls-3 {
        clip-path: url(#clippath-16);
      }

      .cls-4 {
        fill: #fff;
        fill-rule: evenodd;
      }

      .cls-5 {
        stroke: maroon;
        stroke-miterlimit: 10;
        stroke-width: .8px;
      }

      .cls-5, .cls-6, .cls-7 {
        fill: none;
      }

      .cls-8 {
        clip-path: url(#clippath-2);
      }

      .cls-9 {
        clip-path: url(#clippath-13);
      }

      .cls-10 {
        clip-path: url(#clippath-15);
      }

      .cls-11 {
        clip-path: url(#clippath-6);
      }

      .cls-12 {
        clip-path: url(#clippath-7);
      }

      .cls-13 {
        clip-path: url(#clippath-1);
      }

      .cls-14 {
        clip-path: url(#clippath-4);
      }

      .cls-15 {
        fill: maroon;
      }

      .cls-16 {
        clip-path: url(#clippath-12);
      }

      .cls-6 {
        stroke: #00507d;
        stroke-linejoin: round;
        stroke-width: 2px;
      }

      .cls-17 {
        clip-path: url(#clippath-9);
      }

      .cls-18 {
        clip-path: url(#clippath);
      }

      .cls-19 {
        clip-path: url(#clippath-19);
      }

      .cls-20 {
        clip-path: url(#clippath-3);
      }

      .cls-21 {
        clip-path: url(#clippath-8);
      }

      .cls-22 {
        mask: url(#mask);
      }

      .cls-23 {
        clip-path: url(#clippath-18);
      }

      .cls-24 {
        clip-path: url(#clippath-14);
      }

      .cls-25 {
        clip-path: url(#clippath-17);
      }

      .cls-26 {
        clip-path: url(#clippath-5);
      }

      .cls-27 {
        clip-path: url(#clippath-10);
      }
    </style>
    <clipPath id="clippath">
      <rect class="cls-7" x="1" y="1" width="144" height="144"/>
    </clipPath>
    <clipPath id="clippath-1">
      <rect class="cls-7" x="1" y="114.56" width="144" height="29.44"/>
    </clipPath>
    <clipPath id="clippath-2">
      <rect class="cls-7" x="1" y="114.56" width="144" height="29.44"/>
    </clipPath>
    <clipPath id="clippath-3">
      <rect class="cls-7" x="1" y="114.56" width="144" height="29.44"/>
    </clipPath>
    <clipPath id="clippath-4">
      <rect class="cls-7" x="1" y="114.56" width="144" height="29.44"/>
    </clipPath>
    <clipPath id="clippath-5">
      <rect class="cls-7" x="1" y="114.56" width="144" height="29.44"/>
    </clipPath>
    <clipPath id="clippath-6">
      <rect class="cls-7" x="1" y="114.56" width="144" height="29.44"/>
    </clipPath>
    <clipPath id="clippath-7">
      <rect class="cls-7" x="1" y="114.56" width="144" height="29.44"/>
    </clipPath>
    <clipPath id="clippath-8">
      <rect class="cls-7" x="1" y="114.56" width="144" height="29.44"/>
    </clipPath>
    <clipPath id="clippath-9">
      <rect class="cls-7" x="1" y="114.56" width="144" height="29.44"/>
    </clipPath>
    <clipPath id="clippath-10">
      <rect class="cls-7" x="1" y="114.56" width="144" height="29.44"/>
    </clipPath>
    <clipPath id="clippath-11">
      <rect class="cls-7" x="1" y="114.56" width="144" height="29.44"/>
    </clipPath>
    <clipPath id="clippath-12">
      <rect class="cls-7" x="1" y="114.56" width="144" height="29.44"/>
    </clipPath>
    <mask id="mask" x="0" y="0" width="146" height="146" maskUnits="userSpaceOnUse">
      <g id="StrokeMask">
        <rect x="1" y="1" width="144" height="144"/>
        <path id="Fill" class="cls-4" d="m13.72,1h118.57c7.02,0,12.72,5.79,12.72,12.93v118.15c0,7.14-5.69,12.93-12.72,12.93H13.72c-7.02,0-12.72-5.79-12.72-12.93V13.93C1,6.79,6.69,1,13.72,1Z"/>
      </g>
    </mask>
    <clipPath id="clippath-13">
      <rect class="cls-7" x="40.56" y="14.72" width="104.43" height="30.2"/>
    </clipPath>
    <clipPath id="clippath-14">
      <rect class="cls-7" x="40.56" y="14.72" width="104.43" height="30.2"/>
    </clipPath>
    <clipPath id="clippath-15">
      <rect class="cls-7" x="40.56" y="14.72" width="104.43" height="30.2"/>
    </clipPath>
    <clipPath id="clippath-16">
      <rect class="cls-7" x="40.56" y="14.72" width="104.43" height="30.2"/>
    </clipPath>
    <clipPath id="clippath-17">
      <rect class="cls-7" x="40.56" y="14.72" width="104.43" height="30.2"/>
    </clipPath>
    <clipPath id="clippath-18">
      <rect class="cls-7" x="40.56" y="14.72" width="104.43" height="30.2"/>
    </clipPath>
    <clipPath id="clippath-19">
      <rect class="cls-7" x="40.56" y="14.72" width="104.43" height="30.2"/>
    </clipPath>
  </defs>
  <g class="cls-18">
    <g id="Layer-1">
      <g>
        <g class="cls-13">
          <path class="cls-1" d="m18.54,126.71h3.8c-.12-1.03-.4-1.95-.85-2.75-.45-.8-1.02-1.47-1.71-2.01-.69-.54-1.48-.95-2.35-1.24-.87-.28-1.8-.42-2.79-.42-1.37,0-2.6.24-3.69.72-1.09.48-2.01,1.15-2.76,2s-1.32,1.85-1.72,2.99c-.4,1.14-.6,2.38-.6,3.71s.2,2.51.6,3.64.97,2.1,1.72,2.94c.75.83,1.67,1.49,2.76,1.96,1.09.48,2.32.71,3.69.71,1.1,0,2.11-.17,3.03-.5.92-.33,1.72-.82,2.4-1.45.68-.63,1.23-1.4,1.65-2.3.42-.9.68-1.91.77-3.02h-3.8c-.15,1.2-.56,2.17-1.24,2.9-.68.73-1.61,1.1-2.81,1.1-.88,0-1.63-.17-2.25-.51-.62-.34-1.12-.8-1.5-1.36-.38-.57-.66-1.2-.84-1.91-.18-.71-.26-1.44-.26-2.19s.09-1.54.26-2.27c.18-.73.45-1.39.84-1.96.38-.57.88-1.03,1.5-1.38.62-.34,1.37-.51,2.25-.51.48,0,.95.08,1.39.24.44.16.84.38,1.19.66.35.28.64.61.88.99.23.38.38.79.45,1.24Z"/>
        </g>
        <g class="cls-8">
          <path class="cls-1" d="m34.21,131.21h-8.35c.07-.58.2-1.15.41-1.71.21-.56.49-1.05.84-1.47.35-.43.78-.77,1.28-1.03.5-.26,1.07-.39,1.72-.39s1.2.13,1.7.39c.5.26.92.6,1.28,1.03.35.42.62.91.81,1.46.19.55.3,1.12.31,1.72Zm-8.35,1.32h9.92c.03-.9-.05-1.79-.25-2.66-.2-.88-.53-1.65-.99-2.32-.46-.68-1.05-1.22-1.79-1.64-.73-.42-1.62-.62-2.65-.62s-1.9.2-2.64.59c-.74.39-1.35.91-1.81,1.55-.47.64-.81,1.37-1.04,2.19-.23.82-.34,1.65-.34,2.5,0,.92.11,1.79.34,2.61.23.82.57,1.55,1.04,2.17s1.07,1.12,1.81,1.48c.74.36,1.62.54,2.64.54,1.63,0,2.9-.4,3.79-1.2.89-.8,1.5-1.93,1.84-3.4h-1.58c-.25,1-.7,1.8-1.35,2.4-.65.6-1.55.9-2.7.9-.75,0-1.39-.16-1.92-.48-.53-.32-.98-.72-1.33-1.2-.35-.48-.6-1.03-.76-1.64-.16-.61-.24-1.2-.24-1.76Z"/>
        </g>
        <g class="cls-20">
          <path class="cls-1" d="m37.89,125.66v12.9h1.58v-7.53c.02-.63.12-1.22.31-1.76.19-.54.46-1.01.8-1.4.34-.39.76-.7,1.25-.93.49-.22,1.05-.34,1.69-.34s1.16.1,1.59.3c.43.2.76.47,1.01.82s.42.76.53,1.24c.1.47.15.99.15,1.54v8.05h1.58v-8.3c0-.77-.08-1.46-.22-2.07-.15-.62-.41-1.14-.78-1.56s-.85-.75-1.46-.99c-.61-.23-1.36-.35-2.26-.35s-1.76.24-2.53.71-1.3,1.1-1.6,1.89h-.05v-2.22h-1.58Z"/>
        </g>
        <g class="cls-14">
          <path class="cls-1" d="m53.84,125.66v-3.88h-1.58v3.88h-2.25v1.32h2.25v8.83c-.02,1.1.18,1.85.6,2.26.42.41,1.15.61,2.2.61.23,0,.47,0,.7-.03.23-.02.47-.02.7-.02v-1.32c-.45.05-.9.07-1.35.07-.57-.03-.92-.2-1.06-.49-.14-.29-.21-.7-.21-1.21v-8.7h2.62v-1.32h-2.62Z"/>
        </g>
        <g class="cls-26">
          <path class="cls-1" d="m68.01,131.21h-8.35c.07-.58.2-1.15.41-1.71.21-.56.49-1.05.84-1.47.35-.43.78-.77,1.28-1.03.5-.26,1.08-.39,1.72-.39s1.2.13,1.7.39c.5.26.92.6,1.27,1.03.35.42.62.91.81,1.46.19.55.3,1.12.31,1.72Zm-8.35,1.32h9.93c.03-.9-.05-1.79-.25-2.66-.2-.88-.53-1.65-.99-2.32-.46-.68-1.05-1.22-1.79-1.64-.73-.42-1.62-.62-2.65-.62s-1.9.2-2.64.59c-.74.39-1.35.91-1.81,1.55-.47.64-.81,1.37-1.04,2.19-.22.82-.34,1.65-.34,2.5,0,.92.11,1.79.34,2.61.23.82.57,1.55,1.04,2.17.47.62,1.07,1.12,1.81,1.48.74.36,1.62.54,2.64.54,1.63,0,2.9-.4,3.79-1.2s1.5-1.93,1.84-3.4h-1.57c-.25,1-.7,1.8-1.35,2.4-.65.6-1.55.9-2.7.9-.75,0-1.39-.16-1.92-.48-.53-.32-.97-.72-1.33-1.2-.35-.48-.6-1.03-.76-1.64-.16-.61-.24-1.2-.24-1.76Z"/>
        </g>
        <g class="cls-11">
          <path class="cls-1" d="m71.71,125.66v12.9h1.57v-6.88c0-.68.12-1.31.35-1.89s.56-1.07.99-1.49c.43-.42.93-.74,1.51-.96.58-.22,1.23-.32,1.95-.29v-1.58c-1.17-.05-2.17.21-3.01.78-.84.57-1.46,1.38-1.86,2.43h-.05v-3.03h-1.45Z"/>
        </g>
        <g class="cls-12">
          <path class="cls-1" d="m79.59,120.71v17.85h1.45v-2.45h.05c.37.9.96,1.59,1.79,2.07.82.48,1.76.72,2.81.72.98,0,1.84-.18,2.56-.54.72-.36,1.33-.85,1.81-1.48s.84-1.35,1.07-2.17c.23-.83.35-1.7.35-2.61s-.12-1.79-.35-2.61-.59-1.55-1.07-2.18-1.09-1.12-1.81-1.49c-.72-.37-1.58-.55-2.56-.55-.47,0-.93.06-1.4.17-.47.12-.9.3-1.3.54-.4.24-.75.54-1.06.89-.31.35-.55.76-.71,1.22h-.05v-7.4h-1.57Zm10.32,11.4c0,.67-.08,1.33-.24,1.99-.16.66-.41,1.25-.75,1.76-.34.52-.78.94-1.31,1.26-.53.32-1.18.49-1.93.49-.83,0-1.54-.16-2.11-.49-.57-.32-1.04-.75-1.4-1.26-.36-.52-.62-1.1-.78-1.76-.16-.66-.24-1.32-.24-1.99s.08-1.33.24-1.99c.16-.66.42-1.25.78-1.76.36-.52.82-.94,1.4-1.26.58-.32,1.28-.49,2.11-.49.75,0,1.39.16,1.93.49.53.33.97.75,1.31,1.26.34.52.59,1.1.75,1.76.16.66.24,1.32.24,1.99Z"/>
        </g>
        <g class="cls-21">
          <path class="cls-1" d="m99.39,126.61c.75,0,1.41.16,1.97.47.57.32,1.04.73,1.41,1.25.38.52.66,1.1.85,1.76.19.66.29,1.33.29,2.01s-.1,1.35-.29,2.01c-.19.66-.47,1.25-.85,1.76-.38.52-.85.93-1.41,1.25-.57.32-1.22.48-1.97.48s-1.41-.16-1.97-.48c-.57-.32-1.04-.73-1.41-1.25-.38-.52-.66-1.1-.85-1.76-.19-.66-.29-1.33-.29-2.01s.1-1.35.29-2.01c.19-.66.47-1.25.85-1.76.38-.52.85-.93,1.41-1.25.57-.32,1.22-.47,1.97-.47Zm0-1.32c-.98,0-1.85.18-2.61.55-.76.37-1.4.86-1.91,1.48-.52.62-.91,1.34-1.18,2.16-.27.82-.4,1.7-.4,2.64s.13,1.81.4,2.64.66,1.55,1.18,2.16c.52.62,1.15,1.1,1.91,1.46.76.36,1.63.54,2.61.54s1.85-.18,2.61-.54c.76-.36,1.4-.85,1.91-1.46.52-.62.91-1.34,1.18-2.16.27-.82.4-1.7.4-2.64s-.13-1.81-.4-2.64c-.27-.83-.66-1.55-1.18-2.16-.52-.62-1.15-1.11-1.91-1.48-.76-.37-1.63-.55-2.61-.55Z"/>
        </g>
        <g class="cls-17">
          <path class="cls-1" d="m107.69,129.61h1.57c.03-1.05.37-1.81,1-2.29.63-.47,1.45-.71,2.45-.71.47,0,.9.04,1.31.11.41.08.77.21,1.07.41s.55.47.72.81c.18.34.26.78.26,1.31,0,.35-.05.63-.14.85-.09.22-.22.39-.39.51-.17.12-.37.21-.62.26-.25.05-.54.09-.88.12-.85.1-1.69.2-2.51.31-.83.11-1.57.3-2.23.56-.66.27-1.19.65-1.59,1.16-.4.51-.6,1.21-.6,2.11,0,.65.11,1.21.34,1.69.22.47.53.87.93,1.17.39.31.85.53,1.38.68.53.14,1.09.21,1.69.21.63,0,1.18-.06,1.64-.17.46-.12.87-.28,1.22-.5.36-.22.68-.49.98-.81s.58-.7.86-1.11h.05c0,.33.02.64.06.91.04.27.13.51.26.71.13.2.32.35.56.46.24.11.56.16.96.16.22,0,.4,0,.54-.03.14-.02.3-.04.49-.07v-1.32c-.15.07-.32.1-.5.1-.62,0-.92-.32-.92-.95v-6.85c0-.87-.14-1.57-.43-2.11-.28-.54-.65-.96-1.1-1.26-.45-.3-.96-.5-1.53-.61-.57-.11-1.13-.16-1.7-.16-.75,0-1.43.08-2.05.25-.62.17-1.15.42-1.61.78-.46.35-.82.8-1.09,1.35-.27.55-.43,1.2-.47,1.95Zm8.4,1.9v2.05c0,.63-.12,1.2-.36,1.7-.24.5-.57.93-.97,1.27-.41.35-.89.62-1.44.8-.55.18-1.12.28-1.72.28-.37,0-.72-.06-1.07-.18-.35-.12-.66-.29-.93-.51-.27-.23-.48-.49-.64-.8-.16-.31-.24-.66-.24-1.06,0-.63.19-1.12.56-1.46.38-.34.85-.6,1.44-.79.58-.18,1.23-.32,1.94-.41.71-.09,1.4-.2,2.06-.31.22-.03.47-.09.75-.18.28-.08.47-.22.58-.4h.05Z"/>
        </g>
        <g class="cls-27">
          <path class="cls-1" d="m120.81,125.66v12.9h1.58v-6.88c0-.68.12-1.31.35-1.89.23-.57.56-1.07.99-1.49.43-.42.93-.74,1.51-.96.58-.22,1.23-.32,1.95-.29v-1.58c-1.17-.05-2.17.21-3.01.78-.84.57-1.46,1.38-1.86,2.43h-.05v-3.03h-1.45Z"/>
        </g>
        <g class="cls-2">
          <path class="cls-1" d="m139.59,138.56v-17.85h-1.58v7.4h-.05c-.17-.47-.4-.88-.71-1.22s-.66-.65-1.06-.89c-.4-.24-.83-.42-1.29-.54-.46-.12-.93-.17-1.41-.17-.98,0-1.84.18-2.56.55-.73.37-1.33.86-1.81,1.49-.48.62-.84,1.35-1.08,2.18-.23.82-.35,1.7-.35,2.61s.12,1.79.35,2.61c.23.82.59,1.55,1.08,2.17.48.62,1.09,1.12,1.81,1.48.72.36,1.58.54,2.56.54.47,0,.94-.07,1.41-.2.48-.13.92-.32,1.34-.56.42-.24.79-.54,1.11-.89.32-.35.57-.73.74-1.15h.05v2.45h1.45Zm-10.33-6.45c0-.67.08-1.33.24-1.99.16-.66.41-1.25.75-1.76.34-.52.78-.94,1.31-1.26.53-.32,1.18-.49,1.93-.49.83,0,1.54.16,2.11.49.57.33,1.04.75,1.4,1.26.36.52.62,1.1.77,1.76.16.66.24,1.32.24,1.99s-.08,1.33-.24,1.99c-.16.66-.42,1.25-.77,1.76-.36.52-.82.94-1.4,1.26-.58.32-1.28.49-2.11.49-.75,0-1.39-.16-1.93-.49-.53-.32-.97-.75-1.31-1.26-.34-.52-.59-1.1-.75-1.76-.16-.66-.24-1.32-.24-1.99Z"/>
        </g>
        <g class="cls-16">
          <path class="cls-1" d="m4.91,139.81h18.53v1.25H4.91v-1.25Z"/>
        </g>
      </g>
      <g class="cls-22">
        <path id="Fill-2" data-name="Fill" class="cls-6" d="m13.72,1h118.57c7.02,0,12.72,5.79,12.72,12.93v118.15c0,7.14-5.69,12.93-12.72,12.93H13.72c-7.02,0-12.72-5.79-12.72-12.93V13.93C1,6.79,6.69,1,13.72,1Z"/>
      </g>
      <g>
        <path class="cls-15" d="m75.21,88.85c-2.17-.65-5.32,2.07-6.65-.4-.69-1.28-.47-3.33-.24-7.71-1.65-.98-6.02.25-9.06-1.01-1.68-.69-2.08-1.39-4.1-3.83-3.52-.04-7.91-.77-9.97-3.04-2.27-2.49-2.21-4.93-5.06-5.45-6.62-1.21-9.08-6.49-9.59-7.61-.98-2.17-2.71-3.18-6.28-4.86-2.65-1.24-4.54-3.59-5.16-6.66-2.2-1.48-11.97-7.29-10.81-14.87,15.88,9.58,24.06,13.01,31.79,15.98,13.36,5.13,33.47,7.94,38.38,11.04,8.54,5.4,1.26,11.47,1.29,18.09.01,3.48,5.72,12.09,1.43,15.46-2.17,1.71-4.99-4.85-5.98-5.14Z"/>
        <path class="cls-5" d="m75.21,88.85c-2.17-.65-5.32,2.07-6.65-.4-.69-1.28-.47-3.33-.24-7.71-1.65-.98-6.02.25-9.06-1.01-1.68-.69-2.08-1.39-4.1-3.83-3.52-.04-7.91-.77-9.97-3.04-2.27-2.49-2.21-4.93-5.06-5.45-6.62-1.21-9.08-6.49-9.59-7.61-.98-2.17-2.71-3.18-6.28-4.86-2.65-1.24-4.54-3.59-5.16-6.66-2.2-1.48-11.97-7.29-10.81-14.87,15.88,9.58,24.06,13.01,31.79,15.98,13.36,5.13,33.47,7.94,38.38,11.04,8.54,5.4,1.26,11.47,1.29,18.09.01,3.48,5.72,12.09,1.43,15.46-2.17,1.71-4.99-4.85-5.98-5.14Z"/>
        <path class="cls-15" d="m112.17,72.37l-4.59,4.11c-4.26-3.87-8.2-1.81-9.73.07-1.54,1.88-1.86,5.58.07,7.81,1.93,2.23,5.78,3.39,9.77-.07l4.25,4.45c-5.71,4.59-11.42,4.4-15.8,1.95-4.38-2.45-5.85-6.04-5.8-10.55.05-4.5,2.38-8.43,6.42-10.53,4.04-2.09,10.15-2.15,15.42,2.74Z"/>
        <path class="cls-5" d="m112.17,72.37l-4.59,4.11c-4.26-3.87-8.2-1.81-9.73.07-1.54,1.88-1.86,5.58.07,7.81,1.93,2.23,5.78,3.39,9.77-.07l4.25,4.45c-5.71,4.59-11.42,4.4-15.8,1.95-4.38-2.45-5.85-6.04-5.8-10.55.05-4.5,2.38-8.43,6.42-10.53,4.04-2.09,10.15-2.15,15.42,2.74Z"/>
        <path class="cls-15" d="m137.8,72.37l-4.59,4.11c-4.26-3.87-8.19-1.81-9.73.07-1.54,1.88-1.86,5.58.07,7.81,1.93,2.23,5.78,3.39,9.77-.07l4.25,4.45c-5.71,4.59-11.42,4.4-15.8,1.95-4.38-2.45-5.85-6.04-5.8-10.55.05-4.5,2.38-8.43,6.42-10.53,4.04-2.09,10.15-2.15,15.42,2.74Z"/>
        <path class="cls-5" d="m137.8,72.37l-4.59,4.11c-4.26-3.87-8.19-1.81-9.73.07-1.54,1.88-1.86,5.58.07,7.81,1.93,2.23,5.78,3.39,9.77-.07l4.25,4.45c-5.71,4.59-11.42,4.4-15.8,1.95-4.38-2.45-5.85-6.04-5.8-10.55.05-4.5,2.38-8.43,6.42-10.53,4.04-2.09,10.15-2.15,15.42,2.74Z"/>
      </g>
      <g>
        <g class="cls-9">
          <path class="cls-15" d="m45.42,20.87v17.85h3.67v-12.52h.05l4.38,12.52h3.02l4.38-12.65h.05v12.65h3.68v-17.85h-5.53l-3.95,12.28h-.05l-4.17-12.28h-5.53Z"/>
        </g>
        <g class="cls-24">
          <path class="cls-15" d="m76.42,30.87h-5.78c.02-.25.07-.53.16-.85.09-.32.25-.62.47-.9s.53-.52.9-.71.85-.29,1.41-.29c.87,0,1.51.23,1.94.7.42.47.72,1.15.89,2.05Zm-5.78,2.25h9.33c.07-1-.02-1.96-.25-2.88-.23-.92-.61-1.73-1.14-2.45-.52-.72-1.2-1.29-2.01-1.71-.82-.42-1.78-.64-2.88-.64-.98,0-1.88.18-2.69.53-.81.35-1.5.83-2.09,1.44-.58.61-1.03,1.33-1.35,2.16-.32.83-.47,1.73-.47,2.7s.15,1.92.46,2.75c.31.83.75,1.55,1.31,2.15.57.6,1.26,1.06,2.07,1.39.82.33,1.73.49,2.75.49,1.47,0,2.72-.33,3.75-1,1.03-.67,1.8-1.77,2.3-3.33h-3.12c-.12.4-.43.78-.95,1.14-.52.36-1.13.54-1.85.54-1,0-1.77-.26-2.3-.78-.53-.52-.82-1.35-.88-2.5Z"/>
        </g>
        <g class="cls-10">
          <path class="cls-15" d="m82.07,25.79v12.92h3.55v-5.82c0-.58.06-1.12.17-1.62.12-.5.31-.94.59-1.31s.64-.67,1.09-.89c.45-.22,1-.32,1.65-.32.22,0,.44.01.67.04.23.02.43.05.6.09v-3.3c-.28-.08-.54-.12-.77-.12-.45,0-.88.07-1.3.2-.42.13-.81.32-1.18.56-.37.24-.69.53-.97.88-.28.34-.51.71-.67,1.11h-.05v-2.4h-3.38Z"/>
        </g>
        <g class="cls-3">
          <path class="cls-15" d="m100.14,30.34h3.48c-.05-.83-.25-1.55-.6-2.16-.35-.61-.8-1.12-1.36-1.52-.56-.41-1.19-.71-1.9-.91-.71-.2-1.45-.3-2.21-.3-1.05,0-1.98.18-2.8.53-.82.35-1.51.84-2.08,1.46-.57.62-1,1.37-1.29,2.23-.29.86-.44,1.79-.44,2.79s.16,1.85.47,2.66c.32.81.76,1.5,1.33,2.09.57.58,1.25,1.04,2.06,1.36.81.33,1.7.49,2.66.49,1.72,0,3.12-.45,4.23-1.35,1.1-.9,1.77-2.21,2-3.92h-3.43c-.12.8-.4,1.44-.86,1.91-.46.47-1.11.71-1.96.71-.55,0-1.02-.12-1.4-.38-.38-.25-.69-.57-.91-.96s-.39-.83-.49-1.31c-.1-.48-.15-.96-.15-1.43s.05-.97.15-1.46c.1-.49.27-.94.51-1.35.24-.41.55-.74.94-1,.38-.26.86-.39,1.42-.39,1.52,0,2.39.74,2.62,2.23Z"/>
        </g>
        <g class="cls-25">
          <path class="cls-15" d="m117.82,38.72v-12.92h-3.55v6.77c0,1.32-.22,2.26-.65,2.84-.43.58-1.13.86-2.1.86-.85,0-1.44-.26-1.77-.79-.33-.52-.5-1.32-.5-2.39v-7.3h-3.55v7.95c0,.8.07,1.53.21,2.19.14.66.39,1.22.74,1.67.35.46.83.81,1.44,1.06.61.25,1.39.38,2.34.38.75,0,1.48-.17,2.2-.5.72-.33,1.3-.88,1.75-1.62h.07v1.8h3.38Z"/>
        </g>
        <g class="cls-23">
          <path class="cls-15" d="m120.52,25.79v12.92h3.55v-5.82c0-.58.06-1.12.18-1.62.12-.5.31-.94.59-1.31s.64-.67,1.09-.89c.45-.22,1-.32,1.65-.32.22,0,.44.01.68.04.23.02.43.05.6.09v-3.3c-.28-.08-.54-.12-.78-.12-.45,0-.88.07-1.3.2s-.81.32-1.17.56c-.37.24-.69.53-.97.88-.28.34-.51.71-.68,1.11h-.05v-2.4h-3.38Z"/>
        </g>
        <g class="cls-19">
          <path class="cls-15" d="m136.62,40.32l5.4-14.53h-3.68l-2.82,8.85h-.05l-2.93-8.85h-3.78l4.53,12.12c.1.25.15.52.15.8,0,.38-.11.73-.34,1.05-.22.32-.57.5-1.04.55-.35.02-.7,0-1.05-.03-.35-.03-.69-.07-1.03-.1v2.92c.37.03.73.06,1.09.09.36.02.72.04,1.09.04,1.22,0,2.17-.22,2.85-.67s1.22-1.2,1.6-2.25Z"/>
        </g>
      </g>
    </g>
  </g>
</svg>