<?xml version="1.0" encoding="UTF-8"?>
<svg id="Layer_1" data-name="Layer 1" xmlns="http://www.w3.org/2000/svg" xmlns:xlink="http://www.w3.org/1999/xlink" viewBox="0 0 146 146">
  <defs>
    <style>
      .cls-1 {
        fill: #00507d;
      }

      .cls-2 {
        fill: #fff;
        fill-rule: evenodd;
      }

      .cls-3 {
        stroke: #00507d;
        stroke-linejoin: round;
        stroke-width: 2px;
      }

      .cls-3, .cls-4 {
        fill: none;
      }

      .cls-5 {
        fill: #ba0000;
      }

      .cls-6 {
        clip-path: url(#clippath);
      }

      .cls-7 {
        mask: url(#mask);
      }
    </style>
    <clipPath id="clippath">
      <rect class="cls-4" x="1" y="1" width="144" height="144"/>
    </clipPath>
    <mask id="mask" x="0" y="0" width="146" height="146" maskUnits="userSpaceOnUse">
      <g id="StrokeMask">
        <rect x="1" y="1" width="144" height="144"/>
        <path id="Fill" class="cls-2" d="m13.72,1h118.57c7.02,0,12.72,5.79,12.72,12.93v118.15c0,7.14-5.69,12.93-12.72,12.93H13.72c-7.02,0-12.72-5.79-12.72-12.93V13.93C1,6.79,6.69,1,13.72,1Z"/>
      </g>
    </mask>
  </defs>
  <g class="cls-6">
    <g id="Layer-1">
      <g class="cls-7">
        <path id="Fill-2" data-name="Fill" class="cls-3" d="m13.72,1h118.57c7.02,0,12.72,5.79,12.72,12.93v118.15c0,7.14-5.69,12.93-12.72,12.93H13.72c-7.02,0-12.72-5.79-12.72-12.93V13.93C1,6.79,6.69,1,13.72,1Z"/>
      </g>
      <g>
        <path class="cls-5" d="m49.78,92.53h46.44v22.03h-46.44v-22.03h0Z"/>
        <path class="cls-5" d="m49.78,70.53h46.44v18h-46.44v-18h0Z"/>
        <path class="cls-5" d="m49.78,48.56h46.44v16.17h-46.44v-16.17h0Z"/>
        <path class="cls-5" d="m49.78,28.56h46.44v10h-46.44v-10h0Z"/>
        <path class="cls-5" d="m49.78,6.56h46.44v6.17h-46.44v-6.17h0Z"/>
      </g>
    </g>
  </g>
  <g>
    <path class="cls-1" d="m51.35,133.58c0-.69-.24-1.22-.73-1.59s-1.37-.76-2.64-1.17-2.27-.82-3.02-1.21c-2.02-1.09-3.03-2.56-3.03-4.41,0-.96.27-1.82.81-2.57.54-.75,1.32-1.34,2.33-1.76,1.01-.42,2.15-.63,3.41-.63s2.4.23,3.39.69c.99.46,1.76,1.11,2.31,1.95.55.84.82,1.79.82,2.86h-3.66c0-.81-.26-1.45-.77-1.9-.51-.45-1.23-.68-2.16-.68s-1.59.19-2.09.57c-.5.38-.74.88-.74,1.5,0,.58.29,1.06.87,1.45.58.39,1.44.76,2.57,1.1,2.08.63,3.6,1.4,4.55,2.33s1.43,2.08,1.43,3.47c0,1.54-.58,2.75-1.75,3.62-1.16.88-2.73,1.31-4.7,1.31-1.37,0-2.61-.25-3.74-.75-1.12-.5-1.98-1.19-2.57-2.06-.59-.87-.89-1.88-.89-3.03h3.67c0,1.96,1.17,2.94,3.52,2.94.87,0,1.55-.18,2.04-.53.49-.35.73-.85.73-1.48Z"/>
    <path class="cls-1" d="m57.01,131.44c0-1.27.25-2.41.74-3.43.49-1.02,1.19-1.81,2.09-2.37.9-.57,1.92-.85,3.06-.85,1.76,0,3.18.62,4.27,1.85,1.09,1.23,1.64,2.87,1.64,4.9v.3c0,1.28-.25,2.43-.74,3.45-.49,1.02-1.19,1.81-2.08,2.36-.9.55-1.92.83-3.06.83-1.75,0-3.17-.62-4.27-1.85-1.09-1.23-1.64-2.87-1.64-4.9v-.29Zm1.46.4c0,1.58.41,2.88,1.23,3.89.82,1.01,1.89,1.52,3.22,1.52s2.39-.51,3.2-1.52c.82-1.01,1.23-2.35,1.23-4.01v-.28c0-1.01-.19-1.93-.56-2.77-.37-.84-.9-1.49-1.57-1.95-.68-.46-1.45-.69-2.32-.69-1.3,0-2.36.51-3.19,1.53-.82,1.02-1.23,2.36-1.23,4.01v.27Z"/>
    <path class="cls-1" d="m73.21,125.03l.05,2.26c.5-.81,1.11-1.43,1.85-1.86.74-.43,1.56-.64,2.46-.64,1.42,0,2.47.4,3.16,1.2s1.04,1.99,1.05,3.59v8.67h-1.45v-8.68c0-1.18-.26-2.06-.75-2.64-.49-.58-1.28-.87-2.36-.87-.9,0-1.7.28-2.4.85s-1.21,1.33-1.54,2.29v9.04h-1.45v-13.21h1.39Z"/>
    <path class="cls-1" d="m93.89,138.24c-.15-.42-.24-1.03-.28-1.84-.51.67-1.17,1.18-1.96,1.54-.79.36-1.63.54-2.52.54-1.27,0-2.3-.35-3.08-1.06-.79-.71-1.18-1.6-1.18-2.69,0-1.29.54-2.3,1.61-3.05,1.07-.75,2.56-1.12,4.47-1.12h2.65v-1.5c0-.94-.29-1.69-.87-2.23-.58-.54-1.43-.81-2.54-.81-1.02,0-1.86.26-2.53.78-.67.52-1,1.15-1,1.88h-1.46c0-1.06.49-1.97,1.46-2.74.98-.77,2.18-1.15,3.6-1.15s2.63.37,3.49,1.1c.85.74,1.29,1.76,1.31,3.08v6.25c0,1.28.13,2.23.4,2.87v.15h-1.56Zm-4.59-1.05c.98,0,1.85-.24,2.62-.71.77-.47,1.33-1.1,1.68-1.89v-2.9h-2.61c-1.46.02-2.6.28-3.42.8-.82.52-1.23,1.23-1.23,2.13,0,.74.27,1.35.82,1.84.55.49,1.26.73,2.14.73Z"/>
    <path class="cls-1" d="m105.05,126.28c-.31-.06-.64-.09-.99-.09-.91,0-1.68.25-2.31.76-.63.51-1.08,1.25-1.35,2.21v9.07h-1.45v-13.21h1.43l.03,2.1c.77-1.56,2.01-2.34,3.72-2.34.41,0,.73.05.96.16l-.04,1.33Z"/>
    <path class="cls-1" d="m40.55,140.68v-1.22h15.37v1.22h-15.37Z"/>
  </g>
</svg>