<?xml version="1.0" encoding="UTF-8"?>
<svg id="Layer_1" data-name="Layer 1" xmlns="http://www.w3.org/2000/svg" xmlns:xlink="http://www.w3.org/1999/xlink" viewBox="0 0 146 146">
  <defs>
    <style>
      .cls-1 {
        fill: #00507d;
      }

      .cls-2 {
        fill: #fff;
        fill-rule: evenodd;
      }

      .cls-3 {
        fill: #900;
      }

      .cls-4 {
        stroke: #00507d;
        stroke-linejoin: round;
        stroke-width: 2px;
      }

      .cls-4, .cls-5 {
        fill: none;
      }

      .cls-6 {
        clip-path: url(#clippath);
      }

      .cls-7 {
        mask: url(#mask);
      }
    </style>
    <clipPath id="clippath">
      <rect class="cls-5" x="1" y="1" width="144" height="144"/>
    </clipPath>
    <mask id="mask" x="0" y="0" width="146" height="146" maskUnits="userSpaceOnUse">
      <g id="StrokeMask">
        <rect x="1" y="1" width="144" height="144"/>
        <path id="Fill" class="cls-2" d="m13.72,1h118.57c7.02,0,12.72,5.79,12.72,12.93v118.15c0,7.14-5.69,12.93-12.72,12.93H13.72c-7.02,0-12.72-5.79-12.72-12.93V13.93C1,6.79,6.69,1,13.72,1Z"/>
      </g>
    </mask>
  </defs>
  <g class="cls-6">
    <g id="Layer-1">
      <g class="cls-7">
        <path id="Fill-2" data-name="Fill" class="cls-4" d="m13.72,1h118.57c7.02,0,12.72,5.79,12.72,12.93v118.15c0,7.14-5.69,12.93-12.72,12.93H13.72c-7.02,0-12.72-5.79-12.72-12.93V13.93C1,6.79,6.69,1,13.72,1Z"/>
      </g>
      <g>
        <path class="cls-3" d="m47.71,71c-.3,8.32-1.31,14.13-2.93,16.72-1.62,2.64-3.72,1.87-6.12-1.49-1.67-2.33-3.05-5.49-4.2-8.83-1.15-3.35-1.98-6.61-2.55-9.78-.57-3.19-.85-6.04-.86-9.15v-4.61c0-3.15.27-6.04.85-9.26.58-3.2,1.42-6.5,2.59-9.92,1.18-3.4,2.6-6.65,4.31-9.06,2.43-3.42,4.53-4.1,6.1-1.27,1.58,2.78,2.54,8.59,2.81,16.66-.75.28-1.49.56-2.22.86-.52-12.8-2.97-16.71-6.69-12.01-2.05,2.5-3.54,6.4-4.62,10.62-1.07,4.28-1.57,8.33-1.57,13.17,0,1.66,0,3.32,0,4.99,0,4.68.49,8.64,1.53,12.9,1.05,4.2,2.51,8.06,4.52,10.5,1.99,2.4,3.62,2.79,4.73.74,1.11-2.02,1.83-6.32,2.1-12.61.73.29,1.47.57,2.22.84Z"/>
        <path class="cls-3" d="m64.3,64.32c-2.93-.15-5.81-.38-8.6-.67,0,12.9,0,25.8,0,38.69-.82-.53-1.63-1.09-2.43-1.69,0-29.81,0-59.61,0-89.42,3.05-2.29,6.24-4.11,9.5-5.33,3.21-1.21,5.77,1.06,7.61,6.29,1.84,5.24,2.76,12.79,2.76,22.4,0,6.64-.58,12.49-1.73,17.57-1.15,5.08-2.7,8.58-4.63,10.45,2.54,14.61,5.11,29.64,7.66,44.15v.92c-.92.07-1.84.09-2.76.06-2.47-14.48-4.95-29.25-7.38-43.42Zm-8.6-7.3c2.49.03,5.05.06,7.65.07,2.14.02,3.88-2.03,5.2-6.21,1.32-4.18,1.98-9.61,1.98-16.26,0-7.31-.69-12.98-2.06-16.84-1.37-3.86-3.3-5.51-5.74-4.72-2.39.77-4.74,1.82-7.03,3.1,0,13.62,0,27.24,0,40.86Z"/>
        <path class="cls-3" d="m90.52,101.57c-.78.54-1.58,1.06-2.37,1.53,0-28.33,0-56.67,0-85-2.64,1.89-5.35,4.41-8.1,7.35,0-2.6,0-5.21,0-7.81,3.44-3.53,6.83-6.28,10.08-7.91.13.09.26.18.39.27,0,30.52,0,61.04,0,91.56Z"/>
        <path class="cls-3" d="m112.5,57.56c-.55,1.81-1.26,3.48-2.14,4.97-.88,1.48-1.88,2.63-2.99,3.17-1.25.6-2.41.28-3.45-1.32-1.03-1.58-1.86-4.23-2.46-7.91-.59-3.67-.9-7.91-.9-12.4,0-4.83.32-9.09.96-12.42.63-3.34,1.51-5.36,2.58-6.02,1.08-.67,2.29.13,3.59,2.04,2.19,3.24,3.72,7.56,4.78,11.79,1.05,4.3,1.54,8.18,1.54,12.74v2.64c0,6.35-.67,11.37-2.15,17.06-1.49,5.52-3.85,11.89-7.58,16.76-.12.15-.24.3-.36.46,0-1.56.01-3.12.02-4.68.23-.25.46-.5.68-.75,2.8-3.28,4.69-7.71,5.95-12.03,1.25-4.4,1.85-8.75,1.92-14.09Zm-4.91,4.06c1.2-.34,2.23-1.53,3.11-3.17.88-1.65,1.47-3.42,1.81-5.44,0-.64,0-1.28,0-1.92,0-4.09-.39-7.53-1.23-10.99-.84-3.42-1.99-6.47-3.56-8.47-1.42-1.8-2.66-1.74-3.64.76-.99,2.47-1.51,6.74-1.5,12.2,0,5.24.49,9.75,1.45,13,.95,3.27,2.16,4.43,3.57,4.03Z"/>
      </g>
    </g>
  </g>
  <g>
    <path class="cls-1" d="m39.6,131.74h-2.92v6.51h-3.66v-17.77h6.6c2.1,0,3.72.47,4.86,1.4,1.14.94,1.71,2.26,1.71,3.97,0,1.21-.26,2.22-.79,3.03-.52.81-1.32,1.46-2.39,1.94l3.85,7.26v.17h-3.93l-3.33-6.51Zm-2.92-2.97h2.95c.92,0,1.63-.23,2.14-.7.5-.47.76-1.11.76-1.93s-.24-1.5-.71-1.98c-.48-.48-1.21-.72-2.19-.72h-2.94v5.33Z"/>
    <path class="cls-1" d="m50.74,127.27c.48-.79,1.09-1.4,1.84-1.83.75-.43,1.57-.65,2.45-.65,1.42,0,2.47.4,3.16,1.2.69.8,1.04,1.99,1.05,3.59v8.67h-1.45v-8.68c0-1.18-.26-2.06-.75-2.64-.49-.58-1.28-.87-2.36-.87-.9,0-1.7.28-2.4.85-.7.57-1.21,1.33-1.54,2.29v9.04h-1.45v-18.75h1.45v7.78Z"/>
    <path class="cls-1" d="m62.2,131.44c0-1.27.25-2.41.74-3.43.49-1.02,1.19-1.81,2.09-2.37.9-.57,1.92-.85,3.06-.85,1.76,0,3.18.62,4.27,1.85,1.09,1.23,1.64,2.87,1.64,4.9v.3c0,1.28-.25,2.43-.74,3.45-.49,1.02-1.19,1.81-2.08,2.36-.9.55-1.92.83-3.06.83-1.75,0-3.17-.62-4.27-1.85-1.09-1.23-1.64-2.87-1.64-4.9v-.29Zm1.46.4c0,1.58.41,2.88,1.23,3.89.82,1.01,1.89,1.52,3.22,1.52s2.39-.51,3.2-1.52c.82-1.01,1.23-2.35,1.23-4.01v-.28c0-1.01-.19-1.93-.56-2.77-.37-.84-.9-1.49-1.57-1.95-.68-.46-1.45-.69-2.32-.69-1.3,0-2.36.51-3.19,1.53-.82,1.02-1.23,2.36-1.23,4.01v.27Z"/>
    <path class="cls-1" d="m76.42,131.52c0-2.05.46-3.68,1.37-4.9.92-1.22,2.16-1.83,3.73-1.83,1.78,0,3.14.7,4.08,2.11v-7.41h1.45v18.75h-1.37l-.06-1.76c-.94,1.33-2.31,2-4.13,2-1.52,0-2.75-.61-3.68-1.84s-1.4-2.88-1.4-4.96v-.17Zm1.48.26c0,1.68.34,3.01,1.01,3.99.68.97,1.63,1.46,2.86,1.46,1.8,0,3.08-.79,3.83-2.38v-6.2c-.76-1.72-2.03-2.58-3.81-2.58-1.23,0-2.19.48-2.87,1.45-.68.96-1.03,2.39-1.03,4.27Z"/>
    <path class="cls-1" d="m96.02,138.49c-1.12,0-2.14-.28-3.05-.83-.91-.55-1.61-1.32-2.12-2.31-.5-.99-.76-2.1-.76-3.33v-.52c0-1.27.25-2.41.74-3.43s1.18-1.82,2.06-2.4,1.83-.87,2.86-.87c1.6,0,2.88.55,3.82,1.64.94,1.09,1.41,2.59,1.41,4.49v.82h-9.42v.28c0,1.5.43,2.75,1.29,3.74.86,1,1.94,1.5,3.24,1.5.78,0,1.47-.14,2.07-.43.6-.29,1.14-.74,1.63-1.37l.92.7c-1.07,1.55-2.63,2.33-4.67,2.33Zm-.27-12.45c-1.1,0-2.02.4-2.78,1.21-.75.8-1.21,1.89-1.37,3.25h7.92v-.16c-.04-1.27-.4-2.3-1.09-3.1s-1.58-1.2-2.69-1.2Z"/>
    <path class="cls-1" d="m111.73,134.88c0-.72-.29-1.31-.87-1.75s-1.46-.78-2.63-1.03-2.08-.53-2.73-.85c-.65-.32-1.13-.71-1.44-1.18-.31-.46-.47-1.03-.47-1.69,0-1.04.44-1.9,1.31-2.58s1.99-1.02,3.34-1.02c1.47,0,2.66.36,3.55,1.09.89.73,1.34,1.68,1.34,2.85h-1.46c0-.77-.32-1.42-.97-1.93-.65-.51-1.46-.77-2.45-.77s-1.73.21-2.31.64c-.58.43-.87.98-.87,1.67s.24,1.17.73,1.53c.48.36,1.37.69,2.65,1,1.28.3,2.24.62,2.88.96.64.34,1.11.75,1.42,1.23s.46,1.06.46,1.75c0,1.11-.45,2.01-1.35,2.67-.9.67-2.07,1-3.52,1-1.54,0-2.79-.37-3.74-1.12-.96-.74-1.43-1.69-1.43-2.83h1.46c.06.86.42,1.52,1.08,2,.66.48,1.54.71,2.63.71,1.02,0,1.84-.22,2.47-.67.63-.45.94-1.01.94-1.7Z"/>
    <path class="cls-1" d="m31.43,140.68v-1.22h15.95v1.22h-15.95Z"/>
  </g>
</svg>