<?xml version="1.0" encoding="UTF-8"?>
<svg id="Layer_1" data-name="Layer 1" xmlns="http://www.w3.org/2000/svg" xmlns:xlink="http://www.w3.org/1999/xlink" viewBox="0 0 146 146">
  <defs>
    <style>
      .cls-1 {
        fill: #00507d;
      }

      .cls-2 {
        fill: #fff;
      }

      .cls-2, .cls-3 {
        fill-rule: evenodd;
      }

      .cls-4, .cls-3 {
        fill: red;
        stroke: red;
        stroke-miterlimit: 10;
        stroke-width: 3.1px;
      }

      .cls-5 {
        stroke: #00507d;
        stroke-linejoin: round;
        stroke-width: 2px;
      }

      .cls-5, .cls-6 {
        fill: none;
      }

      .cls-7 {
        clip-path: url(#clippath);
      }

      .cls-8 {
        mask: url(#mask);
      }
    </style>
    <clipPath id="clippath">
      <rect class="cls-6" x="1" y="1" width="144" height="144"/>
    </clipPath>
    <mask id="mask" x="0" y="0" width="146" height="146" maskUnits="userSpaceOnUse">
      <g id="StrokeMask">
        <rect x="1" y="1" width="144" height="144"/>
        <path id="Fill" class="cls-2" d="m13.72,1h118.57c7.02,0,12.72,5.79,12.72,12.93v118.15c0,7.14-5.69,12.93-12.72,12.93H13.72c-7.02,0-12.72-5.79-12.72-12.93V13.93C1,6.79,6.69,1,13.72,1Z"/>
      </g>
    </mask>
  </defs>
  <g class="cls-7">
    <g id="Layer-1">
      <g class="cls-8">
        <path id="Fill-2" data-name="Fill" class="cls-5" d="m13.72,1h118.57c7.02,0,12.72,5.79,12.72,12.93v118.15c0,7.14-5.69,12.93-12.72,12.93H13.72c-7.02,0-12.72-5.79-12.72-12.93V13.93C1,6.79,6.69,1,13.72,1Z"/>
      </g>
      <g>
        <path class="cls-4" d="m90.5,66.3c1.96,6.12,8.5,9.49,14.62,7.53,6.12-1.96,9.49-8.5,7.53-14.62-1.96-6.12-8.5-9.49-14.62-7.53-6.12,1.96-9.49,8.5-7.53,14.62Z"/>
        <g>
          <path class="cls-3" d="m100.93,63.04l-23.07-5.92"/>
          <path class="cls-3" d="m100.98,63.16l-92.78.32"/>
        </g>
        <g>
          <path class="cls-3" d="m101.6,62.4l5.13-23.26"/>
          <path class="cls-3" d="m101.49,62.45l-1.25-35.98"/>
        </g>
        <g>
          <path class="cls-3" d="m101.86,62.6l16.12-17.54"/>
          <path class="cls-3" d="m101.74,62.59l16.98-31.74"/>
        </g>
        <g>
          <path class="cls-3" d="m101.99,62.92l22.83-6.81"/>
          <path class="cls-3" d="m101.89,62.85l30.84-18.57"/>
        </g>
        <g>
          <path class="cls-3" d="m101.85,63.73l23.09,5.86"/>
          <path class="cls-3" d="m101.8,63.61l36-.13"/>
        </g>
        <g>
          <path class="cls-3" d="m101.72,63.52l16.86,16.83"/>
          <path class="cls-3" d="m101.73,63.39l31.02,18.28"/>
        </g>
        <g>
          <path class="cls-3" d="m101.4,63.63l6.22,23"/>
          <path class="cls-3" d="m101.48,63.53l17.76,31.31"/>
        </g>
        <g>
          <path class="cls-3" d="m101.08,63.57l-6.1,23.03"/>
          <path class="cls-3" d="m101.19,63.52l-.26,36"/>
        </g>
        <g>
          <path class="cls-3" d="m100.83,63.36l-16.63,17.06"/>
          <path class="cls-3" d="m100.95,63.38l-17.9,31.23"/>
        </g>
        <g>
          <path class="cls-3" d="m100.71,63.06l-22.88,6.65"/>
          <path class="cls-3" d="m100.81,63.13l-30.97,18.35"/>
        </g>
        <g>
          <path class="cls-3" d="m100.96,62.48l-17.59-16.06"/>
          <path class="cls-3" d="m100.95,62.61l-31.8-16.88"/>
        </g>
        <g>
          <path class="cls-3" d="m101.26,62.35l-7.58-22.58"/>
          <path class="cls-3" d="m101.19,62.46l-19.6-30.2"/>
        </g>
      </g>
      <g>
        <path class="cls-1" d="m47.79,135.3h7.78v2.94h-11.44v-17.77h3.66v14.83Z"/>
        <path class="cls-1" d="m66.32,138.24c-.15-.42-.24-1.03-.28-1.84-.51.67-1.17,1.18-1.96,1.54-.79.36-1.63.54-2.52.54-1.27,0-2.3-.35-3.08-1.06-.79-.71-1.18-1.6-1.18-2.69,0-1.29.54-2.3,1.61-3.05,1.07-.75,2.56-1.12,4.47-1.12h2.65v-1.5c0-.94-.29-1.69-.87-2.23-.58-.54-1.43-.81-2.55-.81-1.02,0-1.86.26-2.53.78-.67.52-1,1.15-1,1.88h-1.46c0-1.06.49-1.97,1.46-2.74.98-.77,2.18-1.15,3.6-1.15s2.63.37,3.48,1.1c.85.74,1.29,1.76,1.31,3.08v6.25c0,1.28.13,2.23.4,2.87v.15h-1.56Zm-4.59-1.05c.98,0,1.85-.24,2.62-.71.77-.47,1.33-1.1,1.68-1.89v-2.9h-2.61c-1.46.02-2.6.28-3.42.8-.82.52-1.23,1.23-1.23,2.13,0,.74.27,1.35.82,1.84.55.49,1.26.73,2.14.73Z"/>
        <path class="cls-1" d="m79.29,134.88c0-.72-.29-1.31-.87-1.75s-1.46-.78-2.63-1.03-2.08-.53-2.73-.85c-.65-.32-1.13-.71-1.44-1.18-.31-.46-.47-1.03-.47-1.69,0-1.04.44-1.9,1.31-2.58.87-.68,1.98-1.02,3.34-1.02,1.47,0,2.66.36,3.55,1.09s1.34,1.68,1.34,2.85h-1.46c0-.77-.32-1.42-.97-1.93-.65-.51-1.46-.77-2.45-.77s-1.73.21-2.31.64c-.58.43-.87.98-.87,1.67s.24,1.17.73,1.53c.48.36,1.37.69,2.65,1s2.24.62,2.88.96,1.11.75,1.42,1.23c.31.48.46,1.06.46,1.75,0,1.11-.45,2.01-1.35,2.67s-2.07,1-3.52,1c-1.54,0-2.79-.37-3.74-1.12-.96-.74-1.43-1.69-1.43-2.83h1.46c.06.86.42,1.52,1.08,2,.66.48,1.54.71,2.63.71,1.02,0,1.84-.22,2.47-.67.62-.45.94-1.01.94-1.7Z"/>
        <path class="cls-1" d="m89.15,138.49c-1.12,0-2.14-.28-3.05-.83-.91-.55-1.61-1.32-2.12-2.31-.5-.99-.76-2.1-.76-3.33v-.52c0-1.27.25-2.41.74-3.43s1.18-1.82,2.06-2.4,1.83-.87,2.86-.87c1.6,0,2.88.55,3.82,1.64.94,1.09,1.41,2.59,1.41,4.49v.82h-9.42v.28c0,1.5.43,2.75,1.29,3.74.86,1,1.94,1.5,3.24,1.5.78,0,1.47-.14,2.07-.43.6-.29,1.14-.74,1.63-1.37l.92.7c-1.07,1.55-2.63,2.33-4.67,2.33Zm-.27-12.45c-1.1,0-2.02.4-2.78,1.21-.75.8-1.21,1.89-1.37,3.25h7.92v-.16c-.04-1.27-.4-2.3-1.09-3.1s-1.58-1.2-2.69-1.2Z"/>
        <path class="cls-1" d="m103.05,126.28c-.31-.06-.64-.09-.99-.09-.91,0-1.68.25-2.31.76-.63.51-1.08,1.25-1.35,2.21v9.07h-1.45v-13.21h1.43l.03,2.1c.77-1.56,2.01-2.34,3.72-2.34.41,0,.73.05.96.16l-.04,1.33Z"/>
        <path class="cls-1" d="m42.54,140.68v-1.22h13.54v1.22h-13.54Z"/>
      </g>
    </g>
  </g>
</svg>