<?xml version="1.0" encoding="UTF-8"?>
<svg id="Layer_1" data-name="Layer 1" xmlns="http://www.w3.org/2000/svg" xmlns:xlink="http://www.w3.org/1999/xlink" viewBox="0 0 146 146">
  <defs>
    <style>
      .cls-1 {
        fill: #00507d;
      }

      .cls-2 {
        stroke-width: 4px;
      }

      .cls-2, .cls-3, .cls-4, .cls-5, .cls-6 {
        fill: none;
      }

      .cls-2, .cls-3, .cls-4, .cls-6 {
        stroke-linejoin: round;
      }

      .cls-2, .cls-3, .cls-6 {
        stroke: #000;
        stroke-linecap: round;
      }

      .cls-7 {
        fill: #fff;
        fill-rule: evenodd;
      }

      .cls-4 {
        stroke: #00507d;
      }

      .cls-4, .cls-6 {
        stroke-width: 2px;
      }

      .cls-8 {
        clip-path: url(#clippath);
      }

      .cls-9 {
        mask: url(#mask);
      }
    </style>
    <clipPath id="clippath">
      <rect class="cls-5" x="1" y="1" width="144" height="144"/>
    </clipPath>
    <mask id="mask" x="0" y="0" width="146" height="146" maskUnits="userSpaceOnUse">
      <g id="StrokeMask">
        <rect x="1" y="1" width="144" height="144"/>
        <path id="Fill" class="cls-7" d="m13.72,1h118.57c7.02,0,12.72,5.79,12.72,12.93v118.15c0,7.14-5.69,12.93-12.72,12.93H13.72c-7.02,0-12.72-5.79-12.72-12.93V13.93C1,6.79,6.69,1,13.72,1Z"/>
      </g>
    </mask>
  </defs>
  <g class="cls-8">
    <g id="Layer-1">
      <g class="cls-9">
        <g>
          <path id="Fill-2" data-name="Fill" class="cls-4" d="m13.72,1h118.57c7.02,0,12.72,5.79,12.72,12.93v118.15c0,7.14-5.69,12.93-12.72,12.93H13.72c-7.02,0-12.72-5.79-12.72-12.93V13.93C1,6.79,6.69,1,13.72,1Z"/>
          <g>
            <path class="cls-1" d="m8.57,131.98v6.26h-3.66v-17.77h6.93c1.33,0,2.51.24,3.52.73,1.01.49,1.79,1.18,2.34,2.08.54.9.82,1.92.82,3.07,0,1.74-.6,3.12-1.79,4.12-1.19,1-2.84,1.51-4.95,1.51h-3.21Zm0-2.97h3.27c.97,0,1.71-.23,2.22-.68.51-.46.76-1.11.76-1.95s-.26-1.57-.77-2.11-1.22-.81-2.12-.83h-3.36v5.58Z"/>
            <path class="cls-1" d="m29.68,138.24c-.15-.42-.24-1.03-.28-1.84-.51.67-1.17,1.18-1.96,1.54-.79.36-1.63.54-2.52.54-1.27,0-2.3-.35-3.08-1.06-.79-.71-1.18-1.6-1.18-2.69,0-1.29.54-2.3,1.61-3.05,1.07-.75,2.56-1.12,4.47-1.12h2.65v-1.5c0-.94-.29-1.69-.87-2.23-.58-.54-1.43-.81-2.55-.81-1.02,0-1.86.26-2.53.78-.67.52-1,1.15-1,1.88h-1.46c0-1.06.49-1.97,1.46-2.74.98-.77,2.18-1.15,3.6-1.15s2.63.37,3.48,1.1c.85.74,1.29,1.76,1.31,3.08v6.25c0,1.28.13,2.23.4,2.87v.15h-1.56Zm-4.59-1.05c.98,0,1.85-.24,2.62-.71.77-.47,1.33-1.1,1.68-1.89v-2.9h-2.61c-1.46.02-2.6.28-3.42.8-.82.52-1.23,1.23-1.23,2.13,0,.74.27,1.35.82,1.84.55.49,1.26.73,2.14.73Z"/>
            <path class="cls-1" d="m34.15,131.52c0-2.05.46-3.68,1.37-4.9.92-1.22,2.16-1.83,3.73-1.83,1.78,0,3.14.7,4.08,2.11v-7.41h1.45v18.75h-1.37l-.06-1.76c-.94,1.33-2.31,2-4.13,2-1.52,0-2.75-.61-3.68-1.84-.93-1.22-1.4-2.88-1.4-4.96v-.17Zm1.48.26c0,1.68.34,3.01,1.01,3.99.68.97,1.63,1.46,2.86,1.46,1.8,0,3.08-.79,3.83-2.38v-6.2c-.76-1.72-2.03-2.58-3.81-2.58-1.23,0-2.19.48-2.87,1.45-.68.96-1.03,2.39-1.03,4.27Z"/>
            <path class="cls-1" d="m48.04,131.52c0-2.05.46-3.68,1.37-4.9.92-1.22,2.16-1.83,3.73-1.83,1.78,0,3.14.7,4.08,2.11v-7.41h1.45v18.75h-1.37l-.06-1.76c-.94,1.33-2.31,2-4.13,2-1.52,0-2.75-.61-3.68-1.84-.93-1.22-1.4-2.88-1.4-4.96v-.17Zm1.48.26c0,1.68.34,3.01,1.01,3.99.68.97,1.63,1.46,2.86,1.46,1.8,0,3.08-.79,3.83-2.38v-6.2c-.76-1.72-2.03-2.58-3.81-2.58-1.23,0-2.19.48-2.87,1.45-.68.96-1.03,2.39-1.03,4.27Z"/>
            <path class="cls-1" d="m64.16,138.24h-1.46v-18.75h1.46v18.75Z"/>
            <path class="cls-1" d="m73.24,138.49c-1.12,0-2.14-.28-3.05-.83-.91-.55-1.61-1.32-2.12-2.31-.5-.99-.76-2.1-.76-3.33v-.52c0-1.27.25-2.41.74-3.43.49-1.02,1.18-1.82,2.06-2.4s1.83-.87,2.86-.87c1.6,0,2.87.55,3.81,1.64.94,1.09,1.41,2.59,1.41,4.49v.82h-9.42v.28c0,1.5.43,2.75,1.29,3.74.86,1,1.94,1.5,3.24,1.5.78,0,1.47-.14,2.07-.43.6-.29,1.14-.74,1.63-1.37l.92.7c-1.07,1.55-2.63,2.33-4.68,2.33Zm-.27-12.45c-1.1,0-2.02.4-2.78,1.21-.75.8-1.21,1.89-1.37,3.25h7.92v-.16c-.04-1.27-.4-2.3-1.09-3.1s-1.58-1.2-2.69-1.2Z"/>
            <path class="cls-1" d="m91.67,131.77c0,2.06-.46,3.69-1.37,4.9-.91,1.21-2.14,1.81-3.67,1.81-1.84,0-3.23-.68-4.17-2.05l-.06,1.81h-1.37v-18.75h1.45v7.46c.93-1.44,2.3-2.16,4.13-2.16,1.56,0,2.8.6,3.71,1.79.91,1.19,1.36,2.85,1.36,4.97v.22Zm-1.46-.26c0-1.74-.34-3.09-1.01-4.03-.68-.95-1.63-1.42-2.86-1.42-.94,0-1.73.23-2.38.69-.65.46-1.14,1.13-1.48,2.02v5.96c.73,1.66,2.03,2.49,3.88,2.49,1.2,0,2.15-.48,2.83-1.43.68-.95,1.02-2.38,1.02-4.27Z"/>
            <path class="cls-1" d="m94.09,131.44c0-1.27.25-2.41.74-3.43s1.19-1.81,2.09-2.37c.9-.57,1.92-.85,3.06-.85,1.76,0,3.18.62,4.27,1.85,1.09,1.23,1.64,2.87,1.64,4.9v.3c0,1.28-.25,2.43-.74,3.45-.49,1.02-1.19,1.81-2.08,2.36-.89.55-1.92.83-3.06.83-1.75,0-3.17-.62-4.27-1.85-1.09-1.23-1.64-2.87-1.64-4.9v-.29Zm1.46.4c0,1.58.41,2.88,1.23,3.89.82,1.01,1.89,1.52,3.22,1.52s2.39-.51,3.2-1.52c.82-1.01,1.23-2.35,1.23-4.01v-.28c0-1.01-.19-1.93-.56-2.77-.38-.84-.9-1.49-1.58-1.95-.68-.46-1.45-.69-2.32-.69-1.3,0-2.36.51-3.19,1.53-.82,1.02-1.23,2.36-1.23,4.01v.27Z"/>
            <path class="cls-1" d="m117.23,138.24c-.15-.42-.24-1.03-.28-1.84-.51.67-1.17,1.18-1.96,1.54-.79.36-1.63.54-2.52.54-1.27,0-2.3-.35-3.08-1.06-.79-.71-1.18-1.6-1.18-2.69,0-1.29.54-2.3,1.61-3.05,1.07-.75,2.56-1.12,4.47-1.12h2.65v-1.5c0-.94-.29-1.69-.87-2.23-.58-.54-1.43-.81-2.54-.81-1.02,0-1.86.26-2.53.78-.67.52-1,1.15-1,1.88h-1.46c0-1.06.49-1.97,1.46-2.74.98-.77,2.18-1.15,3.6-1.15s2.63.37,3.49,1.1c.85.74,1.29,1.76,1.31,3.08v6.25c0,1.28.13,2.23.4,2.87v.15h-1.56Zm-4.59-1.05c.98,0,1.85-.24,2.62-.71.77-.47,1.33-1.1,1.68-1.89v-2.9h-2.61c-1.46.02-2.6.28-3.42.8-.82.52-1.23,1.23-1.23,2.13,0,.74.27,1.35.82,1.84.55.49,1.26.73,2.14.73Z"/>
            <path class="cls-1" d="m128.39,126.28c-.31-.06-.64-.09-.99-.09-.91,0-1.68.25-2.31.76-.63.51-1.08,1.25-1.35,2.21v9.07h-1.45v-13.21h1.43l.03,2.1c.77-1.56,2.01-2.34,3.72-2.34.41,0,.73.05.96.16l-.04,1.33Z"/>
            <path class="cls-1" d="m130.11,131.52c0-2.05.46-3.68,1.37-4.9.92-1.22,2.16-1.83,3.73-1.83,1.78,0,3.14.7,4.08,2.11v-7.41h1.45v18.75h-1.37l-.06-1.76c-.94,1.33-2.31,2-4.13,2-1.52,0-2.75-.61-3.68-1.84s-1.4-2.88-1.4-4.96v-.17Zm1.48.26c0,1.68.34,3.01,1.01,3.99.68.97,1.63,1.46,2.86,1.46,1.8,0,3.08-.79,3.83-2.38v-6.2c-.76-1.72-2.03-2.58-3.81-2.58-1.23,0-2.19.48-2.87,1.45-.68.96-1.03,2.39-1.03,4.27Z"/>
            <path class="cls-1" d="m3.32,140.68v-1.22h16.13v1.22H3.32Z"/>
          </g>
        </g>
      </g>
      <path d="m82.77,91.24s1.75,6.15.57,13.94c0,0-4.18.85-6.79-1.76.63-6.08,4.55-12.79,4.55-12.79l1.67.61Z"/>
      <path class="cls-3" d="m91.58,37.34l-10.86,61.03"/>
      <g>
        <path class="cls-6" d="m117.39,86.6l-88.79.21"/>
        <path d="m33.88,87.62s.33.79-.34,2.59c-.67,1.8-2.34,4.61-2.34,4.61,0,0,7.59-2.76,9.51-7.2h-6.83Z"/>
      </g>
      <path d="m70.2,26.17c-2.57,1.31-3.73,4.77-2.58,7.71,1.15,2.95,4.16,4.27,6.73,2.95,2.57-1.31,3.73-4.77,2.58-7.71-1.15-2.95-4.16-4.27-6.73-2.95Z"/>
      <path class="cls-2" d="m73.14,42.32l6.31,11.04,7.66,5.37m-16.34.42l6.62,11.86,1.42,11.86m-11.62-15.01c0,2.77-6.13,15.01-6.13,15.01m7.54-41.98l10.86-1.2h10.15"/>
      <path d="m73.33,39.92l-4.56-.23c-.72-.14-1.8,1.69-1.86,3.25l-1.87,15.28c-.27,2.18,1.1,4.55,3.19,4.76l7.04,4.18s-1.76-6.11-1.64-6.94l1.64-16.44c-.15-.95-.77-3.7-1.95-3.86Zm-5.54,24.35c-.99-.26-2.07-.73-2.86-1.61l-.28,7.31c-.23,1.14.54,2.54,1.54,2.8.46.02.91.05,1.28-.14.56-.29,1.03-.78,1.16-1.61l2.06-6.17-2.9-.56Z"/>
    </g>
  </g>
</svg>