<?xml version="1.0" encoding="UTF-8"?>
<svg id="Layer_1" data-name="Layer 1" xmlns="http://www.w3.org/2000/svg" xmlns:xlink="http://www.w3.org/1999/xlink" viewBox="0 0 146 146">
  <defs>
    <style>
      .cls-1 {
        fill: #00507d;
      }

      .cls-2 {
        fill: #fff;
        fill-rule: evenodd;
      }

      .cls-3 {
        stroke-width: 3px;
      }

      .cls-3, .cls-4, .cls-5 {
        stroke-linejoin: round;
      }

      .cls-3, .cls-4, .cls-5, .cls-6 {
        fill: none;
      }

      .cls-3, .cls-5 {
        stroke: #000;
        stroke-linecap: round;
      }

      .cls-4 {
        stroke: #00507d;
        stroke-width: 2px;
      }

      .cls-7 {
        clip-path: url(#clippath);
      }

      .cls-5 {
        stroke-width: 8px;
      }

      .cls-8 {
        mask: url(#mask);
      }
    </style>
    <clipPath id="clippath">
      <rect class="cls-6" x="1" y="1" width="144" height="144"/>
    </clipPath>
    <mask id="mask" x="0" y="0" width="146" height="146" maskUnits="userSpaceOnUse">
      <g id="StrokeMask">
        <rect x="1" y="1" width="144" height="144"/>
        <path id="Fill" class="cls-2" d="m13.72,1h118.57c7.02,0,12.72,5.79,12.72,12.93v118.15c0,7.14-5.69,12.93-12.72,12.93H13.72c-7.02,0-12.72-5.79-12.72-12.93V13.93C1,6.79,6.69,1,13.72,1Z"/>
      </g>
    </mask>
  </defs>
  <g class="cls-7">
    <g id="Layer-1">
      <g class="cls-8">
        <path id="Fill-2" data-name="Fill" class="cls-4" d="m13.72,1h118.57c7.02,0,12.72,5.79,12.72,12.93v118.15c0,7.14-5.69,12.93-12.72,12.93H13.72c-7.02,0-12.72-5.79-12.72-12.93V13.93C1,6.79,6.69,1,13.72,1Z"/>
      </g>
      <path d="m73,27.59c-4.85,0-8.78,3.93-8.78,8.78s3.93,8.78,8.78,8.78c4.85,0,8.78-3.93,8.78-8.78s-3.93-8.78-8.78-8.78Zm-7.03,24.59c-4.85,0-8.78,3.93-8.78,8.78s3.93,8.78,8.78,8.78c4.85,0,8.78-3.93,8.78-8.78s-3.93-8.78-8.78-8.78Zm-7.03,21.08c-4.85,0-8.79,3.93-8.79,8.78s3.93,8.78,8.79,8.78c4.85,0,8.79-3.93,8.79-8.78s-3.93-8.78-8.79-8.78Z"/>
      <path d="m72.78,55.42l-6.81-3.24-8.45,6.37-6.9,20.66,11.43,7.63,5.28-2.08,6.81-20.58,10.31,2.13-11.68-10.9Z"/>
      <path class="cls-5" d="m68.46,56.61l7.79,9.54,17.13,5.63"/>
      <path d="m97.03,45.57s-3.52-7.91-1.19-17.94c0,0,8.36-1.11,13.58,2.23-1.24,7.84-9.05,16.49-9.05,16.49l-3.34-.77Z"/>
      <path d="m113.41,76.78c-1.94,0-3.51,1.57-3.51,3.51s1.57,3.51,3.51,3.51,3.51-1.57,3.51-3.51-1.57-3.51-3.51-3.51"/>
      <path class="cls-3" d="m83.54,106.65l17.57-70.27"/>
      <path d="m88.27,94.84l2.83-11.31c-1.82.16-3.72.28-5.8.28h-49.19c-3.88,0-7.03,3.14-7.03,7.03v3.53c1.6,0,3.2.36,4.67,1.08,1.38.67,5.77,2.42,9.38,2.42s8-1.75,9.34-2.4c2.93-1.47,6.43-1.46,9.38-.02,1.38.67,5.77,2.42,9.38,2.42s8-1.75,9.34-2.4c2.4-1.2,5.15-1.36,7.69-.62Zm23.18-17.47c-3.11,1.7-7.2,3.68-12.82,4.99l-3.71,14.85c1.44.38,2.99.65,4.43.65,1.92,0,4.05-.49,5.84-1.05,9.78-5.08,11.73-13.48,11.73-16.51l-5.46-2.92Zm-25.3-19.07l11.78-2.69c1.89-.43,3.07-2.32,2.64-4.21-.43-1.89-2.32-3.08-4.21-2.64l-14.99,3.43h-1.81l6.58,6.12Z"/>
      <g>
        <path class="cls-1" d="m46.77,131.11l-1.9,2.05v5.08h-3.66v-17.77h3.66v8.06l1.61-2.21,4.53-5.85h4.5l-6.31,7.9,6.49,9.88h-4.36l-4.57-7.13Z"/>
        <path class="cls-1" d="m65.72,138.24c-.15-.42-.24-1.03-.28-1.84-.51.67-1.17,1.18-1.96,1.54-.79.36-1.63.54-2.52.54-1.27,0-2.3-.35-3.08-1.06-.79-.71-1.18-1.6-1.18-2.69,0-1.29.54-2.3,1.61-3.05,1.07-.75,2.56-1.12,4.47-1.12h2.65v-1.5c0-.94-.29-1.69-.87-2.23-.58-.54-1.43-.81-2.55-.81-1.02,0-1.86.26-2.53.78-.67.52-1,1.15-1,1.88h-1.46c0-1.06.49-1.97,1.46-2.74.98-.77,2.18-1.15,3.6-1.15s2.63.37,3.48,1.1c.85.74,1.29,1.76,1.31,3.08v6.25c0,1.28.13,2.23.4,2.87v.15h-1.56Zm-4.59-1.05c.98,0,1.85-.24,2.62-.71.77-.47,1.33-1.1,1.68-1.89v-2.9h-2.61c-1.46.02-2.6.28-3.42.8-.82.52-1.23,1.23-1.23,2.13,0,.74.27,1.35.82,1.84.55.49,1.26.73,2.14.73Z"/>
        <path class="cls-1" d="m74.97,136.14l3.86-11.11h1.57l-5.64,15.45-.29.68c-.72,1.6-1.84,2.4-3.36,2.4-.35,0-.72-.06-1.12-.17v-1.21s.74.07.74.07c.72,0,1.3-.18,1.74-.53.44-.35.82-.96,1.13-1.83l.65-1.78-4.98-13.1h1.6l4.1,11.11Z"/>
        <path class="cls-1" d="m90.99,138.24c-.15-.42-.24-1.03-.28-1.84-.51.67-1.17,1.18-1.96,1.54-.79.36-1.63.54-2.52.54-1.27,0-2.3-.35-3.08-1.06-.79-.71-1.18-1.6-1.18-2.69,0-1.29.54-2.3,1.61-3.05,1.07-.75,2.56-1.12,4.47-1.12h2.65v-1.5c0-.94-.29-1.69-.87-2.23-.58-.54-1.43-.81-2.54-.81-1.02,0-1.86.26-2.53.78-.67.52-1,1.15-1,1.88h-1.46c0-1.06.49-1.97,1.46-2.74.98-.77,2.18-1.15,3.6-1.15s2.63.37,3.49,1.1c.85.74,1.29,1.76,1.31,3.08v6.25c0,1.28.13,2.23.4,2.87v.15h-1.56Zm-4.59-1.05c.98,0,1.85-.24,2.62-.71.77-.47,1.33-1.1,1.68-1.89v-2.9h-2.61c-1.46.02-2.6.28-3.42.8-.82.52-1.23,1.23-1.23,2.13,0,.74.27,1.35.82,1.84.55.49,1.26.73,2.14.73Z"/>
        <path class="cls-1" d="m99.18,131.59l-1.67,1.61v5.04h-1.46v-18.75h1.46v12l1.38-1.49,5.05-4.97h1.84l-5.6,5.57,6.09,7.64h-1.75l-5.35-6.65Z"/>
        <path class="cls-1" d="m39.61,140.68v-1.22h15.87v1.22h-15.87Z"/>
      </g>
    </g>
  </g>
</svg>