<?xml version="1.0" encoding="UTF-8" standalone="no"?>
<!DOCTYPE svg PUBLIC "-//W3C//DTD SVG 1.1//EN" "http://www.w3.org/Graphics/SVG/1.1/DTD/svg11.dtd">
<!-- Created with Vectornator (http://vectornator.io/) -->
<svg height="100%" stroke-miterlimit="10" style="fill-rule:nonzero;clip-rule:evenodd;stroke-linecap:round;stroke-linejoin:round;" version="1.1" viewBox="0 0 144 144" width="100%" xml:space="preserve" xmlns="http://www.w3.org/2000/svg" xmlns:xlink="http://www.w3.org/1999/xlink">
<defs>
<clipPath id="TextBounds">
<rect height="27.4373" width="144" x="0" y="114.563"/>
</clipPath>
<path d="M12.7163 0L131.284 0C138.307 0 144 5.78672 144 12.925L144 131.075C144 138.213 138.307 144 131.284 144L12.7163 144C5.69329 144-1.42109e-14 138.213-1.42109e-14 131.075L-1.42109e-14 12.925C-1.42109e-14 5.78672 5.69329 0 12.7163 0Z" id="Fill"/>
<clipPath id="TextBounds_2">
<rect height="1" width="0" x="75.7925" y="92.2805"/>
</clipPath>
</defs>
<clipPath id="ArtboardFrame">
<rect height="144" width="144" x="0" y="0"/>
</clipPath>
<g clip-path="url(#ArtboardFrame)" id="Layer-1">
<g fill="#00507d" opacity="1" stroke="none">
<path clip-path="url(#TextBounds)" d="M46.425 120.713L46.425 138.563L50.35 138.563L50.35 120.713L46.425 120.713Z"/>
<path clip-path="url(#TextBounds)" d="M55.225 132.213C55.225 131.579 55.2917 130.963 55.425 130.363C55.5583 129.763 55.775 129.229 56.075 128.763C56.375 128.296 56.775 127.921 57.275 127.638C57.775 127.354 58.3833 127.213 59.1 127.213C59.8333 127.213 60.4583 127.35 60.975 127.625C61.4917 127.9 61.9125 128.263 62.2375 128.713C62.5625 129.163 62.8 129.684 62.95 130.275C63.1 130.867 63.175 131.479 63.175 132.113C63.175 132.713 63.1042 133.304 62.9625 133.888C62.8208 134.471 62.5917 134.992 62.275 135.45C61.9583 135.909 61.55 136.279 61.05 136.563C60.55 136.846 59.9417 136.988 59.225 136.988C58.5417 136.988 57.9458 136.854 57.4375 136.588C56.9292 136.321 56.5125 135.963 56.1875 135.513C55.8625 135.063 55.6208 134.55 55.4625 133.975C55.3042 133.4 55.225 132.813 55.225 132.213ZM65.225 138.563L65.225 120.713L63.1 120.713L63.1 127.363L63.05 127.363C62.8167 126.979 62.5292 126.659 62.1875 126.4C61.8458 126.142 61.4833 125.934 61.1 125.775C60.7167 125.617 60.3333 125.504 59.95 125.438C59.5667 125.371 59.2083 125.338 58.875 125.338C57.8917 125.338 57.0292 125.517 56.2875 125.875C55.5458 126.234 54.9292 126.717 54.4375 127.325C53.9458 127.934 53.5792 128.646 53.3375 129.463C53.0958 130.279 52.975 131.146 52.975 132.063C52.975 132.979 53.1 133.846 53.35 134.663C53.6 135.479 53.9708 136.196 54.4625 136.813C54.9542 137.429 55.5708 137.921 56.3125 138.288C57.0542 138.654 57.925 138.838 58.925 138.838C59.825 138.838 60.65 138.679 61.4 138.363C62.15 138.046 62.7 137.529 63.05 136.813L63.1 136.813L63.1 138.563L65.225 138.563Z"/>
<path clip-path="url(#TextBounds)" d="M77.475 130.863L70.05 130.863C70.0833 130.363 70.1917 129.892 70.375 129.45C70.5583 129.009 70.8083 128.621 71.125 128.288C71.4417 127.954 71.8208 127.692 72.2625 127.5C72.7042 127.309 73.2 127.213 73.75 127.213C74.2833 127.213 74.7708 127.309 75.2125 127.5C75.6542 127.692 76.0375 127.95 76.3625 128.275C76.6875 128.6 76.9458 128.988 77.1375 129.438C77.3292 129.888 77.4417 130.363 77.475 130.863ZM79.525 134.463L77.425 134.463C77.2417 135.313 76.8625 135.946 76.2875 136.363C75.7125 136.779 74.975 136.988 74.075 136.988C73.375 136.988 72.7667 136.871 72.25 136.638C71.7333 136.404 71.3083 136.092 70.975 135.7C70.6417 135.309 70.4 134.859 70.25 134.35C70.1 133.842 70.0333 133.304 70.05 132.738L79.725 132.738C79.7583 131.954 79.6875 131.129 79.5125 130.263C79.3375 129.396 79.0208 128.596 78.5625 127.863C78.1042 127.129 77.4958 126.525 76.7375 126.05C75.9792 125.575 75.025 125.338 73.875 125.338C72.9917 125.338 72.1792 125.504 71.4375 125.838C70.6958 126.171 70.0542 126.638 69.5125 127.238C68.9708 127.838 68.55 128.546 68.25 129.363C67.95 130.179 67.8 131.079 67.8 132.063C67.8333 133.046 67.9792 133.954 68.2375 134.788C68.4958 135.621 68.8833 136.338 69.4 136.938C69.9167 137.538 70.5542 138.004 71.3125 138.338C72.0708 138.671 72.9667 138.838 74 138.838C75.4667 138.838 76.6833 138.471 77.65 137.738C78.6167 137.004 79.2417 135.913 79.525 134.463Z"/>
<path clip-path="url(#TextBounds)" d="M93.375 138.513C93.0083 138.729 92.5 138.838 91.85 138.838C91.3 138.838 90.8625 138.684 90.5375 138.375C90.2125 138.067 90.05 137.563 90.05 136.863C89.4667 137.563 88.7875 138.067 88.0125 138.375C87.2375 138.684 86.4 138.838 85.5 138.838C84.9167 138.838 84.3625 138.771 83.8375 138.638C83.3125 138.504 82.8583 138.296 82.475 138.013C82.0917 137.729 81.7875 137.359 81.5625 136.9C81.3375 136.442 81.225 135.888 81.225 135.238C81.225 134.504 81.35 133.904 81.6 133.438C81.85 132.971 82.1792 132.592 82.5875 132.3C82.9958 132.009 83.4625 131.788 83.9875 131.638C84.5125 131.488 85.05 131.363 85.6 131.263C86.1833 131.146 86.7375 131.059 87.2625 131C87.7875 130.942 88.25 130.859 88.65 130.75C89.05 130.642 89.3667 130.484 89.6 130.275C89.8333 130.067 89.95 129.763 89.95 129.363C89.95 128.896 89.8625 128.521 89.6875 128.238C89.5125 127.954 89.2875 127.738 89.0125 127.588C88.7375 127.438 88.4292 127.338 88.0875 127.288C87.7458 127.238 87.4083 127.213 87.075 127.213C86.175 127.213 85.425 127.384 84.825 127.725C84.225 128.067 83.9 128.713 83.85 129.663L81.725 129.663C81.7583 128.863 81.925 128.188 82.225 127.638C82.525 127.088 82.925 126.642 83.425 126.3C83.925 125.959 84.4958 125.713 85.1375 125.563C85.7792 125.413 86.4667 125.338 87.2 125.338C87.7833 125.338 88.3625 125.379 88.9375 125.463C89.5125 125.546 90.0333 125.717 90.5 125.975C90.9667 126.234 91.3417 126.596 91.625 127.063C91.9083 127.529 92.05 128.138 92.05 128.888L92.05 135.538C92.05 136.038 92.0792 136.404 92.1375 136.638C92.1958 136.871 92.3917 136.988 92.725 136.988C92.9083 136.988 93.125 136.946 93.375 136.863L93.375 138.513ZM89.925 131.888C89.6583 132.088 89.3083 132.234 88.875 132.325C88.4417 132.417 87.9875 132.492 87.5125 132.55C87.0375 132.609 86.5583 132.675 86.075 132.75C85.5917 132.825 85.1583 132.946 84.775 133.113C84.3917 133.279 84.0792 133.517 83.8375 133.825C83.5958 134.134 83.475 134.554 83.475 135.088C83.475 135.438 83.5458 135.734 83.6875 135.975C83.8292 136.217 84.0125 136.413 84.2375 136.563C84.4625 136.713 84.725 136.821 85.025 136.888C85.325 136.954 85.6417 136.988 85.975 136.988C86.675 136.988 87.275 136.892 87.775 136.7C88.275 136.509 88.6833 136.267 89 135.975C89.3167 135.684 89.55 135.367 89.7 135.025C89.85 134.684 89.925 134.363 89.925 134.063L89.925 131.888Z"/>
<path clip-path="url(#TextBounds)" d="M95.475 120.713L95.475 138.563L97.6 138.563L97.6 120.713L95.475 120.713Z"/>
<path clip-path="url(#TextBounds)" d="M44.7 139.813L52.075 139.813L52.075 141.063L44.7 141.063L44.7 139.813Z"/>
</g>
<g opacity="1">
<mask height="144" id="StrokeMask" maskUnits="userSpaceOnUse" width="144" x="-1.42109e-14" y="0">
<rect fill="#000000" height="144" stroke="none" width="144" x="-1.42109e-14" y="0"/>
<use fill="#ffffff" fill-rule="evenodd" stroke="none" xlink:href="#Fill"/>
</mask>
<use fill="none" mask="url(#StrokeMask)" stroke="#00507d" stroke-linecap="butt" stroke-linejoin="round" stroke-width="2" xlink:href="#Fill"/>
</g>
<g fill="#00507d" opacity="1" stroke="none"/>
</g>
</svg>
