<?xml version="1.0" encoding="UTF-8" standalone="no"?>
<!DOCTYPE svg PUBLIC "-//W3C//DTD SVG 1.1//EN" "http://www.w3.org/Graphics/SVG/1.1/DTD/svg11.dtd">
<!-- Created with Vectornator (http://vectornator.io/) -->
<svg stroke-miterlimit="10" style="fill-rule:nonzero;clip-rule:evenodd;stroke-linecap:round;stroke-linejoin:round;" version="1.1" viewBox="0 0 144 144" xml:space="preserve" xmlns="http://www.w3.org/2000/svg" xmlns:xlink="http://www.w3.org/1999/xlink">
<defs>
<clipPath id="TextBounds">
<rect height="27.4373" width="144" x="0" y="114.563"/>
</clipPath>
<path d="M12.7163 0L131.284 0C138.307 0 144 5.78672 144 12.925L144 131.075C144 138.213 138.307 144 131.284 144L12.7163 144C5.69329 144-1.42109e-14 138.213-1.42109e-14 131.075L-1.42109e-14 12.925C-1.42109e-14 5.78672 5.69329 0 12.7163 0Z" id="Fill"/>
<clipPath id="TextBounds_2">
<rect height="1" width="0" x="74.8248" y="74.251"/>
</clipPath>
</defs>
<clipPath id="ArtboardFrame">
<rect height="144" width="144" x="0" y="0"/>
</clipPath>
<g clip-path="url(#ArtboardFrame)" id="Layer-1">
<g fill="#00507d" opacity="1" stroke="none">
<path clip-path="url(#TextBounds)" d="M46.425 120.713L46.425 138.563L50.35 138.563L50.35 120.713L46.425 120.713Z"/>
<path clip-path="url(#TextBounds)" d="M55.225 132.213C55.225 131.579 55.2917 130.963 55.425 130.363C55.5583 129.763 55.775 129.229 56.075 128.763C56.375 128.296 56.775 127.921 57.275 127.638C57.775 127.354 58.3833 127.213 59.1 127.213C59.8333 127.213 60.4583 127.35 60.975 127.625C61.4917 127.9 61.9125 128.263 62.2375 128.713C62.5625 129.163 62.8 129.684 62.95 130.275C63.1 130.867 63.175 131.479 63.175 132.113C63.175 132.713 63.1042 133.304 62.9625 133.888C62.8208 134.471 62.5917 134.992 62.275 135.45C61.9583 135.909 61.55 136.279 61.05 136.563C60.55 136.846 59.9417 136.988 59.225 136.988C58.5417 136.988 57.9458 136.854 57.4375 136.588C56.9292 136.321 56.5125 135.963 56.1875 135.513C55.8625 135.063 55.6208 134.55 55.4625 133.975C55.3042 133.4 55.225 132.813 55.225 132.213ZM65.225 138.563L65.225 120.713L63.1 120.713L63.1 127.363L63.05 127.363C62.8167 126.979 62.5292 126.659 62.1875 126.4C61.8458 126.142 61.4833 125.934 61.1 125.775C60.7167 125.617 60.3333 125.504 59.95 125.438C59.5667 125.371 59.2083 125.338 58.875 125.338C57.8917 125.338 57.0292 125.517 56.2875 125.875C55.5458 126.234 54.9292 126.717 54.4375 127.325C53.9458 127.934 53.5792 128.646 53.3375 129.463C53.0958 130.279 52.975 131.146 52.975 132.063C52.975 132.979 53.1 133.846 53.35 134.663C53.6 135.479 53.9708 136.196 54.4625 136.813C54.9542 137.429 55.5708 137.921 56.3125 138.288C57.0542 138.654 57.925 138.838 58.925 138.838C59.825 138.838 60.65 138.679 61.4 138.363C62.15 138.046 62.7 137.529 63.05 136.813L63.1 136.813L63.1 138.563L65.225 138.563Z"/>
<path clip-path="url(#TextBounds)" d="M77.475 130.863L70.05 130.863C70.0833 130.363 70.1917 129.892 70.375 129.45C70.5583 129.009 70.8083 128.621 71.125 128.288C71.4417 127.954 71.8208 127.692 72.2625 127.5C72.7042 127.309 73.2 127.213 73.75 127.213C74.2833 127.213 74.7708 127.309 75.2125 127.5C75.6542 127.692 76.0375 127.95 76.3625 128.275C76.6875 128.6 76.9458 128.988 77.1375 129.438C77.3292 129.888 77.4417 130.363 77.475 130.863ZM79.525 134.463L77.425 134.463C77.2417 135.313 76.8625 135.946 76.2875 136.363C75.7125 136.779 74.975 136.988 74.075 136.988C73.375 136.988 72.7667 136.871 72.25 136.638C71.7333 136.404 71.3083 136.092 70.975 135.7C70.6417 135.309 70.4 134.859 70.25 134.35C70.1 133.842 70.0333 133.304 70.05 132.738L79.725 132.738C79.7583 131.954 79.6875 131.129 79.5125 130.263C79.3375 129.396 79.0208 128.596 78.5625 127.863C78.1042 127.129 77.4958 126.525 76.7375 126.05C75.9792 125.575 75.025 125.338 73.875 125.338C72.9917 125.338 72.1792 125.504 71.4375 125.838C70.6958 126.171 70.0542 126.638 69.5125 127.238C68.9708 127.838 68.55 128.546 68.25 129.363C67.95 130.179 67.8 131.079 67.8 132.063C67.8333 133.046 67.9792 133.954 68.2375 134.788C68.4958 135.621 68.8833 136.338 69.4 136.938C69.9167 137.538 70.5542 138.004 71.3125 138.338C72.0708 138.671 72.9667 138.838 74 138.838C75.4667 138.838 76.6833 138.471 77.65 137.738C78.6167 137.004 79.2417 135.913 79.525 134.463Z"/>
<path clip-path="url(#TextBounds)" d="M93.375 138.513C93.0083 138.729 92.5 138.838 91.85 138.838C91.3 138.838 90.8625 138.684 90.5375 138.375C90.2125 138.067 90.05 137.563 90.05 136.863C89.4667 137.563 88.7875 138.067 88.0125 138.375C87.2375 138.684 86.4 138.838 85.5 138.838C84.9167 138.838 84.3625 138.771 83.8375 138.638C83.3125 138.504 82.8583 138.296 82.475 138.013C82.0917 137.729 81.7875 137.359 81.5625 136.9C81.3375 136.442 81.225 135.888 81.225 135.238C81.225 134.504 81.35 133.904 81.6 133.438C81.85 132.971 82.1792 132.592 82.5875 132.3C82.9958 132.009 83.4625 131.788 83.9875 131.638C84.5125 131.488 85.05 131.363 85.6 131.263C86.1833 131.146 86.7375 131.059 87.2625 131C87.7875 130.942 88.25 130.859 88.65 130.75C89.05 130.642 89.3667 130.484 89.6 130.275C89.8333 130.067 89.95 129.763 89.95 129.363C89.95 128.896 89.8625 128.521 89.6875 128.238C89.5125 127.954 89.2875 127.738 89.0125 127.588C88.7375 127.438 88.4292 127.338 88.0875 127.288C87.7458 127.238 87.4083 127.213 87.075 127.213C86.175 127.213 85.425 127.384 84.825 127.725C84.225 128.067 83.9 128.713 83.85 129.663L81.725 129.663C81.7583 128.863 81.925 128.188 82.225 127.638C82.525 127.088 82.925 126.642 83.425 126.3C83.925 125.959 84.4958 125.713 85.1375 125.563C85.7792 125.413 86.4667 125.338 87.2 125.338C87.7833 125.338 88.3625 125.379 88.9375 125.463C89.5125 125.546 90.0333 125.717 90.5 125.975C90.9667 126.234 91.3417 126.596 91.625 127.063C91.9083 127.529 92.05 128.138 92.05 128.888L92.05 135.538C92.05 136.038 92.0792 136.404 92.1375 136.638C92.1958 136.871 92.3917 136.988 92.725 136.988C92.9083 136.988 93.125 136.946 93.375 136.863L93.375 138.513ZM89.925 131.888C89.6583 132.088 89.3083 132.234 88.875 132.325C88.4417 132.417 87.9875 132.492 87.5125 132.55C87.0375 132.609 86.5583 132.675 86.075 132.75C85.5917 132.825 85.1583 132.946 84.775 133.113C84.3917 133.279 84.0792 133.517 83.8375 133.825C83.5958 134.134 83.475 134.554 83.475 135.088C83.475 135.438 83.5458 135.734 83.6875 135.975C83.8292 136.217 84.0125 136.413 84.2375 136.563C84.4625 136.713 84.725 136.821 85.025 136.888C85.325 136.954 85.6417 136.988 85.975 136.988C86.675 136.988 87.275 136.892 87.775 136.7C88.275 136.509 88.6833 136.267 89 135.975C89.3167 135.684 89.55 135.367 89.7 135.025C89.85 134.684 89.925 134.363 89.925 134.063L89.925 131.888Z"/>
<path clip-path="url(#TextBounds)" d="M95.475 120.713L95.475 138.563L97.6 138.563L97.6 120.713L95.475 120.713Z"/>
<path clip-path="url(#TextBounds)" d="M44.7 139.813L52.075 139.813L52.075 141.063L44.7 141.063L44.7 139.813Z"/>
</g>
<g opacity="1">
<mask height="144" id="StrokeMask" maskUnits="userSpaceOnUse" width="144" x="-1.42109e-14" y="0">
<rect fill="#000000" height="144" stroke="none" width="144" x="-1.42109e-14" y="0"/>
<use fill="#ffffff" fill-rule="evenodd" stroke="none" xlink:href="#Fill"/>
</mask>
</g>
<g fill="#0e2445" opacity="1" stroke="none"/>
<path d="M14.925 59.5911L8.94588 78.3748C8.94588 78.3748 14.925 78.2215 14.925 78.3748C14.925 78.5281 20.9042 59.5463 20.9042 59.5463L14.925 59.5911Z" fill="#0e2445" fill-rule="nonzero" opacity="1" stroke="none"/>
<path d="M25.5391 59.5463L39.9349 59.5463C39.9349 59.5463 45.6279 63.875 43.1142 68.5823C40.6006 73.2897 29.8802 78.3757 29.8802 78.3757L19.8254 78.3757L23.7333 65.4973L29.3689 65.4907L26.9345 74.3565C26.9345 74.3565 34.8273 70.6271 36.8492 67.8596C38.8711 65.0921 35.022 63.2864 35.022 63.2864L24.391 63.3299L25.5391 59.5463Z" fill="#0e2445" fill-rule="nonzero" opacity="1" stroke="none"/>
<path d="M63.808 59.5463L49.0108 59.5463L42.8933 78.3757L58.5448 78.3757L59.6889 75.251L49.0108 75.251L50.6573 71.1154L58.6938 71.1661L59.9141 67.3026L52.4878 67.3726L53.8213 63.9017L62.2629 64.0432L63.808 59.5463Z" fill="#0e2445" fill-rule="nonzero" opacity="1" stroke="none"/>
<path d="M86.9057 59.5463C86.9057 59.5463 69.7691 57.8239 65.0851 66.6046C59.7605 76.5861 69.0717 84.5904 69.0717 84.5904L95.4344 84.5904L96.7697 80.9116L70.9651 80.9116C70.9651 80.9116 68.6965 78.6777 68.0679 76.8062C67.4393 74.9348 68.1974 72 68.1974 72L77.2593 72L74.8248 78.3757L79.2484 78.3757L84.6538 64.5135L80.4309 64.5135C80.4309 64.5135 78.9572 67.6774 78.9189 67.7157C78.8806 67.7541 69.7699 67.7617 69.7699 67.7617C69.7699 67.7617 71.0076 65.2963 74.8248 64.1057C78.642 62.9152 85.3636 63.1281 85.3636 63.1281L86.9057 59.5463Z" fill="#0e2445" fill-rule="nonzero" opacity="1" stroke="none"/>
<path d="M90.7936 59.5911L84.6538 78.3757L97.9061 78.2559L98.9335 75.251L90.3579 75.1785L95.6058 59.5463L90.7936 59.5911Z" fill="#0e2445" fill-rule="nonzero" opacity="1" stroke="none"/>
<path d="M107.873 80.9116L107.268 84.5904L135.221 84.5904L135.632 80.9116L107.873 80.9116Z" fill="#0e2445" fill-rule="nonzero" opacity="1" stroke="none"/>
<path d="M7.6095 80.9116L62.6339 80.9116L65.3947 84.5904L6.23607 84.5904L7.6095 80.9116Z" fill="#0e2445" fill-rule="nonzero" opacity="1" stroke="none"/>
<path d="M115.889 59.6841L112.774 78.1131L109.019 78.1131L111.724 62.2264L106.739 62.2264L108.445 59.6841L115.889 59.6841Z" fill="#0e2445" fill-rule="nonzero" opacity="1" stroke="none"/>
<path d="M134.025 68.3018C136.365 69.3044 137.534 70.8163 137.534 72.8375C137.534 74.4528 136.775 75.7777 135.255 76.8121C133.725 77.8545 131.795 78.3757 129.467 78.3757C127.094 78.3757 125.143 77.8784 123.613 76.8837C122.115 75.8811 121.366 74.5801 121.366 72.9807C121.366 70.6572 122.984 69.01 126.22 68.0392C124.285 67.0844 123.318 65.8271 123.318 64.2675C123.318 62.8272 124.006 61.6575 125.384 60.7583C126.783 59.8592 128.576 59.4096 130.762 59.4096C132.872 59.4096 134.566 59.8512 135.845 60.7345C137.124 61.6177 137.764 62.7834 137.764 64.2317C137.764 64.7091 137.696 65.1448 137.559 65.5387C137.422 65.9325 137.204 66.2926 136.903 66.6189C136.602 66.9451 136.214 67.2475 135.739 67.526C135.263 67.8045 134.692 68.0631 134.025 68.3018ZM134.124 64.3391C134.124 63.607 133.801 63.0142 133.156 62.5606C132.511 62.1071 131.669 61.8803 130.631 61.8803C129.581 61.8803 128.701 62.127 127.991 62.6203C127.291 63.1057 126.941 63.7184 126.941 64.4585C126.941 65.1666 127.269 65.7475 127.925 66.2011C128.581 66.6547 129.412 66.8814 130.418 66.8814C131.478 66.8814 132.364 66.6467 133.074 66.1772C133.774 65.6998 134.124 65.0871 134.124 64.3391ZM133.894 72.6107C133.894 71.7354 133.49 71.0232 132.681 70.4741C131.872 69.9251 130.833 69.6506 129.565 69.6506C128.199 69.6506 127.1 69.9529 126.269 70.5577C125.427 71.1545 125.006 71.9303 125.006 72.8852C125.006 73.7844 125.416 74.5125 126.236 75.0695C127.078 75.6344 128.133 75.9169 129.401 75.9169C130.713 75.9169 131.79 75.6106 132.631 74.9979C133.473 74.3613 133.894 73.5655 133.894 72.6107Z" fill="#0e2445" fill-rule="nonzero" opacity="1" stroke="none"/>
</g>
</svg>
