<?xml version="1.0" encoding="UTF-8" standalone="no"?>
<!DOCTYPE svg PUBLIC "-//W3C//DTD SVG 1.1//EN" "http://www.w3.org/Graphics/SVG/1.1/DTD/svg11.dtd">
<!-- Created with Vectornator (http://vectornator.io/) -->
<svg height="100%" stroke-miterlimit="10" style="fill-rule:nonzero;clip-rule:evenodd;stroke-linecap:round;stroke-linejoin:round;" version="1.1" viewBox="0 0 144 144" width="100%" xml:space="preserve" xmlns="http://www.w3.org/2000/svg" xmlns:xlink="http://www.w3.org/1999/xlink">
<defs>
<clipPath id="TextBounds">
<rect height="27.4373" width="144" x="0" y="114.563"/>
</clipPath>
<path d="M12.7163 0L131.284 0C138.307 0 144 5.78672 144 12.925L144 131.075C144 138.213 138.307 144 131.284 144L12.7163 144C5.69329 144-1.42109e-14 138.213-1.42109e-14 131.075L-1.42109e-14 12.925C-1.42109e-14 5.78672 5.69329 0 12.7163 0Z" id="Fill"/>
<clipPath id="TextBounds_2">
<rect height="0.7496" width="0" x="74.8429" y="87.029"/>
</clipPath>
</defs>
<clipPath id="ArtboardFrame">
<rect height="144" width="144" x="0" y="0"/>
</clipPath>
<g clip-path="url(#ArtboardFrame)" id="Layer-1">
<g fill="#00507d" opacity="1" stroke="none">
<path clip-path="url(#TextBounds)" d="M38.9875 120.713L38.9875 138.563L41.1125 138.563L41.1125 133.663L43.1125 131.813L47.5375 138.563L50.2375 138.563L44.7375 130.338L49.8625 125.638L47.0125 125.638L41.1125 131.288L41.1125 120.713L38.9875 120.713Z"/>
<path clip-path="url(#TextBounds)" d="M63.2875 138.513C62.9208 138.729 62.4125 138.838 61.7625 138.838C61.2125 138.838 60.775 138.684 60.45 138.375C60.125 138.067 59.9625 137.563 59.9625 136.863C59.3792 137.563 58.7 138.067 57.925 138.375C57.15 138.684 56.3125 138.838 55.4125 138.838C54.8292 138.838 54.275 138.771 53.75 138.638C53.225 138.504 52.7708 138.296 52.3875 138.013C52.0042 137.729 51.7 137.359 51.475 136.9C51.25 136.442 51.1375 135.888 51.1375 135.238C51.1375 134.504 51.2625 133.904 51.5125 133.438C51.7625 132.971 52.0917 132.592 52.5 132.3C52.9083 132.009 53.375 131.788 53.9 131.638C54.425 131.488 54.9625 131.363 55.5125 131.263C56.0958 131.146 56.65 131.059 57.175 131C57.7 130.942 58.1625 130.859 58.5625 130.75C58.9625 130.642 59.2792 130.484 59.5125 130.275C59.7458 130.067 59.8625 129.763 59.8625 129.363C59.8625 128.896 59.775 128.521 59.6 128.238C59.425 127.954 59.2 127.738 58.925 127.588C58.65 127.438 58.3417 127.338 58 127.288C57.6583 127.238 57.3208 127.213 56.9875 127.213C56.0875 127.213 55.3375 127.384 54.7375 127.725C54.1375 128.067 53.8125 128.713 53.7625 129.663L51.6375 129.663C51.6708 128.863 51.8375 128.188 52.1375 127.638C52.4375 127.088 52.8375 126.642 53.3375 126.3C53.8375 125.959 54.4083 125.713 55.05 125.563C55.6917 125.413 56.3792 125.338 57.1125 125.338C57.6958 125.338 58.275 125.379 58.85 125.463C59.425 125.546 59.9458 125.717 60.4125 125.975C60.8792 126.234 61.2542 126.596 61.5375 127.063C61.8208 127.529 61.9625 128.138 61.9625 128.888L61.9625 135.538C61.9625 136.038 61.9917 136.404 62.05 136.638C62.1083 136.871 62.3042 136.988 62.6375 136.988C62.8208 136.988 63.0375 136.946 63.2875 136.863L63.2875 138.513ZM59.8375 131.888C59.5708 132.088 59.2208 132.234 58.7875 132.325C58.3542 132.417 57.9 132.492 57.425 132.55C56.95 132.609 56.4708 132.675 55.9875 132.75C55.5042 132.825 55.0708 132.946 54.6875 133.113C54.3042 133.279 53.9917 133.517 53.75 133.825C53.5083 134.134 53.3875 134.554 53.3875 135.088C53.3875 135.438 53.4583 135.734 53.6 135.975C53.7417 136.217 53.925 136.413 54.15 136.563C54.375 136.713 54.6375 136.821 54.9375 136.888C55.2375 136.954 55.5542 136.988 55.8875 136.988C56.5875 136.988 57.1875 136.892 57.6875 136.7C58.1875 136.509 58.5958 136.267 58.9125 135.975C59.2292 135.684 59.4625 135.367 59.6125 135.025C59.7625 134.684 59.8375 134.363 59.8375 134.063L59.8375 131.888Z"/>
<path clip-path="url(#TextBounds)" d="M70.0125 131.613L70.0125 138.563L73.9375 138.563L73.9375 131.713L80.5625 120.713L76.1875 120.713L72.0375 127.763L67.8625 120.713L63.4625 120.713L70.0125 131.613Z"/>
<path clip-path="url(#TextBounds)" d="M93.3875 138.513C93.0208 138.729 92.5125 138.838 91.8625 138.838C91.3125 138.838 90.875 138.684 90.55 138.375C90.225 138.067 90.0625 137.563 90.0625 136.863C89.4792 137.563 88.8 138.067 88.025 138.375C87.25 138.684 86.4125 138.838 85.5125 138.838C84.9292 138.838 84.375 138.771 83.85 138.638C83.325 138.504 82.8708 138.296 82.4875 138.013C82.1042 137.729 81.8 137.359 81.575 136.9C81.35 136.442 81.2375 135.888 81.2375 135.238C81.2375 134.504 81.3625 133.904 81.6125 133.438C81.8625 132.971 82.1917 132.592 82.6 132.3C83.0083 132.009 83.475 131.788 84 131.638C84.525 131.488 85.0625 131.363 85.6125 131.263C86.1958 131.146 86.75 131.059 87.275 131C87.8 130.942 88.2625 130.859 88.6625 130.75C89.0625 130.642 89.3792 130.484 89.6125 130.275C89.8458 130.067 89.9625 129.763 89.9625 129.363C89.9625 128.896 89.875 128.521 89.7 128.238C89.525 127.954 89.3 127.738 89.025 127.588C88.75 127.438 88.4417 127.338 88.1 127.288C87.7583 127.238 87.4208 127.213 87.0875 127.213C86.1875 127.213 85.4375 127.384 84.8375 127.725C84.2375 128.067 83.9125 128.713 83.8625 129.663L81.7375 129.663C81.7708 128.863 81.9375 128.188 82.2375 127.638C82.5375 127.088 82.9375 126.642 83.4375 126.3C83.9375 125.959 84.5083 125.713 85.15 125.563C85.7917 125.413 86.4792 125.338 87.2125 125.338C87.7958 125.338 88.375 125.379 88.95 125.463C89.525 125.546 90.0458 125.717 90.5125 125.975C90.9792 126.234 91.3542 126.596 91.6375 127.063C91.9208 127.529 92.0625 128.138 92.0625 128.888L92.0625 135.538C92.0625 136.038 92.0917 136.404 92.15 136.638C92.2083 136.871 92.4042 136.988 92.7375 136.988C92.9208 136.988 93.1375 136.946 93.3875 136.863L93.3875 138.513ZM89.9375 131.888C89.6708 132.088 89.3208 132.234 88.8875 132.325C88.4542 132.417 88 132.492 87.525 132.55C87.05 132.609 86.5708 132.675 86.0875 132.75C85.6042 132.825 85.1708 132.946 84.7875 133.113C84.4042 133.279 84.0917 133.517 83.85 133.825C83.6083 134.134 83.4875 134.554 83.4875 135.088C83.4875 135.438 83.5583 135.734 83.7 135.975C83.8417 136.217 84.025 136.413 84.25 136.563C84.475 136.713 84.7375 136.821 85.0375 136.888C85.3375 136.954 85.6542 136.988 85.9875 136.988C86.6875 136.988 87.2875 136.892 87.7875 136.7C88.2875 136.509 88.6958 136.267 89.0125 135.975C89.3292 135.684 89.5625 135.367 89.7125 135.025C89.8625 134.684 89.9375 134.363 89.9375 134.063L89.9375 131.888Z"/>
<path clip-path="url(#TextBounds)" d="M95.4875 120.713L95.4875 138.563L97.6125 138.563L97.6125 133.663L99.6125 131.813L104.037 138.563L106.737 138.563L101.237 130.338L106.362 125.638L103.512 125.638L97.6125 131.288L97.6125 120.713L95.4875 120.713Z"/>
<path clip-path="url(#TextBounds)" d="M63.6625 139.813L80.3375 139.813L80.3375 141.063L63.6625 141.063L63.6625 139.813Z"/>
</g>
<g opacity="1">
<mask height="144" id="StrokeMask" maskUnits="userSpaceOnUse" width="144" x="-1.42109e-14" y="0">
<rect fill="#000000" height="144" stroke="none" width="144" x="-1.42109e-14" y="0"/>
<use fill="#ffffff" fill-rule="evenodd" stroke="none" xlink:href="#Fill"/>
</mask>
<use fill="none" mask="url(#StrokeMask)" stroke="#00507d" stroke-linecap="butt" stroke-linejoin="round" stroke-width="2" xlink:href="#Fill"/>
</g>
<g fill="#00507d" opacity="1" stroke="none"/>
<path d="M72 26.5925C67.1496 26.5908 63.2167 30.5224 63.2167 35.3728C63.2167 40.2232 67.1496 44.1548 72 44.1531C76.8504 44.1548 80.7833 40.2232 80.7833 35.3728C80.7833 30.5224 76.8504 26.5908 72 26.5925ZM64.9729 51.1872C60.1225 51.1855 56.1896 55.1171 56.1896 59.9675C56.1896 64.8179 60.1225 68.7495 64.9729 68.7478C69.8234 68.7495 73.7563 64.8179 73.7563 59.9675C73.7563 55.1171 69.8234 51.1855 64.9729 51.1872ZM57.9459 72.2684C53.0943 72.265 49.1595 76.1971 49.1595 81.0487C49.1595 85.9003 53.0943 89.8323 57.9459 89.829C62.7975 89.8323 66.7323 85.9003 66.7323 81.0487C66.7323 76.1971 62.7975 72.265 57.9459 72.2684Z" fill="#000000" fill-rule="nonzero" opacity="1" stroke="none"/>
<path d="M71.7786 54.4232L64.9729 51.1872L56.5229 57.5572L49.6258 78.2168L61.0554 85.8482L66.3362 83.7682L73.1419 63.1894L83.4541 65.3221L71.7786 54.4232Z" fill="#000000" fill-rule="nonzero" opacity="1" stroke="none"/>
<path d="M67.4605 55.6072L75.2535 65.15L92.382 70.7786" fill="none" opacity="1" stroke="#000000" stroke-linecap="round" stroke-linejoin="round" stroke-width="8"/>
<path d="M96.0255 44.5677C96.0255 44.5677 92.5085 36.6587 94.8379 26.6241C94.8379 26.6241 103.197 25.5138 108.414 28.8517C107.17 36.6869 99.3634 45.3407 99.3634 45.3407L96.0255 44.5677Z" fill="#000000" fill-rule="nonzero" opacity="1" stroke="none"/>
<path d="M112.406 75.7819C110.466 75.7819 108.892 77.356 108.892 79.2954C108.892 81.2349 110.466 82.809 112.406 82.809C114.345 82.809 115.919 81.2349 115.919 79.2954C115.919 77.356 114.345 75.7819 112.406 75.7819" fill="#000000" fill-rule="nonzero" opacity="1" stroke="none"/>
<path d="M82.5406 105.647L100.108 35.3763" fill="none" opacity="1" stroke="#000000" stroke-linecap="round" stroke-linejoin="round" stroke-width="3"/>
<path d="M87.2733 93.8414L90.1017 82.5314C88.2782 82.693 86.3774 82.809 84.2974 82.809L35.1079 82.809C31.2255 82.809 28.0809 85.9536 28.0809 89.836L28.0809 93.3636C29.683 93.3671 31.2817 93.7255 32.7504 94.4387C34.1347 95.1133 38.5161 96.8631 42.135 96.8631C45.7539 96.8631 50.1353 95.1133 51.474 94.4633C54.4078 92.9947 57.9037 93.0017 60.8586 94.4387C62.2429 95.1133 66.6243 96.8631 70.2432 96.8631C73.8622 96.8631 78.2435 95.1133 79.5822 94.4633C81.9784 93.2652 84.733 93.1001 87.2733 93.8414ZM110.456 76.3722C107.346 78.0727 103.256 80.0473 97.6382 81.3579L93.9244 96.2096C95.365 96.5855 96.9144 96.8631 98.3515 96.8631C100.273 96.8631 102.406 96.3712 104.187 95.809C113.962 90.7249 115.919 82.3276 115.919 79.2954L110.456 76.3722ZM85.1547 57.3042L96.939 54.6094C98.8328 54.1772 100.013 52.294 99.5812 50.4037C99.149 48.5099 97.2623 47.3223 95.372 47.7615L80.3868 51.1872L78.5773 51.1872L85.1547 57.3042Z" fill="#000000" fill-rule="nonzero" opacity="1" stroke="none"/>
</g>
</svg>
