<?xml version="1.0" encoding="UTF-8" standalone="no"?>
<!DOCTYPE svg PUBLIC "-//W3C//DTD SVG 1.1//EN" "http://www.w3.org/Graphics/SVG/1.1/DTD/svg11.dtd">
<!-- Created with Vectornator (http://vectornator.io/) -->
<svg stroke-miterlimit="10" style="fill-rule:nonzero;clip-rule:evenodd;stroke-linecap:round;stroke-linejoin:round;" version="1.1" viewBox="0 0 144 144" xml:space="preserve" xmlns="http://www.w3.org/2000/svg" xmlns:xlink="http://www.w3.org/1999/xlink">
<defs>
<clipPath id="TextBounds">
<rect height="30.4373" width="144" x="0" y="113.563"/>
</clipPath>
<path d="M12.7163 0L131.284 0C138.307 0 144 5.78672 144 12.925L144 131.075C144 138.213 138.307 144 131.284 144L12.7163 144C5.69329 144-1.42109e-14 138.213-1.42109e-14 131.075L-1.42109e-14 12.925C-1.42109e-14 5.78672 5.69329 0 12.7163 0Z" id="Fill"/>
<clipPath id="TextBounds_2">
<rect height="0.7496" width="0" x="74.8429" y="87.029"/>
</clipPath>
</defs>
<clipPath id="ArtboardFrame">
<rect height="144" width="144" x="0" y="0"/>
</clipPath>
<g clip-path="url(#ArtboardFrame)" id="Layer-1">
<g fill="#00507d" opacity="1" stroke="none">
<path clip-path="url(#TextBounds)" d="M39.6875 119.713L39.6875 137.563L43.6125 137.563L43.6125 131.813L45.8625 129.538L51.2375 137.563L56.1625 137.563L48.5125 126.763L55.4875 119.713L50.5875 119.713L43.6125 127.113L43.6125 119.713L39.6875 119.713Z"/>
<path clip-path="url(#TextBounds)" d="M57.3625 128.613L58.9375 128.613C58.9708 127.563 59.3042 126.8 59.9375 126.325C60.5708 125.85 61.3875 125.613 62.3875 125.613C62.8542 125.613 63.2917 125.65 63.7 125.725C64.1083 125.8 64.4667 125.938 64.775 126.138C65.0833 126.338 65.325 126.609 65.5 126.95C65.675 127.292 65.7625 127.729 65.7625 128.263C65.7625 128.613 65.7167 128.896 65.625 129.113C65.5333 129.329 65.4042 129.5 65.2375 129.625C65.0708 129.75 64.8625 129.838 64.6125 129.888C64.3625 129.938 64.0708 129.979 63.7375 130.013C62.8875 130.113 62.05 130.217 61.225 130.325C60.4 130.434 59.6583 130.621 59 130.888C58.3417 131.154 57.8125 131.542 57.4125 132.05C57.0125 132.559 56.8125 133.263 56.8125 134.163C56.8125 134.813 56.925 135.375 57.15 135.85C57.375 136.325 57.6833 136.717 58.075 137.025C58.4667 137.334 58.925 137.559 59.45 137.7C59.975 137.842 60.5375 137.913 61.1375 137.913C61.7708 137.913 62.3167 137.854 62.775 137.738C63.2333 137.621 63.6417 137.454 64 137.238C64.3583 137.021 64.6833 136.75 64.975 136.425C65.2667 136.1 65.5542 135.729 65.8375 135.313L65.8875 135.313C65.8875 135.646 65.9083 135.95 65.95 136.225C65.9917 136.5 66.0792 136.738 66.2125 136.938C66.3458 137.138 66.5333 137.292 66.775 137.4C67.0167 137.509 67.3375 137.563 67.7375 137.563C67.9542 137.563 68.1333 137.554 68.275 137.538C68.4167 137.521 68.5792 137.496 68.7625 137.463L68.7625 136.138C68.6125 136.204 68.4458 136.238 68.2625 136.238C67.6458 136.238 67.3375 135.921 67.3375 135.288L67.3375 128.438C67.3375 127.571 67.1958 126.867 66.9125 126.325C66.6292 125.784 66.2625 125.363 65.8125 125.063C65.3625 124.763 64.8542 124.559 64.2875 124.45C63.7208 124.342 63.1542 124.288 62.5875 124.288C61.8375 124.288 61.1542 124.371 60.5375 124.538C59.9208 124.704 59.3833 124.963 58.925 125.313C58.4667 125.663 58.1042 126.113 57.8375 126.663C57.5708 127.213 57.4125 127.863 57.3625 128.613ZM65.7625 130.513L65.7625 132.563C65.7625 133.196 65.6417 133.763 65.4 134.263C65.1583 134.763 64.8333 135.188 64.425 135.538C64.0167 135.888 63.5375 136.154 62.9875 136.338C62.4375 136.521 61.8625 136.613 61.2625 136.613C60.8958 136.613 60.5375 136.554 60.1875 136.438C59.8375 136.321 59.5292 136.15 59.2625 135.925C58.9958 135.7 58.7833 135.434 58.625 135.125C58.4667 134.817 58.3875 134.463 58.3875 134.063C58.3875 133.429 58.575 132.942 58.95 132.6C59.325 132.259 59.8042 131.996 60.3875 131.813C60.9708 131.629 61.6167 131.492 62.325 131.4C63.0333 131.309 63.7208 131.204 64.3875 131.088C64.6042 131.054 64.8542 130.996 65.1375 130.913C65.4208 130.829 65.6125 130.696 65.7125 130.513L65.7625 130.513Z"/>
<path clip-path="url(#TextBounds)" d="M69.0375 124.663L74.1875 137.513L73.6375 138.963C73.5042 139.263 73.3792 139.538 73.2625 139.788C73.1458 140.038 73.0042 140.25 72.8375 140.425C72.6708 140.6 72.475 140.738 72.25 140.838C72.025 140.938 71.7375 140.988 71.3875 140.988C71.2042 140.988 71.025 140.975 70.85 140.95C70.675 140.925 70.4958 140.896 70.3125 140.863L70.3125 142.188C70.4458 142.238 70.6 142.267 70.775 142.275C70.95 142.284 71.1958 142.296 71.5125 142.313C72.0125 142.313 72.425 142.267 72.75 142.175C73.075 142.084 73.3583 141.934 73.6 141.725C73.8417 141.517 74.0625 141.234 74.2625 140.875C74.4625 140.517 74.6792 140.063 74.9125 139.513L80.5125 124.663L78.9375 124.663L74.9625 135.663L70.7125 124.663L69.0375 124.663Z"/>
<path clip-path="url(#TextBounds)" d="M81.9125 128.613L83.4875 128.613C83.5208 127.563 83.8542 126.8 84.4875 126.325C85.1208 125.85 85.9375 125.613 86.9375 125.613C87.4042 125.613 87.8417 125.65 88.25 125.725C88.6583 125.8 89.0167 125.938 89.325 126.138C89.6333 126.338 89.875 126.609 90.05 126.95C90.225 127.292 90.3125 127.729 90.3125 128.263C90.3125 128.613 90.2667 128.896 90.175 129.113C90.0833 129.329 89.9542 129.5 89.7875 129.625C89.6208 129.75 89.4125 129.838 89.1625 129.888C88.9125 129.938 88.6208 129.979 88.2875 130.013C87.4375 130.113 86.6 130.217 85.775 130.325C84.95 130.434 84.2083 130.621 83.55 130.888C82.8917 131.154 82.3625 131.542 81.9625 132.05C81.5625 132.559 81.3625 133.263 81.3625 134.163C81.3625 134.813 81.475 135.375 81.7 135.85C81.925 136.325 82.2333 136.717 82.625 137.025C83.0167 137.334 83.475 137.559 84 137.7C84.525 137.842 85.0875 137.913 85.6875 137.913C86.3208 137.913 86.8667 137.854 87.325 137.738C87.7833 137.621 88.1917 137.454 88.55 137.238C88.9083 137.021 89.2333 136.75 89.525 136.425C89.8167 136.1 90.1042 135.729 90.3875 135.313L90.4375 135.313C90.4375 135.646 90.4583 135.95 90.5 136.225C90.5417 136.5 90.6292 136.738 90.7625 136.938C90.8958 137.138 91.0833 137.292 91.325 137.4C91.5667 137.509 91.8875 137.563 92.2875 137.563C92.5042 137.563 92.6833 137.554 92.825 137.538C92.9667 137.521 93.1292 137.496 93.3125 137.463L93.3125 136.138C93.1625 136.204 92.9958 136.238 92.8125 136.238C92.1958 136.238 91.8875 135.921 91.8875 135.288L91.8875 128.438C91.8875 127.571 91.7458 126.867 91.4625 126.325C91.1792 125.784 90.8125 125.363 90.3625 125.063C89.9125 124.763 89.4042 124.559 88.8375 124.45C88.2708 124.342 87.7042 124.288 87.1375 124.288C86.3875 124.288 85.7042 124.371 85.0875 124.538C84.4708 124.704 83.9333 124.963 83.475 125.313C83.0167 125.663 82.6542 126.113 82.3875 126.663C82.1208 127.213 81.9625 127.863 81.9125 128.613ZM90.3125 130.513L90.3125 132.563C90.3125 133.196 90.1917 133.763 89.95 134.263C89.7083 134.763 89.3833 135.188 88.975 135.538C88.5667 135.888 88.0875 136.154 87.5375 136.338C86.9875 136.521 86.4125 136.613 85.8125 136.613C85.4458 136.613 85.0875 136.554 84.7375 136.438C84.3875 136.321 84.0792 136.15 83.8125 135.925C83.5458 135.7 83.3333 135.434 83.175 135.125C83.0167 134.817 82.9375 134.463 82.9375 134.063C82.9375 133.429 83.125 132.942 83.5 132.6C83.875 132.259 84.3542 131.996 84.9375 131.813C85.5208 131.629 86.1667 131.492 86.875 131.4C87.5833 131.309 88.2708 131.204 88.9375 131.088C89.1542 131.054 89.4042 130.996 89.6875 130.913C89.9708 130.829 90.1625 130.696 90.2625 130.513L90.3125 130.513Z"/>
<path clip-path="url(#TextBounds)" d="M95.0375 119.713L95.0375 137.563L96.6125 137.563L96.6125 132.663L99.1625 130.538L104.263 137.563L106.238 137.563L100.363 129.438L105.863 124.663L103.763 124.663L96.6125 130.913L96.6125 119.713L95.0375 119.713Z"/>
<path clip-path="url(#TextBounds)" d="M37.9625 138.813L56.0125 138.813L56.0125 140.063L37.9625 140.063L37.9625 138.813Z"/>
</g>
<g opacity="1">
<mask height="144" id="StrokeMask" maskUnits="userSpaceOnUse" width="144" x="-1.42109e-14" y="0">
<rect fill="#000000" height="144" stroke="none" width="144" x="-1.42109e-14" y="0"/>
<use fill="#ffffff" fill-rule="evenodd" stroke="none" xlink:href="#Fill"/>
</mask>
</g>
<g fill="#00507d" opacity="1" stroke="none"/>
<path d="M72 26.5925C67.1496 26.5908 63.2167 30.5224 63.2167 35.3728C63.2167 40.2232 67.1496 44.1548 72 44.1531C76.8504 44.1548 80.7833 40.2232 80.7833 35.3728C80.7833 30.5224 76.8504 26.5908 72 26.5925ZM64.9729 51.1872C60.1225 51.1855 56.1896 55.1171 56.1896 59.9675C56.1896 64.8179 60.1225 68.7495 64.9729 68.7478C69.8234 68.7495 73.7563 64.8179 73.7563 59.9675C73.7563 55.1171 69.8234 51.1855 64.9729 51.1872ZM57.9459 72.2684C53.0943 72.265 49.1595 76.1971 49.1595 81.0487C49.1595 85.9003 53.0943 89.8323 57.9459 89.829C62.7975 89.8323 66.7323 85.9003 66.7323 81.0487C66.7323 76.1971 62.7975 72.265 57.9459 72.2684Z" fill="#000000" fill-rule="nonzero" opacity="1" stroke="none"/>
<path d="M71.7786 54.4232L64.9729 51.1872L56.5229 57.5572L49.6258 78.2168L61.0554 85.8482L66.3362 83.7682L73.1419 63.1894L83.4541 65.3221L71.7786 54.4232Z" fill="#000000" fill-rule="nonzero" opacity="1" stroke="none"/>
<path d="M67.4605 55.6072L75.2535 65.15L92.382 70.7786" fill="none" opacity="1" stroke="#000000" stroke-linecap="round" stroke-linejoin="round" stroke-width="8"/>
<path d="M96.0255 44.5677C96.0255 44.5677 92.5085 36.6587 94.8379 26.6241C94.8379 26.6241 103.197 25.5138 108.414 28.8517C107.17 36.6869 99.3634 45.3407 99.3634 45.3407L96.0255 44.5677Z" fill="#000000" fill-rule="nonzero" opacity="1" stroke="none"/>
<path d="M112.406 75.7819C110.466 75.7819 108.892 77.356 108.892 79.2954C108.892 81.2349 110.466 82.809 112.406 82.809C114.345 82.809 115.919 81.2349 115.919 79.2954C115.919 77.356 114.345 75.7819 112.406 75.7819" fill="#000000" fill-rule="nonzero" opacity="1" stroke="none"/>
<path d="M82.5406 105.647L100.108 35.3763" fill="none" opacity="1" stroke="#000000" stroke-linecap="round" stroke-linejoin="round" stroke-width="3"/>
<path d="M87.2733 93.8414L90.1017 82.5314C88.2782 82.693 86.3774 82.809 84.2974 82.809L35.1079 82.809C31.2255 82.809 28.0809 85.9536 28.0809 89.836L28.0809 93.3636C29.683 93.3671 31.2817 93.7255 32.7504 94.4387C34.1347 95.1133 38.5161 96.8631 42.135 96.8631C45.7539 96.8631 50.1353 95.1133 51.474 94.4633C54.4078 92.9947 57.9037 93.0017 60.8586 94.4387C62.2429 95.1133 66.6243 96.8631 70.2432 96.8631C73.8622 96.8631 78.2435 95.1133 79.5822 94.4633C81.9784 93.2652 84.733 93.1001 87.2733 93.8414ZM110.456 76.3722C107.346 78.0727 103.256 80.0473 97.6382 81.3579L93.9244 96.2096C95.365 96.5855 96.9144 96.8631 98.3515 96.8631C100.273 96.8631 102.406 96.3712 104.187 95.809C113.962 90.7249 115.919 82.3276 115.919 79.2954L110.456 76.3722ZM85.1547 57.3042L96.939 54.6094C98.8328 54.1772 100.013 52.294 99.5812 50.4037C99.149 48.5099 97.2623 47.3223 95.372 47.7615L80.3868 51.1872L78.5773 51.1872L85.1547 57.3042Z" fill="#000000" fill-rule="nonzero" opacity="1" stroke="none"/>
</g>
</svg>
