<?xml version="1.0" encoding="UTF-8" standalone="no"?>
<!DOCTYPE svg PUBLIC "-//W3C//DTD SVG 1.1//EN" "http://www.w3.org/Graphics/SVG/1.1/DTD/svg11.dtd">
<!-- Created with Vectornator (http://vectornator.io/) -->
<svg stroke-miterlimit="10" style="fill-rule:nonzero;clip-rule:evenodd;stroke-linecap:round;stroke-linejoin:round;" version="1.1" viewBox="0 0 144 144" xml:space="preserve" xmlns="http://www.w3.org/2000/svg" xmlns:xlink="http://www.w3.org/1999/xlink">
<defs>
<clipPath id="TextBounds">
<rect height="30.4373" width="144" x="0" y="113.563"/>
</clipPath>
<path d="M12.7163 0L131.284 0C138.307 0 144 5.78672 144 12.925L144 131.075C144 138.213 138.307 144 131.284 144L12.7163 144C5.69329 144-1.42109e-14 138.213-1.42109e-14 131.075L-1.42109e-14 12.925C-1.42109e-14 5.78672 5.69329 0 12.7163 0Z" id="Fill"/>
<clipPath id="TextBounds_2">
<rect height="1" width="0" x="75.7925" y="92.2805"/>
</clipPath>
<clipPath id="TextBounds_3">
<rect height="30.2042" width="104.435" x="39.5649" y="13.7161"/>
</clipPath>
</defs>
<clipPath id="ArtboardFrame">
<rect height="144" width="144" x="0" y="0"/>
</clipPath>
<g clip-path="url(#ArtboardFrame)" id="Layer-1">
<g fill="#00507d" opacity="1" stroke="none">
<path clip-path="url(#TextBounds)" d="M19.3125 119.713L19.3125 137.563L23.2375 137.563L23.2375 130.188L30.7125 130.188L30.7125 127.138L23.2375 127.138L23.2375 123.013L31.8625 123.013L31.8625 119.713L19.3125 119.713Z"/>
<path clip-path="url(#TextBounds)" d="M33.9375 119.713L33.9375 122.238L35.5125 122.238L35.5125 119.713L33.9375 119.713ZM33.9375 124.663L33.9375 137.563L35.5125 137.563L35.5125 124.663L33.9375 124.663Z"/>
<path clip-path="url(#TextBounds)" d="M42.0625 130.863L37.0625 137.563L39.0125 137.563L42.9875 132.138L47.0375 137.563L49.0375 137.563L44.0125 130.838L48.6625 124.663L46.6875 124.663L43.0875 129.563L39.4125 124.663L37.4375 124.663L42.0625 130.863Z"/>
<path clip-path="url(#TextBounds)" d="M59.8375 130.213L51.4875 130.213C51.5542 129.629 51.6917 129.059 51.9 128.5C52.1083 127.942 52.3875 127.45 52.7375 127.025C53.0875 126.6 53.5125 126.259 54.0125 126C54.5125 125.742 55.0875 125.613 55.7375 125.613C56.3708 125.613 56.9375 125.742 57.4375 126C57.9375 126.259 58.3625 126.6 58.7125 127.025C59.0625 127.45 59.3333 127.938 59.525 128.488C59.7167 129.038 59.8208 129.613 59.8375 130.213ZM51.4875 131.538L61.4125 131.538C61.4458 130.638 61.3625 129.75 61.1625 128.875C60.9625 128 60.6333 127.225 60.175 126.55C59.7167 125.875 59.1208 125.329 58.3875 124.913C57.6542 124.496 56.7708 124.288 55.7375 124.288C54.7208 124.288 53.8417 124.484 53.1 124.875C52.3583 125.267 51.7542 125.784 51.2875 126.425C50.8208 127.067 50.475 127.796 50.25 128.613C50.025 129.429 49.9125 130.263 49.9125 131.113C49.9125 132.029 50.025 132.9 50.25 133.725C50.475 134.55 50.8208 135.275 51.2875 135.9C51.7542 136.525 52.3583 137.017 53.1 137.375C53.8417 137.734 54.7208 137.913 55.7375 137.913C57.3708 137.913 58.6333 137.513 59.525 136.713C60.4167 135.913 61.0292 134.779 61.3625 133.313L59.7875 133.313C59.5375 134.313 59.0875 135.113 58.4375 135.713C57.7875 136.313 56.8875 136.613 55.7375 136.613C54.9875 136.613 54.3458 136.454 53.8125 136.138C53.2792 135.821 52.8375 135.421 52.4875 134.938C52.1375 134.454 51.8833 133.909 51.725 133.3C51.5667 132.692 51.4875 132.104 51.4875 131.538Z"/>
<path clip-path="url(#TextBounds)" d="M74.8875 137.563L74.8875 119.713L73.3125 119.713L73.3125 127.113L73.2625 127.113C73.0958 126.646 72.8583 126.238 72.55 125.888C72.2417 125.538 71.8875 125.242 71.4875 125C71.0875 124.759 70.6583 124.579 70.2 124.463C69.7417 124.346 69.2708 124.288 68.7875 124.288C67.8042 124.288 66.95 124.471 66.225 124.838C65.5 125.204 64.8958 125.7 64.4125 126.325C63.9292 126.95 63.5708 127.675 63.3375 128.5C63.1042 129.325 62.9875 130.196 62.9875 131.113C62.9875 132.029 63.1042 132.9 63.3375 133.725C63.5708 134.55 63.9292 135.275 64.4125 135.9C64.8958 136.525 65.5 137.017 66.225 137.375C66.95 137.734 67.8042 137.913 68.7875 137.913C69.2542 137.913 69.725 137.846 70.2 137.713C70.675 137.579 71.1208 137.392 71.5375 137.15C71.9542 136.909 72.325 136.613 72.65 136.263C72.975 135.913 73.2208 135.529 73.3875 135.113L73.4375 135.113L73.4375 137.563L74.8875 137.563ZM64.5625 131.113C64.5625 130.446 64.6417 129.784 64.8 129.125C64.9583 128.467 65.2083 127.879 65.55 127.363C65.8917 126.846 66.3292 126.425 66.8625 126.1C67.3958 125.775 68.0375 125.613 68.7875 125.613C69.6208 125.613 70.325 125.775 70.9 126.1C71.475 126.425 71.9417 126.846 72.3 127.363C72.6583 127.879 72.9167 128.467 73.075 129.125C73.2333 129.784 73.3125 130.446 73.3125 131.113C73.3125 131.779 73.2333 132.442 73.075 133.1C72.9167 133.759 72.6583 134.346 72.3 134.863C71.9417 135.379 71.475 135.8 70.9 136.125C70.325 136.45 69.6208 136.613 68.7875 136.613C68.0375 136.613 67.3958 136.45 66.8625 136.125C66.3292 135.8 65.8917 135.379 65.55 134.863C65.2083 134.346 64.9583 133.759 64.8 133.1C64.6417 132.442 64.5625 131.779 64.5625 131.113Z"/>
<path clip-path="url(#TextBounds)" d="M84.8375 119.713L84.8375 137.563L86.4125 137.563L86.4125 132.663L88.9625 130.538L94.0625 137.563L96.0375 137.563L90.1625 129.438L95.6625 124.663L93.5625 124.663L86.4125 130.913L86.4125 119.713L84.8375 119.713Z"/>
<path clip-path="url(#TextBounds)" d="M106.613 130.213L98.2625 130.213C98.3292 129.629 98.4667 129.059 98.675 128.5C98.8833 127.942 99.1625 127.45 99.5125 127.025C99.8625 126.6 100.287 126.259 100.788 126C101.288 125.742 101.862 125.613 102.513 125.613C103.146 125.613 103.712 125.742 104.213 126C104.713 126.259 105.137 126.6 105.488 127.025C105.838 127.45 106.108 127.938 106.3 128.488C106.492 129.038 106.596 129.613 106.613 130.213ZM98.2625 131.538L108.188 131.538C108.221 130.638 108.138 129.75 107.938 128.875C107.737 128 107.408 127.225 106.95 126.55C106.492 125.875 105.896 125.329 105.163 124.913C104.429 124.496 103.546 124.288 102.513 124.288C101.496 124.288 100.617 124.484 99.875 124.875C99.1333 125.267 98.5292 125.784 98.0625 126.425C97.5958 127.067 97.25 127.796 97.025 128.613C96.8 129.429 96.6875 130.263 96.6875 131.113C96.6875 132.029 96.8 132.9 97.025 133.725C97.25 134.55 97.5958 135.275 98.0625 135.9C98.5292 136.525 99.1333 137.017 99.875 137.375C100.617 137.734 101.496 137.913 102.513 137.913C104.146 137.913 105.408 137.513 106.3 136.713C107.192 135.913 107.804 134.779 108.138 133.313L106.562 133.313C106.312 134.313 105.863 135.113 105.213 135.713C104.562 136.313 103.663 136.613 102.513 136.613C101.762 136.613 101.121 136.454 100.588 136.138C100.054 135.821 99.6125 135.421 99.2625 134.938C98.9125 134.454 98.6583 133.909 98.5 133.3C98.3417 132.692 98.2625 132.104 98.2625 131.538Z"/>
<path clip-path="url(#TextBounds)" d="M119.588 130.213L111.237 130.213C111.304 129.629 111.442 129.059 111.65 128.5C111.858 127.942 112.137 127.45 112.487 127.025C112.838 126.6 113.262 126.259 113.763 126C114.263 125.742 114.837 125.613 115.487 125.613C116.121 125.613 116.687 125.742 117.188 126C117.688 126.259 118.112 126.6 118.463 127.025C118.813 127.45 119.083 127.938 119.275 128.488C119.467 129.038 119.571 129.613 119.588 130.213ZM111.237 131.538L121.162 131.538C121.196 130.638 121.113 129.75 120.912 128.875C120.712 128 120.383 127.225 119.925 126.55C119.467 125.875 118.871 125.329 118.138 124.913C117.404 124.496 116.521 124.288 115.487 124.288C114.471 124.288 113.592 124.484 112.85 124.875C112.108 125.267 111.504 125.784 111.037 126.425C110.571 127.067 110.225 127.796 110 128.613C109.775 129.429 109.662 130.263 109.662 131.113C109.662 132.029 109.775 132.9 110 133.725C110.225 134.55 110.571 135.275 111.037 135.9C111.504 136.525 112.108 137.017 112.85 137.375C113.592 137.734 114.471 137.913 115.487 137.913C117.121 137.913 118.383 137.513 119.275 136.713C120.167 135.913 120.779 134.779 121.112 133.313L119.537 133.313C119.287 134.313 118.838 135.113 118.188 135.713C117.537 136.313 116.638 136.613 115.487 136.613C114.737 136.613 114.096 136.454 113.562 136.138C113.029 135.821 112.588 135.421 112.237 134.938C111.887 134.454 111.633 133.909 111.475 133.3C111.317 132.692 111.237 132.104 111.237 131.538Z"/>
<path clip-path="url(#TextBounds)" d="M123.312 119.713L123.312 137.563L124.887 137.563L124.887 119.713L123.312 119.713Z"/>
<path clip-path="url(#TextBounds)" d="M17.5875 138.813L32.4125 138.813L32.4125 140.063L17.5875 140.063L17.5875 138.813Z"/>
</g>
<g opacity="1">
<mask height="144" id="StrokeMask" maskUnits="userSpaceOnUse" width="144" x="-1.42109e-14" y="0">
<rect fill="#000000" height="144" stroke="none" width="144" x="-1.42109e-14" y="0"/>
<use fill="#ffffff" fill-rule="evenodd" stroke="none" xlink:href="#Fill"/>
</mask>
</g>
<g fill="#00507d" opacity="1" stroke="none"/>
<g opacity="1">
<path d="M74.2097 87.8512C72.0412 87.2046 68.8861 89.9207 67.5637 87.4551C66.8783 86.1765 67.0911 84.1287 67.3266 79.7485C65.6735 78.7647 61.3043 79.9935 58.2708 78.7407C56.5951 78.0474 56.1935 77.3497 54.1682 74.9136C50.6503 74.8721 46.2622 74.1398 44.1941 71.8709C41.9211 69.3786 41.9883 66.9383 39.1368 66.4175C32.5148 65.2074 30.0533 59.9305 29.5431 58.8048C28.5606 56.6308 26.8352 55.6229 23.2624 53.9445C20.6162 52.7009 18.7273 50.3515 18.106 47.2862C15.9094 45.8068 6.14023 39.9973 7.29439 32.4196C23.1716 42.0041 31.3541 45.4268 39.0861 48.3958C52.4439 53.5268 72.5593 56.3337 77.4707 59.438C86.012 64.8367 78.7314 70.9073 78.7595 77.5307C78.7742 81.0109 84.4795 89.6181 80.1933 92.9956C78.0193 94.709 75.2004 88.147 74.2097 87.8512Z" fill="#800000" fill-rule="nonzero" opacity="1" stroke="none"/>
<path d="M74.2097 87.8512C72.0412 87.2046 68.8861 89.9207 67.5637 87.4551C66.8783 86.1765 67.0911 84.1287 67.3266 79.7485C65.6735 78.7647 61.3043 79.9935 58.2708 78.7407C56.5951 78.0474 56.1935 77.3497 54.1682 74.9136C50.6503 74.8721 46.2622 74.1398 44.1941 71.8709C41.9211 69.3786 41.9883 66.9383 39.1368 66.4175C32.5148 65.2074 30.0533 59.9305 29.5431 58.8048C28.5606 56.6308 26.8352 55.6229 23.2624 53.9445C20.6162 52.7009 18.7273 50.3515 18.106 47.2862C15.9094 45.8068 6.14023 39.9973 7.29439 32.4196C23.1716 42.0041 31.3541 45.4268 39.0861 48.3958C52.4439 53.5268 72.5593 56.3337 77.4707 59.438C86.012 64.8367 78.7314 70.9073 78.7595 77.5307C78.7742 81.0109 84.4795 89.6181 80.1933 92.9956C78.0193 94.709 75.2004 88.147 74.2097 87.8512Z" fill="none" opacity="1" stroke="#800000" stroke-linecap="butt" stroke-linejoin="miter" stroke-width="0.8"/>
<path d="M111.167 71.3661L106.576 75.4783C102.315 71.6098 98.3808 73.6672 96.8429 75.5469C95.3063 77.4248 94.9862 81.1288 96.911 83.36C98.8373 85.5902 102.687 86.7468 106.678 83.2905L110.927 87.7453C105.22 92.3397 99.5079 92.1481 95.1294 89.6997C90.752 87.2502 89.2785 83.6547 89.3278 79.1529C89.3775 74.6511 91.704 70.7185 95.7466 68.6247C99.7903 66.5299 105.894 66.4723 111.167 71.3661Z" fill="#800000" fill-rule="nonzero" opacity="1" stroke="none"/>
<path d="M111.167 71.3661L106.576 75.4783C102.315 71.6098 98.3808 73.6672 96.8429 75.5469C95.3063 77.4248 94.9862 81.1288 96.911 83.36C98.8373 85.5902 102.687 86.7468 106.678 83.2905L110.927 87.7453C105.22 92.3397 99.5079 92.1481 95.1294 89.6997C90.752 87.2502 89.2785 83.6547 89.3278 79.1529C89.3775 74.6511 91.704 70.7185 95.7466 68.6247C99.7903 66.5299 105.894 66.4723 111.167 71.3661Z" fill="none" opacity="1" stroke="#800000" stroke-linecap="butt" stroke-linejoin="miter" stroke-width="0.8"/>
<path d="M136.8 71.3661L132.207 75.4783C127.948 71.6098 124.014 73.6672 122.476 75.5469C120.939 77.4248 120.619 81.1288 122.544 83.36C124.47 85.5902 128.32 86.7468 132.311 83.2905L136.56 87.7453C130.853 92.3397 125.141 92.1481 120.762 89.6997C116.385 87.2502 114.911 83.6547 114.961 79.1529C115.011 74.6511 117.336 70.7185 121.379 68.6247C125.422 66.5299 131.527 66.4723 136.8 71.3661Z" fill="#800000" fill-rule="nonzero" opacity="1" stroke="none"/>
<path d="M136.8 71.3661L132.207 75.4783C127.948 71.6098 124.014 73.6672 122.476 75.5469C120.939 77.4248 120.619 81.1288 122.544 83.36C124.47 85.5902 128.32 86.7468 132.311 83.2905L136.56 87.7453C130.853 92.3397 125.141 92.1481 120.762 89.6997C116.385 87.2502 114.911 83.6547 114.961 79.1529C115.011 74.6511 117.336 70.7185 121.379 68.6247C125.422 66.5299 131.527 66.4723 136.8 71.3661Z" fill="none" opacity="1" stroke="#800000" stroke-linecap="butt" stroke-linejoin="miter" stroke-width="0.8"/>
</g>
<g fill="#800000" opacity="1" stroke="none">
<path clip-path="url(#TextBounds_3)" d="M44.4199 19.8661L44.4199 37.7161L48.0949 37.7161L48.0949 25.1911L48.1449 25.1911L52.5199 37.7161L55.5449 37.7161L59.9199 25.0661L59.9699 25.0661L59.9699 37.7161L63.6449 37.7161L63.6449 19.8661L58.1199 19.8661L54.1699 32.1411L54.1199 32.1411L49.9449 19.8661L44.4199 19.8661Z"/>
<path clip-path="url(#TextBounds_3)" d="M75.4199 29.8661L69.6449 29.8661C69.6616 29.6161 69.7158 29.3328 69.8074 29.0161C69.8991 28.6994 70.0574 28.3994 70.2824 28.1161C70.5074 27.8328 70.8074 27.5953 71.1824 27.4036C71.5574 27.2119 72.0283 27.1161 72.5949 27.1161C73.4616 27.1161 74.1074 27.3494 74.5324 27.8161C74.9574 28.2828 75.2533 28.9661 75.4199 29.8661ZM69.6449 32.1161L78.9699 32.1161C79.0366 31.1161 78.9533 30.1578 78.7199 29.2411C78.4866 28.3244 78.1074 27.5078 77.5824 26.7911C77.0574 26.0744 76.3866 25.5036 75.5699 25.0786C74.7533 24.6536 73.7949 24.4411 72.6949 24.4411C71.7116 24.4411 70.8158 24.6161 70.0074 24.9661C69.1991 25.3161 68.5033 25.7953 67.9199 26.4036C67.3366 27.0119 66.8866 27.7328 66.5699 28.5661C66.2533 29.3994 66.0949 30.2994 66.0949 31.2661C66.0949 32.2661 66.2491 33.1828 66.5574 34.0161C66.8658 34.8494 67.3033 35.5661 67.8699 36.1661C68.4366 36.7661 69.1283 37.2286 69.9449 37.5536C70.7616 37.8786 71.6783 38.0411 72.6949 38.0411C74.1616 38.0411 75.4116 37.7078 76.4449 37.0411C77.4783 36.3744 78.2449 35.2661 78.7449 33.7161L75.6199 33.7161C75.5033 34.1161 75.1866 34.4953 74.6699 34.8536C74.1533 35.2119 73.5366 35.3911 72.8199 35.3911C71.8199 35.3911 71.0533 35.1328 70.5199 34.6161C69.9866 34.0994 69.6949 33.2661 69.6449 32.1161Z"/>
<path clip-path="url(#TextBounds_3)" d="M81.0699 24.7911L81.0699 37.7161L84.6199 37.7161L84.6199 31.8911C84.6199 31.3078 84.6783 30.7661 84.7949 30.2661C84.9116 29.7661 85.1074 29.3286 85.3824 28.9536C85.6574 28.5786 86.0199 28.2828 86.4699 28.0661C86.9199 27.8494 87.4699 27.7411 88.1199 27.7411C88.3366 27.7411 88.5616 27.7536 88.7949 27.7786C89.0283 27.8036 89.2283 27.8328 89.3949 27.8661L89.3949 24.5661C89.1116 24.4828 88.8533 24.4411 88.6199 24.4411C88.1699 24.4411 87.7366 24.5078 87.3199 24.6411C86.9033 24.7744 86.5116 24.9619 86.1449 25.2036C85.7783 25.4453 85.4533 25.7369 85.1699 26.0786C84.8866 26.4203 84.6616 26.7911 84.4949 27.1911L84.4449 27.1911L84.4449 24.7911L81.0699 24.7911Z"/>
<path clip-path="url(#TextBounds_3)" d="M99.1449 29.3411L102.62 29.3411C102.57 28.5078 102.37 27.7869 102.02 27.1786C101.67 26.5703 101.216 26.0619 100.657 25.6536C100.099 25.2453 99.4658 24.9411 98.7574 24.7411C98.0491 24.5411 97.3116 24.4411 96.5449 24.4411C95.4949 24.4411 94.5616 24.6161 93.7449 24.9661C92.9283 25.3161 92.2366 25.8036 91.6699 26.4286C91.1033 27.0536 90.6741 27.7953 90.3824 28.6536C90.0908 29.5119 89.9449 30.4411 89.9449 31.4411C89.9449 32.4078 90.1033 33.2953 90.4199 34.1036C90.7366 34.9119 91.1783 35.6078 91.7449 36.1911C92.3116 36.7744 92.9991 37.2286 93.8074 37.5536C94.6158 37.8786 95.5033 38.0411 96.4699 38.0411C98.1866 38.0411 99.5949 37.5911 100.695 36.6911C101.795 35.7911 102.462 34.4828 102.695 32.7661L99.2699 32.7661C99.1533 33.5661 98.8658 34.2036 98.4074 34.6786C97.9491 35.1536 97.2949 35.3911 96.4449 35.3911C95.8949 35.3911 95.4283 35.2661 95.0449 35.0161C94.6616 34.7661 94.3574 34.4453 94.1324 34.0536C93.9074 33.6619 93.7449 33.2244 93.6449 32.7411C93.5449 32.2578 93.4949 31.7828 93.4949 31.3161C93.4949 30.8328 93.5449 30.3453 93.6449 29.8536C93.7449 29.3619 93.9158 28.9119 94.1574 28.5036C94.3991 28.0953 94.7116 27.7619 95.0949 27.5036C95.4783 27.2453 95.9533 27.1161 96.5199 27.1161C98.0366 27.1161 98.9116 27.8578 99.1449 29.3411Z"/>
<path clip-path="url(#TextBounds_3)" d="M116.82 37.7161L116.82 24.7911L113.27 24.7911L113.27 31.5661C113.27 32.8828 113.053 33.8286 112.62 34.4036C112.187 34.9786 111.487 35.2661 110.52 35.2661C109.67 35.2661 109.078 35.0036 108.745 34.4786C108.412 33.9536 108.245 33.1578 108.245 32.0911L108.245 24.7911L104.695 24.7911L104.695 32.7411C104.695 33.5411 104.766 34.2703 104.907 34.9286C105.049 35.5869 105.295 36.1453 105.645 36.6036C105.995 37.0619 106.474 37.4161 107.082 37.6661C107.691 37.9161 108.47 38.0411 109.42 38.0411C110.17 38.0411 110.903 37.8744 111.62 37.5411C112.337 37.2078 112.92 36.6661 113.37 35.9161L113.445 35.9161L113.445 37.7161L116.82 37.7161Z"/>
<path clip-path="url(#TextBounds_3)" d="M119.52 24.7911L119.52 37.7161L123.07 37.7161L123.07 31.8911C123.07 31.3078 123.128 30.7661 123.245 30.2661C123.362 29.7661 123.557 29.3286 123.832 28.9536C124.107 28.5786 124.47 28.2828 124.92 28.0661C125.37 27.8494 125.92 27.7411 126.57 27.7411C126.787 27.7411 127.012 27.7536 127.245 27.7786C127.478 27.8036 127.678 27.8328 127.845 27.8661L127.845 24.5661C127.562 24.4828 127.303 24.4411 127.07 24.4411C126.62 24.4411 126.187 24.5078 125.77 24.6411C125.353 24.7744 124.962 24.9619 124.595 25.2036C124.228 25.4453 123.903 25.7369 123.62 26.0786C123.337 26.4203 123.112 26.7911 122.945 27.1911L122.895 27.1911L122.895 24.7911L119.52 24.7911Z"/>
<path clip-path="url(#TextBounds_3)" d="M135.62 39.3161L141.02 24.7911L137.345 24.7911L134.52 33.6411L134.47 33.6411L131.545 24.7911L127.77 24.7911L132.295 36.9161C132.395 37.1661 132.445 37.4328 132.445 37.7161C132.445 38.0994 132.332 38.4494 132.107 38.7661C131.882 39.0828 131.537 39.2661 131.07 39.3161C130.72 39.3328 130.37 39.3244 130.02 39.2911C129.67 39.2578 129.328 39.2244 128.995 39.1911L128.995 42.1161C129.362 42.1494 129.724 42.1786 130.082 42.2036C130.441 42.2286 130.803 42.2411 131.17 42.2411C132.387 42.2411 133.337 42.0161 134.02 41.5661C134.703 41.1161 135.237 40.3661 135.62 39.3161Z"/>
</g>
</g>
</svg>
