<?xml version="1.0" encoding="UTF-8" standalone="no"?>
<!DOCTYPE svg PUBLIC "-//W3C//DTD SVG 1.1//EN" "http://www.w3.org/Graphics/SVG/1.1/DTD/svg11.dtd">
<!-- Created with Vectornator (http://vectornator.io/) -->
<svg height="100%" stroke-miterlimit="10" style="fill-rule:nonzero;clip-rule:evenodd;stroke-linecap:round;stroke-linejoin:round;" version="1.1" viewBox="0 0 144 144" width="100%" xml:space="preserve" xmlns="http://www.w3.org/2000/svg" xmlns:xlink="http://www.w3.org/1999/xlink">
<defs>
<clipPath id="TextBounds">
<rect height="27.4373" width="144" x="0" y="114.563"/>
</clipPath>
<path d="M12.7163 0L131.284 0C138.307 0 144 5.78672 144 12.925L144 131.075C144 138.213 138.307 144 131.284 144L12.7163 144C5.69329 144-1.42109e-14 138.213-1.42109e-14 131.075L-1.42109e-14 12.925C-1.42109e-14 5.78672 5.69329 0 12.7163 0Z" id="Fill"/>
<clipPath id="TextBounds_2">
<rect height="1" width="0" x="75.7925" y="92.2805"/>
</clipPath>
</defs>
<clipPath id="ArtboardFrame">
<rect height="144" width="144" x="0" y="0"/>
</clipPath>
<g clip-path="url(#ArtboardFrame)" id="Layer-1">
<g fill="#00507d" opacity="1" stroke="none">
<path clip-path="url(#TextBounds)" d="M15.3625 120.713L15.3625 138.563L19.2875 138.563L19.2875 132.813L21.5375 130.538L26.9125 138.563L31.8375 138.563L24.1875 127.763L31.1625 120.713L26.2625 120.713L19.2875 128.113L19.2875 120.713L15.3625 120.713Z"/>
<path clip-path="url(#TextBounds)" d="M42.0625 130.963C42.0292 130.513 41.9333 130.079 41.775 129.663C41.6167 129.246 41.4 128.884 41.125 128.575C40.85 128.267 40.5167 128.017 40.125 127.825C39.7333 127.634 39.2958 127.538 38.8125 127.538C38.3125 127.538 37.8583 127.625 37.45 127.8C37.0417 127.975 36.6917 128.217 36.4 128.525C36.1083 128.834 35.875 129.196 35.7 129.613C35.525 130.029 35.4292 130.479 35.4125 130.963L42.0625 130.963ZM35.4125 132.838C35.4125 133.338 35.4833 133.821 35.625 134.288C35.7667 134.754 35.9792 135.163 36.2625 135.513C36.5458 135.863 36.9042 136.142 37.3375 136.35C37.7708 136.559 38.2875 136.663 38.8875 136.663C39.7208 136.663 40.3917 136.484 40.9 136.125C41.4083 135.767 41.7875 135.229 42.0375 134.513L44.7375 134.513C44.5875 135.213 44.3292 135.838 43.9625 136.388C43.5958 136.938 43.1542 137.4 42.6375 137.775C42.1208 138.15 41.5417 138.434 40.9 138.625C40.2583 138.817 39.5875 138.913 38.8875 138.913C37.8708 138.913 36.9708 138.746 36.1875 138.413C35.4042 138.079 34.7417 137.613 34.2 137.013C33.6583 136.413 33.25 135.696 32.975 134.863C32.7 134.029 32.5625 133.113 32.5625 132.113C32.5625 131.196 32.7083 130.325 33 129.5C33.2917 128.675 33.7083 127.95 34.25 127.325C34.7917 126.7 35.4458 126.204 36.2125 125.838C36.9792 125.471 37.8458 125.288 38.8125 125.288C39.8292 125.288 40.7417 125.5 41.55 125.925C42.3583 126.35 43.0292 126.913 43.5625 127.613C44.0958 128.313 44.4833 129.117 44.725 130.025C44.9667 130.934 45.0292 131.871 44.9125 132.838L35.4125 132.838Z"/>
<path clip-path="url(#TextBounds)" d="M55.9625 130.963C55.9292 130.513 55.8333 130.079 55.675 129.663C55.5167 129.246 55.3 128.884 55.025 128.575C54.75 128.267 54.4167 128.017 54.025 127.825C53.6333 127.634 53.1958 127.538 52.7125 127.538C52.2125 127.538 51.7583 127.625 51.35 127.8C50.9417 127.975 50.5917 128.217 50.3 128.525C50.0083 128.834 49.775 129.196 49.6 129.613C49.425 130.029 49.3292 130.479 49.3125 130.963L55.9625 130.963ZM49.3125 132.838C49.3125 133.338 49.3833 133.821 49.525 134.288C49.6667 134.754 49.8792 135.163 50.1625 135.513C50.4458 135.863 50.8042 136.142 51.2375 136.35C51.6708 136.559 52.1875 136.663 52.7875 136.663C53.6208 136.663 54.2917 136.484 54.8 136.125C55.3083 135.767 55.6875 135.229 55.9375 134.513L58.6375 134.513C58.4875 135.213 58.2292 135.838 57.8625 136.388C57.4958 136.938 57.0542 137.4 56.5375 137.775C56.0208 138.15 55.4417 138.434 54.8 138.625C54.1583 138.817 53.4875 138.913 52.7875 138.913C51.7708 138.913 50.8708 138.746 50.0875 138.413C49.3042 138.079 48.6417 137.613 48.1 137.013C47.5583 136.413 47.15 135.696 46.875 134.863C46.6 134.029 46.4625 133.113 46.4625 132.113C46.4625 131.196 46.6083 130.325 46.9 129.5C47.1917 128.675 47.6083 127.95 48.15 127.325C48.6917 126.7 49.3458 126.204 50.1125 125.838C50.8792 125.471 51.7458 125.288 52.7125 125.288C53.7292 125.288 54.6417 125.5 55.45 125.925C56.2583 126.35 56.9292 126.913 57.4625 127.613C57.9958 128.313 58.3833 129.117 58.625 130.025C58.8667 130.934 58.9292 131.871 58.8125 132.838L49.3125 132.838Z"/>
<path clip-path="url(#TextBounds)" d="M61.0625 120.713L63.9125 120.713L63.9125 138.563L61.0625 138.563L61.0625 120.713Z"/>
<path clip-path="url(#TextBounds)" d="M73.9625 125.638L76.6625 125.638L76.6625 127.438L76.7375 127.438C76.9542 127.121 77.1875 126.829 77.4375 126.563C77.6875 126.296 77.9667 126.071 78.275 125.888C78.5833 125.704 78.9375 125.559 79.3375 125.45C79.7375 125.342 80.1958 125.288 80.7125 125.288C81.4958 125.288 82.225 125.463 82.9 125.813C83.575 126.163 84.0542 126.704 84.3375 127.438C84.8208 126.771 85.3792 126.246 86.0125 125.863C86.6458 125.479 87.4375 125.288 88.3875 125.288C89.7542 125.288 90.8167 125.621 91.575 126.288C92.3333 126.954 92.7125 128.071 92.7125 129.638L92.7125 138.563L89.8625 138.563L89.8625 131.013C89.8625 130.496 89.8458 130.025 89.8125 129.6C89.7792 129.175 89.6833 128.809 89.525 128.5C89.3667 128.192 89.1292 127.954 88.8125 127.788C88.4958 127.621 88.0625 127.538 87.5125 127.538C86.5458 127.538 85.8458 127.838 85.4125 128.438C84.9792 129.038 84.7625 129.888 84.7625 130.988L84.7625 138.563L81.9125 138.563L81.9125 130.263C81.9125 129.363 81.75 128.684 81.425 128.225C81.1 127.767 80.5042 127.538 79.6375 127.538C79.2708 127.538 78.9167 127.613 78.575 127.763C78.2333 127.913 77.9333 128.129 77.675 128.413C77.4167 128.696 77.2083 129.046 77.05 129.463C76.8917 129.879 76.8125 130.354 76.8125 130.888L76.8125 138.563L73.9625 138.563L73.9625 125.638Z"/>
<path clip-path="url(#TextBounds)" d="M104.588 130.963C104.554 130.513 104.458 130.079 104.3 129.663C104.142 129.246 103.925 128.884 103.65 128.575C103.375 128.267 103.042 128.017 102.65 127.825C102.258 127.634 101.821 127.538 101.338 127.538C100.837 127.538 100.383 127.625 99.975 127.8C99.5667 127.975 99.2167 128.217 98.925 128.525C98.6333 128.834 98.4 129.196 98.225 129.613C98.05 130.029 97.9542 130.479 97.9375 130.963L104.588 130.963ZM97.9375 132.838C97.9375 133.338 98.0083 133.821 98.15 134.288C98.2917 134.754 98.5042 135.163 98.7875 135.513C99.0708 135.863 99.4292 136.142 99.8625 136.35C100.296 136.559 100.812 136.663 101.413 136.663C102.246 136.663 102.917 136.484 103.425 136.125C103.933 135.767 104.312 135.229 104.562 134.513L107.263 134.513C107.112 135.213 106.854 135.838 106.488 136.388C106.121 136.938 105.679 137.4 105.163 137.775C104.646 138.15 104.067 138.434 103.425 138.625C102.783 138.817 102.113 138.913 101.413 138.913C100.396 138.913 99.4958 138.746 98.7125 138.413C97.9292 138.079 97.2667 137.613 96.725 137.013C96.1833 136.413 95.775 135.696 95.5 134.863C95.225 134.029 95.0875 133.113 95.0875 132.113C95.0875 131.196 95.2333 130.325 95.525 129.5C95.8167 128.675 96.2333 127.95 96.775 127.325C97.3167 126.7 97.9708 126.204 98.7375 125.838C99.5042 125.471 100.371 125.288 101.338 125.288C102.354 125.288 103.267 125.5 104.075 125.925C104.883 126.35 105.554 126.913 106.088 127.613C106.621 128.313 107.008 129.117 107.25 130.025C107.492 130.934 107.554 131.871 107.438 132.838L97.9375 132.838Z"/>
<path clip-path="url(#TextBounds)" d="M109.613 125.638L112.288 125.638L112.288 128.138L112.338 128.138C112.421 127.788 112.583 127.446 112.825 127.113C113.067 126.779 113.358 126.475 113.7 126.2C114.042 125.925 114.421 125.704 114.838 125.538C115.254 125.371 115.679 125.288 116.113 125.288C116.446 125.288 116.675 125.296 116.8 125.313C116.925 125.329 117.054 125.346 117.188 125.363L117.188 128.113C116.987 128.079 116.783 128.05 116.575 128.025C116.367 128 116.163 127.988 115.963 127.988C115.479 127.988 115.025 128.084 114.6 128.275C114.175 128.467 113.804 128.75 113.488 129.125C113.171 129.5 112.921 129.963 112.738 130.513C112.554 131.063 112.463 131.696 112.463 132.413L112.463 138.563L109.613 138.563L109.613 125.638Z"/>
<path clip-path="url(#TextBounds)" d="M126.688 129.963C126.571 129.163 126.25 128.559 125.725 128.15C125.2 127.742 124.538 127.538 123.738 127.538C123.371 127.538 122.979 127.6 122.562 127.725C122.146 127.85 121.763 128.084 121.413 128.425C121.062 128.767 120.771 129.242 120.538 129.85C120.304 130.459 120.188 131.254 120.188 132.238C120.188 132.771 120.25 133.304 120.375 133.838C120.5 134.371 120.7 134.846 120.975 135.263C121.25 135.679 121.604 136.017 122.038 136.275C122.471 136.534 122.996 136.663 123.613 136.663C124.446 136.663 125.133 136.404 125.675 135.888C126.217 135.371 126.554 134.646 126.688 133.713L129.537 133.713C129.271 135.396 128.633 136.684 127.625 137.575C126.617 138.467 125.279 138.913 123.613 138.913C122.596 138.913 121.7 138.742 120.925 138.4C120.15 138.059 119.496 137.592 118.963 137C118.429 136.409 118.025 135.704 117.75 134.888C117.475 134.071 117.338 133.188 117.338 132.238C117.338 131.271 117.471 130.363 117.738 129.513C118.004 128.663 118.404 127.925 118.938 127.3C119.471 126.675 120.133 126.184 120.925 125.825C121.717 125.467 122.646 125.288 123.713 125.288C124.463 125.288 125.175 125.384 125.85 125.575C126.525 125.767 127.125 126.054 127.65 126.438C128.175 126.821 128.604 127.304 128.938 127.888C129.271 128.471 129.471 129.163 129.537 129.963L126.688 129.963Z"/>
<path clip-path="url(#TextBounds)" d="M13.6375 139.813L31.6875 139.813L31.6875 141.063L13.6375 141.063L13.6375 139.813Z"/>
</g>
<g opacity="1">
<mask height="144" id="StrokeMask" maskUnits="userSpaceOnUse" width="144" x="-1.42109e-14" y="0">
<rect fill="#000000" height="144" stroke="none" width="144" x="-1.42109e-14" y="0"/>
<use fill="#ffffff" fill-rule="evenodd" stroke="none" xlink:href="#Fill"/>
</mask>
<use fill="none" mask="url(#StrokeMask)" stroke="none" stroke-linecap="butt" stroke-linejoin="round" stroke-width="2" xlink:href="#Fill"/>
</g>
<g fill="#00507d" opacity="1" stroke="none"/>
<g opacity="1">
<path d="M74.2097 87.8512C72.0412 87.2046 68.8861 89.9207 67.5637 87.4551C66.8783 86.1765 67.0911 84.1287 67.3266 79.7485C65.6735 78.7647 61.3043 79.9935 58.2708 78.7407C56.5951 78.0474 56.1935 77.3497 54.1682 74.9136C50.6503 74.8721 46.2622 74.1398 44.1941 71.8709C41.9211 69.3786 41.9883 66.9383 39.1368 66.4175C32.5148 65.2074 30.0533 59.9305 29.5431 58.8048C28.5606 56.6308 26.8352 55.6229 23.2624 53.9445C20.6162 52.7009 18.7273 50.3515 18.106 47.2862C15.9094 45.8068 6.14023 39.9973 7.29439 32.4196C23.1716 42.0041 31.3541 45.4268 39.0861 48.3958C52.4439 53.5268 72.5593 56.3337 77.4707 59.438C86.012 64.8367 78.7314 70.9073 78.7595 77.5307C78.7742 81.0109 84.4795 89.6181 80.1933 92.9956C78.0193 94.709 75.2004 88.147 74.2097 87.8512Z" fill="#800000" fill-rule="nonzero" opacity="1" stroke="none"/>
<path d="M74.2097 87.8512C72.0412 87.2046 68.8861 89.9207 67.5637 87.4551C66.8783 86.1765 67.0911 84.1287 67.3266 79.7485C65.6735 78.7647 61.3043 79.9935 58.2708 78.7407C56.5951 78.0474 56.1935 77.3497 54.1682 74.9136C50.6503 74.8721 46.2622 74.1398 44.1941 71.8709C41.9211 69.3786 41.9883 66.9383 39.1368 66.4175C32.5148 65.2074 30.0533 59.9305 29.5431 58.8048C28.5606 56.6308 26.8352 55.6229 23.2624 53.9445C20.6162 52.7009 18.7273 50.3515 18.106 47.2862C15.9094 45.8068 6.14023 39.9973 7.29439 32.4196C23.1716 42.0041 31.3541 45.4268 39.0861 48.3958C52.4439 53.5268 72.5593 56.3337 77.4707 59.438C86.012 64.8367 78.7314 70.9073 78.7595 77.5307C78.7742 81.0109 84.4795 89.6181 80.1933 92.9956C78.0193 94.709 75.2004 88.147 74.2097 87.8512Z" fill="none" opacity="1" stroke="#800000" stroke-linecap="butt" stroke-linejoin="miter" stroke-width="0.8"/>
<path d="M111.167 71.3661L106.576 75.4783C102.315 71.6098 98.3808 73.6672 96.8429 75.5469C95.3063 77.4248 94.9862 81.1288 96.911 83.36C98.8373 85.5902 102.687 86.7468 106.678 83.2905L110.927 87.7453C105.22 92.3397 99.5079 92.1481 95.1294 89.6997C90.752 87.2502 89.2785 83.6547 89.3278 79.1529C89.3775 74.6511 91.704 70.7185 95.7466 68.6247C99.7903 66.5299 105.894 66.4723 111.167 71.3661Z" fill="#800000" fill-rule="nonzero" opacity="1" stroke="none"/>
<path d="M111.167 71.3661L106.576 75.4783C102.315 71.6098 98.3808 73.6672 96.8429 75.5469C95.3063 77.4248 94.9862 81.1288 96.911 83.36C98.8373 85.5902 102.687 86.7468 106.678 83.2905L110.927 87.7453C105.22 92.3397 99.5079 92.1481 95.1294 89.6997C90.752 87.2502 89.2785 83.6547 89.3278 79.1529C89.3775 74.6511 91.704 70.7185 95.7466 68.6247C99.7903 66.5299 105.894 66.4723 111.167 71.3661Z" fill="none" opacity="1" stroke="#800000" stroke-linecap="butt" stroke-linejoin="miter" stroke-width="0.8"/>
<path d="M136.8 71.3661L132.207 75.4783C127.948 71.6098 124.014 73.6672 122.476 75.5469C120.939 77.4248 120.619 81.1288 122.544 83.36C124.47 85.5902 128.32 86.7468 132.311 83.2905L136.56 87.7453C130.853 92.3397 125.141 92.1481 120.762 89.6997C116.385 87.2502 114.911 83.6547 114.961 79.1529C115.011 74.6511 117.336 70.7185 121.379 68.6247C125.422 66.5299 131.527 66.4723 136.8 71.3661Z" fill="#800000" fill-rule="nonzero" opacity="1" stroke="none"/>
<path d="M136.8 71.3661L132.207 75.4783C127.948 71.6098 124.014 73.6672 122.476 75.5469C120.939 77.4248 120.619 81.1288 122.544 83.36C124.47 85.5902 128.32 86.7468 132.311 83.2905L136.56 87.7453C130.853 92.3397 125.141 92.1481 120.762 89.6997C116.385 87.2502 114.911 83.6547 114.961 79.1529C115.011 74.6511 117.336 70.7185 121.379 68.6247C125.422 66.5299 131.527 66.4723 136.8 71.3661Z" fill="none" opacity="1" stroke="#800000" stroke-linecap="butt" stroke-linejoin="miter" stroke-width="0.8"/>
</g>
</g>
</svg>
