<?xml version="1.0" encoding="UTF-8" standalone="no"?>
<!DOCTYPE svg PUBLIC "-//W3C//DTD SVG 1.1//EN" "http://www.w3.org/Graphics/SVG/1.1/DTD/svg11.dtd">
<!-- Created with Vectornator (http://vectornator.io/) -->
<svg stroke-miterlimit="10" style="fill-rule:nonzero;clip-rule:evenodd;stroke-linecap:round;stroke-linejoin:round;" version="1.1" viewBox="0 0 144 144" xml:space="preserve" xmlns="http://www.w3.org/2000/svg" xmlns:xlink="http://www.w3.org/1999/xlink">
<defs>
<clipPath id="TextBounds">
<rect height="27.4373" width="144" x="0" y="113.563"/>
</clipPath>
<path d="M12.7163 0L131.284 0C138.307 0 144 5.78672 144 12.925L144 131.075C144 138.213 138.307 144 131.284 144L12.7163 144C5.69329 144-1.42109e-14 138.213-1.42109e-14 131.075L-1.42109e-14 12.925C-1.42109e-14 5.78672 5.69329 0 12.7163 0Z" id="Fill"/>
<clipPath id="TextBounds_2">
<rect height="1" width="0" x="75.7925" y="92.2805"/>
</clipPath>
</defs>
<clipPath id="ArtboardFrame">
<rect height="144" width="144" x="0" y="0"/>
</clipPath>
<g clip-path="url(#ArtboardFrame)" id="Layer-1">
<g fill="#00507d" opacity="1" stroke="none">
<path clip-path="url(#TextBounds)" d="M43.3875 119.713L43.3875 137.563L56.0125 137.563L56.0125 134.263L47.3125 134.263L47.3125 119.713L43.3875 119.713Z"/>
<path clip-path="url(#TextBounds)" d="M57.8375 128.613L59.4125 128.613C59.4458 127.563 59.7792 126.8 60.4125 126.325C61.0458 125.85 61.8625 125.613 62.8625 125.613C63.3292 125.613 63.7667 125.65 64.175 125.725C64.5833 125.8 64.9417 125.938 65.25 126.138C65.5583 126.338 65.8 126.609 65.975 126.95C66.15 127.292 66.2375 127.729 66.2375 128.263C66.2375 128.613 66.1917 128.896 66.1 129.113C66.0083 129.329 65.8792 129.5 65.7125 129.625C65.5458 129.75 65.3375 129.838 65.0875 129.888C64.8375 129.938 64.5458 129.979 64.2125 130.013C63.3625 130.113 62.525 130.217 61.7 130.325C60.875 130.434 60.1333 130.621 59.475 130.888C58.8167 131.154 58.2875 131.542 57.8875 132.05C57.4875 132.559 57.2875 133.263 57.2875 134.163C57.2875 134.813 57.4 135.375 57.625 135.85C57.85 136.325 58.1583 136.717 58.55 137.025C58.9417 137.334 59.4 137.559 59.925 137.7C60.45 137.842 61.0125 137.913 61.6125 137.913C62.2458 137.913 62.7917 137.854 63.25 137.738C63.7083 137.621 64.1167 137.454 64.475 137.238C64.8333 137.021 65.1583 136.75 65.45 136.425C65.7417 136.1 66.0292 135.729 66.3125 135.313L66.3625 135.313C66.3625 135.646 66.3833 135.95 66.425 136.225C66.4667 136.5 66.5542 136.738 66.6875 136.938C66.8208 137.138 67.0083 137.292 67.25 137.4C67.4917 137.509 67.8125 137.563 68.2125 137.563C68.4292 137.563 68.6083 137.554 68.75 137.538C68.8917 137.521 69.0542 137.496 69.2375 137.463L69.2375 136.138C69.0875 136.204 68.9208 136.238 68.7375 136.238C68.1208 136.238 67.8125 135.921 67.8125 135.288L67.8125 128.438C67.8125 127.571 67.6708 126.867 67.3875 126.325C67.1042 125.784 66.7375 125.363 66.2875 125.063C65.8375 124.763 65.3292 124.559 64.7625 124.45C64.1958 124.342 63.6292 124.288 63.0625 124.288C62.3125 124.288 61.6292 124.371 61.0125 124.538C60.3958 124.704 59.8583 124.963 59.4 125.313C58.9417 125.663 58.5792 126.113 58.3125 126.663C58.0458 127.213 57.8875 127.863 57.8375 128.613ZM66.2375 130.513L66.2375 132.563C66.2375 133.196 66.1167 133.763 65.875 134.263C65.6333 134.763 65.3083 135.188 64.9 135.538C64.4917 135.888 64.0125 136.154 63.4625 136.338C62.9125 136.521 62.3375 136.613 61.7375 136.613C61.3708 136.613 61.0125 136.554 60.6625 136.438C60.3125 136.321 60.0042 136.15 59.7375 135.925C59.4708 135.7 59.2583 135.434 59.1 135.125C58.9417 134.817 58.8625 134.463 58.8625 134.063C58.8625 133.429 59.05 132.942 59.425 132.6C59.8 132.259 60.2792 131.996 60.8625 131.813C61.4458 131.629 62.0917 131.492 62.8 131.4C63.5083 131.309 64.1958 131.204 64.8625 131.088C65.0792 131.054 65.3292 130.996 65.6125 130.913C65.8958 130.829 66.0875 130.696 66.1875 130.513L66.2375 130.513Z"/>
<path clip-path="url(#TextBounds)" d="M78.6875 128.438L80.2625 128.438C80.2292 127.738 80.0875 127.129 79.8375 126.613C79.5875 126.096 79.25 125.663 78.825 125.313C78.4 124.963 77.9083 124.704 77.35 124.538C76.7917 124.371 76.1875 124.288 75.5375 124.288C74.9708 124.288 74.4 124.354 73.825 124.488C73.25 124.621 72.7292 124.829 72.2625 125.113C71.7958 125.396 71.4167 125.771 71.125 126.238C70.8333 126.704 70.6875 127.263 70.6875 127.913C70.6875 128.463 70.7792 128.925 70.9625 129.3C71.1458 129.675 71.4 129.992 71.725 130.25C72.05 130.509 72.4292 130.725 72.8625 130.9C73.2958 131.075 73.7708 131.229 74.2875 131.363L76.3125 131.813C76.6625 131.896 77.0083 131.996 77.35 132.113C77.6917 132.229 77.9958 132.375 78.2625 132.55C78.5292 132.725 78.7417 132.942 78.9 133.2C79.0583 133.459 79.1375 133.779 79.1375 134.163C79.1375 134.613 79.025 134.992 78.8 135.3C78.575 135.609 78.2875 135.863 77.9375 136.063C77.5875 136.263 77.2083 136.404 76.8 136.488C76.3917 136.571 75.9958 136.613 75.6125 136.613C74.5625 136.613 73.6833 136.342 72.975 135.8C72.2667 135.259 71.8792 134.454 71.8125 133.388L70.2375 133.388C70.3708 134.971 70.9083 136.121 71.85 136.838C72.7917 137.554 74.0208 137.913 75.5375 137.913C76.1375 137.913 76.7458 137.846 77.3625 137.713C77.9792 137.579 78.5333 137.359 79.025 137.05C79.5167 136.742 79.9208 136.342 80.2375 135.85C80.5542 135.359 80.7125 134.763 80.7125 134.063C80.7125 133.496 80.6042 133.004 80.3875 132.588C80.1708 132.171 79.8917 131.821 79.55 131.538C79.2083 131.254 78.8167 131.025 78.375 130.85C77.9333 130.675 77.4875 130.554 77.0375 130.488L74.9375 130.013C74.6708 129.946 74.3792 129.859 74.0625 129.75C73.7458 129.642 73.4542 129.504 73.1875 129.338C72.9208 129.171 72.7 128.967 72.525 128.725C72.35 128.484 72.2625 128.188 72.2625 127.838C72.2625 127.421 72.3542 127.071 72.5375 126.788C72.7208 126.504 72.9625 126.275 73.2625 126.1C73.5625 125.925 73.8917 125.8 74.25 125.725C74.6083 125.65 74.9625 125.613 75.3125 125.613C75.7625 125.613 76.1875 125.667 76.5875 125.775C76.9875 125.884 77.3417 126.054 77.65 126.288C77.9583 126.521 78.2042 126.817 78.3875 127.175C78.5708 127.534 78.6708 127.954 78.6875 128.438Z"/>
<path clip-path="url(#TextBounds)" d="M92.2625 130.213L83.9125 130.213C83.9792 129.629 84.1167 129.059 84.325 128.5C84.5333 127.942 84.8125 127.45 85.1625 127.025C85.5125 126.6 85.9375 126.259 86.4375 126C86.9375 125.742 87.5125 125.613 88.1625 125.613C88.7958 125.613 89.3625 125.742 89.8625 126C90.3625 126.259 90.7875 126.6 91.1375 127.025C91.4875 127.45 91.7583 127.938 91.95 128.488C92.1417 129.038 92.2458 129.613 92.2625 130.213ZM83.9125 131.538L93.8375 131.538C93.8708 130.638 93.7875 129.75 93.5875 128.875C93.3875 128 93.0583 127.225 92.6 126.55C92.1417 125.875 91.5458 125.329 90.8125 124.913C90.0792 124.496 89.1958 124.288 88.1625 124.288C87.1458 124.288 86.2667 124.484 85.525 124.875C84.7833 125.267 84.1792 125.784 83.7125 126.425C83.2458 127.067 82.9 127.796 82.675 128.613C82.45 129.429 82.3375 130.263 82.3375 131.113C82.3375 132.029 82.45 132.9 82.675 133.725C82.9 134.55 83.2458 135.275 83.7125 135.9C84.1792 136.525 84.7833 137.017 85.525 137.375C86.2667 137.734 87.1458 137.913 88.1625 137.913C89.7958 137.913 91.0583 137.513 91.95 136.713C92.8417 135.913 93.4542 134.779 93.7875 133.313L92.2125 133.313C91.9625 134.313 91.5125 135.113 90.8625 135.713C90.2125 136.313 89.3125 136.613 88.1625 136.613C87.4125 136.613 86.7708 136.454 86.2375 136.138C85.7042 135.821 85.2625 135.421 84.9125 134.938C84.5625 134.454 84.3083 133.909 84.15 133.3C83.9917 132.692 83.9125 132.104 83.9125 131.538Z"/>
<path clip-path="url(#TextBounds)" d="M95.9625 124.663L95.9625 137.563L97.5375 137.563L97.5375 130.688C97.5375 130.004 97.6542 129.375 97.8875 128.8C98.1208 128.225 98.45 127.729 98.875 127.313C99.3 126.896 99.8042 126.575 100.388 126.35C100.971 126.125 101.621 126.029 102.338 126.063L102.338 124.488C101.171 124.438 100.167 124.696 99.325 125.263C98.4833 125.829 97.8625 126.638 97.4625 127.688L97.4125 127.688L97.4125 124.663L95.9625 124.663Z"/>
<path clip-path="url(#TextBounds)" d="M41.6625 138.813L56.4875 138.813L56.4875 140.063L41.6625 140.063L41.6625 138.813Z"/>
</g>
<g opacity="1">
<mask height="144" id="StrokeMask" maskUnits="userSpaceOnUse" width="144" x="-1.42109e-14" y="0">
<rect fill="#000000" height="144" stroke="none" width="144" x="-1.42109e-14" y="0"/>
</mask>
<use fill="none" mask="url(#StrokeMask)" stroke="#00507d" stroke-linecap="butt" stroke-linejoin="round" stroke-width="2" xlink:href="#Fill"/>
</g>
<g fill="#00507d" opacity="1" stroke="none"/>
<g opacity="1">
<path d="M89.4991 65.2964C91.4567 71.415 98.0031 74.7877 104.122 72.8301C110.24 70.8728 113.613 64.3261 111.655 58.2075C109.698 52.0896 103.151 48.7162 97.0329 50.6738C90.9148 52.6312 87.5418 59.1784 89.4991 65.2964Z" fill="#ff0000" fill-rule="nonzero" opacity="1" stroke="#ff0000" stroke-linecap="butt" stroke-linejoin="miter" stroke-width="3.1"/>
<g opacity="1">
<path d="M99.9264 62.0432L76.8519 56.1203" fill="#ff0000" fill-rule="evenodd" opacity="1" stroke="#ff0000" stroke-linecap="butt" stroke-linejoin="miter" stroke-width="3.1"/>
<path d="M99.9774 62.16L7.2 62.4841" fill="#ff0000" fill-rule="evenodd" opacity="1" stroke="#ff0000" stroke-linecap="butt" stroke-linejoin="miter" stroke-width="3.1"/>
</g>
<g opacity="1">
<path d="M100.6 61.3978L105.732 38.1344" fill="#ff0000" fill-rule="evenodd" opacity="1" stroke="#ff0000" stroke-linecap="butt" stroke-linejoin="miter" stroke-width="3.1"/>
<path d="M100.485 61.4528L99.2318 25.4745" fill="#ff0000" fill-rule="evenodd" opacity="1" stroke="#ff0000" stroke-linecap="butt" stroke-linejoin="miter" stroke-width="3.1"/>
</g>
<g opacity="1">
<path d="M100.864 61.6036L116.982 44.0619" fill="#ff0000" fill-rule="evenodd" opacity="1" stroke="#ff0000" stroke-linecap="butt" stroke-linejoin="miter" stroke-width="3.1"/>
<path d="M100.737 61.5936L117.717 29.8495" fill="#ff0000" fill-rule="evenodd" opacity="1" stroke="#ff0000" stroke-linecap="butt" stroke-linejoin="miter" stroke-width="3.1"/>
</g>
<g opacity="1">
<path d="M100.989 61.921L123.817 55.1096" fill="#ff0000" fill-rule="evenodd" opacity="1" stroke="#ff0000" stroke-linecap="butt" stroke-linejoin="miter" stroke-width="3.1"/>
<path d="M100.885 61.8473L131.727 43.2794" fill="#ff0000" fill-rule="evenodd" opacity="1" stroke="#ff0000" stroke-linecap="butt" stroke-linejoin="miter" stroke-width="3.1"/>
</g>
<g opacity="1">
<path d="M100.852 62.7291L123.943 68.5869" fill="#ff0000" fill-rule="evenodd" opacity="1" stroke="#ff0000" stroke-linecap="butt" stroke-linejoin="miter" stroke-width="3.1"/>
<path d="M100.8 62.6122L136.8 62.4863" fill="#ff0000" fill-rule="evenodd" opacity="1" stroke="#ff0000" stroke-linecap="butt" stroke-linejoin="miter" stroke-width="3.1"/>
</g>
<g opacity="1">
<path d="M100.716 62.52L117.578 79.3481" fill="#ff0000" fill-rule="evenodd" opacity="1" stroke="#ff0000" stroke-linecap="butt" stroke-linejoin="miter" stroke-width="3.1"/>
<path d="M100.732 62.3933L131.748 80.6691" fill="#ff0000" fill-rule="evenodd" opacity="1" stroke="#ff0000" stroke-linecap="butt" stroke-linejoin="miter" stroke-width="3.1"/>
</g>
<g opacity="1">
<path d="M100.403 62.6318L106.621 85.6284" fill="#ff0000" fill-rule="evenodd" opacity="1" stroke="#ff0000" stroke-linecap="butt" stroke-linejoin="miter" stroke-width="3.1"/>
<path d="M100.479 62.5298L118.243 93.8418" fill="#ff0000" fill-rule="evenodd" opacity="1" stroke="#ff0000" stroke-linecap="butt" stroke-linejoin="miter" stroke-width="3.1"/>
</g>
<g opacity="1">
<path d="M100.076 62.5726L93.9733 85.6005" fill="#ff0000" fill-rule="evenodd" opacity="1" stroke="#ff0000" stroke-linecap="butt" stroke-linejoin="miter" stroke-width="3.1"/>
<path d="M100.193 62.522L99.9371 98.5214" fill="#ff0000" fill-rule="evenodd" opacity="1" stroke="#ff0000" stroke-linecap="butt" stroke-linejoin="miter" stroke-width="3.1"/>
</g>
<g opacity="1">
<path d="M99.8257 62.3625L83.2001 79.4252" fill="#ff0000" fill-rule="evenodd" opacity="1" stroke="#ff0000" stroke-linecap="butt" stroke-linejoin="miter" stroke-width="3.1"/>
<path d="M99.9523 62.3767L82.0493 93.61" fill="#ff0000" fill-rule="evenodd" opacity="1" stroke="#ff0000" stroke-linecap="butt" stroke-linejoin="miter" stroke-width="3.1"/>
</g>
<g opacity="1">
<path d="M99.7104 62.0558L76.8335 68.7031" fill="#ff0000" fill-rule="evenodd" opacity="1" stroke="#ff0000" stroke-linecap="butt" stroke-linejoin="miter" stroke-width="3.1"/>
<path d="M99.8139 62.1303L68.839 80.4762" fill="#ff0000" fill-rule="evenodd" opacity="1" stroke="#ff0000" stroke-linecap="butt" stroke-linejoin="miter" stroke-width="3.1"/>
</g>
<g opacity="1">
<path d="M99.9609 61.4783L82.3677 45.4163" fill="#ff0000" fill-rule="evenodd" opacity="1" stroke="#ff0000" stroke-linecap="butt" stroke-linejoin="miter" stroke-width="3.1"/>
<path d="M99.9512 61.6056L68.153 44.7263" fill="#ff0000" fill-rule="evenodd" opacity="1" stroke="#ff0000" stroke-linecap="butt" stroke-linejoin="miter" stroke-width="3.1"/>
</g>
<g opacity="1">
<path d="M100.259 61.3541L92.6797 38.7693" fill="#ff0000" fill-rule="evenodd" opacity="1" stroke="#ff0000" stroke-linecap="butt" stroke-linejoin="miter" stroke-width="3.1"/>
<path d="M100.188 61.4605L80.5885 31.2631" fill="#ff0000" fill-rule="evenodd" opacity="1" stroke="#ff0000" stroke-linecap="butt" stroke-linejoin="miter" stroke-width="3.1"/>
</g>
</g>
</g>
</svg>
