<?xml version="1.0" encoding="UTF-8" standalone="no"?>
<!DOCTYPE svg PUBLIC "-//W3C//DTD SVG 1.1//EN" "http://www.w3.org/Graphics/SVG/1.1/DTD/svg11.dtd">
<!-- Created with Vectornator (http://vectornator.io/) -->
<svg height="100%" stroke-miterlimit="10" style="fill-rule:nonzero;clip-rule:evenodd;stroke-linecap:round;stroke-linejoin:round;" version="1.1" viewBox="0 0 144 144" width="100%" xml:space="preserve" xmlns="http://www.w3.org/2000/svg" xmlns:xlink="http://www.w3.org/1999/xlink">
<defs>
<clipPath id="TextBounds">
<rect height="27.4373" width="144" x="0" y="114.563"/>
</clipPath>
<path d="M12.7163 0L131.284 0C138.307 0 144 5.78672 144 12.925L144 131.075C144 138.213 138.307 144 131.284 144L12.7163 144C5.69329 144-1.42109e-14 138.213-1.42109e-14 131.075L-1.42109e-14 12.925C-1.42109e-14 5.78672 5.69329 0 12.7163 0Z" id="Fill"/>
<clipPath id="TextBounds_2">
<rect height="1" width="0" x="75.7925" y="92.2805"/>
</clipPath>
</defs>
<clipPath id="ArtboardFrame">
<rect height="144" width="144" x="0" y="0"/>
</clipPath>
<g clip-path="url(#ArtboardFrame)" id="Layer-1">
<g fill="#00507d" opacity="1" stroke="none">
<path clip-path="url(#TextBounds)" d="M42.475 120.713L42.475 138.563L55.1 138.563L55.1 135.263L46.4 135.263L46.4 120.713L42.475 120.713Z"/>
<path clip-path="url(#TextBounds)" d="M68.625 138.513C68.2583 138.729 67.75 138.838 67.1 138.838C66.55 138.838 66.1125 138.684 65.7875 138.375C65.4625 138.067 65.3 137.563 65.3 136.863C64.7167 137.563 64.0375 138.067 63.2625 138.375C62.4875 138.684 61.65 138.838 60.75 138.838C60.1667 138.838 59.6125 138.771 59.0875 138.638C58.5625 138.504 58.1083 138.296 57.725 138.013C57.3417 137.729 57.0375 137.359 56.8125 136.9C56.5875 136.442 56.475 135.888 56.475 135.238C56.475 134.504 56.6 133.904 56.85 133.438C57.1 132.971 57.4292 132.592 57.8375 132.3C58.2458 132.009 58.7125 131.788 59.2375 131.638C59.7625 131.488 60.3 131.363 60.85 131.263C61.4333 131.146 61.9875 131.059 62.5125 131C63.0375 130.942 63.5 130.859 63.9 130.75C64.3 130.642 64.6167 130.484 64.85 130.275C65.0833 130.067 65.2 129.763 65.2 129.363C65.2 128.896 65.1125 128.521 64.9375 128.238C64.7625 127.954 64.5375 127.738 64.2625 127.588C63.9875 127.438 63.6792 127.338 63.3375 127.288C62.9958 127.238 62.6583 127.213 62.325 127.213C61.425 127.213 60.675 127.384 60.075 127.725C59.475 128.067 59.15 128.713 59.1 129.663L56.975 129.663C57.0083 128.863 57.175 128.188 57.475 127.638C57.775 127.088 58.175 126.642 58.675 126.3C59.175 125.959 59.7458 125.713 60.3875 125.563C61.0292 125.413 61.7167 125.338 62.45 125.338C63.0333 125.338 63.6125 125.379 64.1875 125.463C64.7625 125.546 65.2833 125.717 65.75 125.975C66.2167 126.234 66.5917 126.596 66.875 127.063C67.1583 127.529 67.3 128.138 67.3 128.888L67.3 135.538C67.3 136.038 67.3292 136.404 67.3875 136.638C67.4458 136.871 67.6417 136.988 67.975 136.988C68.1583 136.988 68.375 136.946 68.625 136.863L68.625 138.513ZM65.175 131.888C64.9083 132.088 64.5583 132.234 64.125 132.325C63.6917 132.417 63.2375 132.492 62.7625 132.55C62.2875 132.609 61.8083 132.675 61.325 132.75C60.8417 132.825 60.4083 132.946 60.025 133.113C59.6417 133.279 59.3292 133.517 59.0875 133.825C58.8458 134.134 58.725 134.554 58.725 135.088C58.725 135.438 58.7958 135.734 58.9375 135.975C59.0792 136.217 59.2625 136.413 59.4875 136.563C59.7125 136.713 59.975 136.821 60.275 136.888C60.575 136.954 60.8917 136.988 61.225 136.988C61.925 136.988 62.525 136.892 63.025 136.7C63.525 136.509 63.9333 136.267 64.25 135.975C64.5667 135.684 64.8 135.367 64.95 135.025C65.1 134.684 65.175 134.363 65.175 134.063L65.175 131.888Z"/>
<path clip-path="url(#TextBounds)" d="M71.9 134.488L69.775 134.488C69.8083 135.288 69.975 135.967 70.275 136.525C70.575 137.084 70.975 137.534 71.475 137.875C71.975 138.217 72.55 138.463 73.2 138.613C73.85 138.763 74.5333 138.838 75.25 138.838C75.9 138.838 76.5542 138.775 77.2125 138.65C77.8708 138.525 78.4625 138.304 78.9875 137.988C79.5125 137.671 79.9375 137.254 80.2625 136.738C80.5875 136.221 80.75 135.571 80.75 134.788C80.75 134.171 80.6292 133.654 80.3875 133.238C80.1458 132.821 79.8292 132.475 79.4375 132.2C79.0458 131.925 78.5958 131.704 78.0875 131.538C77.5792 131.371 77.0583 131.229 76.525 131.113C76.025 130.996 75.525 130.884 75.025 130.775C74.525 130.667 74.075 130.534 73.675 130.375C73.275 130.217 72.9458 130.017 72.6875 129.775C72.4292 129.534 72.3 129.229 72.3 128.863C72.3 128.529 72.3833 128.259 72.55 128.05C72.7167 127.842 72.9333 127.675 73.2 127.55C73.4667 127.425 73.7625 127.338 74.0875 127.288C74.4125 127.238 74.7333 127.213 75.05 127.213C75.4 127.213 75.7458 127.25 76.0875 127.325C76.4292 127.4 76.7417 127.521 77.025 127.688C77.3083 127.854 77.5417 128.075 77.725 128.35C77.9083 128.625 78.0167 128.971 78.05 129.388L80.175 129.388C80.125 128.604 79.9583 127.95 79.675 127.425C79.3917 126.9 79.0125 126.484 78.5375 126.175C78.0625 125.867 77.5167 125.65 76.9 125.525C76.2833 125.4 75.6083 125.338 74.875 125.338C74.3083 125.338 73.7375 125.409 73.1625 125.55C72.5875 125.692 72.0708 125.909 71.6125 126.2C71.1542 126.492 70.7792 126.871 70.4875 127.338C70.1958 127.804 70.05 128.363 70.05 129.013C70.05 129.846 70.2583 130.496 70.675 130.963C71.0917 131.429 71.6125 131.792 72.2375 132.05C72.8625 132.309 73.5417 132.509 74.275 132.65C75.0083 132.792 75.6875 132.95 76.3125 133.125C76.9375 133.3 77.4583 133.529 77.875 133.813C78.2917 134.096 78.5 134.513 78.5 135.063C78.5 135.463 78.4 135.792 78.2 136.05C78 136.309 77.7458 136.504 77.4375 136.638C77.1292 136.771 76.7917 136.863 76.425 136.913C76.0583 136.963 75.7083 136.988 75.375 136.988C74.9417 136.988 74.5208 136.946 74.1125 136.863C73.7042 136.779 73.3375 136.642 73.0125 136.45C72.6875 136.259 72.425 136 72.225 135.675C72.025 135.35 71.9167 134.954 71.9 134.488Z"/>
<path clip-path="url(#TextBounds)" d="M92.075 130.863L84.65 130.863C84.6833 130.363 84.7917 129.892 84.975 129.45C85.1583 129.009 85.4083 128.621 85.725 128.288C86.0417 127.954 86.4208 127.692 86.8625 127.5C87.3042 127.309 87.8 127.213 88.35 127.213C88.8833 127.213 89.3708 127.309 89.8125 127.5C90.2542 127.692 90.6375 127.95 90.9625 128.275C91.2875 128.6 91.5458 128.988 91.7375 129.438C91.9292 129.888 92.0417 130.363 92.075 130.863ZM94.125 134.463L92.025 134.463C91.8417 135.313 91.4625 135.946 90.8875 136.363C90.3125 136.779 89.575 136.988 88.675 136.988C87.975 136.988 87.3667 136.871 86.85 136.638C86.3333 136.404 85.9083 136.092 85.575 135.7C85.2417 135.309 85 134.859 84.85 134.35C84.7 133.842 84.6333 133.304 84.65 132.738L94.325 132.738C94.3583 131.954 94.2875 131.129 94.1125 130.263C93.9375 129.396 93.6208 128.596 93.1625 127.863C92.7042 127.129 92.0958 126.525 91.3375 126.05C90.5792 125.575 89.625 125.338 88.475 125.338C87.5917 125.338 86.7792 125.504 86.0375 125.838C85.2958 126.171 84.6542 126.638 84.1125 127.238C83.5708 127.838 83.15 128.546 82.85 129.363C82.55 130.179 82.4 131.079 82.4 132.063C82.4333 133.046 82.5792 133.954 82.8375 134.788C83.0958 135.621 83.4833 136.338 84 136.938C84.5167 137.538 85.1542 138.004 85.9125 138.338C86.6708 138.671 87.5667 138.838 88.6 138.838C90.0667 138.838 91.2833 138.471 92.25 137.738C93.2167 137.004 93.8417 135.913 94.125 134.463Z"/>
<path clip-path="url(#TextBounds)" d="M96.45 125.638L96.45 138.563L98.575 138.563L98.575 132.813C98.575 131.979 98.6583 131.242 98.825 130.6C98.9917 129.959 99.2583 129.413 99.625 128.963C99.9917 128.513 100.475 128.171 101.075 127.938C101.675 127.704 102.4 127.588 103.25 127.588L103.25 125.338C102.1 125.304 101.15 125.538 100.4 126.038C99.65 126.538 99.0167 127.313 98.5 128.363L98.45 128.363L98.45 125.638L96.45 125.638Z"/>
<path clip-path="url(#TextBounds)" d="M40.75 139.813L55.575 139.813L55.575 141.063L40.75 141.063L40.75 139.813Z"/>
</g>
<g opacity="1">
<mask height="144" id="StrokeMask" maskUnits="userSpaceOnUse" width="144" x="-1.42109e-14" y="0">
<rect fill="#000000" height="144" stroke="none" width="144" x="-1.42109e-14" y="0"/>
<use fill="#ffffff" fill-rule="evenodd" stroke="none" xlink:href="#Fill"/>
</mask>
<use fill="none" mask="url(#StrokeMask)" stroke="#00507d" stroke-linecap="butt" stroke-linejoin="round" stroke-width="2" xlink:href="#Fill"/>
</g>
<g fill="#00507d" opacity="1" stroke="none"/>
<g opacity="1">
<path d="M89.4991 65.2964C91.4567 71.415 98.0031 74.7877 104.122 72.8301C110.24 70.8728 113.613 64.3261 111.655 58.2075C109.698 52.0896 103.151 48.7162 97.0329 50.6738C90.9148 52.6312 87.5418 59.1784 89.4991 65.2964Z" fill="#ff0000" fill-rule="nonzero" opacity="1" stroke="#ff0000" stroke-linecap="butt" stroke-linejoin="miter" stroke-width="3.1"/>
<g opacity="1">
<path d="M99.9264 62.0432L76.8519 56.1203" fill="#ff0000" fill-rule="evenodd" opacity="1" stroke="#ff0000" stroke-linecap="butt" stroke-linejoin="miter" stroke-width="3.1"/>
<path d="M99.9774 62.16L7.2 62.4841" fill="#ff0000" fill-rule="evenodd" opacity="1" stroke="#ff0000" stroke-linecap="butt" stroke-linejoin="miter" stroke-width="3.1"/>
</g>
<g opacity="1">
<path d="M100.6 61.3978L105.732 38.1344" fill="#ff0000" fill-rule="evenodd" opacity="1" stroke="#ff0000" stroke-linecap="butt" stroke-linejoin="miter" stroke-width="3.1"/>
<path d="M100.485 61.4528L99.2318 25.4745" fill="#ff0000" fill-rule="evenodd" opacity="1" stroke="#ff0000" stroke-linecap="butt" stroke-linejoin="miter" stroke-width="3.1"/>
</g>
<g opacity="1">
<path d="M100.864 61.6036L116.982 44.0619" fill="#ff0000" fill-rule="evenodd" opacity="1" stroke="#ff0000" stroke-linecap="butt" stroke-linejoin="miter" stroke-width="3.1"/>
<path d="M100.737 61.5936L117.717 29.8495" fill="#ff0000" fill-rule="evenodd" opacity="1" stroke="#ff0000" stroke-linecap="butt" stroke-linejoin="miter" stroke-width="3.1"/>
</g>
<g opacity="1">
<path d="M100.989 61.921L123.817 55.1096" fill="#ff0000" fill-rule="evenodd" opacity="1" stroke="#ff0000" stroke-linecap="butt" stroke-linejoin="miter" stroke-width="3.1"/>
<path d="M100.885 61.8473L131.727 43.2794" fill="#ff0000" fill-rule="evenodd" opacity="1" stroke="#ff0000" stroke-linecap="butt" stroke-linejoin="miter" stroke-width="3.1"/>
</g>
<g opacity="1">
<path d="M100.852 62.7291L123.943 68.5869" fill="#ff0000" fill-rule="evenodd" opacity="1" stroke="#ff0000" stroke-linecap="butt" stroke-linejoin="miter" stroke-width="3.1"/>
<path d="M100.8 62.6122L136.8 62.4863" fill="#ff0000" fill-rule="evenodd" opacity="1" stroke="#ff0000" stroke-linecap="butt" stroke-linejoin="miter" stroke-width="3.1"/>
</g>
<g opacity="1">
<path d="M100.716 62.52L117.578 79.3481" fill="#ff0000" fill-rule="evenodd" opacity="1" stroke="#ff0000" stroke-linecap="butt" stroke-linejoin="miter" stroke-width="3.1"/>
<path d="M100.732 62.3933L131.748 80.6691" fill="#ff0000" fill-rule="evenodd" opacity="1" stroke="#ff0000" stroke-linecap="butt" stroke-linejoin="miter" stroke-width="3.1"/>
</g>
<g opacity="1">
<path d="M100.403 62.6318L106.621 85.6284" fill="#ff0000" fill-rule="evenodd" opacity="1" stroke="#ff0000" stroke-linecap="butt" stroke-linejoin="miter" stroke-width="3.1"/>
<path d="M100.479 62.5298L118.243 93.8418" fill="#ff0000" fill-rule="evenodd" opacity="1" stroke="#ff0000" stroke-linecap="butt" stroke-linejoin="miter" stroke-width="3.1"/>
</g>
<g opacity="1">
<path d="M100.076 62.5726L93.9733 85.6005" fill="#ff0000" fill-rule="evenodd" opacity="1" stroke="#ff0000" stroke-linecap="butt" stroke-linejoin="miter" stroke-width="3.1"/>
<path d="M100.193 62.522L99.9371 98.5214" fill="#ff0000" fill-rule="evenodd" opacity="1" stroke="#ff0000" stroke-linecap="butt" stroke-linejoin="miter" stroke-width="3.1"/>
</g>
<g opacity="1">
<path d="M99.8257 62.3625L83.2001 79.4252" fill="#ff0000" fill-rule="evenodd" opacity="1" stroke="#ff0000" stroke-linecap="butt" stroke-linejoin="miter" stroke-width="3.1"/>
<path d="M99.9523 62.3767L82.0493 93.61" fill="#ff0000" fill-rule="evenodd" opacity="1" stroke="#ff0000" stroke-linecap="butt" stroke-linejoin="miter" stroke-width="3.1"/>
</g>
<g opacity="1">
<path d="M99.7104 62.0558L76.8335 68.7031" fill="#ff0000" fill-rule="evenodd" opacity="1" stroke="#ff0000" stroke-linecap="butt" stroke-linejoin="miter" stroke-width="3.1"/>
<path d="M99.8139 62.1303L68.839 80.4762" fill="#ff0000" fill-rule="evenodd" opacity="1" stroke="#ff0000" stroke-linecap="butt" stroke-linejoin="miter" stroke-width="3.1"/>
</g>
<g opacity="1">
<path d="M99.9609 61.4783L82.3677 45.4163" fill="#ff0000" fill-rule="evenodd" opacity="1" stroke="#ff0000" stroke-linecap="butt" stroke-linejoin="miter" stroke-width="3.1"/>
<path d="M99.9512 61.6056L68.153 44.7263" fill="#ff0000" fill-rule="evenodd" opacity="1" stroke="#ff0000" stroke-linecap="butt" stroke-linejoin="miter" stroke-width="3.1"/>
</g>
<g opacity="1">
<path d="M100.259 61.3541L92.6797 38.7693" fill="#ff0000" fill-rule="evenodd" opacity="1" stroke="#ff0000" stroke-linecap="butt" stroke-linejoin="miter" stroke-width="3.1"/>
<path d="M100.188 61.4605L80.5885 31.2631" fill="#ff0000" fill-rule="evenodd" opacity="1" stroke="#ff0000" stroke-linecap="butt" stroke-linejoin="miter" stroke-width="3.1"/>
</g>
</g>
</g>
</svg>
