<?xml version="1.0" encoding="UTF-8" standalone="no"?>
<!DOCTYPE svg PUBLIC "-//W3C//DTD SVG 1.1//EN" "http://www.w3.org/Graphics/SVG/1.1/DTD/svg11.dtd">
<!-- Created with Vectornator (http://vectornator.io/) -->
<svg height="100%" stroke-miterlimit="10" style="fill-rule:nonzero;clip-rule:evenodd;stroke-linecap:round;stroke-linejoin:round;" version="1.1" viewBox="0 0 144 144" width="100%" xml:space="preserve" xmlns="http://www.w3.org/2000/svg" xmlns:xlink="http://www.w3.org/1999/xlink">
<defs>
<clipPath id="TextBounds">
<rect height="29.4373" width="144" x="0" y="114.563"/>
</clipPath>
<path d="M12.7163 0L131.284 0C138.307 0 144 5.78672 144 12.925L144 131.075C144 138.213 138.307 144 131.284 144L12.7163 144C5.69329 144-1.42109e-14 138.213-1.42109e-14 131.075L-1.42109e-14 12.925C-1.42109e-14 5.78672 5.69329 0 12.7163 0Z" id="Fill"/>
<clipPath id="TextBounds_2">
<rect height="1" width="0" x="75.7925" y="92.2805"/>
</clipPath>
</defs>
<clipPath id="ArtboardFrame">
<rect height="144" width="144" x="0" y="0"/>
</clipPath>
<g clip-path="url(#ArtboardFrame)" id="Layer-1">
<g fill="#00507d" opacity="1" stroke="none">
<path clip-path="url(#TextBounds)" d="M26.25 120.713L26.25 138.563L29.925 138.563L29.925 126.038L29.975 126.038L34.35 138.563L37.375 138.563L41.75 125.913L41.8 125.913L41.8 138.563L45.475 138.563L45.475 120.713L39.95 120.713L36 132.988L35.95 132.988L31.775 120.713L26.25 120.713Z"/>
<path clip-path="url(#TextBounds)" d="M57.575 130.963C57.5417 130.513 57.4458 130.079 57.2875 129.663C57.1292 129.246 56.9125 128.884 56.6375 128.575C56.3625 128.267 56.0292 128.017 55.6375 127.825C55.2458 127.634 54.8083 127.538 54.325 127.538C53.825 127.538 53.3708 127.625 52.9625 127.8C52.5542 127.975 52.2042 128.217 51.9125 128.525C51.6208 128.834 51.3875 129.196 51.2125 129.613C51.0375 130.029 50.9417 130.479 50.925 130.963L57.575 130.963ZM50.925 132.838C50.925 133.338 50.9958 133.821 51.1375 134.288C51.2792 134.754 51.4917 135.163 51.775 135.513C52.0583 135.863 52.4167 136.142 52.85 136.35C53.2833 136.559 53.8 136.663 54.4 136.663C55.2333 136.663 55.9042 136.484 56.4125 136.125C56.9208 135.767 57.3 135.229 57.55 134.513L60.25 134.513C60.1 135.213 59.8417 135.838 59.475 136.388C59.1083 136.938 58.6667 137.4 58.15 137.775C57.6333 138.15 57.0542 138.434 56.4125 138.625C55.7708 138.817 55.1 138.913 54.4 138.913C53.3833 138.913 52.4833 138.746 51.7 138.413C50.9167 138.079 50.2542 137.613 49.7125 137.013C49.1708 136.413 48.7625 135.696 48.4875 134.863C48.2125 134.029 48.075 133.113 48.075 132.113C48.075 131.196 48.2208 130.325 48.5125 129.5C48.8042 128.675 49.2208 127.95 49.7625 127.325C50.3042 126.7 50.9583 126.204 51.725 125.838C52.4917 125.471 53.3583 125.288 54.325 125.288C55.3417 125.288 56.2542 125.5 57.0625 125.925C57.8708 126.35 58.5417 126.913 59.075 127.613C59.6083 128.313 59.9958 129.117 60.2375 130.025C60.4792 130.934 60.5417 131.871 60.425 132.838L50.925 132.838Z"/>
<path clip-path="url(#TextBounds)" d="M62.6 125.638L65.275 125.638L65.275 128.138L65.325 128.138C65.4083 127.788 65.5708 127.446 65.8125 127.113C66.0542 126.779 66.3458 126.475 66.6875 126.2C67.0292 125.925 67.4083 125.704 67.825 125.538C68.2417 125.371 68.6667 125.288 69.1 125.288C69.4333 125.288 69.6625 125.296 69.7875 125.313C69.9125 125.329 70.0417 125.346 70.175 125.363L70.175 128.113C69.975 128.079 69.7708 128.05 69.5625 128.025C69.3542 128 69.15 127.988 68.95 127.988C68.4667 127.988 68.0125 128.084 67.5875 128.275C67.1625 128.467 66.7917 128.75 66.475 129.125C66.1583 129.5 65.9083 129.963 65.725 130.513C65.5417 131.063 65.45 131.696 65.45 132.413L65.45 138.563L62.6 138.563L62.6 125.638Z"/>
<path clip-path="url(#TextBounds)" d="M79.675 129.963C79.5583 129.163 79.2375 128.559 78.7125 128.15C78.1875 127.742 77.525 127.538 76.725 127.538C76.3583 127.538 75.9667 127.6 75.55 127.725C75.1333 127.85 74.75 128.084 74.4 128.425C74.05 128.767 73.7583 129.242 73.525 129.85C73.2917 130.459 73.175 131.254 73.175 132.238C73.175 132.771 73.2375 133.304 73.3625 133.838C73.4875 134.371 73.6875 134.846 73.9625 135.263C74.2375 135.679 74.5917 136.017 75.025 136.275C75.4583 136.534 75.9833 136.663 76.6 136.663C77.4333 136.663 78.1208 136.404 78.6625 135.888C79.2042 135.371 79.5417 134.646 79.675 133.713L82.525 133.713C82.2583 135.396 81.6208 136.684 80.6125 137.575C79.6042 138.467 78.2667 138.913 76.6 138.913C75.5833 138.913 74.6875 138.742 73.9125 138.4C73.1375 138.059 72.4833 137.592 71.95 137C71.4167 136.409 71.0125 135.704 70.7375 134.888C70.4625 134.071 70.325 133.188 70.325 132.238C70.325 131.271 70.4583 130.363 70.725 129.513C70.9917 128.663 71.3917 127.925 71.925 127.3C72.4583 126.675 73.1208 126.184 73.9125 125.825C74.7042 125.467 75.6333 125.288 76.7 125.288C77.45 125.288 78.1625 125.384 78.8375 125.575C79.5125 125.767 80.1125 126.054 80.6375 126.438C81.1625 126.821 81.5917 127.304 81.925 127.888C82.2583 128.471 82.4583 129.163 82.525 129.963L79.675 129.963Z"/>
<path clip-path="url(#TextBounds)" d="M96.2 138.563L93.4 138.563L93.4 136.763L93.35 136.763C93 137.413 92.4792 137.934 91.7875 138.325C91.0958 138.717 90.3917 138.913 89.675 138.913C87.975 138.913 86.7458 138.492 85.9875 137.65C85.2292 136.809 84.85 135.538 84.85 133.838L84.85 125.638L87.7 125.638L87.7 133.563C87.7 134.696 87.9167 135.496 88.35 135.963C88.7833 136.429 89.3917 136.663 90.175 136.663C90.775 136.663 91.275 136.571 91.675 136.388C92.075 136.204 92.4 135.959 92.65 135.65C92.9 135.342 93.0792 134.971 93.1875 134.538C93.2958 134.104 93.35 133.638 93.35 133.138L93.35 125.638L96.2 125.638L96.2 138.563Z"/>
<path clip-path="url(#TextBounds)" d="M99.2 125.638L101.875 125.638L101.875 128.138L101.925 128.138C102.008 127.788 102.171 127.446 102.413 127.113C102.654 126.779 102.946 126.475 103.288 126.2C103.629 125.925 104.008 125.704 104.425 125.538C104.842 125.371 105.267 125.288 105.7 125.288C106.033 125.288 106.262 125.296 106.388 125.313C106.513 125.329 106.642 125.346 106.775 125.363L106.775 128.113C106.575 128.079 106.371 128.05 106.163 128.025C105.954 128 105.75 127.988 105.55 127.988C105.067 127.988 104.613 128.084 104.188 128.275C103.762 128.467 103.392 128.75 103.075 129.125C102.758 129.5 102.508 129.963 102.325 130.513C102.142 131.063 102.05 131.696 102.05 132.413L102.05 138.563L99.2 138.563L99.2 125.638Z"/>
<path clip-path="url(#TextBounds)" d="M106.575 125.638L109.7 125.638L113.075 135.288L113.125 135.288L116.4 125.638L119.375 125.638L114.35 139.263C114.117 139.846 113.888 140.404 113.663 140.938C113.437 141.471 113.163 141.942 112.838 142.35C112.512 142.759 112.108 143.084 111.625 143.325C111.142 143.567 110.525 143.688 109.775 143.688C109.108 143.688 108.45 143.638 107.8 143.538L107.8 141.138C108.033 141.171 108.258 141.209 108.475 141.25C108.692 141.292 108.917 141.313 109.15 141.313C109.483 141.313 109.758 141.271 109.975 141.188C110.192 141.104 110.371 140.984 110.513 140.825C110.654 140.667 110.775 140.479 110.875 140.263C110.975 140.046 111.067 139.796 111.15 139.513L111.475 138.513L106.575 125.638Z"/>
<path clip-path="url(#TextBounds)" d="M24.525 139.813L47.2 139.813L47.2 141.063L24.525 141.063L24.525 139.813Z"/>
</g>
<g opacity="1">
<mask height="144" id="StrokeMask" maskUnits="userSpaceOnUse" width="144" x="-1.42109e-14" y="0">
<rect fill="#000000" height="144" stroke="none" width="144" x="-1.42109e-14" y="0"/>
<use fill="#ffffff" fill-rule="evenodd" stroke="none" xlink:href="#Fill"/>
</mask>
<use fill="none" mask="url(#StrokeMask)" stroke="none" stroke-linecap="butt" stroke-linejoin="round" stroke-width="2" xlink:href="#Fill"/>
</g>
<g fill="#00507d" opacity="1" stroke="none"/>
<g opacity="1">
<path d="M74.2097 87.8512C72.0412 87.2046 68.8861 89.9207 67.5637 87.4551C66.8783 86.1765 67.0911 84.1287 67.3266 79.7485C65.6735 78.7647 61.3043 79.9935 58.2708 78.7407C56.5951 78.0474 56.1935 77.3497 54.1682 74.9136C50.6503 74.8721 46.2622 74.1398 44.1941 71.8709C41.9211 69.3786 41.9883 66.9383 39.1368 66.4175C32.5148 65.2074 30.0533 59.9305 29.5431 58.8048C28.5606 56.6308 26.8352 55.6229 23.2624 53.9445C20.6162 52.7009 18.7273 50.3515 18.106 47.2862C15.9094 45.8068 6.14023 39.9973 7.29439 32.4196C23.1716 42.0041 31.3541 45.4268 39.0861 48.3958C52.4439 53.5268 72.5593 56.3337 77.4707 59.438C86.012 64.8367 78.7314 70.9073 78.7595 77.5307C78.7742 81.0109 84.4795 89.6181 80.1933 92.9956C78.0193 94.709 75.2004 88.147 74.2097 87.8512Z" fill="#800000" fill-rule="nonzero" opacity="1" stroke="none"/>
<path d="M74.2097 87.8512C72.0412 87.2046 68.8861 89.9207 67.5637 87.4551C66.8783 86.1765 67.0911 84.1287 67.3266 79.7485C65.6735 78.7647 61.3043 79.9935 58.2708 78.7407C56.5951 78.0474 56.1935 77.3497 54.1682 74.9136C50.6503 74.8721 46.2622 74.1398 44.1941 71.8709C41.9211 69.3786 41.9883 66.9383 39.1368 66.4175C32.5148 65.2074 30.0533 59.9305 29.5431 58.8048C28.5606 56.6308 26.8352 55.6229 23.2624 53.9445C20.6162 52.7009 18.7273 50.3515 18.106 47.2862C15.9094 45.8068 6.14023 39.9973 7.29439 32.4196C23.1716 42.0041 31.3541 45.4268 39.0861 48.3958C52.4439 53.5268 72.5593 56.3337 77.4707 59.438C86.012 64.8367 78.7314 70.9073 78.7595 77.5307C78.7742 81.0109 84.4795 89.6181 80.1933 92.9956C78.0193 94.709 75.2004 88.147 74.2097 87.8512Z" fill="none" opacity="1" stroke="#800000" stroke-linecap="butt" stroke-linejoin="miter" stroke-width="0.8"/>
<path d="M111.167 71.3661L106.576 75.4783C102.315 71.6098 98.3808 73.6672 96.8429 75.5469C95.3063 77.4248 94.9862 81.1288 96.911 83.36C98.8373 85.5902 102.687 86.7468 106.678 83.2905L110.927 87.7453C105.22 92.3397 99.5079 92.1481 95.1294 89.6997C90.752 87.2502 89.2785 83.6547 89.3278 79.1529C89.3775 74.6511 91.704 70.7185 95.7466 68.6247C99.7903 66.5299 105.894 66.4723 111.167 71.3661Z" fill="#800000" fill-rule="nonzero" opacity="1" stroke="none"/>
<path d="M111.167 71.3661L106.576 75.4783C102.315 71.6098 98.3808 73.6672 96.8429 75.5469C95.3063 77.4248 94.9862 81.1288 96.911 83.36C98.8373 85.5902 102.687 86.7468 106.678 83.2905L110.927 87.7453C105.22 92.3397 99.5079 92.1481 95.1294 89.6997C90.752 87.2502 89.2785 83.6547 89.3278 79.1529C89.3775 74.6511 91.704 70.7185 95.7466 68.6247C99.7903 66.5299 105.894 66.4723 111.167 71.3661Z" fill="none" opacity="1" stroke="#800000" stroke-linecap="butt" stroke-linejoin="miter" stroke-width="0.8"/>
<path d="M136.8 71.3661L132.207 75.4783C127.948 71.6098 124.014 73.6672 122.476 75.5469C120.939 77.4248 120.619 81.1288 122.544 83.36C124.47 85.5902 128.32 86.7468 132.311 83.2905L136.56 87.7453C130.853 92.3397 125.141 92.1481 120.762 89.6997C116.385 87.2502 114.911 83.6547 114.961 79.1529C115.011 74.6511 117.336 70.7185 121.379 68.6247C125.422 66.5299 131.527 66.4723 136.8 71.3661Z" fill="#800000" fill-rule="nonzero" opacity="1" stroke="none"/>
<path d="M136.8 71.3661L132.207 75.4783C127.948 71.6098 124.014 73.6672 122.476 75.5469C120.939 77.4248 120.619 81.1288 122.544 83.36C124.47 85.5902 128.32 86.7468 132.311 83.2905L136.56 87.7453C130.853 92.3397 125.141 92.1481 120.762 89.6997C116.385 87.2502 114.911 83.6547 114.961 79.1529C115.011 74.6511 117.336 70.7185 121.379 68.6247C125.422 66.5299 131.527 66.4723 136.8 71.3661Z" fill="none" opacity="1" stroke="#800000" stroke-linecap="butt" stroke-linejoin="miter" stroke-width="0.8"/>
</g>
</g>
</svg>
