<?xml version="1.0" encoding="UTF-8" standalone="no"?>
<!DOCTYPE svg PUBLIC "-//W3C//DTD SVG 1.1//EN" "http://www.w3.org/Graphics/SVG/1.1/DTD/svg11.dtd">
<!-- Created with Vectornator (http://vectornator.io/) -->
<svg stroke-miterlimit="10" style="fill-rule:nonzero;clip-rule:evenodd;stroke-linecap:round;stroke-linejoin:round;" version="1.1" viewBox="0 0 144 144" xml:space="preserve" xmlns="http://www.w3.org/2000/svg" xmlns:xlink="http://www.w3.org/1999/xlink">
<defs>
<clipPath id="TextBounds">
<rect height="29.4373" width="144" x="0" y="113.563"/>
</clipPath>
<path d="M12.7163 0L131.284 0C138.307 0 144 5.78672 144 12.925L144 131.075C144 138.213 138.307 144 131.284 144L12.7163 144C5.69329 144-1.42109e-14 138.213-1.42109e-14 131.075L-1.42109e-14 12.925C-1.42109e-14 5.78672 5.69329 0 12.7163 0Z" id="Fill"/>
<clipPath id="TextBounds_2">
<rect height="1" width="0" x="75.7925" y="92.2805"/>
</clipPath>
<clipPath id="TextBounds_3">
<rect height="30.2042" width="104.435" x="39.5649" y="13.7161"/>
</clipPath>
</defs>
<clipPath id="ArtboardFrame">
<rect height="144" width="144" x="0" y="0"/>
</clipPath>
<g clip-path="url(#ArtboardFrame)" id="Layer-1">
<g fill="#00507d" opacity="1" stroke="none">
<path clip-path="url(#TextBounds)" d="M17.5375 125.713L21.3375 125.713C21.2208 124.679 20.9375 123.763 20.4875 122.963C20.0375 122.163 19.4667 121.492 18.775 120.95C18.0833 120.409 17.3 119.996 16.425 119.713C15.55 119.429 14.6208 119.288 13.6375 119.288C12.2708 119.288 11.0417 119.529 9.95 120.013C8.85833 120.496 7.9375 121.163 7.1875 122.013C6.4375 122.863 5.8625 123.859 5.4625 125C5.0625 126.142 4.8625 127.379 4.8625 128.713C4.8625 130.013 5.0625 131.225 5.4625 132.35C5.8625 133.475 6.4375 134.454 7.1875 135.288C7.9375 136.121 8.85833 136.775 9.95 137.25C11.0417 137.725 12.2708 137.963 13.6375 137.963C14.7375 137.963 15.7458 137.796 16.6625 137.463C17.5792 137.129 18.3792 136.646 19.0625 136.013C19.7458 135.379 20.2958 134.613 20.7125 133.713C21.1292 132.813 21.3875 131.804 21.4875 130.688L17.6875 130.688C17.5375 131.888 17.125 132.854 16.45 133.588C15.775 134.321 14.8375 134.688 13.6375 134.688C12.7542 134.688 12.0042 134.517 11.3875 134.175C10.7708 133.834 10.2708 133.379 9.8875 132.813C9.50417 132.246 9.225 131.609 9.05 130.9C8.875 130.192 8.7875 129.463 8.7875 128.713C8.7875 127.929 8.875 127.171 9.05 126.438C9.225 125.704 9.50417 125.05 9.8875 124.475C10.2708 123.9 10.7708 123.442 11.3875 123.1C12.0042 122.759 12.7542 122.588 13.6375 122.588C14.1208 122.588 14.5833 122.667 15.025 122.825C15.4667 122.984 15.8625 123.204 16.2125 123.488C16.5625 123.771 16.8542 124.1 17.0875 124.475C17.3208 124.85 17.4708 125.263 17.5375 125.713Z"/>
<path clip-path="url(#TextBounds)" d="M33.2125 130.213L24.8625 130.213C24.9292 129.629 25.0667 129.059 25.275 128.5C25.4833 127.942 25.7625 127.45 26.1125 127.025C26.4625 126.6 26.8875 126.259 27.3875 126C27.8875 125.742 28.4625 125.613 29.1125 125.613C29.7458 125.613 30.3125 125.742 30.8125 126C31.3125 126.259 31.7375 126.6 32.0875 127.025C32.4375 127.45 32.7083 127.938 32.9 128.488C33.0917 129.038 33.1958 129.613 33.2125 130.213ZM24.8625 131.538L34.7875 131.538C34.8208 130.638 34.7375 129.75 34.5375 128.875C34.3375 128 34.0083 127.225 33.55 126.55C33.0917 125.875 32.4958 125.329 31.7625 124.913C31.0292 124.496 30.1458 124.288 29.1125 124.288C28.0958 124.288 27.2167 124.484 26.475 124.875C25.7333 125.267 25.1292 125.784 24.6625 126.425C24.1958 127.067 23.85 127.796 23.625 128.613C23.4 129.429 23.2875 130.263 23.2875 131.113C23.2875 132.029 23.4 132.9 23.625 133.725C23.85 134.55 24.1958 135.275 24.6625 135.9C25.1292 136.525 25.7333 137.017 26.475 137.375C27.2167 137.734 28.0958 137.913 29.1125 137.913C30.7458 137.913 32.0083 137.513 32.9 136.713C33.7917 135.913 34.4042 134.779 34.7375 133.313L33.1625 133.313C32.9125 134.313 32.4625 135.113 31.8125 135.713C31.1625 136.313 30.2625 136.613 29.1125 136.613C28.3625 136.613 27.7208 136.454 27.1875 136.138C26.6542 135.821 26.2125 135.421 25.8625 134.938C25.5125 134.454 25.2583 133.909 25.1 133.3C24.9417 132.692 24.8625 132.104 24.8625 131.538Z"/>
<path clip-path="url(#TextBounds)" d="M36.8875 124.663L36.8875 137.563L38.4625 137.563L38.4625 130.038C38.4792 129.404 38.5833 128.817 38.775 128.275C38.9667 127.734 39.2333 127.267 39.575 126.875C39.9167 126.484 40.3333 126.175 40.825 125.95C41.3167 125.725 41.8792 125.613 42.5125 125.613C43.1458 125.613 43.675 125.713 44.1 125.913C44.525 126.113 44.8625 126.388 45.1125 126.738C45.3625 127.088 45.5375 127.5 45.6375 127.975C45.7375 128.45 45.7875 128.963 45.7875 129.513L45.7875 137.563L47.3625 137.563L47.3625 129.263C47.3625 128.496 47.2875 127.804 47.1375 127.188C46.9875 126.571 46.7292 126.05 46.3625 125.625C45.9958 125.2 45.5083 124.871 44.9 124.638C44.2917 124.404 43.5375 124.288 42.6375 124.288C41.7208 124.288 40.8792 124.525 40.1125 125C39.3458 125.475 38.8125 126.104 38.5125 126.888L38.4625 126.888L38.4625 124.663L36.8875 124.663Z"/>
<path clip-path="url(#TextBounds)" d="M52.8375 124.663L52.8375 120.788L51.2625 120.788L51.2625 124.663L49.0125 124.663L49.0125 125.988L51.2625 125.988L51.2625 134.813C51.2458 135.913 51.4458 136.667 51.8625 137.075C52.2792 137.484 53.0125 137.688 54.0625 137.688C54.2958 137.688 54.5292 137.679 54.7625 137.663C54.9958 137.646 55.2292 137.638 55.4625 137.638L55.4625 136.313C55.0125 136.363 54.5625 136.388 54.1125 136.388C53.5458 136.354 53.1917 136.192 53.05 135.9C52.9083 135.609 52.8375 135.204 52.8375 134.688L52.8375 125.988L55.4625 125.988L55.4625 124.663L52.8375 124.663Z"/>
<path clip-path="url(#TextBounds)" d="M67.0125 130.213L58.6625 130.213C58.7292 129.629 58.8667 129.059 59.075 128.5C59.2833 127.942 59.5625 127.45 59.9125 127.025C60.2625 126.6 60.6875 126.259 61.1875 126C61.6875 125.742 62.2625 125.613 62.9125 125.613C63.5458 125.613 64.1125 125.742 64.6125 126C65.1125 126.259 65.5375 126.6 65.8875 127.025C66.2375 127.45 66.5083 127.938 66.7 128.488C66.8917 129.038 66.9958 129.613 67.0125 130.213ZM58.6625 131.538L68.5875 131.538C68.6208 130.638 68.5375 129.75 68.3375 128.875C68.1375 128 67.8083 127.225 67.35 126.55C66.8917 125.875 66.2958 125.329 65.5625 124.913C64.8292 124.496 63.9458 124.288 62.9125 124.288C61.8958 124.288 61.0167 124.484 60.275 124.875C59.5333 125.267 58.9292 125.784 58.4625 126.425C57.9958 127.067 57.65 127.796 57.425 128.613C57.2 129.429 57.0875 130.263 57.0875 131.113C57.0875 132.029 57.2 132.9 57.425 133.725C57.65 134.55 57.9958 135.275 58.4625 135.9C58.9292 136.525 59.5333 137.017 60.275 137.375C61.0167 137.734 61.8958 137.913 62.9125 137.913C64.5458 137.913 65.8083 137.513 66.7 136.713C67.5917 135.913 68.2042 134.779 68.5375 133.313L66.9625 133.313C66.7125 134.313 66.2625 135.113 65.6125 135.713C64.9625 136.313 64.0625 136.613 62.9125 136.613C62.1625 136.613 61.5208 136.454 60.9875 136.138C60.4542 135.821 60.0125 135.421 59.6625 134.938C59.3125 134.454 59.0583 133.909 58.9 133.3C58.7417 132.692 58.6625 132.104 58.6625 131.538Z"/>
<path clip-path="url(#TextBounds)" d="M70.7125 124.663L70.7125 137.563L72.2875 137.563L72.2875 130.688C72.2875 130.004 72.4042 129.375 72.6375 128.8C72.8708 128.225 73.2 127.729 73.625 127.313C74.05 126.896 74.5542 126.575 75.1375 126.35C75.7208 126.125 76.3708 126.029 77.0875 126.063L77.0875 124.488C75.9208 124.438 74.9167 124.696 74.075 125.263C73.2333 125.829 72.6125 126.638 72.2125 127.688L72.1625 127.688L72.1625 124.663L70.7125 124.663Z"/>
<path clip-path="url(#TextBounds)" d="M78.5875 119.713L78.5875 137.563L80.0375 137.563L80.0375 135.113L80.0875 135.113C80.4542 136.013 81.05 136.704 81.875 137.188C82.7 137.671 83.6375 137.913 84.6875 137.913C85.6708 137.913 86.525 137.734 87.25 137.375C87.975 137.017 88.5792 136.525 89.0625 135.9C89.5458 135.275 89.9042 134.55 90.1375 133.725C90.3708 132.9 90.4875 132.029 90.4875 131.113C90.4875 130.196 90.3708 129.325 90.1375 128.5C89.9042 127.675 89.5458 126.95 89.0625 126.325C88.5792 125.7 87.975 125.204 87.25 124.838C86.525 124.471 85.6708 124.288 84.6875 124.288C84.2208 124.288 83.7542 124.346 83.2875 124.463C82.8208 124.579 82.3875 124.759 81.9875 125C81.5875 125.242 81.2333 125.538 80.925 125.888C80.6167 126.238 80.3792 126.646 80.2125 127.113L80.1625 127.113L80.1625 119.713L78.5875 119.713ZM88.9125 131.113C88.9125 131.779 88.8333 132.442 88.675 133.1C88.5167 133.759 88.2667 134.346 87.925 134.863C87.5833 135.379 87.1458 135.8 86.6125 136.125C86.0792 136.45 85.4375 136.613 84.6875 136.613C83.8542 136.613 83.15 136.45 82.575 136.125C82 135.8 81.5333 135.379 81.175 134.863C80.8167 134.346 80.5583 133.759 80.4 133.1C80.2417 132.442 80.1625 131.779 80.1625 131.113C80.1625 130.446 80.2417 129.784 80.4 129.125C80.5583 128.467 80.8167 127.879 81.175 127.363C81.5333 126.846 82 126.425 82.575 126.1C83.15 125.775 83.8542 125.613 84.6875 125.613C85.4375 125.613 86.0792 125.775 86.6125 126.1C87.1458 126.425 87.5833 126.846 87.925 127.363C88.2667 127.879 88.5167 128.467 88.675 129.125C88.8333 129.784 88.9125 130.446 88.9125 131.113Z"/>
<path clip-path="url(#TextBounds)" d="M98.3875 125.613C99.1375 125.613 99.7958 125.771 100.362 126.088C100.929 126.404 101.4 126.821 101.775 127.338C102.15 127.854 102.433 128.442 102.625 129.1C102.817 129.759 102.912 130.429 102.912 131.113C102.912 131.796 102.817 132.467 102.625 133.125C102.433 133.784 102.15 134.371 101.775 134.888C101.4 135.404 100.929 135.821 100.362 136.138C99.7958 136.454 99.1375 136.613 98.3875 136.613C97.6375 136.613 96.9792 136.454 96.4125 136.138C95.8458 135.821 95.375 135.404 95 134.888C94.625 134.371 94.3417 133.784 94.15 133.125C93.9583 132.467 93.8625 131.796 93.8625 131.113C93.8625 130.429 93.9583 129.759 94.15 129.1C94.3417 128.442 94.625 127.854 95 127.338C95.375 126.821 95.8458 126.404 96.4125 126.088C96.9792 125.771 97.6375 125.613 98.3875 125.613ZM98.3875 124.288C97.4042 124.288 96.5333 124.471 95.775 124.838C95.0167 125.204 94.3792 125.696 93.8625 126.313C93.3458 126.929 92.9542 127.65 92.6875 128.475C92.4208 129.3 92.2875 130.179 92.2875 131.113C92.2875 132.046 92.4208 132.925 92.6875 133.75C92.9542 134.575 93.3458 135.296 93.8625 135.913C94.3792 136.529 95.0167 137.017 95.775 137.375C96.5333 137.734 97.4042 137.913 98.3875 137.913C99.3708 137.913 100.242 137.734 101 137.375C101.758 137.017 102.396 136.529 102.912 135.913C103.429 135.296 103.821 134.575 104.088 133.75C104.354 132.925 104.487 132.046 104.487 131.113C104.487 130.179 104.354 129.3 104.088 128.475C103.821 127.65 103.429 126.929 102.912 126.313C102.396 125.696 101.758 125.204 101 124.838C100.242 124.471 99.3708 124.288 98.3875 124.288Z"/>
<path clip-path="url(#TextBounds)" d="M106.688 128.613L108.263 128.613C108.296 127.563 108.629 126.8 109.263 126.325C109.896 125.85 110.712 125.613 111.713 125.613C112.179 125.613 112.617 125.65 113.025 125.725C113.433 125.8 113.792 125.938 114.1 126.138C114.408 126.338 114.65 126.609 114.825 126.95C115 127.292 115.088 127.729 115.088 128.263C115.088 128.613 115.042 128.896 114.95 129.113C114.858 129.329 114.729 129.5 114.562 129.625C114.396 129.75 114.188 129.838 113.938 129.888C113.687 129.938 113.396 129.979 113.062 130.013C112.212 130.113 111.375 130.217 110.55 130.325C109.725 130.434 108.983 130.621 108.325 130.888C107.667 131.154 107.138 131.542 106.738 132.05C106.337 132.559 106.138 133.263 106.138 134.163C106.138 134.813 106.25 135.375 106.475 135.85C106.7 136.325 107.008 136.717 107.4 137.025C107.792 137.334 108.25 137.559 108.775 137.7C109.3 137.842 109.862 137.913 110.463 137.913C111.096 137.913 111.642 137.854 112.1 137.738C112.558 137.621 112.967 137.454 113.325 137.238C113.683 137.021 114.008 136.75 114.3 136.425C114.592 136.1 114.879 135.729 115.163 135.313L115.213 135.313C115.213 135.646 115.233 135.95 115.275 136.225C115.317 136.5 115.404 136.738 115.538 136.938C115.671 137.138 115.858 137.292 116.1 137.4C116.342 137.509 116.662 137.563 117.062 137.563C117.279 137.563 117.458 137.554 117.6 137.538C117.742 137.521 117.904 137.496 118.088 137.463L118.088 136.138C117.937 136.204 117.771 136.238 117.588 136.238C116.971 136.238 116.663 135.921 116.663 135.288L116.663 128.438C116.663 127.571 116.521 126.867 116.238 126.325C115.954 125.784 115.588 125.363 115.138 125.063C114.687 124.763 114.179 124.559 113.613 124.45C113.046 124.342 112.479 124.288 111.913 124.288C111.162 124.288 110.479 124.371 109.863 124.538C109.246 124.704 108.708 124.963 108.25 125.313C107.792 125.663 107.429 126.113 107.163 126.663C106.896 127.213 106.738 127.863 106.688 128.613ZM115.088 130.513L115.088 132.563C115.088 133.196 114.967 133.763 114.725 134.263C114.483 134.763 114.158 135.188 113.75 135.538C113.342 135.888 112.863 136.154 112.312 136.338C111.762 136.521 111.188 136.613 110.588 136.613C110.221 136.613 109.863 136.554 109.513 136.438C109.162 136.321 108.854 136.15 108.588 135.925C108.321 135.7 108.108 135.434 107.95 135.125C107.792 134.817 107.713 134.463 107.713 134.063C107.713 133.429 107.9 132.942 108.275 132.6C108.65 132.259 109.129 131.996 109.713 131.813C110.296 131.629 110.942 131.492 111.65 131.4C112.358 131.309 113.046 131.204 113.713 131.088C113.929 131.054 114.179 130.996 114.463 130.913C114.746 130.829 114.937 130.696 115.038 130.513L115.088 130.513Z"/>
<path clip-path="url(#TextBounds)" d="M119.812 124.663L119.812 137.563L121.388 137.563L121.388 130.688C121.388 130.004 121.504 129.375 121.737 128.8C121.971 128.225 122.3 127.729 122.725 127.313C123.15 126.896 123.654 126.575 124.237 126.35C124.821 126.125 125.471 126.029 126.188 126.063L126.188 124.488C125.021 124.438 124.017 124.696 123.175 125.263C122.333 125.829 121.713 126.638 121.312 127.688L121.263 127.688L121.263 124.663L119.812 124.663Z"/>
<path clip-path="url(#TextBounds)" d="M138.588 137.563L138.588 119.713L137.012 119.713L137.012 127.113L136.963 127.113C136.796 126.646 136.558 126.238 136.25 125.888C135.942 125.538 135.588 125.242 135.188 125C134.787 124.759 134.358 124.579 133.9 124.463C133.442 124.346 132.971 124.288 132.488 124.288C131.504 124.288 130.65 124.471 129.925 124.838C129.2 125.204 128.596 125.7 128.113 126.325C127.629 126.95 127.271 127.675 127.037 128.5C126.804 129.325 126.688 130.196 126.688 131.113C126.688 132.029 126.804 132.9 127.037 133.725C127.271 134.55 127.629 135.275 128.113 135.9C128.596 136.525 129.2 137.017 129.925 137.375C130.65 137.734 131.504 137.913 132.488 137.913C132.954 137.913 133.425 137.846 133.9 137.713C134.375 137.579 134.821 137.392 135.238 137.15C135.654 136.909 136.025 136.613 136.35 136.263C136.675 135.913 136.921 135.529 137.088 135.113L137.137 135.113L137.137 137.563L138.588 137.563ZM128.262 131.113C128.262 130.446 128.342 129.784 128.5 129.125C128.658 128.467 128.908 127.879 129.25 127.363C129.592 126.846 130.029 126.425 130.562 126.1C131.096 125.775 131.737 125.613 132.488 125.613C133.321 125.613 134.025 125.775 134.6 126.1C135.175 126.425 135.642 126.846 136 127.363C136.358 127.879 136.617 128.467 136.775 129.125C136.933 129.784 137.012 130.446 137.012 131.113C137.012 131.779 136.933 132.442 136.775 133.1C136.617 133.759 136.358 134.346 136 134.863C135.642 135.379 135.175 135.8 134.6 136.125C134.025 136.45 133.321 136.613 132.488 136.613C131.737 136.613 131.096 136.45 130.562 136.125C130.029 135.8 129.592 135.379 129.25 134.863C128.908 134.346 128.658 133.759 128.5 133.1C128.342 132.442 128.262 131.779 128.262 131.113Z"/>
<path clip-path="url(#TextBounds)" d="M3.9125 138.813L22.4375 138.813L22.4375 140.063L3.9125 140.063L3.9125 138.813Z"/>
</g>
<g opacity="1">
<mask height="144" id="StrokeMask" maskUnits="userSpaceOnUse" width="144" x="-1.42109e-14" y="0">
<rect fill="#000000" height="144" stroke="none" width="144" x="-1.42109e-14" y="0"/>
</mask>
<use fill="none" mask="url(#StrokeMask)" stroke="#00507d" stroke-linecap="butt" stroke-linejoin="round" stroke-width="2" xlink:href="#Fill"/>
</g>
<g fill="#00507d" opacity="1" stroke="none"/>
<g opacity="1">
<path d="M74.2097 87.8512C72.0412 87.2046 68.8861 89.9207 67.5637 87.4551C66.8783 86.1765 67.0911 84.1287 67.3266 79.7485C65.6735 78.7647 61.3043 79.9935 58.2708 78.7407C56.5951 78.0474 56.1935 77.3497 54.1682 74.9136C50.6503 74.8721 46.2622 74.1398 44.1941 71.8709C41.9211 69.3786 41.9883 66.9383 39.1368 66.4175C32.5148 65.2074 30.0533 59.9305 29.5431 58.8048C28.5606 56.6308 26.8352 55.6229 23.2624 53.9445C20.6162 52.7009 18.7273 50.3515 18.106 47.2862C15.9094 45.8068 6.14023 39.9973 7.29439 32.4196C23.1716 42.0041 31.3541 45.4268 39.0861 48.3958C52.4439 53.5268 72.5593 56.3337 77.4707 59.438C86.012 64.8367 78.7314 70.9073 78.7595 77.5307C78.7742 81.0109 84.4795 89.6181 80.1933 92.9956C78.0193 94.709 75.2004 88.147 74.2097 87.8512Z" fill="#800000" fill-rule="nonzero" opacity="1" stroke="none"/>
<path d="M74.2097 87.8512C72.0412 87.2046 68.8861 89.9207 67.5637 87.4551C66.8783 86.1765 67.0911 84.1287 67.3266 79.7485C65.6735 78.7647 61.3043 79.9935 58.2708 78.7407C56.5951 78.0474 56.1935 77.3497 54.1682 74.9136C50.6503 74.8721 46.2622 74.1398 44.1941 71.8709C41.9211 69.3786 41.9883 66.9383 39.1368 66.4175C32.5148 65.2074 30.0533 59.9305 29.5431 58.8048C28.5606 56.6308 26.8352 55.6229 23.2624 53.9445C20.6162 52.7009 18.7273 50.3515 18.106 47.2862C15.9094 45.8068 6.14023 39.9973 7.29439 32.4196C23.1716 42.0041 31.3541 45.4268 39.0861 48.3958C52.4439 53.5268 72.5593 56.3337 77.4707 59.438C86.012 64.8367 78.7314 70.9073 78.7595 77.5307C78.7742 81.0109 84.4795 89.6181 80.1933 92.9956C78.0193 94.709 75.2004 88.147 74.2097 87.8512Z" fill="none" opacity="1" stroke="#800000" stroke-linecap="butt" stroke-linejoin="miter" stroke-width="0.8"/>
<path d="M111.167 71.3661L106.576 75.4783C102.315 71.6098 98.3808 73.6672 96.8429 75.5469C95.3063 77.4248 94.9862 81.1288 96.911 83.36C98.8373 85.5902 102.687 86.7468 106.678 83.2905L110.927 87.7453C105.22 92.3397 99.5079 92.1481 95.1294 89.6997C90.752 87.2502 89.2785 83.6547 89.3278 79.1529C89.3775 74.6511 91.704 70.7185 95.7466 68.6247C99.7903 66.5299 105.894 66.4723 111.167 71.3661Z" fill="#800000" fill-rule="nonzero" opacity="1" stroke="none"/>
<path d="M111.167 71.3661L106.576 75.4783C102.315 71.6098 98.3808 73.6672 96.8429 75.5469C95.3063 77.4248 94.9862 81.1288 96.911 83.36C98.8373 85.5902 102.687 86.7468 106.678 83.2905L110.927 87.7453C105.22 92.3397 99.5079 92.1481 95.1294 89.6997C90.752 87.2502 89.2785 83.6547 89.3278 79.1529C89.3775 74.6511 91.704 70.7185 95.7466 68.6247C99.7903 66.5299 105.894 66.4723 111.167 71.3661Z" fill="none" opacity="1" stroke="#800000" stroke-linecap="butt" stroke-linejoin="miter" stroke-width="0.8"/>
<path d="M136.8 71.3661L132.207 75.4783C127.948 71.6098 124.014 73.6672 122.476 75.5469C120.939 77.4248 120.619 81.1288 122.544 83.36C124.47 85.5902 128.32 86.7468 132.311 83.2905L136.56 87.7453C130.853 92.3397 125.141 92.1481 120.762 89.6997C116.385 87.2502 114.911 83.6547 114.961 79.1529C115.011 74.6511 117.336 70.7185 121.379 68.6247C125.422 66.5299 131.527 66.4723 136.8 71.3661Z" fill="#800000" fill-rule="nonzero" opacity="1" stroke="none"/>
<path d="M136.8 71.3661L132.207 75.4783C127.948 71.6098 124.014 73.6672 122.476 75.5469C120.939 77.4248 120.619 81.1288 122.544 83.36C124.47 85.5902 128.32 86.7468 132.311 83.2905L136.56 87.7453C130.853 92.3397 125.141 92.1481 120.762 89.6997C116.385 87.2502 114.911 83.6547 114.961 79.1529C115.011 74.6511 117.336 70.7185 121.379 68.6247C125.422 66.5299 131.527 66.4723 136.8 71.3661Z" fill="none" opacity="1" stroke="#800000" stroke-linecap="butt" stroke-linejoin="miter" stroke-width="0.8"/>
</g>
<g fill="#800000" opacity="1" stroke="none">
<path clip-path="url(#TextBounds_3)" d="M44.4199 19.8661L44.4199 37.7161L48.0949 37.7161L48.0949 25.1911L48.1449 25.1911L52.5199 37.7161L55.5449 37.7161L59.9199 25.0661L59.9699 25.0661L59.9699 37.7161L63.6449 37.7161L63.6449 19.8661L58.1199 19.8661L54.1699 32.1411L54.1199 32.1411L49.9449 19.8661L44.4199 19.8661Z"/>
<path clip-path="url(#TextBounds_3)" d="M75.4199 29.8661L69.6449 29.8661C69.6616 29.6161 69.7158 29.3328 69.8074 29.0161C69.8991 28.6994 70.0574 28.3994 70.2824 28.1161C70.5074 27.8328 70.8074 27.5953 71.1824 27.4036C71.5574 27.2119 72.0283 27.1161 72.5949 27.1161C73.4616 27.1161 74.1074 27.3494 74.5324 27.8161C74.9574 28.2828 75.2533 28.9661 75.4199 29.8661ZM69.6449 32.1161L78.9699 32.1161C79.0366 31.1161 78.9533 30.1578 78.7199 29.2411C78.4866 28.3244 78.1074 27.5078 77.5824 26.7911C77.0574 26.0744 76.3866 25.5036 75.5699 25.0786C74.7533 24.6536 73.7949 24.4411 72.6949 24.4411C71.7116 24.4411 70.8158 24.6161 70.0074 24.9661C69.1991 25.3161 68.5033 25.7953 67.9199 26.4036C67.3366 27.0119 66.8866 27.7328 66.5699 28.5661C66.2533 29.3994 66.0949 30.2994 66.0949 31.2661C66.0949 32.2661 66.2491 33.1828 66.5574 34.0161C66.8658 34.8494 67.3033 35.5661 67.8699 36.1661C68.4366 36.7661 69.1283 37.2286 69.9449 37.5536C70.7616 37.8786 71.6783 38.0411 72.6949 38.0411C74.1616 38.0411 75.4116 37.7078 76.4449 37.0411C77.4783 36.3744 78.2449 35.2661 78.7449 33.7161L75.6199 33.7161C75.5033 34.1161 75.1866 34.4953 74.6699 34.8536C74.1533 35.2119 73.5366 35.3911 72.8199 35.3911C71.8199 35.3911 71.0533 35.1328 70.5199 34.6161C69.9866 34.0994 69.6949 33.2661 69.6449 32.1161Z"/>
<path clip-path="url(#TextBounds_3)" d="M81.0699 24.7911L81.0699 37.7161L84.6199 37.7161L84.6199 31.8911C84.6199 31.3078 84.6783 30.7661 84.7949 30.2661C84.9116 29.7661 85.1074 29.3286 85.3824 28.9536C85.6574 28.5786 86.0199 28.2828 86.4699 28.0661C86.9199 27.8494 87.4699 27.7411 88.1199 27.7411C88.3366 27.7411 88.5616 27.7536 88.7949 27.7786C89.0283 27.8036 89.2283 27.8328 89.3949 27.8661L89.3949 24.5661C89.1116 24.4828 88.8533 24.4411 88.6199 24.4411C88.1699 24.4411 87.7366 24.5078 87.3199 24.6411C86.9033 24.7744 86.5116 24.9619 86.1449 25.2036C85.7783 25.4453 85.4533 25.7369 85.1699 26.0786C84.8866 26.4203 84.6616 26.7911 84.4949 27.1911L84.4449 27.1911L84.4449 24.7911L81.0699 24.7911Z"/>
<path clip-path="url(#TextBounds_3)" d="M99.1449 29.3411L102.62 29.3411C102.57 28.5078 102.37 27.7869 102.02 27.1786C101.67 26.5703 101.216 26.0619 100.657 25.6536C100.099 25.2453 99.4658 24.9411 98.7574 24.7411C98.0491 24.5411 97.3116 24.4411 96.5449 24.4411C95.4949 24.4411 94.5616 24.6161 93.7449 24.9661C92.9283 25.3161 92.2366 25.8036 91.6699 26.4286C91.1033 27.0536 90.6741 27.7953 90.3824 28.6536C90.0908 29.5119 89.9449 30.4411 89.9449 31.4411C89.9449 32.4078 90.1033 33.2953 90.4199 34.1036C90.7366 34.9119 91.1783 35.6078 91.7449 36.1911C92.3116 36.7744 92.9991 37.2286 93.8074 37.5536C94.6158 37.8786 95.5033 38.0411 96.4699 38.0411C98.1866 38.0411 99.5949 37.5911 100.695 36.6911C101.795 35.7911 102.462 34.4828 102.695 32.7661L99.2699 32.7661C99.1533 33.5661 98.8658 34.2036 98.4074 34.6786C97.9491 35.1536 97.2949 35.3911 96.4449 35.3911C95.8949 35.3911 95.4283 35.2661 95.0449 35.0161C94.6616 34.7661 94.3574 34.4453 94.1324 34.0536C93.9074 33.6619 93.7449 33.2244 93.6449 32.7411C93.5449 32.2578 93.4949 31.7828 93.4949 31.3161C93.4949 30.8328 93.5449 30.3453 93.6449 29.8536C93.7449 29.3619 93.9158 28.9119 94.1574 28.5036C94.3991 28.0953 94.7116 27.7619 95.0949 27.5036C95.4783 27.2453 95.9533 27.1161 96.5199 27.1161C98.0366 27.1161 98.9116 27.8578 99.1449 29.3411Z"/>
<path clip-path="url(#TextBounds_3)" d="M116.82 37.7161L116.82 24.7911L113.27 24.7911L113.27 31.5661C113.27 32.8828 113.053 33.8286 112.62 34.4036C112.187 34.9786 111.487 35.2661 110.52 35.2661C109.67 35.2661 109.078 35.0036 108.745 34.4786C108.412 33.9536 108.245 33.1578 108.245 32.0911L108.245 24.7911L104.695 24.7911L104.695 32.7411C104.695 33.5411 104.766 34.2703 104.907 34.9286C105.049 35.5869 105.295 36.1453 105.645 36.6036C105.995 37.0619 106.474 37.4161 107.082 37.6661C107.691 37.9161 108.47 38.0411 109.42 38.0411C110.17 38.0411 110.903 37.8744 111.62 37.5411C112.337 37.2078 112.92 36.6661 113.37 35.9161L113.445 35.9161L113.445 37.7161L116.82 37.7161Z"/>
<path clip-path="url(#TextBounds_3)" d="M119.52 24.7911L119.52 37.7161L123.07 37.7161L123.07 31.8911C123.07 31.3078 123.128 30.7661 123.245 30.2661C123.362 29.7661 123.557 29.3286 123.832 28.9536C124.107 28.5786 124.47 28.2828 124.92 28.0661C125.37 27.8494 125.92 27.7411 126.57 27.7411C126.787 27.7411 127.012 27.7536 127.245 27.7786C127.478 27.8036 127.678 27.8328 127.845 27.8661L127.845 24.5661C127.562 24.4828 127.303 24.4411 127.07 24.4411C126.62 24.4411 126.187 24.5078 125.77 24.6411C125.353 24.7744 124.962 24.9619 124.595 25.2036C124.228 25.4453 123.903 25.7369 123.62 26.0786C123.337 26.4203 123.112 26.7911 122.945 27.1911L122.895 27.1911L122.895 24.7911L119.52 24.7911Z"/>
<path clip-path="url(#TextBounds_3)" d="M135.62 39.3161L141.02 24.7911L137.345 24.7911L134.52 33.6411L134.47 33.6411L131.545 24.7911L127.77 24.7911L132.295 36.9161C132.395 37.1661 132.445 37.4328 132.445 37.7161C132.445 38.0994 132.332 38.4494 132.107 38.7661C131.882 39.0828 131.537 39.2661 131.07 39.3161C130.72 39.3328 130.37 39.3244 130.02 39.2911C129.67 39.2578 129.328 39.2244 128.995 39.1911L128.995 42.1161C129.362 42.1494 129.724 42.1786 130.082 42.2036C130.441 42.2286 130.803 42.2411 131.17 42.2411C132.387 42.2411 133.337 42.0161 134.02 41.5661C134.703 41.1161 135.237 40.3661 135.62 39.3161Z"/>
</g>
</g>
</svg>
