<?xml version="1.0" encoding="UTF-8" standalone="no"?>
<!DOCTYPE svg PUBLIC "-//W3C//DTD SVG 1.1//EN" "http://www.w3.org/Graphics/SVG/1.1/DTD/svg11.dtd">
<!-- Created with Vectornator (http://vectornator.io/) -->
<svg height="100%" stroke-miterlimit="10" style="fill-rule:nonzero;clip-rule:evenodd;stroke-linecap:round;stroke-linejoin:round;" version="1.1" viewBox="0 0 144 144" width="100%" xml:space="preserve" xmlns="http://www.w3.org/2000/svg" xmlns:xlink="http://www.w3.org/1999/xlink">
<defs>
<clipPath id="TextBounds">
<rect height="27.4373" width="144" x="0" y="114.563"/>
</clipPath>
<path d="M12.7163 0L131.284 0C138.307 0 144 5.78672 144 12.925L144 131.075C144 138.213 138.307 144 131.284 144L12.7163 144C5.69329 144-1.42109e-14 138.213-1.42109e-14 131.075L-1.42109e-14 12.925C-1.42109e-14 5.78672 5.69329 0 12.7163 0Z" id="Fill"/>
<clipPath id="TextBounds_2">
<rect height="1" width="0" x="75.7925" y="92.2805"/>
</clipPath>
</defs>
<clipPath id="ArtboardFrame">
<rect height="144" width="144" x="0" y="0"/>
</clipPath>
<g clip-path="url(#ArtboardFrame)" id="Layer-1">
<g fill="#00507d" opacity="1" stroke="none">
<path clip-path="url(#TextBounds)" d="M43.2875 132.638L39.4875 132.638C39.4708 133.738 39.6708 134.688 40.0875 135.488C40.5042 136.288 41.0667 136.946 41.775 137.463C42.4833 137.979 43.3 138.359 44.225 138.6C45.15 138.842 46.1042 138.963 47.0875 138.963C48.3042 138.963 49.375 138.821 50.3 138.538C51.225 138.254 52 137.859 52.625 137.35C53.25 136.842 53.7208 136.238 54.0375 135.538C54.3542 134.838 54.5125 134.079 54.5125 133.263C54.5125 132.263 54.3 131.442 53.875 130.8C53.45 130.159 52.9458 129.646 52.3625 129.263C51.7792 128.879 51.1917 128.6 50.6 128.425C50.0083 128.25 49.5458 128.129 49.2125 128.063C48.0958 127.779 47.1917 127.546 46.5 127.363C45.8083 127.179 45.2667 126.996 44.875 126.813C44.4833 126.629 44.2208 126.429 44.0875 126.213C43.9542 125.996 43.8875 125.713 43.8875 125.363C43.8875 124.979 43.9708 124.663 44.1375 124.413C44.3042 124.163 44.5167 123.954 44.775 123.788C45.0333 123.621 45.3208 123.504 45.6375 123.438C45.9542 123.371 46.2708 123.338 46.5875 123.338C47.0708 123.338 47.5167 123.379 47.925 123.463C48.3333 123.546 48.6958 123.688 49.0125 123.888C49.3292 124.088 49.5833 124.363 49.775 124.713C49.9667 125.063 50.0792 125.504 50.1125 126.038L53.9125 126.038C53.9125 125.004 53.7167 124.125 53.325 123.4C52.9333 122.675 52.4042 122.079 51.7375 121.613C51.0708 121.146 50.3083 120.809 49.45 120.6C48.5917 120.392 47.6958 120.288 46.7625 120.288C45.9625 120.288 45.1625 120.396 44.3625 120.613C43.5625 120.829 42.8458 121.163 42.2125 121.613C41.5792 122.063 41.0667 122.625 40.675 123.3C40.2833 123.975 40.0875 124.771 40.0875 125.688C40.0875 126.504 40.2417 127.2 40.55 127.775C40.8583 128.35 41.2625 128.829 41.7625 129.213C42.2625 129.596 42.8292 129.909 43.4625 130.15C44.0958 130.392 44.7458 130.596 45.4125 130.763C46.0625 130.946 46.7042 131.113 47.3375 131.263C47.9708 131.413 48.5375 131.588 49.0375 131.788C49.5375 131.988 49.9417 132.238 50.25 132.538C50.5583 132.838 50.7125 133.229 50.7125 133.713C50.7125 134.163 50.5958 134.534 50.3625 134.825C50.1292 135.117 49.8375 135.346 49.4875 135.513C49.1375 135.679 48.7625 135.792 48.3625 135.85C47.9625 135.909 47.5875 135.938 47.2375 135.938C46.7208 135.938 46.2208 135.875 45.7375 135.75C45.2542 135.625 44.8333 135.434 44.475 135.175C44.1167 134.917 43.8292 134.579 43.6125 134.163C43.3958 133.746 43.2875 133.238 43.2875 132.638Z"/>
<path clip-path="url(#TextBounds)" d="M58.2625 132.113C58.2625 131.329 58.3667 130.634 58.575 130.025C58.7833 129.417 59.0708 128.904 59.4375 128.488C59.8042 128.071 60.2333 127.754 60.725 127.538C61.2167 127.321 61.7375 127.213 62.2875 127.213C62.8375 127.213 63.3583 127.321 63.85 127.538C64.3417 127.754 64.7708 128.071 65.1375 128.488C65.5042 128.904 65.7917 129.417 66 130.025C66.2083 130.634 66.3125 131.329 66.3125 132.113C66.3125 132.896 66.2083 133.592 66 134.2C65.7917 134.809 65.5042 135.317 65.1375 135.725C64.7708 136.134 64.3417 136.446 63.85 136.663C63.3583 136.879 62.8375 136.988 62.2875 136.988C61.7375 136.988 61.2167 136.879 60.725 136.663C60.2333 136.446 59.8042 136.134 59.4375 135.725C59.0708 135.317 58.7833 134.809 58.575 134.2C58.3667 133.592 58.2625 132.896 58.2625 132.113ZM56.0125 132.113C56.0125 133.063 56.1458 133.946 56.4125 134.763C56.6792 135.579 57.0792 136.292 57.6125 136.9C58.1458 137.509 58.8042 137.984 59.5875 138.325C60.3708 138.667 61.2708 138.838 62.2875 138.838C63.3208 138.838 64.225 138.667 65 138.325C65.775 137.984 66.4292 137.509 66.9625 136.9C67.4958 136.292 67.8958 135.579 68.1625 134.763C68.4292 133.946 68.5625 133.063 68.5625 132.113C68.5625 131.163 68.4292 130.275 68.1625 129.45C67.8958 128.625 67.4958 127.909 66.9625 127.3C66.4292 126.692 65.775 126.213 65 125.863C64.225 125.513 63.3208 125.338 62.2875 125.338C61.2708 125.338 60.3708 125.513 59.5875 125.863C58.8042 126.213 58.1458 126.692 57.6125 127.3C57.0792 127.909 56.6792 128.625 56.4125 129.45C56.1458 130.275 56.0125 131.163 56.0125 132.113Z"/>
<path clip-path="url(#TextBounds)" d="M71.0625 125.638L71.0625 138.563L73.1875 138.563L73.1875 131.263C73.1875 130.679 73.2667 130.142 73.425 129.65C73.5833 129.159 73.8208 128.729 74.1375 128.363C74.4542 127.996 74.85 127.713 75.325 127.513C75.8 127.313 76.3625 127.213 77.0125 127.213C77.8292 127.213 78.4708 127.446 78.9375 127.913C79.4042 128.379 79.6375 129.013 79.6375 129.813L79.6375 138.563L81.7625 138.563L81.7625 130.063C81.7625 129.363 81.6917 128.725 81.55 128.15C81.4083 127.575 81.1625 127.079 80.8125 126.663C80.4625 126.246 80.0042 125.921 79.4375 125.688C78.8708 125.454 78.1625 125.338 77.3125 125.338C75.3958 125.338 73.9958 126.121 73.1125 127.688L73.0625 127.688L73.0625 125.638L71.0625 125.638Z"/>
<path clip-path="url(#TextBounds)" d="M96.4125 138.513C96.0458 138.729 95.5375 138.838 94.8875 138.838C94.3375 138.838 93.9 138.684 93.575 138.375C93.25 138.067 93.0875 137.563 93.0875 136.863C92.5042 137.563 91.825 138.067 91.05 138.375C90.275 138.684 89.4375 138.838 88.5375 138.838C87.9542 138.838 87.4 138.771 86.875 138.638C86.35 138.504 85.8958 138.296 85.5125 138.013C85.1292 137.729 84.825 137.359 84.6 136.9C84.375 136.442 84.2625 135.888 84.2625 135.238C84.2625 134.504 84.3875 133.904 84.6375 133.438C84.8875 132.971 85.2167 132.592 85.625 132.3C86.0333 132.009 86.5 131.788 87.025 131.638C87.55 131.488 88.0875 131.363 88.6375 131.263C89.2208 131.146 89.775 131.059 90.3 131C90.825 130.942 91.2875 130.859 91.6875 130.75C92.0875 130.642 92.4042 130.484 92.6375 130.275C92.8708 130.067 92.9875 129.763 92.9875 129.363C92.9875 128.896 92.9 128.521 92.725 128.238C92.55 127.954 92.325 127.738 92.05 127.588C91.775 127.438 91.4667 127.338 91.125 127.288C90.7833 127.238 90.4458 127.213 90.1125 127.213C89.2125 127.213 88.4625 127.384 87.8625 127.725C87.2625 128.067 86.9375 128.713 86.8875 129.663L84.7625 129.663C84.7958 128.863 84.9625 128.188 85.2625 127.638C85.5625 127.088 85.9625 126.642 86.4625 126.3C86.9625 125.959 87.5333 125.713 88.175 125.563C88.8167 125.413 89.5042 125.338 90.2375 125.338C90.8208 125.338 91.4 125.379 91.975 125.463C92.55 125.546 93.0708 125.717 93.5375 125.975C94.0042 126.234 94.3792 126.596 94.6625 127.063C94.9458 127.529 95.0875 128.138 95.0875 128.888L95.0875 135.538C95.0875 136.038 95.1167 136.404 95.175 136.638C95.2333 136.871 95.4292 136.988 95.7625 136.988C95.9458 136.988 96.1625 136.946 96.4125 136.863L96.4125 138.513ZM92.9625 131.888C92.6958 132.088 92.3458 132.234 91.9125 132.325C91.4792 132.417 91.025 132.492 90.55 132.55C90.075 132.609 89.5958 132.675 89.1125 132.75C88.6292 132.825 88.1958 132.946 87.8125 133.113C87.4292 133.279 87.1167 133.517 86.875 133.825C86.6333 134.134 86.5125 134.554 86.5125 135.088C86.5125 135.438 86.5833 135.734 86.725 135.975C86.8667 136.217 87.05 136.413 87.275 136.563C87.5 136.713 87.7625 136.821 88.0625 136.888C88.3625 136.954 88.6792 136.988 89.0125 136.988C89.7125 136.988 90.3125 136.892 90.8125 136.7C91.3125 136.509 91.7208 136.267 92.0375 135.975C92.3542 135.684 92.5875 135.367 92.7375 135.025C92.8875 134.684 92.9625 134.363 92.9625 134.063L92.9625 131.888Z"/>
<path clip-path="url(#TextBounds)" d="M98.3125 125.638L98.3125 138.563L100.438 138.563L100.438 132.813C100.438 131.979 100.521 131.242 100.688 130.6C100.854 129.959 101.121 129.413 101.488 128.963C101.854 128.513 102.337 128.171 102.938 127.938C103.538 127.704 104.262 127.588 105.113 127.588L105.113 125.338C103.962 125.304 103.013 125.538 102.263 126.038C101.512 126.538 100.879 127.313 100.363 128.363L100.313 128.363L100.313 125.638L98.3125 125.638Z"/>
<path clip-path="url(#TextBounds)" d="M38.8875 139.813L55.1125 139.813L55.1125 141.063L38.8875 141.063L38.8875 139.813Z"/>
</g>
<g opacity="1">
<mask height="144" id="StrokeMask" maskUnits="userSpaceOnUse" width="144" x="-1.42109e-14" y="0">
<rect fill="#000000" height="144" stroke="none" width="144" x="-1.42109e-14" y="0"/>
<use fill="#ffffff" fill-rule="evenodd" stroke="none" xlink:href="#Fill"/>
</mask>
<use fill="none" mask="url(#StrokeMask)" stroke="#00507d" stroke-linecap="butt" stroke-linejoin="round" stroke-width="2" xlink:href="#Fill"/>
</g>
<g fill="#00507d" opacity="1" stroke="none"/>
<g opacity="1">
<path d="M52.5725 92.5316L99.0125 92.5316L99.0125 92.5316L99.0125 114.563L99.0125 114.563L52.5725 114.563L52.5725 114.563L52.5725 92.5316L52.5725 92.5316Z" fill="#ba0000" fill-rule="nonzero" opacity="1" stroke="none"/>
<path d="M52.5725 70.5313L99.0125 70.5313L99.0125 70.5313L99.0125 88.5313L99.0125 88.5313L52.5725 88.5313L52.5725 88.5313L52.5725 70.5313L52.5725 70.5313Z" fill="#ba0000" fill-rule="nonzero" opacity="1" stroke="none"/>
<path d="M52.5725 48.5626L99.0125 48.5626L99.0125 48.5626L99.0125 64.7307L99.0125 64.7307L52.5725 64.7307L52.5725 64.7307L52.5725 48.5626L52.5725 48.5626Z" fill="#ba0000" fill-rule="nonzero" opacity="1" stroke="none"/>
<path d="M52.5725 28.5628L99.0125 28.5628L99.0125 28.5628L99.0125 38.5629L99.0125 38.5629L52.5725 38.5629L52.5725 38.5629L52.5725 28.5628L52.5725 28.5628Z" fill="#ba0000" fill-rule="nonzero" opacity="1" stroke="none"/>
<path d="M52.5725 6.56273L99.0125 6.56273L99.0125 6.56273L99.0125 12.7297L99.0125 12.7297L52.5725 12.7297L52.5725 12.7297L52.5725 6.56273L52.5725 6.56273Z" fill="#ba0000" fill-rule="nonzero" opacity="1" stroke="none"/>
</g>
</g>
</svg>
