<?xml version="1.0" encoding="UTF-8" standalone="no"?>
<!DOCTYPE svg PUBLIC "-//W3C//DTD SVG 1.1//EN" "http://www.w3.org/Graphics/SVG/1.1/DTD/svg11.dtd">
<!-- Created with Vectornator (http://vectornator.io/) -->
<svg stroke-miterlimit="10" style="fill-rule:nonzero;clip-rule:evenodd;stroke-linecap:round;stroke-linejoin:round;" version="1.1" viewBox="0 0 144 144" xml:space="preserve" xmlns="http://www.w3.org/2000/svg" xmlns:xlink="http://www.w3.org/1999/xlink">
<defs>
<clipPath id="TextBounds">
<rect height="27.4373" width="144" x="-1.42109e-14" y="113.563"/>
</clipPath>
<path d="M12.7163 0L131.284 0C138.307 0 144 5.78672 144 12.925L144 131.075C144 138.213 138.307 144 131.284 144L12.7163 144C5.69329 144-1.42109e-14 138.213-1.42109e-14 131.075L-1.42109e-14 12.925C-1.42109e-14 5.78672 5.69329 0 12.7163 0Z" id="Fill"/>
<clipPath id="TextBounds_2">
<rect height="1" width="0" x="75.7925" y="92.2805"/>
</clipPath>
</defs>
<clipPath id="ArtboardFrame">
<rect height="144" width="144" x="0" y="0"/>
</clipPath>
<g clip-path="url(#ArtboardFrame)" id="Layer-1">
<g fill="#00507d" opacity="1" stroke="none">
<path clip-path="url(#TextBounds)" d="M44.2 131.638L40.4 131.638C40.3833 132.738 40.5833 133.688 41 134.488C41.4167 135.288 41.9792 135.946 42.6875 136.463C43.3958 136.979 44.2125 137.359 45.1375 137.6C46.0625 137.842 47.0167 137.963 48 137.963C49.2167 137.963 50.2875 137.821 51.2125 137.538C52.1375 137.254 52.9125 136.859 53.5375 136.35C54.1625 135.842 54.6333 135.238 54.95 134.538C55.2667 133.838 55.425 133.079 55.425 132.263C55.425 131.263 55.2125 130.442 54.7875 129.8C54.3625 129.159 53.8583 128.646 53.275 128.263C52.6917 127.879 52.1042 127.6 51.5125 127.425C50.9208 127.25 50.4583 127.129 50.125 127.063C49.0083 126.779 48.1042 126.546 47.4125 126.363C46.7208 126.179 46.1792 125.996 45.7875 125.813C45.3958 125.629 45.1333 125.429 45 125.213C44.8667 124.996 44.8 124.713 44.8 124.363C44.8 123.979 44.8833 123.663 45.05 123.413C45.2167 123.163 45.4292 122.954 45.6875 122.788C45.9458 122.621 46.2333 122.504 46.55 122.438C46.8667 122.371 47.1833 122.338 47.5 122.338C47.9833 122.338 48.4292 122.379 48.8375 122.463C49.2458 122.546 49.6083 122.688 49.925 122.888C50.2417 123.088 50.4958 123.363 50.6875 123.713C50.8792 124.063 50.9917 124.504 51.025 125.038L54.825 125.038C54.825 124.004 54.6292 123.125 54.2375 122.4C53.8458 121.675 53.3167 121.079 52.65 120.613C51.9833 120.146 51.2208 119.809 50.3625 119.6C49.5042 119.392 48.6083 119.288 47.675 119.288C46.875 119.288 46.075 119.396 45.275 119.613C44.475 119.829 43.7583 120.163 43.125 120.613C42.4917 121.063 41.9792 121.625 41.5875 122.3C41.1958 122.975 41 123.771 41 124.688C41 125.504 41.1542 126.2 41.4625 126.775C41.7708 127.35 42.175 127.829 42.675 128.213C43.175 128.596 43.7417 128.909 44.375 129.15C45.0083 129.392 45.6583 129.596 46.325 129.763C46.975 129.946 47.6167 130.113 48.25 130.263C48.8833 130.413 49.45 130.588 49.95 130.788C50.45 130.988 50.8542 131.238 51.1625 131.538C51.4708 131.838 51.625 132.229 51.625 132.713C51.625 133.163 51.5083 133.534 51.275 133.825C51.0417 134.117 50.75 134.346 50.4 134.513C50.05 134.679 49.675 134.792 49.275 134.85C48.875 134.909 48.5 134.938 48.15 134.938C47.6333 134.938 47.1333 134.875 46.65 134.75C46.1667 134.625 45.7458 134.434 45.3875 134.175C45.0292 133.917 44.7417 133.579 44.525 133.163C44.3083 132.746 44.2 132.238 44.2 131.638Z"/>
<path clip-path="url(#TextBounds)" d="M62.975 125.613C63.725 125.613 64.3833 125.771 64.95 126.088C65.5167 126.404 65.9875 126.821 66.3625 127.338C66.7375 127.854 67.0208 128.442 67.2125 129.1C67.4042 129.759 67.5 130.429 67.5 131.113C67.5 131.796 67.4042 132.467 67.2125 133.125C67.0208 133.784 66.7375 134.371 66.3625 134.888C65.9875 135.404 65.5167 135.821 64.95 136.138C64.3833 136.454 63.725 136.613 62.975 136.613C62.225 136.613 61.5667 136.454 61 136.138C60.4333 135.821 59.9625 135.404 59.5875 134.888C59.2125 134.371 58.9292 133.784 58.7375 133.125C58.5458 132.467 58.45 131.796 58.45 131.113C58.45 130.429 58.5458 129.759 58.7375 129.1C58.9292 128.442 59.2125 127.854 59.5875 127.338C59.9625 126.821 60.4333 126.404 61 126.088C61.5667 125.771 62.225 125.613 62.975 125.613ZM62.975 124.288C61.9917 124.288 61.1208 124.471 60.3625 124.838C59.6042 125.204 58.9667 125.696 58.45 126.313C57.9333 126.929 57.5417 127.65 57.275 128.475C57.0083 129.3 56.875 130.179 56.875 131.113C56.875 132.046 57.0083 132.925 57.275 133.75C57.5417 134.575 57.9333 135.296 58.45 135.913C58.9667 136.529 59.6042 137.017 60.3625 137.375C61.1208 137.734 61.9917 137.913 62.975 137.913C63.9583 137.913 64.8292 137.734 65.5875 137.375C66.3458 137.017 66.9833 136.529 67.5 135.913C68.0167 135.296 68.4083 134.575 68.675 133.75C68.9417 132.925 69.075 132.046 69.075 131.113C69.075 130.179 68.9417 129.3 68.675 128.475C68.4083 127.65 68.0167 126.929 67.5 126.313C66.9833 125.696 66.3458 125.204 65.5875 124.838C64.8292 124.471 63.9583 124.288 62.975 124.288Z"/>
<path clip-path="url(#TextBounds)" d="M71.4 124.663L71.4 137.563L72.975 137.563L72.975 130.038C72.9917 129.404 73.0958 128.817 73.2875 128.275C73.4792 127.734 73.7458 127.267 74.0875 126.875C74.4292 126.484 74.8458 126.175 75.3375 125.95C75.8292 125.725 76.3917 125.613 77.025 125.613C77.6583 125.613 78.1875 125.713 78.6125 125.913C79.0375 126.113 79.375 126.388 79.625 126.738C79.875 127.088 80.05 127.5 80.15 127.975C80.25 128.45 80.3 128.963 80.3 129.513L80.3 137.563L81.875 137.563L81.875 129.263C81.875 128.496 81.8 127.804 81.65 127.188C81.5 126.571 81.2417 126.05 80.875 125.625C80.5083 125.2 80.0208 124.871 79.4125 124.638C78.8042 124.404 78.05 124.288 77.15 124.288C76.2333 124.288 75.3917 124.525 74.625 125C73.8583 125.475 73.325 126.104 73.025 126.888L72.975 126.888L72.975 124.663L71.4 124.663Z"/>
<path clip-path="url(#TextBounds)" d="M84.7 128.613L86.275 128.613C86.3083 127.563 86.6417 126.8 87.275 126.325C87.9083 125.85 88.725 125.613 89.725 125.613C90.1917 125.613 90.6292 125.65 91.0375 125.725C91.4458 125.8 91.8042 125.938 92.1125 126.138C92.4208 126.338 92.6625 126.609 92.8375 126.95C93.0125 127.292 93.1 127.729 93.1 128.263C93.1 128.613 93.0542 128.896 92.9625 129.113C92.8708 129.329 92.7417 129.5 92.575 129.625C92.4083 129.75 92.2 129.838 91.95 129.888C91.7 129.938 91.4083 129.979 91.075 130.013C90.225 130.113 89.3875 130.217 88.5625 130.325C87.7375 130.434 86.9958 130.621 86.3375 130.888C85.6792 131.154 85.15 131.542 84.75 132.05C84.35 132.559 84.15 133.263 84.15 134.163C84.15 134.813 84.2625 135.375 84.4875 135.85C84.7125 136.325 85.0208 136.717 85.4125 137.025C85.8042 137.334 86.2625 137.559 86.7875 137.7C87.3125 137.842 87.875 137.913 88.475 137.913C89.1083 137.913 89.6542 137.854 90.1125 137.738C90.5708 137.621 90.9792 137.454 91.3375 137.238C91.6958 137.021 92.0208 136.75 92.3125 136.425C92.6042 136.1 92.8917 135.729 93.175 135.313L93.225 135.313C93.225 135.646 93.2458 135.95 93.2875 136.225C93.3292 136.5 93.4167 136.738 93.55 136.938C93.6833 137.138 93.8708 137.292 94.1125 137.4C94.3542 137.509 94.675 137.563 95.075 137.563C95.2917 137.563 95.4708 137.554 95.6125 137.538C95.7542 137.521 95.9167 137.496 96.1 137.463L96.1 136.138C95.95 136.204 95.7833 136.238 95.6 136.238C94.9833 136.238 94.675 135.921 94.675 135.288L94.675 128.438C94.675 127.571 94.5333 126.867 94.25 126.325C93.9667 125.784 93.6 125.363 93.15 125.063C92.7 124.763 92.1917 124.559 91.625 124.45C91.0583 124.342 90.4917 124.288 89.925 124.288C89.175 124.288 88.4917 124.371 87.875 124.538C87.2583 124.704 86.7208 124.963 86.2625 125.313C85.8042 125.663 85.4417 126.113 85.175 126.663C84.9083 127.213 84.75 127.863 84.7 128.613ZM93.1 130.513L93.1 132.563C93.1 133.196 92.9792 133.763 92.7375 134.263C92.4958 134.763 92.1708 135.188 91.7625 135.538C91.3542 135.888 90.875 136.154 90.325 136.338C89.775 136.521 89.2 136.613 88.6 136.613C88.2333 136.613 87.875 136.554 87.525 136.438C87.175 136.321 86.8667 136.15 86.6 135.925C86.3333 135.7 86.1208 135.434 85.9625 135.125C85.8042 134.817 85.725 134.463 85.725 134.063C85.725 133.429 85.9125 132.942 86.2875 132.6C86.6625 132.259 87.1417 131.996 87.725 131.813C88.3083 131.629 88.9542 131.492 89.6625 131.4C90.3708 131.309 91.0583 131.204 91.725 131.088C91.9417 131.054 92.1917 130.996 92.475 130.913C92.7583 130.829 92.95 130.696 93.05 130.513L93.1 130.513Z"/>
<path clip-path="url(#TextBounds)" d="M97.825 124.663L97.825 137.563L99.4 137.563L99.4 130.688C99.4 130.004 99.5167 129.375 99.75 128.8C99.9833 128.225 100.312 127.729 100.737 127.313C101.163 126.896 101.667 126.575 102.25 126.35C102.833 126.125 103.483 126.029 104.2 126.063L104.2 124.488C103.033 124.438 102.029 124.696 101.187 125.263C100.346 125.829 99.725 126.638 99.325 127.688L99.275 127.688L99.275 124.663L97.825 124.663Z"/>
<path clip-path="url(#TextBounds)" d="M39.8 138.813L56.025 138.813L56.025 140.063L39.8 140.063L39.8 138.813Z"/>
</g>
<g opacity="1">
<mask height="144" id="StrokeMask" maskUnits="userSpaceOnUse" width="144" x="-1.42109e-14" y="0">
<rect fill="#000000" height="144" stroke="none" width="144" x="-1.42109e-14" y="0"/>
<use fill="#ffffff" fill-rule="evenodd" stroke="none" xlink:href="#Fill"/>
</mask>
</g>
<g fill="#00507d" opacity="1" stroke="none"/>
<g opacity="1">
<path d="M48.78 91.5316L95.22 91.5316L95.22 91.5316L95.22 113.563L95.22 113.563L48.78 113.563L48.78 113.563L48.78 91.5316L48.78 91.5316Z" fill="#ba0000" fill-rule="nonzero" opacity="1" stroke="none"/>
<path d="M48.78 69.5313L95.22 69.5313L95.22 69.5313L95.22 87.5313L95.22 87.5313L48.78 87.5313L48.78 87.5313L48.78 69.5313L48.78 69.5313Z" fill="#ba0000" fill-rule="nonzero" opacity="1" stroke="none"/>
<path d="M48.78 47.5626L95.22 47.5626L95.22 47.5626L95.22 63.7307L95.22 63.7307L48.78 63.7307L48.78 63.7307L48.78 47.5626L48.78 47.5626Z" fill="#ba0000" fill-rule="nonzero" opacity="1" stroke="none"/>
<path d="M48.78 27.5628L95.22 27.5628L95.22 27.5628L95.22 37.5629L95.22 37.5629L48.78 37.5629L48.78 37.5629L48.78 27.5628L48.78 27.5628Z" fill="#ba0000" fill-rule="nonzero" opacity="1" stroke="none"/>
<path d="M48.78 5.56273L95.22 5.56273L95.22 5.56273L95.22 11.7297L95.22 11.7297L48.78 11.7297L48.78 11.7297L48.78 5.56273L48.78 5.56273Z" fill="#ba0000" fill-rule="nonzero" opacity="1" stroke="none"/>
</g>
</g>
</svg>
