<?xml version="1.0" encoding="UTF-8" standalone="no"?>
<!DOCTYPE svg PUBLIC "-//W3C//DTD SVG 1.1//EN" "http://www.w3.org/Graphics/SVG/1.1/DTD/svg11.dtd">
<!-- Created with Vectornator (http://vectornator.io/) -->
<svg stroke-miterlimit="10" style="fill-rule:nonzero;clip-rule:evenodd;stroke-linecap:round;stroke-linejoin:round;" version="1.1" viewBox="0 0 144 144" xml:space="preserve" xmlns="http://www.w3.org/2000/svg" xmlns:xlink="http://www.w3.org/1999/xlink">
<defs>
<clipPath id="TextBounds">
<rect height="27.4373" width="144" x="0" y="113.563"/>
</clipPath>
<path d="M12.7163 0L131.284 0C138.307 0 144 5.78672 144 12.925L144 131.075C144 138.213 138.307 144 131.284 144L12.7163 144C5.69329 144-1.42109e-14 138.213-1.42109e-14 131.075L-1.42109e-14 12.925C-1.42109e-14 5.78672 5.69329 0 12.7163 0Z" id="Fill"/>
<clipPath id="TextBounds_2">
<rect height="0.7496" width="0" x="74.8429" y="77.7748"/>
</clipPath>
</defs>
<clipPath id="ArtboardFrame">
<rect height="144" width="144" x="0" y="0"/>
</clipPath>
<g clip-path="url(#ArtboardFrame)" id="Layer-1">
<g fill="#00507d" opacity="1" stroke="none">
<path clip-path="url(#TextBounds)" d="M10.728 127.491L10.728 122.355L13.656 122.355C14.088 122.355 14.504 122.387 14.904 122.451C15.304 122.515 15.656 122.639 15.96 122.823C16.264 123.007 16.508 123.267 16.692 123.603C16.876 123.939 16.968 124.379 16.968 124.923C16.968 125.467 16.876 125.907 16.692 126.243C16.508 126.579 16.264 126.839 15.96 127.023C15.656 127.207 15.304 127.331 14.904 127.395C14.504 127.459 14.088 127.491 13.656 127.491L10.728 127.491ZM6.96 119.427L6.96 136.563L10.728 136.563L10.728 130.419L14.688 130.419C15.76 130.419 16.672 130.263 17.424 129.951C18.176 129.639 18.788 129.227 19.26 128.715C19.732 128.203 20.076 127.615 20.292 126.951C20.508 126.287 20.616 125.611 20.616 124.923C20.616 124.219 20.508 123.539 20.292 122.883C20.076 122.227 19.732 121.643 19.26 121.131C18.788 120.619 18.176 120.207 17.424 119.895C16.672 119.583 15.76 119.427 14.688 119.427L6.96 119.427Z"/>
<path clip-path="url(#TextBounds)" d="M22.608 127.971L24.12 127.971C24.152 126.963 24.472 126.231 25.08 125.775C25.688 125.319 26.472 125.091 27.432 125.091C27.88 125.091 28.3 125.127 28.692 125.199C29.084 125.271 29.428 125.403 29.724 125.595C30.02 125.787 30.252 126.047 30.42 126.375C30.588 126.703 30.672 127.123 30.672 127.635C30.672 127.971 30.628 128.243 30.54 128.451C30.452 128.659 30.328 128.823 30.168 128.943C30.008 129.063 29.808 129.147 29.568 129.195C29.328 129.243 29.048 129.283 28.728 129.315C27.912 129.411 27.108 129.511 26.316 129.615C25.524 129.719 24.812 129.899 24.18 130.155C23.548 130.411 23.04 130.783 22.656 131.271C22.272 131.759 22.08 132.435 22.08 133.299C22.08 133.923 22.188 134.463 22.404 134.919C22.62 135.375 22.916 135.751 23.292 136.047C23.668 136.343 24.108 136.559 24.612 136.695C25.116 136.831 25.656 136.899 26.232 136.899C26.84 136.899 27.364 136.843 27.804 136.731C28.244 136.619 28.636 136.459 28.98 136.251C29.324 136.043 29.636 135.783 29.916 135.471C30.196 135.159 30.472 134.803 30.744 134.403L30.792 134.403C30.792 134.723 30.812 135.015 30.852 135.279C30.892 135.543 30.976 135.771 31.104 135.963C31.232 136.155 31.412 136.303 31.644 136.407C31.876 136.511 32.184 136.563 32.568 136.563C32.776 136.563 32.948 136.555 33.084 136.539C33.22 136.523 33.376 136.499 33.552 136.467L33.552 135.195C33.408 135.259 33.248 135.291 33.072 135.291C32.48 135.291 32.184 134.987 32.184 134.379L32.184 127.803C32.184 126.971 32.048 126.295 31.776 125.775C31.504 125.255 31.152 124.851 30.72 124.563C30.288 124.275 29.8 124.079 29.256 123.975C28.712 123.871 28.168 123.819 27.624 123.819C26.904 123.819 26.248 123.899 25.656 124.059C25.064 124.219 24.548 124.467 24.108 124.803C23.668 125.139 23.32 125.571 23.064 126.099C22.808 126.627 22.656 127.251 22.608 127.971ZM30.672 129.795L30.672 131.763C30.672 132.371 30.556 132.915 30.324 133.395C30.092 133.875 29.78 134.283 29.388 134.619C28.996 134.955 28.536 135.211 28.008 135.387C27.48 135.563 26.928 135.651 26.352 135.651C26 135.651 25.656 135.595 25.32 135.483C24.984 135.371 24.688 135.207 24.432 134.991C24.176 134.775 23.972 134.519 23.82 134.223C23.668 133.927 23.592 133.587 23.592 133.203C23.592 132.595 23.772 132.127 24.132 131.799C24.492 131.471 24.952 131.219 25.512 131.043C26.072 130.867 26.692 130.735 27.372 130.647C28.052 130.559 28.712 130.459 29.352 130.347C29.56 130.315 29.8 130.259 30.072 130.179C30.344 130.099 30.528 129.971 30.624 129.795L30.672 129.795Z"/>
<path clip-path="url(#TextBounds)" d="M46.104 136.563L46.104 119.427L44.592 119.427L44.592 126.531L44.544 126.531C44.384 126.083 44.156 125.691 43.86 125.355C43.564 125.019 43.224 124.735 42.84 124.503C42.456 124.271 42.044 124.099 41.604 123.987C41.164 123.875 40.712 123.819 40.248 123.819C39.304 123.819 38.484 123.995 37.788 124.347C37.092 124.699 36.512 125.175 36.048 125.775C35.584 126.375 35.24 127.071 35.016 127.863C34.792 128.655 34.68 129.491 34.68 130.371C34.68 131.251 34.792 132.087 35.016 132.879C35.24 133.671 35.584 134.367 36.048 134.967C36.512 135.567 37.092 136.039 37.788 136.383C38.484 136.727 39.304 136.899 40.248 136.899C40.696 136.899 41.148 136.835 41.604 136.707C42.06 136.579 42.488 136.399 42.888 136.167C43.288 135.935 43.644 135.651 43.956 135.315C44.268 134.979 44.504 134.611 44.664 134.211L44.712 134.211L44.712 136.563L46.104 136.563ZM36.192 130.371C36.192 129.731 36.268 129.095 36.42 128.463C36.572 127.831 36.812 127.267 37.14 126.771C37.468 126.275 37.888 125.871 38.4 125.559C38.912 125.247 39.528 125.091 40.248 125.091C41.048 125.091 41.724 125.247 42.276 125.559C42.828 125.871 43.276 126.275 43.62 126.771C43.964 127.267 44.212 127.831 44.364 128.463C44.516 129.095 44.592 129.731 44.592 130.371C44.592 131.011 44.516 131.647 44.364 132.279C44.212 132.911 43.964 133.475 43.62 133.971C43.276 134.467 42.828 134.871 42.276 135.183C41.724 135.495 41.048 135.651 40.248 135.651C39.528 135.651 38.912 135.495 38.4 135.183C37.888 134.871 37.468 134.467 37.14 133.971C36.812 133.475 36.572 132.911 36.42 132.279C36.268 131.647 36.192 131.011 36.192 130.371Z"/>
<path clip-path="url(#TextBounds)" d="M59.88 136.563L59.88 119.427L58.368 119.427L58.368 126.531L58.32 126.531C58.16 126.083 57.932 125.691 57.636 125.355C57.34 125.019 57 124.735 56.616 124.503C56.232 124.271 55.82 124.099 55.38 123.987C54.94 123.875 54.488 123.819 54.024 123.819C53.08 123.819 52.26 123.995 51.564 124.347C50.868 124.699 50.288 125.175 49.824 125.775C49.36 126.375 49.016 127.071 48.792 127.863C48.568 128.655 48.456 129.491 48.456 130.371C48.456 131.251 48.568 132.087 48.792 132.879C49.016 133.671 49.36 134.367 49.824 134.967C50.288 135.567 50.868 136.039 51.564 136.383C52.26 136.727 53.08 136.899 54.024 136.899C54.472 136.899 54.924 136.835 55.38 136.707C55.836 136.579 56.264 136.399 56.664 136.167C57.064 135.935 57.42 135.651 57.732 135.315C58.044 134.979 58.28 134.611 58.44 134.211L58.488 134.211L58.488 136.563L59.88 136.563ZM49.968 130.371C49.968 129.731 50.044 129.095 50.196 128.463C50.348 127.831 50.588 127.267 50.916 126.771C51.244 126.275 51.664 125.871 52.176 125.559C52.688 125.247 53.304 125.091 54.024 125.091C54.824 125.091 55.5 125.247 56.052 125.559C56.604 125.871 57.052 126.275 57.396 126.771C57.74 127.267 57.988 127.831 58.14 128.463C58.292 129.095 58.368 129.731 58.368 130.371C58.368 131.011 58.292 131.647 58.14 132.279C57.988 132.911 57.74 133.475 57.396 133.971C57.052 134.467 56.604 134.871 56.052 135.183C55.5 135.495 54.824 135.651 54.024 135.651C53.304 135.651 52.688 135.495 52.176 135.183C51.664 134.871 51.244 134.467 50.916 133.971C50.588 133.475 50.348 132.911 50.196 132.279C50.044 131.647 49.968 131.011 49.968 130.371Z"/>
<path clip-path="url(#TextBounds)" d="M62.784 119.427L62.784 136.563L64.296 136.563L64.296 119.427L62.784 119.427Z"/>
<path clip-path="url(#TextBounds)" d="M76.104 129.507L68.088 129.507C68.152 128.947 68.284 128.399 68.484 127.863C68.684 127.327 68.952 126.855 69.288 126.447C69.624 126.039 70.032 125.711 70.512 125.463C70.992 125.215 71.544 125.091 72.168 125.091C72.776 125.091 73.32 125.215 73.8 125.463C74.28 125.711 74.688 126.039 75.024 126.447C75.36 126.855 75.62 127.323 75.804 127.851C75.988 128.379 76.088 128.931 76.104 129.507ZM68.088 130.779L77.616 130.779C77.648 129.915 77.568 129.063 77.376 128.223C77.184 127.383 76.868 126.639 76.428 125.991C75.988 125.343 75.416 124.819 74.712 124.419C74.008 124.019 73.16 123.819 72.168 123.819C71.192 123.819 70.348 124.007 69.636 124.383C68.924 124.759 68.344 125.255 67.896 125.871C67.448 126.487 67.116 127.187 66.9 127.971C66.684 128.755 66.576 129.555 66.576 130.371C66.576 131.251 66.684 132.087 66.9 132.879C67.116 133.671 67.448 134.367 67.896 134.967C68.344 135.567 68.924 136.039 69.636 136.383C70.348 136.727 71.192 136.899 72.168 136.899C73.736 136.899 74.948 136.515 75.804 135.747C76.66 134.979 77.248 133.891 77.568 132.483L76.056 132.483C75.816 133.443 75.384 134.211 74.76 134.787C74.136 135.363 73.272 135.651 72.168 135.651C71.448 135.651 70.832 135.499 70.32 135.195C69.808 134.891 69.384 134.507 69.048 134.043C68.712 133.579 68.468 133.055 68.316 132.471C68.164 131.887 68.088 131.323 68.088 130.779Z"/>
<path clip-path="url(#TextBounds)" d="M79.656 119.427L79.656 136.563L81.048 136.563L81.048 134.211L81.096 134.211C81.448 135.075 82.02 135.739 82.812 136.203C83.604 136.667 84.504 136.899 85.512 136.899C86.456 136.899 87.276 136.727 87.972 136.383C88.668 136.039 89.248 135.567 89.712 134.967C90.176 134.367 90.52 133.671 90.744 132.879C90.968 132.087 91.08 131.251 91.08 130.371C91.08 129.491 90.968 128.655 90.744 127.863C90.52 127.071 90.176 126.375 89.712 125.775C89.248 125.175 88.668 124.699 87.972 124.347C87.276 123.995 86.456 123.819 85.512 123.819C85.064 123.819 84.616 123.875 84.168 123.987C83.72 124.099 83.304 124.271 82.92 124.503C82.536 124.735 82.196 125.019 81.9 125.355C81.604 125.691 81.376 126.083 81.216 126.531L81.168 126.531L81.168 119.427L79.656 119.427ZM89.568 130.371C89.568 131.011 89.492 131.647 89.34 132.279C89.188 132.911 88.948 133.475 88.62 133.971C88.292 134.467 87.872 134.871 87.36 135.183C86.848 135.495 86.232 135.651 85.512 135.651C84.712 135.651 84.036 135.495 83.484 135.183C82.932 134.871 82.484 134.467 82.14 133.971C81.796 133.475 81.548 132.911 81.396 132.279C81.244 131.647 81.168 131.011 81.168 130.371C81.168 129.731 81.244 129.095 81.396 128.463C81.548 127.831 81.796 127.267 82.14 126.771C82.484 126.275 82.932 125.871 83.484 125.559C84.036 125.247 84.712 125.091 85.512 125.091C86.232 125.091 86.848 125.247 87.36 125.559C87.872 125.871 88.292 126.275 88.62 126.771C88.948 127.267 89.188 127.831 89.34 128.463C89.492 129.095 89.568 129.731 89.568 130.371Z"/>
<path clip-path="url(#TextBounds)" d="M98.664 125.091C99.384 125.091 100.016 125.243 100.56 125.547C101.104 125.851 101.556 126.251 101.916 126.747C102.276 127.243 102.548 127.807 102.732 128.439C102.916 129.071 103.008 129.715 103.008 130.371C103.008 131.027 102.916 131.671 102.732 132.303C102.548 132.935 102.276 133.499 101.916 133.995C101.556 134.491 101.104 134.891 100.56 135.195C100.016 135.499 99.384 135.651 98.664 135.651C97.944 135.651 97.312 135.499 96.768 135.195C96.224 134.891 95.772 134.491 95.412 133.995C95.052 133.499 94.78 132.935 94.596 132.303C94.412 131.671 94.32 131.027 94.32 130.371C94.32 129.715 94.412 129.071 94.596 128.439C94.78 127.807 95.052 127.243 95.412 126.747C95.772 126.251 96.224 125.851 96.768 125.547C97.312 125.243 97.944 125.091 98.664 125.091ZM98.664 123.819C97.72 123.819 96.884 123.995 96.156 124.347C95.428 124.699 94.816 125.171 94.32 125.763C93.824 126.355 93.448 127.047 93.192 127.839C92.936 128.631 92.808 129.475 92.808 130.371C92.808 131.267 92.936 132.111 93.192 132.903C93.448 133.695 93.824 134.387 94.32 134.979C94.816 135.571 95.428 136.039 96.156 136.383C96.884 136.727 97.72 136.899 98.664 136.899C99.608 136.899 100.444 136.727 101.172 136.383C101.9 136.039 102.512 135.571 103.008 134.979C103.504 134.387 103.88 133.695 104.136 132.903C104.392 132.111 104.52 131.267 104.52 130.371C104.52 129.475 104.392 128.631 104.136 127.839C103.88 127.047 103.504 126.355 103.008 125.763C102.512 125.171 101.9 124.699 101.172 124.347C100.444 123.995 99.608 123.819 98.664 123.819Z"/>
<path clip-path="url(#TextBounds)" d="M106.632 127.971L108.144 127.971C108.176 126.963 108.496 126.231 109.104 125.775C109.712 125.319 110.496 125.091 111.456 125.091C111.904 125.091 112.324 125.127 112.716 125.199C113.108 125.271 113.452 125.403 113.748 125.595C114.044 125.787 114.276 126.047 114.444 126.375C114.612 126.703 114.696 127.123 114.696 127.635C114.696 127.971 114.652 128.243 114.564 128.451C114.476 128.659 114.352 128.823 114.192 128.943C114.032 129.063 113.832 129.147 113.592 129.195C113.352 129.243 113.072 129.283 112.752 129.315C111.936 129.411 111.132 129.511 110.34 129.615C109.548 129.719 108.836 129.899 108.204 130.155C107.572 130.411 107.064 130.783 106.68 131.271C106.296 131.759 106.104 132.435 106.104 133.299C106.104 133.923 106.212 134.463 106.428 134.919C106.644 135.375 106.94 135.751 107.316 136.047C107.692 136.343 108.132 136.559 108.636 136.695C109.14 136.831 109.68 136.899 110.256 136.899C110.864 136.899 111.388 136.843 111.828 136.731C112.268 136.619 112.66 136.459 113.004 136.251C113.348 136.043 113.66 135.783 113.94 135.471C114.22 135.159 114.496 134.803 114.768 134.403L114.816 134.403C114.816 134.723 114.836 135.015 114.876 135.279C114.916 135.543 115 135.771 115.128 135.963C115.256 136.155 115.436 136.303 115.668 136.407C115.9 136.511 116.208 136.563 116.592 136.563C116.8 136.563 116.972 136.555 117.108 136.539C117.244 136.523 117.4 136.499 117.576 136.467L117.576 135.195C117.432 135.259 117.272 135.291 117.096 135.291C116.504 135.291 116.208 134.987 116.208 134.379L116.208 127.803C116.208 126.971 116.072 126.295 115.8 125.775C115.528 125.255 115.176 124.851 114.744 124.563C114.312 124.275 113.824 124.079 113.28 123.975C112.736 123.871 112.192 123.819 111.648 123.819C110.928 123.819 110.272 123.899 109.68 124.059C109.088 124.219 108.572 124.467 108.132 124.803C107.692 125.139 107.344 125.571 107.088 126.099C106.832 126.627 106.68 127.251 106.632 127.971ZM114.696 129.795L114.696 131.763C114.696 132.371 114.58 132.915 114.348 133.395C114.116 133.875 113.804 134.283 113.412 134.619C113.02 134.955 112.56 135.211 112.032 135.387C111.504 135.563 110.952 135.651 110.376 135.651C110.024 135.651 109.68 135.595 109.344 135.483C109.008 135.371 108.712 135.207 108.456 134.991C108.2 134.775 107.996 134.519 107.844 134.223C107.692 133.927 107.616 133.587 107.616 133.203C107.616 132.595 107.796 132.127 108.156 131.799C108.516 131.471 108.976 131.219 109.536 131.043C110.096 130.867 110.716 130.735 111.396 130.647C112.076 130.559 112.736 130.459 113.376 130.347C113.584 130.315 113.824 130.259 114.096 130.179C114.368 130.099 114.552 129.971 114.648 129.795L114.696 129.795Z"/>
<path clip-path="url(#TextBounds)" d="M119.232 124.179L119.232 136.563L120.744 136.563L120.744 129.963C120.744 129.307 120.856 128.703 121.08 128.151C121.304 127.599 121.62 127.123 122.028 126.723C122.436 126.323 122.92 126.015 123.48 125.799C124.04 125.583 124.664 125.491 125.352 125.523L125.352 124.011C124.232 123.963 123.268 124.211 122.46 124.755C121.652 125.299 121.056 126.075 120.672 127.083L120.624 127.083L120.624 124.179L119.232 124.179Z"/>
<path clip-path="url(#TextBounds)" d="M137.256 136.563L137.256 119.427L135.744 119.427L135.744 126.531L135.696 126.531C135.536 126.083 135.308 125.691 135.012 125.355C134.716 125.019 134.376 124.735 133.992 124.503C133.608 124.271 133.196 124.099 132.756 123.987C132.316 123.875 131.864 123.819 131.4 123.819C130.456 123.819 129.636 123.995 128.94 124.347C128.244 124.699 127.664 125.175 127.2 125.775C126.736 126.375 126.392 127.071 126.168 127.863C125.944 128.655 125.832 129.491 125.832 130.371C125.832 131.251 125.944 132.087 126.168 132.879C126.392 133.671 126.736 134.367 127.2 134.967C127.664 135.567 128.244 136.039 128.94 136.383C129.636 136.727 130.456 136.899 131.4 136.899C131.848 136.899 132.3 136.835 132.756 136.707C133.212 136.579 133.64 136.399 134.04 136.167C134.44 135.935 134.796 135.651 135.108 135.315C135.42 134.979 135.656 134.611 135.816 134.211L135.864 134.211L135.864 136.563L137.256 136.563ZM127.344 130.371C127.344 129.731 127.42 129.095 127.572 128.463C127.724 127.831 127.964 127.267 128.292 126.771C128.62 126.275 129.04 125.871 129.552 125.559C130.064 125.247 130.68 125.091 131.4 125.091C132.2 125.091 132.876 125.247 133.428 125.559C133.98 125.871 134.428 126.275 134.772 126.771C135.116 127.267 135.364 127.831 135.516 128.463C135.668 129.095 135.744 129.731 135.744 130.371C135.744 131.011 135.668 131.647 135.516 132.279C135.364 132.911 135.116 133.475 134.772 133.971C134.428 134.467 133.98 134.871 133.428 135.183C132.876 135.495 132.2 135.651 131.4 135.651C130.68 135.651 130.064 135.495 129.552 135.183C129.04 134.871 128.62 134.467 128.292 133.971C127.964 133.475 127.724 132.911 127.572 132.279C127.42 131.647 127.344 131.011 127.344 130.371Z"/>
<path clip-path="url(#TextBounds)" d="M5.304 137.763L21.312 137.763L21.312 138.963L5.304 138.963L5.304 137.763Z"/>
</g>
<g opacity="1">
<mask height="144" id="StrokeMask" maskUnits="userSpaceOnUse" width="144" x="-1.42109e-14" y="0">
<rect fill="#000000" height="144" stroke="none" width="144" x="-1.42109e-14" y="0"/>
<use fill="#ffffff" fill-rule="evenodd" stroke="none" xlink:href="#Fill"/>
</mask>
</g>
<g fill="#00507d" opacity="1" stroke="none"/>
<path d="M81.7652 90.2379C81.7652 90.2379 83.5132 96.3882 82.3352 104.178C82.3352 104.178 78.1544 105.023 75.55 102.419C76.1823 96.3362 80.0973 89.6307 80.0973 89.6307L81.7652 90.2379Z" fill="#000000" fill-rule="nonzero" opacity="1" stroke="none"/>
<path d="M90.5762 36.3422L79.7116 97.3687" fill="none" opacity="1" stroke="#000000" stroke-linecap="round" stroke-linejoin="round" stroke-width="1"/>
<g opacity="1">
<path d="M116.395 85.5986L27.6053 85.8118" fill="none" opacity="1" stroke="#000000" stroke-linecap="round" stroke-linejoin="round" stroke-width="2"/>
<path d="M32.8797 86.6189C32.8797 86.6189 33.2052 87.41 32.5351 89.2114C31.865 91.0127 30.1994 93.8243 30.1994 93.8243C30.1994 93.8243 37.7897 91.0669 39.7079 86.6225L32.8797 86.6189Z" fill="#000000" fill-rule="nonzero" opacity="1" stroke="none"/>
</g>
<path d="M69.2038 25.1654C66.6324 26.4798 65.4779 29.9335 66.6251 32.8795C67.7723 35.8256 70.7868 37.1483 73.3582 35.8339C75.9296 34.5196 77.0841 31.0658 75.9369 28.1198C74.7897 25.1738 71.7751 23.851 69.2038 25.1654Z" fill="#000000" fill-rule="nonzero" opacity="1" stroke="none"/>
<path d="M72.1433 41.3159L78.4497 52.3537L86.1071 57.7222M69.7623 58.1393L76.3805 70.0029L77.8045 81.8666M66.1815 66.8554C66.1815 69.6229 60.0494 81.8666 60.0494 81.8666M67.5877 39.8841L78.4497 38.6821L88.603 38.6821" fill="none" opacity="1" stroke="#000000" stroke-linecap="round" stroke-linejoin="round" stroke-width="4"/>
<path d="M72.3267 38.9196L67.7711 38.6898C67.0462 38.5486 65.9718 40.377 65.9116 41.9428L64.0463 57.2234C63.7799 59.4064 65.1494 61.7764 67.241 61.9865L74.2779 66.1658C74.2779 66.1658 72.5186 60.0564 72.6418 59.2259L74.2779 42.7832C74.1318 41.8346 73.5072 39.0837 72.3267 38.9196ZM66.7883 63.2647C65.794 63.0053 64.7168 62.5326 63.9288 61.6562L63.648 68.9633C63.4217 70.1023 64.1895 71.5007 65.1837 71.7601C65.6393 71.783 66.0948 71.806 66.4673 71.6156C67.026 71.3301 67.5016 70.8311 67.6248 70.0006L69.6878 63.8293L66.7883 63.2647Z" fill="#000000" fill-rule="nonzero" opacity="1" stroke="none"/>
</g>
</svg>
