<?xml version="1.0" encoding="UTF-8" standalone="no"?>
<!DOCTYPE svg PUBLIC "-//W3C//DTD SVG 1.1//EN" "http://www.w3.org/Graphics/SVG/1.1/DTD/svg11.dtd">
<!-- Created with Vectornator (http://vectornator.io/) -->
<svg height="100%" stroke-miterlimit="10" style="fill-rule:nonzero;clip-rule:evenodd;stroke-linecap:round;stroke-linejoin:round;" version="1.1" viewBox="0 0 144 144" width="100%" xml:space="preserve" xmlns="http://www.w3.org/2000/svg" xmlns:xlink="http://www.w3.org/1999/xlink">
<defs>
<clipPath id="TextBounds">
<rect height="27.4373" width="144" x="0" y="113.563"/>
</clipPath>
<path d="M12.7163 0L131.284 0C138.307 0 144 5.78672 144 12.925L144 131.075C144 138.213 138.307 144 131.284 144L12.7163 144C5.69329 144-1.42109e-14 138.213-1.42109e-14 131.075L-1.42109e-14 12.925C-1.42109e-14 5.78672 5.69329 0 12.7163 0Z" id="Fill"/>
</defs>
<clipPath id="ArtboardFrame">
<rect height="144" width="144" x="0" y="0"/>
</clipPath>
<g clip-path="url(#ArtboardFrame)" id="Layer-1">
<g fill="#00507d" opacity="1" stroke="none">
<path clip-path="url(#TextBounds)" d="M8.292 127.491L8.292 122.355L11.22 122.355C11.652 122.355 12.068 122.387 12.468 122.451C12.868 122.515 13.22 122.639 13.524 122.823C13.828 123.007 14.072 123.267 14.256 123.603C14.44 123.939 14.532 124.379 14.532 124.923C14.532 125.467 14.44 125.907 14.256 126.243C14.072 126.579 13.828 126.839 13.524 127.023C13.22 127.207 12.868 127.331 12.468 127.395C12.068 127.459 11.652 127.491 11.22 127.491L8.292 127.491ZM4.524 119.427L4.524 136.563L8.292 136.563L8.292 130.419L12.252 130.419C13.324 130.419 14.236 130.263 14.988 129.951C15.74 129.639 16.352 129.227 16.824 128.715C17.296 128.203 17.64 127.615 17.856 126.951C18.072 126.287 18.18 125.611 18.18 124.923C18.18 124.219 18.072 123.539 17.856 122.883C17.64 122.227 17.296 121.643 16.824 121.131C16.352 120.619 15.74 120.207 14.988 119.895C14.236 119.583 13.324 119.427 12.252 119.427L4.524 119.427Z"/>
<path clip-path="url(#TextBounds)" d="M31.404 136.515C31.052 136.723 30.564 136.827 29.94 136.827C29.412 136.827 28.992 136.679 28.68 136.383C28.368 136.087 28.212 135.603 28.212 134.931C27.652 135.603 27 136.087 26.256 136.383C25.512 136.679 24.708 136.827 23.844 136.827C23.284 136.827 22.752 136.763 22.248 136.635C21.744 136.507 21.308 136.307 20.94 136.035C20.572 135.763 20.28 135.407 20.064 134.967C19.848 134.527 19.74 133.995 19.74 133.371C19.74 132.667 19.86 132.091 20.1 131.643C20.34 131.195 20.656 130.831 21.048 130.551C21.44 130.271 21.888 130.059 22.392 129.915C22.896 129.771 23.412 129.651 23.94 129.555C24.5 129.443 25.032 129.359 25.536 129.303C26.04 129.247 26.484 129.167 26.868 129.063C27.252 128.959 27.556 128.807 27.78 128.607C28.004 128.407 28.116 128.115 28.116 127.731C28.116 127.283 28.032 126.923 27.864 126.651C27.696 126.379 27.48 126.171 27.216 126.027C26.952 125.883 26.656 125.787 26.328 125.739C26 125.691 25.676 125.667 25.356 125.667C24.492 125.667 23.772 125.831 23.196 126.159C22.62 126.487 22.308 127.107 22.26 128.019L20.22 128.019C20.252 127.251 20.412 126.603 20.7 126.075C20.988 125.547 21.372 125.119 21.852 124.791C22.332 124.463 22.88 124.227 23.496 124.083C24.112 123.939 24.772 123.867 25.476 123.867C26.036 123.867 26.592 123.907 27.144 123.987C27.696 124.067 28.196 124.231 28.644 124.479C29.092 124.727 29.452 125.075 29.724 125.523C29.996 125.971 30.132 126.555 30.132 127.275L30.132 133.659C30.132 134.139 30.16 134.491 30.216 134.715C30.272 134.939 30.46 135.051 30.78 135.051C30.956 135.051 31.164 135.011 31.404 134.931L31.404 136.515ZM28.092 130.155C27.836 130.347 27.5 130.487 27.084 130.575C26.668 130.663 26.232 130.735 25.776 130.791C25.32 130.847 24.86 130.911 24.396 130.983C23.932 131.055 23.516 131.171 23.148 131.331C22.78 131.491 22.48 131.719 22.248 132.015C22.016 132.311 21.9 132.715 21.9 133.227C21.9 133.563 21.968 133.847 22.104 134.079C22.24 134.311 22.416 134.499 22.632 134.643C22.848 134.787 23.1 134.891 23.388 134.955C23.676 135.019 23.98 135.051 24.3 135.051C24.972 135.051 25.548 134.959 26.028 134.775C26.508 134.591 26.9 134.359 27.204 134.079C27.508 133.799 27.732 133.495 27.876 133.167C28.02 132.839 28.092 132.531 28.092 132.243L28.092 130.155Z"/>
<path clip-path="url(#TextBounds)" d="M34.788 130.467C34.788 129.859 34.852 129.267 34.98 128.691C35.108 128.115 35.316 127.603 35.604 127.155C35.892 126.707 36.276 126.347 36.756 126.075C37.236 125.803 37.82 125.667 38.508 125.667C39.212 125.667 39.812 125.799 40.308 126.063C40.804 126.327 41.208 126.675 41.52 127.107C41.832 127.539 42.06 128.039 42.204 128.607C42.348 129.175 42.42 129.763 42.42 130.371C42.42 130.947 42.352 131.515 42.216 132.075C42.08 132.635 41.86 133.135 41.556 133.575C41.252 134.015 40.86 134.371 40.38 134.643C39.9 134.915 39.316 135.051 38.628 135.051C37.972 135.051 37.4 134.923 36.912 134.667C36.424 134.411 36.024 134.067 35.712 133.635C35.4 133.203 35.168 132.711 35.016 132.159C34.864 131.607 34.788 131.043 34.788 130.467ZM44.388 136.563L44.388 119.427L42.348 119.427L42.348 125.811L42.3 125.811C42.076 125.443 41.8 125.135 41.472 124.887C41.144 124.639 40.796 124.439 40.428 124.287C40.06 124.135 39.692 124.027 39.324 123.963C38.956 123.899 38.612 123.867 38.292 123.867C37.348 123.867 36.52 124.039 35.808 124.383C35.096 124.727 34.504 125.191 34.032 125.775C33.56 126.359 33.208 127.043 32.976 127.827C32.744 128.611 32.628 129.443 32.628 130.323C32.628 131.203 32.748 132.035 32.988 132.819C33.228 133.603 33.584 134.291 34.056 134.883C34.528 135.475 35.12 135.947 35.832 136.299C36.544 136.651 37.38 136.827 38.34 136.827C39.204 136.827 39.996 136.675 40.716 136.371C41.436 136.067 41.964 135.571 42.3 134.883L42.348 134.883L42.348 136.563L44.388 136.563Z"/>
<path clip-path="url(#TextBounds)" d="M49.02 130.467C49.02 129.859 49.084 129.267 49.212 128.691C49.34 128.115 49.548 127.603 49.836 127.155C50.124 126.707 50.508 126.347 50.988 126.075C51.468 125.803 52.052 125.667 52.74 125.667C53.444 125.667 54.044 125.799 54.54 126.063C55.036 126.327 55.44 126.675 55.752 127.107C56.064 127.539 56.292 128.039 56.436 128.607C56.58 129.175 56.652 129.763 56.652 130.371C56.652 130.947 56.584 131.515 56.448 132.075C56.312 132.635 56.092 133.135 55.788 133.575C55.484 134.015 55.092 134.371 54.612 134.643C54.132 134.915 53.548 135.051 52.86 135.051C52.204 135.051 51.632 134.923 51.144 134.667C50.656 134.411 50.256 134.067 49.944 133.635C49.632 133.203 49.4 132.711 49.248 132.159C49.096 131.607 49.02 131.043 49.02 130.467ZM58.62 136.563L58.62 119.427L56.58 119.427L56.58 125.811L56.532 125.811C56.308 125.443 56.032 125.135 55.704 124.887C55.376 124.639 55.028 124.439 54.66 124.287C54.292 124.135 53.924 124.027 53.556 123.963C53.188 123.899 52.844 123.867 52.524 123.867C51.58 123.867 50.752 124.039 50.04 124.383C49.328 124.727 48.736 125.191 48.264 125.775C47.792 126.359 47.44 127.043 47.208 127.827C46.976 128.611 46.86 129.443 46.86 130.323C46.86 131.203 46.98 132.035 47.22 132.819C47.46 133.603 47.816 134.291 48.288 134.883C48.76 135.475 49.352 135.947 50.064 136.299C50.776 136.651 51.612 136.827 52.572 136.827C53.436 136.827 54.228 136.675 54.948 136.371C55.668 136.067 56.196 135.571 56.532 134.883L56.58 134.883L56.58 136.563L58.62 136.563Z"/>
<path clip-path="url(#TextBounds)" d="M61.884 119.427L61.884 136.563L63.924 136.563L63.924 119.427L61.884 119.427Z"/>
<path clip-path="url(#TextBounds)" d="M75.708 129.171L68.58 129.171C68.612 128.691 68.716 128.239 68.892 127.815C69.068 127.391 69.308 127.019 69.612 126.699C69.916 126.379 70.28 126.127 70.704 125.943C71.128 125.759 71.604 125.667 72.132 125.667C72.644 125.667 73.112 125.759 73.536 125.943C73.96 126.127 74.328 126.375 74.64 126.687C74.952 126.999 75.2 127.371 75.384 127.803C75.568 128.235 75.676 128.691 75.708 129.171ZM77.676 132.627L75.66 132.627C75.484 133.443 75.12 134.051 74.568 134.451C74.016 134.851 73.308 135.051 72.444 135.051C71.772 135.051 71.188 134.939 70.692 134.715C70.196 134.491 69.788 134.191 69.468 133.815C69.148 133.439 68.916 133.007 68.772 132.519C68.628 132.031 68.564 131.515 68.58 130.971L77.868 130.971C77.9 130.219 77.832 129.427 77.664 128.595C77.496 127.763 77.192 126.995 76.752 126.291C76.312 125.587 75.728 125.007 75 124.551C74.272 124.095 73.356 123.867 72.252 123.867C71.404 123.867 70.624 124.027 69.912 124.347C69.2 124.667 68.584 125.115 68.064 125.691C67.544 126.267 67.14 126.947 66.852 127.731C66.564 128.515 66.42 129.379 66.42 130.323C66.452 131.267 66.592 132.139 66.84 132.939C67.088 133.739 67.46 134.427 67.956 135.003C68.452 135.579 69.064 136.027 69.792 136.347C70.52 136.667 71.38 136.827 72.372 136.827C73.78 136.827 74.948 136.475 75.876 135.771C76.804 135.067 77.404 134.019 77.676 132.627Z"/>
<path clip-path="url(#TextBounds)" d="M80.052 119.427L80.052 136.563L82.092 136.563L82.092 134.907L82.14 134.907C82.364 135.275 82.64 135.583 82.968 135.831C83.296 136.079 83.644 136.275 84.012 136.419C84.38 136.563 84.752 136.667 85.128 136.731C85.504 136.795 85.844 136.827 86.148 136.827C87.092 136.827 87.92 136.659 88.632 136.323C89.344 135.987 89.936 135.527 90.408 134.943C90.88 134.359 91.232 133.675 91.464 132.891C91.696 132.107 91.812 131.275 91.812 130.395C91.812 129.515 91.692 128.683 91.452 127.899C91.212 127.115 90.856 126.423 90.384 125.823C89.912 125.223 89.32 124.747 88.608 124.395C87.896 124.043 87.06 123.867 86.1 123.867C85.236 123.867 84.444 124.023 83.724 124.335C83.004 124.647 82.476 125.147 82.14 125.835L82.092 125.835L82.092 119.427L80.052 119.427ZM89.652 130.251C89.652 130.859 89.588 131.451 89.46 132.027C89.332 132.603 89.124 133.115 88.836 133.563C88.548 134.011 88.168 134.371 87.696 134.643C87.224 134.915 86.636 135.051 85.932 135.051C85.228 135.051 84.628 134.919 84.132 134.655C83.636 134.391 83.232 134.043 82.92 133.611C82.608 133.179 82.38 132.679 82.236 132.111C82.092 131.543 82.02 130.955 82.02 130.347C82.02 129.771 82.088 129.203 82.224 128.643C82.36 128.083 82.58 127.583 82.884 127.143C83.188 126.703 83.58 126.347 84.06 126.075C84.54 125.803 85.124 125.667 85.812 125.667C86.468 125.667 87.04 125.795 87.528 126.051C88.016 126.307 88.416 126.651 88.728 127.083C89.04 127.515 89.272 128.007 89.424 128.559C89.576 129.111 89.652 129.675 89.652 130.251Z"/>
<path clip-path="url(#TextBounds)" d="M95.7 130.371C95.7 129.619 95.8 128.951 96 128.367C96.2 127.783 96.476 127.291 96.828 126.891C97.18 126.491 97.592 126.187 98.064 125.979C98.536 125.771 99.036 125.667 99.564 125.667C100.092 125.667 100.592 125.771 101.064 125.979C101.536 126.187 101.948 126.491 102.3 126.891C102.652 127.291 102.928 127.783 103.128 128.367C103.328 128.951 103.428 129.619 103.428 130.371C103.428 131.123 103.328 131.791 103.128 132.375C102.928 132.959 102.652 133.447 102.3 133.839C101.948 134.231 101.536 134.531 101.064 134.739C100.592 134.947 100.092 135.051 99.564 135.051C99.036 135.051 98.536 134.947 98.064 134.739C97.592 134.531 97.18 134.231 96.828 133.839C96.476 133.447 96.2 132.959 96 132.375C95.8 131.791 95.7 131.123 95.7 130.371ZM93.54 130.371C93.54 131.283 93.668 132.131 93.924 132.915C94.18 133.699 94.564 134.383 95.076 134.967C95.588 135.551 96.22 136.007 96.972 136.335C97.724 136.663 98.588 136.827 99.564 136.827C100.556 136.827 101.424 136.663 102.168 136.335C102.912 136.007 103.54 135.551 104.052 134.967C104.564 134.383 104.948 133.699 105.204 132.915C105.46 132.131 105.588 131.283 105.588 130.371C105.588 129.459 105.46 128.607 105.204 127.815C104.948 127.023 104.564 126.335 104.052 125.751C103.54 125.167 102.912 124.707 102.168 124.371C101.424 124.035 100.556 123.867 99.564 123.867C98.588 123.867 97.724 124.035 96.972 124.371C96.22 124.707 95.588 125.167 95.076 125.751C94.564 126.335 94.18 127.023 93.924 127.815C93.668 128.607 93.54 129.459 93.54 130.371Z"/>
<path clip-path="url(#TextBounds)" d="M118.98 136.515C118.628 136.723 118.14 136.827 117.516 136.827C116.988 136.827 116.568 136.679 116.256 136.383C115.944 136.087 115.788 135.603 115.788 134.931C115.228 135.603 114.576 136.087 113.832 136.383C113.088 136.679 112.284 136.827 111.42 136.827C110.86 136.827 110.328 136.763 109.824 136.635C109.32 136.507 108.884 136.307 108.516 136.035C108.148 135.763 107.856 135.407 107.64 134.967C107.424 134.527 107.316 133.995 107.316 133.371C107.316 132.667 107.436 132.091 107.676 131.643C107.916 131.195 108.232 130.831 108.624 130.551C109.016 130.271 109.464 130.059 109.968 129.915C110.472 129.771 110.988 129.651 111.516 129.555C112.076 129.443 112.608 129.359 113.112 129.303C113.616 129.247 114.06 129.167 114.444 129.063C114.828 128.959 115.132 128.807 115.356 128.607C115.58 128.407 115.692 128.115 115.692 127.731C115.692 127.283 115.608 126.923 115.44 126.651C115.272 126.379 115.056 126.171 114.792 126.027C114.528 125.883 114.232 125.787 113.904 125.739C113.576 125.691 113.252 125.667 112.932 125.667C112.068 125.667 111.348 125.831 110.772 126.159C110.196 126.487 109.884 127.107 109.836 128.019L107.796 128.019C107.828 127.251 107.988 126.603 108.276 126.075C108.564 125.547 108.948 125.119 109.428 124.791C109.908 124.463 110.456 124.227 111.072 124.083C111.688 123.939 112.348 123.867 113.052 123.867C113.612 123.867 114.168 123.907 114.72 123.987C115.272 124.067 115.772 124.231 116.22 124.479C116.668 124.727 117.028 125.075 117.3 125.523C117.572 125.971 117.708 126.555 117.708 127.275L117.708 133.659C117.708 134.139 117.736 134.491 117.792 134.715C117.848 134.939 118.036 135.051 118.356 135.051C118.532 135.051 118.74 135.011 118.98 134.931L118.98 136.515ZM115.668 130.155C115.412 130.347 115.076 130.487 114.66 130.575C114.244 130.663 113.808 130.735 113.352 130.791C112.896 130.847 112.436 130.911 111.972 130.983C111.508 131.055 111.092 131.171 110.724 131.331C110.356 131.491 110.056 131.719 109.824 132.015C109.592 132.311 109.476 132.715 109.476 133.227C109.476 133.563 109.544 133.847 109.68 134.079C109.816 134.311 109.992 134.499 110.208 134.643C110.424 134.787 110.676 134.891 110.964 134.955C111.252 135.019 111.556 135.051 111.876 135.051C112.548 135.051 113.124 134.959 113.604 134.775C114.084 134.591 114.476 134.359 114.78 134.079C115.084 133.799 115.308 133.495 115.452 133.167C115.596 132.839 115.668 132.531 115.668 132.243L115.668 130.155Z"/>
<path clip-path="url(#TextBounds)" d="M120.804 124.155L120.804 136.563L122.844 136.563L122.844 131.043C122.844 130.243 122.924 129.535 123.084 128.919C123.244 128.303 123.5 127.779 123.852 127.347C124.204 126.915 124.668 126.587 125.244 126.363C125.82 126.139 126.516 126.027 127.332 126.027L127.332 123.867C126.228 123.835 125.316 124.059 124.596 124.539C123.876 125.019 123.268 125.763 122.772 126.771L122.724 126.771L122.724 124.155L120.804 124.155Z"/>
<path clip-path="url(#TextBounds)" d="M129.924 130.467C129.924 129.859 129.988 129.267 130.116 128.691C130.244 128.115 130.452 127.603 130.74 127.155C131.028 126.707 131.412 126.347 131.892 126.075C132.372 125.803 132.956 125.667 133.644 125.667C134.348 125.667 134.948 125.799 135.444 126.063C135.94 126.327 136.344 126.675 136.656 127.107C136.968 127.539 137.196 128.039 137.34 128.607C137.484 129.175 137.556 129.763 137.556 130.371C137.556 130.947 137.488 131.515 137.352 132.075C137.216 132.635 136.996 133.135 136.692 133.575C136.388 134.015 135.996 134.371 135.516 134.643C135.036 134.915 134.452 135.051 133.764 135.051C133.108 135.051 132.536 134.923 132.048 134.667C131.56 134.411 131.16 134.067 130.848 133.635C130.536 133.203 130.304 132.711 130.152 132.159C130 131.607 129.924 131.043 129.924 130.467ZM139.524 136.563L139.524 119.427L137.484 119.427L137.484 125.811L137.436 125.811C137.212 125.443 136.936 125.135 136.608 124.887C136.28 124.639 135.932 124.439 135.564 124.287C135.196 124.135 134.828 124.027 134.46 123.963C134.092 123.899 133.748 123.867 133.428 123.867C132.484 123.867 131.656 124.039 130.944 124.383C130.232 124.727 129.64 125.191 129.168 125.775C128.696 126.359 128.344 127.043 128.112 127.827C127.88 128.611 127.764 129.443 127.764 130.323C127.764 131.203 127.884 132.035 128.124 132.819C128.364 133.603 128.72 134.291 129.192 134.883C129.664 135.475 130.256 135.947 130.968 136.299C131.68 136.651 132.516 136.827 133.476 136.827C134.34 136.827 135.132 136.675 135.852 136.371C136.572 136.067 137.1 135.571 137.436 134.883L137.484 134.883L137.484 136.563L139.524 136.563Z"/>
<path clip-path="url(#TextBounds)" d="M2.868 137.763L18.876 137.763L18.876 138.963L2.868 138.963L2.868 137.763Z"/>
</g>
<g opacity="1">
<mask height="144" id="StrokeMask" maskUnits="userSpaceOnUse" width="144" x="-1.42109e-14" y="0">
<rect fill="#000000" height="144" stroke="none" width="144" x="-1.42109e-14" y="0"/>
<use fill="#ffffff" fill-rule="evenodd" stroke="none" xlink:href="#Fill"/>
</mask>
<use fill="none" mask="url(#StrokeMask)" stroke="none" stroke-linecap="butt" stroke-linejoin="round" stroke-width="2" xlink:href="#Fill"/>
</g>
</g>
</svg>
