<?xml version="1.0" encoding="UTF-8" standalone="no"?>
<!DOCTYPE svg PUBLIC "-//W3C//DTD SVG 1.1//EN" "http://www.w3.org/Graphics/SVG/1.1/DTD/svg11.dtd">
<!-- Created with Vectornator (http://vectornator.io/) -->
<svg height="100%" stroke-miterlimit="10" style="fill-rule:nonzero;clip-rule:evenodd;stroke-linecap:round;stroke-linejoin:round;" version="1.1" viewBox="0 0 144 144" width="100%" xml:space="preserve" xmlns="http://www.w3.org/2000/svg" xmlns:xlink="http://www.w3.org/1999/xlink">
<defs>
<clipPath id="TextBounds">
<rect height="27.4373" width="144" x="0" y="114.563"/>
</clipPath>
<path d="M12.7163 0L131.284 0C138.307 0 144 5.78672 144 12.925L144 131.075C144 138.213 138.307 144 131.284 144L12.7163 144C5.69329 144-1.42109e-14 138.213-1.42109e-14 131.075L-1.42109e-14 12.925C-1.42109e-14 5.78672 5.69329 0 12.7163 0Z" id="Fill"/>
<clipPath id="TextBounds_2">
<rect height="1" width="0" x="75.7925" y="92.2805"/>
</clipPath>
</defs>
<clipPath id="ArtboardFrame">
<rect height="144" width="144" x="0" y="0"/>
</clipPath>
<g clip-path="url(#ArtboardFrame)" id="Layer-1">
<g fill="#00507d" opacity="1" stroke="none">
<path clip-path="url(#TextBounds)" d="M40.725 138.563L45.525 120.713L41.675 120.713L38.75 133.013L38.7 133.013L35.65 120.713L31.975 120.713L28.875 132.863L28.825 132.863L26 120.713L22.075 120.713L26.8 138.563L30.775 138.563L33.75 126.413L33.8 126.413L36.825 138.563L40.725 138.563Z"/>
<path clip-path="url(#TextBounds)" d="M49.45 123.313L49.45 120.713L47.325 120.713L47.325 123.313L49.45 123.313ZM47.325 125.638L47.325 138.563L49.45 138.563L49.45 125.638L47.325 125.638Z"/>
<path clip-path="url(#TextBounds)" d="M52.75 125.638L52.75 138.563L54.875 138.563L54.875 131.263C54.875 130.679 54.9542 130.142 55.1125 129.65C55.2708 129.159 55.5083 128.729 55.825 128.363C56.1417 127.996 56.5375 127.713 57.0125 127.513C57.4875 127.313 58.05 127.213 58.7 127.213C59.5167 127.213 60.1583 127.446 60.625 127.913C61.0917 128.379 61.325 129.013 61.325 129.813L61.325 138.563L63.45 138.563L63.45 130.063C63.45 129.363 63.3792 128.725 63.2375 128.15C63.0958 127.575 62.85 127.079 62.5 126.663C62.15 126.246 61.6917 125.921 61.125 125.688C60.5583 125.454 59.85 125.338 59 125.338C57.0833 125.338 55.6833 126.121 54.8 127.688L54.75 127.688L54.75 125.638L52.75 125.638Z"/>
<path clip-path="url(#TextBounds)" d="M68.2 132.213C68.2 131.579 68.2667 130.963 68.4 130.363C68.5333 129.763 68.75 129.229 69.05 128.763C69.35 128.296 69.75 127.921 70.25 127.638C70.75 127.354 71.3583 127.213 72.075 127.213C72.8083 127.213 73.4333 127.35 73.95 127.625C74.4667 127.9 74.8875 128.263 75.2125 128.713C75.5375 129.163 75.775 129.684 75.925 130.275C76.075 130.867 76.15 131.479 76.15 132.113C76.15 132.713 76.0792 133.304 75.9375 133.888C75.7958 134.471 75.5667 134.992 75.25 135.45C74.9333 135.909 74.525 136.279 74.025 136.563C73.525 136.846 72.9167 136.988 72.2 136.988C71.5167 136.988 70.9208 136.854 70.4125 136.588C69.9042 136.321 69.4875 135.963 69.1625 135.513C68.8375 135.063 68.5958 134.55 68.4375 133.975C68.2792 133.4 68.2 132.813 68.2 132.213ZM78.2 138.563L78.2 120.713L76.075 120.713L76.075 127.363L76.025 127.363C75.7917 126.979 75.5042 126.659 75.1625 126.4C74.8208 126.142 74.4583 125.934 74.075 125.775C73.6917 125.617 73.3083 125.504 72.925 125.438C72.5417 125.371 72.1833 125.338 71.85 125.338C70.8667 125.338 70.0042 125.517 69.2625 125.875C68.5208 126.234 67.9042 126.717 67.4125 127.325C66.9208 127.934 66.5542 128.646 66.3125 129.463C66.0708 130.279 65.95 131.146 65.95 132.063C65.95 132.979 66.075 133.846 66.325 134.663C66.575 135.479 66.9458 136.196 67.4375 136.813C67.9292 137.429 68.5458 137.921 69.2875 138.288C70.0292 138.654 70.9 138.838 71.9 138.838C72.8 138.838 73.625 138.679 74.375 138.363C75.125 138.046 75.675 137.529 76.025 136.813L76.075 136.813L76.075 138.563L78.2 138.563Z"/>
<path clip-path="url(#TextBounds)" d="M82.775 134.488L80.65 134.488C80.6833 135.288 80.85 135.967 81.15 136.525C81.45 137.084 81.85 137.534 82.35 137.875C82.85 138.217 83.425 138.463 84.075 138.613C84.725 138.763 85.4083 138.838 86.125 138.838C86.775 138.838 87.4292 138.775 88.0875 138.65C88.7458 138.525 89.3375 138.304 89.8625 137.988C90.3875 137.671 90.8125 137.254 91.1375 136.738C91.4625 136.221 91.625 135.571 91.625 134.788C91.625 134.171 91.5042 133.654 91.2625 133.238C91.0208 132.821 90.7042 132.475 90.3125 132.2C89.9208 131.925 89.4708 131.704 88.9625 131.538C88.4542 131.371 87.9333 131.229 87.4 131.113C86.9 130.996 86.4 130.884 85.9 130.775C85.4 130.667 84.95 130.534 84.55 130.375C84.15 130.217 83.8208 130.017 83.5625 129.775C83.3042 129.534 83.175 129.229 83.175 128.863C83.175 128.529 83.2583 128.259 83.425 128.05C83.5917 127.842 83.8083 127.675 84.075 127.55C84.3417 127.425 84.6375 127.338 84.9625 127.288C85.2875 127.238 85.6083 127.213 85.925 127.213C86.275 127.213 86.6208 127.25 86.9625 127.325C87.3042 127.4 87.6167 127.521 87.9 127.688C88.1833 127.854 88.4167 128.075 88.6 128.35C88.7833 128.625 88.8917 128.971 88.925 129.388L91.05 129.388C91 128.604 90.8333 127.95 90.55 127.425C90.2667 126.9 89.8875 126.484 89.4125 126.175C88.9375 125.867 88.3917 125.65 87.775 125.525C87.1583 125.4 86.4833 125.338 85.75 125.338C85.1833 125.338 84.6125 125.409 84.0375 125.55C83.4625 125.692 82.9458 125.909 82.4875 126.2C82.0292 126.492 81.6542 126.871 81.3625 127.338C81.0708 127.804 80.925 128.363 80.925 129.013C80.925 129.846 81.1333 130.496 81.55 130.963C81.9667 131.429 82.4875 131.792 83.1125 132.05C83.7375 132.309 84.4167 132.509 85.15 132.65C85.8833 132.792 86.5625 132.95 87.1875 133.125C87.8125 133.3 88.3333 133.529 88.75 133.813C89.1667 134.096 89.375 134.513 89.375 135.063C89.375 135.463 89.275 135.792 89.075 136.05C88.875 136.309 88.6208 136.504 88.3125 136.638C88.0042 136.771 87.6667 136.863 87.3 136.913C86.9333 136.963 86.5833 136.988 86.25 136.988C85.8167 136.988 85.3958 136.946 84.9875 136.863C84.5792 136.779 84.2125 136.642 83.8875 136.45C83.5625 136.259 83.3 136 83.1 135.675C82.9 135.35 82.7917 134.954 82.775 134.488Z"/>
<path clip-path="url(#TextBounds)" d="M104.675 138.563L104.675 125.638L102.55 125.638L102.55 132.938C102.55 133.521 102.471 134.059 102.313 134.55C102.154 135.042 101.917 135.471 101.6 135.838C101.283 136.204 100.888 136.488 100.413 136.688C99.9375 136.888 99.375 136.988 98.725 136.988C97.9083 136.988 97.2667 136.754 96.8 136.288C96.3333 135.821 96.1 135.188 96.1 134.388L96.1 125.638L93.975 125.638L93.975 134.138C93.975 134.838 94.0458 135.475 94.1875 136.05C94.3292 136.625 94.575 137.121 94.925 137.538C95.275 137.954 95.7333 138.275 96.3 138.5C96.8667 138.725 97.575 138.838 98.425 138.838C99.375 138.838 100.2 138.65 100.9 138.275C101.6 137.9 102.175 137.313 102.625 136.513L102.675 136.513L102.675 138.563L104.675 138.563Z"/>
<path clip-path="url(#TextBounds)" d="M107.8 125.638L107.8 138.563L109.925 138.563L109.925 132.813C109.925 131.979 110.008 131.242 110.175 130.6C110.342 129.959 110.608 129.413 110.975 128.963C111.342 128.513 111.825 128.171 112.425 127.938C113.025 127.704 113.75 127.588 114.6 127.588L114.6 125.338C113.45 125.304 112.5 125.538 111.75 126.038C111 126.538 110.367 127.313 109.85 128.363L109.8 128.363L109.8 125.638L107.8 125.638Z"/>
<path clip-path="url(#TextBounds)" d="M117.075 127.513L117.075 138.563L119.2 138.563L119.2 127.513L121.7 127.513L121.7 125.638L119.2 125.638L119.2 123.838C119.2 123.271 119.342 122.888 119.625 122.688C119.908 122.488 120.308 122.388 120.825 122.388C121.008 122.388 121.208 122.4 121.425 122.425C121.642 122.45 121.842 122.496 122.025 122.563L122.025 120.713C121.825 120.646 121.596 120.596 121.338 120.563C121.079 120.529 120.85 120.513 120.65 120.513C119.483 120.513 118.596 120.784 117.988 121.325C117.379 121.867 117.075 122.663 117.075 123.713L117.075 125.638L114.9 125.638L114.9 127.513L117.075 127.513Z"/>
<path clip-path="url(#TextBounds)" d="M22 139.813L45.6 139.813L45.6 141.063L22 141.063L22 139.813Z"/>
</g>
<g opacity="1">
<mask height="144" id="StrokeMask" maskUnits="userSpaceOnUse" width="144" x="-1.42109e-14" y="0">
<rect fill="#000000" height="144" stroke="none" width="144" x="-1.42109e-14" y="0"/>
<use fill="#ffffff" fill-rule="evenodd" stroke="none" xlink:href="#Fill"/>
</mask>
<use fill="none" mask="url(#StrokeMask)" stroke="none" stroke-linecap="butt" stroke-linejoin="round" stroke-width="2" xlink:href="#Fill"/>
</g>
<g fill="#00507d" opacity="1" stroke="none"/>
<path d="M106.372 44.9732C103.301 44.9732 100.812 47.4624 100.812 50.5331C100.812 53.6037 103.301 56.0929 106.372 56.0929C109.442 56.0929 111.932 53.6037 111.932 50.5331C111.932 47.4624 109.442 44.9732 106.372 44.9732ZM105.538 59.1508C103.036 58.3168 100.256 59.9848 99.1439 62.4867L94.418 74.9964C93.306 77.4983 94.696 80.2782 97.1979 81.1122C98.5879 81.3902 99.6999 81.3902 100.812 80.5562C101.924 80.0002 103.036 78.8883 103.314 77.7763L108.04 65.2667C109.43 62.4867 108.04 59.7068 105.538 59.1508ZM111.932 94.7338C111.098 95.0118 110.264 95.2898 109.152 95.2898C106.928 95.2898 103.314 94.7338 100.812 92.7879C98.3099 94.7338 94.696 95.2898 92.4721 95.2898C90.2481 95.2898 86.6342 94.7338 84.1323 92.7879C81.6304 94.7338 78.0165 95.2898 75.7925 95.2898C73.5686 95.2898 69.9547 94.7338 67.4527 92.7879C64.9508 94.7338 61.3369 95.2898 59.113 95.2898C56.889 95.2898 53.2751 94.7338 50.7732 92.7879C48.2713 94.7338 44.6574 95.2898 42.4334 95.2898C41.3215 95.2898 40.4875 95.2898 39.6535 95.0118L39.6535 100.016C40.4875 100.016 41.3215 100.294 42.4334 100.294C47.1593 100.294 49.1053 99.1817 50.7732 97.7917C53.2751 99.7377 56.889 100.294 59.113 100.294C61.3369 100.294 64.9508 99.7377 67.4527 97.7917C69.9547 99.7377 73.5686 100.294 75.7925 100.294C78.0165 100.294 81.6304 99.7377 84.1323 97.7917C86.6342 99.7377 90.2481 100.294 92.4721 100.294C94.696 100.294 98.3099 99.7377 100.812 97.7917C103.314 99.7377 106.928 100.294 109.152 100.294C110.264 100.294 111.098 100.016 111.932 99.7377L111.932 94.7338ZM70.5107 89.452C79.4064 50.5331 89.6921 28.2937 89.6921 28.2937C89.6921 28.2937 50.2172 34.1315 39.6535 76.1084L70.5107 89.452Z" fill="#000000" fill-rule="nonzero" opacity="1" stroke="none"/>
<path d="M98.0319 78.3323L88.3022 78.3323L78.5724 86.6721M103.592 61.6528L93.862 61.6528L86.9122 56.0929" fill="none" opacity="1" stroke="#000000" stroke-linecap="round" stroke-linejoin="round" stroke-width="6"/>
</g>
</svg>
