<?xml version="1.0" encoding="UTF-8" standalone="no"?>
<!DOCTYPE svg PUBLIC "-//W3C//DTD SVG 1.1//EN" "http://www.w3.org/Graphics/SVG/1.1/DTD/svg11.dtd">
<!-- Created with Vectornator (http://vectornator.io/) -->
<svg stroke-miterlimit="10" style="fill-rule:nonzero;clip-rule:evenodd;stroke-linecap:round;stroke-linejoin:round;" version="1.1" viewBox="0 0 144 144" xml:space="preserve" xmlns="http://www.w3.org/2000/svg" xmlns:xlink="http://www.w3.org/1999/xlink">
<defs>
<clipPath id="TextBounds">
<rect height="27.4373" width="144" x="0" y="113.563"/>
</clipPath>
<path d="M12.7163 0L131.284 0C138.307 0 144 5.78672 144 12.925L144 131.075C144 138.213 138.307 144 131.284 144L12.7163 144C5.69329 144-1.42109e-14 138.213-1.42109e-14 131.075L-1.42109e-14 12.925C-1.42109e-14 5.78672 5.69329 0 12.7163 0Z" id="Fill"/>
<clipPath id="TextBounds_2">
<rect height="1" width="0" x="75.7925" y="92.2805"/>
</clipPath>
</defs>
<clipPath id="ArtboardFrame">
<rect height="144" width="144" x="0" y="0"/>
</clipPath>
<g clip-path="url(#ArtboardFrame)" id="Layer-1">
<g fill="#00507d" opacity="1" stroke="none">
<path clip-path="url(#TextBounds)" d="M42.825 137.563L47.625 119.713L43.775 119.713L40.85 132.013L40.8 132.013L37.75 119.713L34.075 119.713L30.975 131.863L30.925 131.863L28.1 119.713L24.175 119.713L28.9 137.563L32.875 137.563L35.85 125.413L35.9 125.413L38.925 137.563L42.825 137.563Z"/>
<path clip-path="url(#TextBounds)" d="M49.225 119.713L49.225 122.238L50.8 122.238L50.8 119.713L49.225 119.713ZM49.225 124.663L49.225 137.563L50.8 137.563L50.8 124.663L49.225 124.663Z"/>
<path clip-path="url(#TextBounds)" d="M53.8 124.663L53.8 137.563L55.375 137.563L55.375 130.038C55.3917 129.404 55.4958 128.817 55.6875 128.275C55.8792 127.734 56.1458 127.267 56.4875 126.875C56.8292 126.484 57.2458 126.175 57.7375 125.95C58.2292 125.725 58.7917 125.613 59.425 125.613C60.0583 125.613 60.5875 125.713 61.0125 125.913C61.4375 126.113 61.775 126.388 62.025 126.738C62.275 127.088 62.45 127.5 62.55 127.975C62.65 128.45 62.7 128.963 62.7 129.513L62.7 137.563L64.275 137.563L64.275 129.263C64.275 128.496 64.2 127.804 64.05 127.188C63.9 126.571 63.6417 126.05 63.275 125.625C62.9083 125.2 62.4208 124.871 61.8125 124.638C61.2042 124.404 60.45 124.288 59.55 124.288C58.6333 124.288 57.7917 124.525 57.025 125C56.2583 125.475 55.725 126.104 55.425 126.888L55.375 126.888L55.375 124.663L53.8 124.663Z"/>
<path clip-path="url(#TextBounds)" d="M78.6 137.563L78.6 119.713L77.025 119.713L77.025 127.113L76.975 127.113C76.8083 126.646 76.5708 126.238 76.2625 125.888C75.9542 125.538 75.6 125.242 75.2 125C74.8 124.759 74.3708 124.579 73.9125 124.463C73.4542 124.346 72.9833 124.288 72.5 124.288C71.5167 124.288 70.6625 124.471 69.9375 124.838C69.2125 125.204 68.6083 125.7 68.125 126.325C67.6417 126.95 67.2833 127.675 67.05 128.5C66.8167 129.325 66.7 130.196 66.7 131.113C66.7 132.029 66.8167 132.9 67.05 133.725C67.2833 134.55 67.6417 135.275 68.125 135.9C68.6083 136.525 69.2125 137.017 69.9375 137.375C70.6625 137.734 71.5167 137.913 72.5 137.913C72.9667 137.913 73.4375 137.846 73.9125 137.713C74.3875 137.579 74.8333 137.392 75.25 137.15C75.6667 136.909 76.0375 136.613 76.3625 136.263C76.6875 135.913 76.9333 135.529 77.1 135.113L77.15 135.113L77.15 137.563L78.6 137.563ZM68.275 131.113C68.275 130.446 68.3542 129.784 68.5125 129.125C68.6708 128.467 68.9208 127.879 69.2625 127.363C69.6042 126.846 70.0417 126.425 70.575 126.1C71.1083 125.775 71.75 125.613 72.5 125.613C73.3333 125.613 74.0375 125.775 74.6125 126.1C75.1875 126.425 75.6542 126.846 76.0125 127.363C76.3708 127.879 76.6292 128.467 76.7875 129.125C76.9458 129.784 77.025 130.446 77.025 131.113C77.025 131.779 76.9458 132.442 76.7875 133.1C76.6292 133.759 76.3708 134.346 76.0125 134.863C75.6542 135.379 75.1875 135.8 74.6125 136.125C74.0375 136.45 73.3333 136.613 72.5 136.613C71.75 136.613 71.1083 136.45 70.575 136.125C70.0417 135.8 69.6042 135.379 69.2625 134.863C68.9208 134.346 68.6708 133.759 68.5125 133.1C68.3542 132.442 68.275 131.779 68.275 131.113Z"/>
<path clip-path="url(#TextBounds)" d="M89.325 128.438L90.9 128.438C90.8667 127.738 90.725 127.129 90.475 126.613C90.225 126.096 89.8875 125.663 89.4625 125.313C89.0375 124.963 88.5458 124.704 87.9875 124.538C87.4292 124.371 86.825 124.288 86.175 124.288C85.6083 124.288 85.0375 124.354 84.4625 124.488C83.8875 124.621 83.3667 124.829 82.9 125.113C82.4333 125.396 82.0542 125.771 81.7625 126.238C81.4708 126.704 81.325 127.263 81.325 127.913C81.325 128.463 81.4167 128.925 81.6 129.3C81.7833 129.675 82.0375 129.992 82.3625 130.25C82.6875 130.509 83.0667 130.725 83.5 130.9C83.9333 131.075 84.4083 131.229 84.925 131.363L86.95 131.813C87.3 131.896 87.6458 131.996 87.9875 132.113C88.3292 132.229 88.6333 132.375 88.9 132.55C89.1667 132.725 89.3792 132.942 89.5375 133.2C89.6958 133.459 89.775 133.779 89.775 134.163C89.775 134.613 89.6625 134.992 89.4375 135.3C89.2125 135.609 88.925 135.863 88.575 136.063C88.225 136.263 87.8458 136.404 87.4375 136.488C87.0292 136.571 86.6333 136.613 86.25 136.613C85.2 136.613 84.3208 136.342 83.6125 135.8C82.9042 135.259 82.5167 134.454 82.45 133.388L80.875 133.388C81.0083 134.971 81.5458 136.121 82.4875 136.838C83.4292 137.554 84.6583 137.913 86.175 137.913C86.775 137.913 87.3833 137.846 88 137.713C88.6167 137.579 89.1708 137.359 89.6625 137.05C90.1542 136.742 90.5583 136.342 90.875 135.85C91.1917 135.359 91.35 134.763 91.35 134.063C91.35 133.496 91.2417 133.004 91.025 132.588C90.8083 132.171 90.5292 131.821 90.1875 131.538C89.8458 131.254 89.4542 131.025 89.0125 130.85C88.5708 130.675 88.125 130.554 87.675 130.488L85.575 130.013C85.3083 129.946 85.0167 129.859 84.7 129.75C84.3833 129.642 84.0917 129.504 83.825 129.338C83.5583 129.171 83.3375 128.967 83.1625 128.725C82.9875 128.484 82.9 128.188 82.9 127.838C82.9 127.421 82.9917 127.071 83.175 126.788C83.3583 126.504 83.6 126.275 83.9 126.1C84.2 125.925 84.5292 125.8 84.8875 125.725C85.2458 125.65 85.6 125.613 85.95 125.613C86.4 125.613 86.825 125.667 87.225 125.775C87.625 125.884 87.9792 126.054 88.2875 126.288C88.5958 126.521 88.8417 126.817 89.025 127.175C89.2083 127.534 89.3083 127.954 89.325 128.438Z"/>
<path clip-path="url(#TextBounds)" d="M104.075 137.563L104.075 124.663L102.5 124.663L102.5 131.438C102.5 132.088 102.425 132.725 102.275 133.35C102.125 133.975 101.892 134.529 101.575 135.013C101.258 135.496 100.858 135.884 100.375 136.175C99.8917 136.467 99.3083 136.613 98.625 136.613C97.375 136.613 96.4958 136.313 95.9875 135.713C95.4792 135.113 95.2083 134.229 95.175 133.063L95.175 124.663L93.6 124.663L93.6 133.038C93.6 133.804 93.6833 134.488 93.85 135.088C94.0167 135.688 94.2792 136.196 94.6375 136.613C94.9958 137.029 95.4625 137.35 96.0375 137.575C96.6125 137.8 97.3083 137.913 98.125 137.913C99.0917 137.913 99.9708 137.684 100.763 137.225C101.554 136.767 102.158 136.104 102.575 135.238L102.625 135.238L102.625 137.563L104.075 137.563Z"/>
<path clip-path="url(#TextBounds)" d="M107.05 124.663L107.05 137.563L108.625 137.563L108.625 130.688C108.625 130.004 108.742 129.375 108.975 128.8C109.208 128.225 109.537 127.729 109.963 127.313C110.388 126.896 110.892 126.575 111.475 126.35C112.058 126.125 112.708 126.029 113.425 126.063L113.425 124.488C112.258 124.438 111.254 124.696 110.413 125.263C109.571 125.829 108.95 126.638 108.55 127.688L108.5 127.688L108.5 124.663L107.05 124.663Z"/>
<path clip-path="url(#TextBounds)" d="M119.9 125.988L119.9 124.663L117.35 124.663L117.35 123.538C117.35 123.188 117.358 122.863 117.375 122.563C117.392 122.263 117.454 122 117.563 121.775C117.671 121.55 117.842 121.371 118.075 121.238C118.308 121.104 118.642 121.038 119.075 121.038C119.258 121.038 119.442 121.05 119.625 121.075C119.808 121.1 120.008 121.129 120.225 121.163L120.225 119.813C119.975 119.779 119.75 119.754 119.55 119.738C119.35 119.721 119.133 119.713 118.9 119.713C118.267 119.713 117.746 119.804 117.338 119.988C116.929 120.171 116.608 120.429 116.375 120.763C116.142 121.096 115.983 121.496 115.9 121.963C115.817 122.429 115.775 122.938 115.775 123.488L115.775 124.663L113.575 124.663L113.575 125.988L115.775 125.988L115.775 137.563L117.35 137.563L117.35 125.988L119.9 125.988Z"/>
<path clip-path="url(#TextBounds)" d="M24.1 138.813L47.7 138.813L47.7 140.063L24.1 140.063L24.1 138.813Z"/>
</g>
<g opacity="1">
<mask height="144" id="StrokeMask" maskUnits="userSpaceOnUse" width="144" x="-1.42109e-14" y="0">
<rect fill="#000000" height="144" stroke="none" width="144" x="-1.42109e-14" y="0"/>
<use fill="#ffffff" fill-rule="evenodd" stroke="none" xlink:href="#Fill"/>
</mask>
</g>
<g fill="#00507d" opacity="1" stroke="none"/>
<path d="M106.372 44.9732C103.301 44.9732 100.812 47.4624 100.812 50.5331C100.812 53.6037 103.301 56.0929 106.372 56.0929C109.442 56.0929 111.932 53.6037 111.932 50.5331C111.932 47.4624 109.442 44.9732 106.372 44.9732ZM105.538 59.1508C103.036 58.3168 100.256 59.9848 99.1439 62.4867L94.418 74.9964C93.306 77.4983 94.696 80.2782 97.1979 81.1122C98.5879 81.3902 99.6999 81.3902 100.812 80.5562C101.924 80.0002 103.036 78.8883 103.314 77.7763L108.04 65.2667C109.43 62.4867 108.04 59.7068 105.538 59.1508ZM111.932 94.7338C111.098 95.0118 110.264 95.2898 109.152 95.2898C106.928 95.2898 103.314 94.7338 100.812 92.7879C98.3099 94.7338 94.696 95.2898 92.4721 95.2898C90.2481 95.2898 86.6342 94.7338 84.1323 92.7879C81.6304 94.7338 78.0165 95.2898 75.7925 95.2898C73.5686 95.2898 69.9547 94.7338 67.4527 92.7879C64.9508 94.7338 61.3369 95.2898 59.113 95.2898C56.889 95.2898 53.2751 94.7338 50.7732 92.7879C48.2713 94.7338 44.6574 95.2898 42.4334 95.2898C41.3215 95.2898 40.4875 95.2898 39.6535 95.0118L39.6535 100.016C40.4875 100.016 41.3215 100.294 42.4334 100.294C47.1593 100.294 49.1053 99.1817 50.7732 97.7917C53.2751 99.7377 56.889 100.294 59.113 100.294C61.3369 100.294 64.9508 99.7377 67.4527 97.7917C69.9547 99.7377 73.5686 100.294 75.7925 100.294C78.0165 100.294 81.6304 99.7377 84.1323 97.7917C86.6342 99.7377 90.2481 100.294 92.4721 100.294C94.696 100.294 98.3099 99.7377 100.812 97.7917C103.314 99.7377 106.928 100.294 109.152 100.294C110.264 100.294 111.098 100.016 111.932 99.7377L111.932 94.7338ZM70.5107 89.452C79.4064 50.5331 89.6921 28.2937 89.6921 28.2937C89.6921 28.2937 50.2172 34.1315 39.6535 76.1084L70.5107 89.452Z" fill="#000000" fill-rule="nonzero" opacity="1" stroke="none"/>
<path d="M98.0319 78.3323L88.3022 78.3323L78.5724 86.6721M103.592 61.6528L93.862 61.6528L86.9122 56.0929" fill="none" opacity="1" stroke="#000000" stroke-linecap="round" stroke-linejoin="round" stroke-width="6"/>
</g>
</svg>
